/* XPM */
static char *_b33dddb8cb34c15c6b2cc25dfca0196L6WVqN6Xng800p90[] = {
/* columns rows colors chars-per-pixel */
"64 56 212 2 ",
"   c #291F1C",
".  c #3A2C0D",
"X  c #3F2502",
"o  c #292114",
"O  c #3B2615",
"+  c #36261A",
"@  c #3C251C",
"#  c #342A1D",
"$  c #3C2A1D",
"%  c #382D17",
"&  c #1D232E",
"*  c #1D2B3D",
"=  c #1E2534",
"-  c #252A2D",
";  c #2B2828",
":  c #362B25",
">  c #3B2B23",
",  c #31262E",
"<  c #352621",
"1  c #222434",
"2  c #252B34",
"3  c #2A2D35",
"4  c #25263D",
"5  c #252B3C",
"6  c #2A2C3C",
"7  c #2B2739",
"8  c #302833",
"9  c #322539",
"0  c #312732",
"q  c #2C3136",
"w  c #2B313B",
"e  c #35383F",
"r  c #472C0D",
"t  c #42220B",
"y  c #402619",
"u  c #442B1B",
"i  c #442713",
"p  c #413015",
"a  c #673D05",
"s  c #1D2D43",
"d  c #1B2C49",
"f  c #242745",
"g  c #242B43",
"h  c #292B44",
"j  c #252748",
"k  c #2A2D4B",
"l  c #253243",
"z  c #2B3143",
"x  c #24334C",
"c  c #2A324B",
"v  c #303243",
"b  c #363F49",
"n  c #343848",
"m  c #332A45",
"M  c #444655",
"N  c #444559",
"B  c #FDA514",
"V  c #FDA31D",
"C  c #F4AB1D",
"Z  c #FEAB1C",
"A  c #FFA813",
"S  c #D99736",
"D  c #DEAA3A",
"F  c #EEA62A",
"G  c #FEA523",
"H  c #FFAC21",
"J  c #F7A52B",
"K  c #FCA52A",
"L  c #F4AA2C",
"P  c #FEAB29",
"I  c #F2A924",
"U  c #EDA636",
"Y  c #E1AE38",
"T  c #F3A632",
"R  c #F3AB34",
"E  c #F3A43C",
"W  c #FFAF3A",
"Q  c #FEB135",
"!  c #FDB43D",
"~  c #F5B43E",
"^  c #FFC83F",
"/  c #DBA14D",
"(  c #DDA745",
")  c #DDAC5C",
"_  c #DDA552",
"`  c #DBB65C",
"'  c #D7B25A",
"]  c #EDA844",
"[  c #E6AB4E",
"{  c #EBA94B",
"}  c #E8A347",
"|  c #F4AC4A",
" . c #E5B14B",
".. c #FBB142",
"X. c #E3A954",
"o. c #E2AB5D",
"O. c #E5A754",
"+. c #F1AA50",
"@. c #E5B45E",
"#. c #EBB45B",
"$. c #E6B154",
"%. c #D4A86B",
"&. c #CDAA76",
"*. c #D8AF77",
"=. c #D7B876",
"-. c #E2AE61",
";. c #E1AB6D",
":. c #E5B36E",
">. c #FBC74B",
",. c #FBC65B",
"<. c #F1CA65",
"1. c #F3CA6E",
"2. c #E5CB7F",
"3. c #E8C17E",
"4. c #F0C672",
"5. c #E7C86E",
"6. c #8D8B8E",
"7. c #85908C",
"8. c #9B9C8E",
"9. c #979D8F",
"0. c #838794",
"q. c #8B8C90",
"w. c #819191",
"e. c #8E9796",
"r. c #8E9A95",
"t. c #8D9B9B",
"y. c #8D9799",
"u. c #9A9595",
"i. c #959C95",
"p. c #9A9D94",
"a. c #93969C",
"s. c #969C9A",
"d. c #9A9C9B",
"f. c #929697",
"g. c #A19D96",
"h. c #A49C9A",
"j. c #97A08F",
"k. c #95A094",
"l. c #9AA195",
"z. c #96A19D",
"x. c #9BA29C",
"c. c #A0A096",
"v. c #8D9AA4",
"b. c #8E99A4",
"n. c #9397A1",
"m. c #959BA3",
"M. c #999CA3",
"N. c #949BA9",
"B. c #989CA8",
"V. c #A09BA1",
"C. c #94A1A3",
"Z. c #9BA2A3",
"A. c #93A1A8",
"S. c #9DA5AB",
"D. c #9EA9AC",
"F. c #A3A6A5",
"G. c #A0A8AA",
"H. c #A7A9B8",
"J. c #DAB487",
"K. c #DAC497",
"L. c #DEC79E",
"P. c #DBC999",
"I. c #ECCA89",
"U. c #E5C588",
"Y. c #E5C89E",
"T. c #C9C2AF",
"R. c #D9C8A8",
"E. c #CECCBD",
"W. c #D3CCBA",
"Q. c #DCC1B0",
"!. c #E3C4A0",
"~. c #E2CBA3",
"^. c #EFDBBA",
"/. c #FFD9B3",
"(. c #F6D9AD",
"). c #BFCBC1",
"_. c #C4CBC5",
"`. c #CBCCC4",
"'. c #C6CCCD",
"]. c #CACDCB",
"[. c #C8C5CE",
"{. c #D4CCC2",
"}. c #D3CECA",
"|. c #DBCBC8",
" X c #CBD2CC",
".X c #C8D1C6",
"XX c #D8D0C5",
"oX c #C5CAD4",
"OX c #CACCD4",
"+X c #C6CCDA",
"@X c #CBCDDA",
"#X c #C4C6D5",
"$X c #D5CBD2",
"%X c #D2CFDA",
"&X c #CCD3D5",
"*X c #CCD0DB",
"=X c #C7D1D2",
"-X c #E7DFDD",
";X c #EFE1D8",
":X c #F5E5D9",
">X c #C8CEE0",
",X c #D8DCE1",
"<X c #E5DDE3",
"1X c #EADFE7",
"2X c #DFE2E9",
"3X c #E4E4EC",
"4X c #E5E1E3",
"5X c #FDE5E1",
"6X c #F3E8EE",
"7X c #E5E4F3",
"8X c #ECE9F3",
"9X c #E8E6F2",
/* pixels */
"s.s.s.s.s.s.s.s.s.s.s.s.s.s.s.s.s.s.s.s.s.s.s.s.s.s.s.s.s.s.s.s.s.s.s.s.s.s.s.s.s.s.s.s.s.s.s.s.s.s.s.s.s.s.s.s.s.s.s.s.s.s.s.s.",
"s.s.s.s.s.s.s.s.s.s.s.s.s.s.s.s.s.s.s.s.s.s.s.s.s.s.s.s.s.s.s.s.s.s.s.s.s.s.s.s.s.s.s.s.s.s.s.s.s.s.s.s.s.s.s.s.s.s.s.s.p.s.s.s.",
"s.s.s.s.s.s.s.s.s.s.s.s.s.s.s.s.s.s.s.s.s.s.s.s.s.s.s.s.s.s.s.s.s.s.s.s.s.s.s.p.s.s.s.s.s.s.s.s.s.s.s.s.s.s.s.s.s.s.s.s.s.s.s.s.",
"s.s.s.s.s.s.s.s.s.s.s.s.s.s.s.s.s.s.s.s.s.s.s.s.s.s.s.s.s.s.s.s.s.s.s.s.s.s.s.s.s.s.s.s.s.s.s.s.s.s.s.s.s.s.s.s.s.s.s.s.s.s.s.s.",
"s.s.s.s.s.s.s.s.s.s.s.s.s.s.s.s.s.s.s.s.s.s.s.s.s.s.s.s.s.s.s.s.s.s.s.s.s.s.s.s.s.s.s.s.s.s.s.s.s.s.s.s.s.s.s.s.s.s.s.s.s.s.s.s.",
"s.s.s.s.s.s.s.s.s.s.s.s.s.s.s.s.s.s.s.s.s.s.s.s.s.s.s.s.s.s.s.s.s.s.s.s.s.s.s.s.s.s.i.s.s.s.s.s.s.s.s.s.l.s.s.s.s.s.s.s.s.s.s.s.",
"s.s.s.s.s.s.s.s.s.s.s.s.s.s.s.s.s.s.s.s.s.s.s.s.s.s.s.s.s.s.l.s.s.s.s.s.s.s.s.s.s.s.s.s.s.s.s.s.s.s.s.s.s.s.s.s.s.s.s.s.s.s.s.s.",
"s.s.s.s.s.s.s.s.s.s.s.s.s.p.s.s.s.l.s.s.s.s.s.s.s.s.s.s.s.s.s.s.s.s.s.s.s.s.s.s.s.s.s.s.s.s.s.s.s.s.s.s.s.s.s.s.s.s.s.s.s.s.s.s.",
"s.s.s.s.s.s.s.s.s.s.s.s.s.s.s.s.s.s.s.s.s.s.s.s.s.s.s.s.s.s.s.s.s.s.s.s.s.s.s.s.s.s.s.s.s.s.s.s.s.s.s.s.s.s.s.s.s.p.s.s.s.s.s.s.",
"s.s.s.s.s.s.s.s.s.s.s.s.s.s.s.s.s.s.s.s.s.s.s.s.s.s.s.s.s.s.s.s.s.s.s.s.s.i.s.s.s.s.s.s.s.s.s.s.s.s.s.s.s.s.s.s.s.s.s.s.s.s.s.s.",
"s.l.s.s.s.s.s.s.l.s.s.s.s.s.s.s.s.s.s.s.s.s.s.s.s.s.s.s.s.s.s.s.s.s.s.p.s.s.s.s.s.s.s.s.s.s.s.s.s.s.s.s.s.s.s.s.s.s.s.s.s.s.s.s.",
"s.s.s.s.s.s.s.s.s.s.s.s.s.s.s.s.s.s.s.s.s.s.s.s.s.s.s.s.s.s.s.s.s.s.s.s.s.s.s.s.s.s.s.s.s.s.s.s.s.s.s.s.p.s.s.s.s.s.s.s.s.s.s.s.",
"s.s.s.s.s.s.s.s.s.s.s.s.s.s.s.s.s.s.s.s.s.s.s.s.s.s.s.s.s.s.s.s.s.s.s.s.s.s.s.s.s.s.s.s.s.s.s.s.s.s.s.s.s.s.s.s.s.s.s.s.l.s.s.s.",
"s.s.s.s.s.s.p.s.s.s.s.s.s.s.s.s.s.s.s.s.s.s.s.s.s.s.s.s.s.s.s.s.s.s.s.s.s.s.s.s.s.s.s.s.s.s.s.s.s.s.s.s.s.s.s.s.s.s.s.s.s.s.s.s.",
"s.s.s.s.s.s.s.s.s.s.s.s.s.s.s.s.s.s.s.s.s.s.s.s.s.s.s.s.s.s.s.s.s.d.s.s.s.s.s.s.s.s.s.s.l.s.s.s.s.s.s.s.s.s.s.s.s.s.s.s.s.s.s.s.",
"s.s.s.s.s.s.s.s.s.s.s.s.s.s.s.s.i.s.m.s.s.i.s.s.m.m.m.m.s.m.s.s.d.s.m.s.m.m.m.m.s.s.s.s.s.s.s.d.s.s.s.s.s.s.s.s.s.s.s.s.s.s.s.s.",
"s.s.s.s.s.s.s.s.s.s.s.s.s.s.s.s.i.s.v.v.x.p.i.N.l s g g 2 2 3 6 6 5 2 5 h h l * N.i.p.c.n.n.p.9.p.s.s.s.s.s.s.s.s.s.s.s.s.s.s.s.",
"s.s.s.s.s.s.s.s.l.s.s.s.s.s.s.k.l.s.v.v.l.p.t.v.* * g g 5 * 5 g h l * * h h h w v.s.8.l.n.n.d.p.s.s.s.s.s.s.s.s.s.s.s.s.s.s.s.s.",
"s.s.s.s.s.s.s.s.s.s.s.s.s.s.s.i.i.r.v.A.i.l.A.m.; : , 0 q 5 g f f f g 5 7 0 ; ; A.A.k.s.N.v.i.i.s.s.s.s.s.s.s.s.s.s.s.s.s.s.s.s.",
"s.s.s.s.s.s.s.s.s.s.s.s.s.s.s.s.r.i.C.D.7.r.C.d.. t t $ q w c c k c l 3 > O . % A.v.y.7.G.A.f.9.p.s.s.s.s.s.s.s.p.s.s.s.s.s.s.s.",
"s.s.s.s.s.s.s.s.s.s.s.s.s.s.s.s.Z.d.u.6.b q 3 + *.o.;.J.T._.oX#X#X#X'.E.L.U.2.P.; 5 w b q.d.d.M.s.s.s.s.s.s.s.s.s.s.s.s.s.s.s.s.",
"s.s.s.s.s.s.s.s.s.s.s.s.s.s.s.s.m.d.h.u.q - 2 O o.] { :.R.`.}.].&X X XR.I.<.<.2.# 5 = w s.d.M.d.s.s.s.s.s.s.s.s.s.s.s.s.s.s.s.l.",
"s.s.s.s.s.s.s.s.s.s.s.s.s.s.s.s.s.r.g.g.5 * l $ [ K E #.K.W.{.{..XW.W.L.4.,.>.5.: k s l s.l.f.s.s.s.s.s.s.s.s.s.s.s.s.s.s.s.s.s.",
"s.s.s.s.s.s.p.s.s.s.s.s.s.s.s.s.C.t.p.x.* s h O { V K ..3.P.!.Y.~.~.R.I.,.>.>.<.+ x d s C.i.i.z.s.s.s.s.s.s.s.s.s.s.s.s.s.s.s.s.",
"s.s.s.s.s.s.s.s.s.s.s.s.s.s.s.k.z.t.p.d.* d k O | V V K [ @.o.) ' $.-.[ L C C  .O m d s m.k.t.C.s.s.s.s.s.s.s.s.s.s.s.s.s.s.s.s.",
"s.s.s.s.s.s.s.s.s.s.s.s.s.s.s.s.t.r.g.d.* d l u } V V G T U T R R U U U P Z C ( u m j g m.l.a.a.s.s.s.s.s.s.s.s.s.s.s.s.s.s.s.s.",
"s.s.s.s.s.s.s.s.s.s.s.p.s.s.s.s.s.d.h.u.z * 6 O o...W K P V B Z Z B V P J Q ~ ) y 9 4 l a.d.d.s.s.s.s.s.s.s.s.s.s.s.s.s.s.s.s.s.",
"s.s.s.s.s.s.s.s.s.s.s.s.s.s.s.s.Z.d.g.q.b l 6 < &.-./ S ! H B B A A H ! S / ) &.@ 9 6 b 6.d.M.Z.s.s.s.s.s.s.s.s.s.s.s.s.s.s.s.s.",
"s.s.s.s.s.s.s.s.s.s.s.s.s.s.s.s.f.9.d.G.w.t.B.M.< u r a S T K K P J L S a r . > V.B.t.7.D.z.r.r.k.s.s.s.s.s.s.l.s.s.s.s.s.p.s.s.",
"s.s.s.s.s.s.s.s.s.s.s.s.s.s.s.s.i.i.s.m.r.C.m.B.2 1 ; p / ..T J J J ~ / r   2 2 B.m.C.t.z.t.i.i.s.s.s.s.s.s.s.s.s.s.s.s.s.s.s.s.",
"s.s.s.s.s.s.s.s.s.s.s.s.s.s.s.s.p.d.a.a.k.j.u.a.l x 2 p O.W K K V G Q X.u 5 c x m.i.k.k.i.n.k.k.s.s.s.s.s.s.s.s.s.s.s.s.s.s.s.s.",
"l.s.s.s.s.s.s.s.s.s.s.s.s.s.s.p.f.d.M.a.l.j.8.h.* x g : %.O.} +.{ } [ %.> 5 x s d.i.j.l.y.n.k.i.s.s.s.s.s.s.s.s.s.s.s.s.s.s.s.s.",
"p.s.s.s.s.s.s.s.s.s.s.s.s.s.s.s.s.s.M.d.i.p.p.s.z.A.a.F.  > @ @ $ + $ o F.t.Z.z.s.k.9.k.s.s.s.i.s.s.s.s.s.s.s.s.s.s.s.s.s.s.s.s.",
"s.s.s.s.s.s.s.s.s.s.s.s.s.s.s.s.s.s.s.s.s.i.i.i.l.e.e.S.1 k k f g h c = Z.r.r.z.i.k.i.i.s.s.z.s.s.s.s.s.s.s.s.s.s.s.s.s.s.s.s.s.",
"s.s.s.s.s.s.s.s.s.s.s.s.s.s.s.s.s.s.s.s.i.s.i.s.i.y.M.m.1 1 3 6 4 6 = 1 m.A.r.t.s.s.t.z.s.m.t.s.s.s.s.s.k.s.s.s.s.s.s.s.s.s.s.s.",
"s.s.s.s.s.s.s.s.s.s.s.s.s.s.s.d.d.d.s.p.s.s.s.s.S.S.d.0.M e 3 1 2 5 h M 0.m.S.D.C.v.s.s.m.s.m.s.s.s.s.s.s.s.s.s.s.s.s.s.s.s.s.s.",
"s.s.s.s.s.s.s.s.s.s.s.s.s.s.s.p.d.d.u.s.s.s.m.m.& 4 1 N H.+XoX*X@XOXOXH.N 1 1 & m.z.t.k.i.s.i.p.s.s.s.s.s.s.s.s.s.s.s.s.s.s.s.s.",
"s.s.s.s.s.s.s.s.s.s.s.s.s.s.s.s.a.d.u.s.s.m.N.m.6 v 1 v oX,XoX=XOX'.,XOXv 1 z w N.s.z.t.i.i.i.s.s.s.s.s.s.s.s.s.s.s.s.s.s.s.s.s.",
"s.s.s.s.s.s.s.s.s.s.s.s.s.s.s.s.u.d.d.s.m.n.m.m.2 3 6 2 .X_._..X X_.].].3 3 w 2 m.v.N.C.s.s.s.s.s.s.s.s.s.s.s.s.s.s.s.s.s.s.s.s.",
"s.s.s.s.s.s.s.s.s.s.s.s.s.s.s.s.d.d.s.s.m.m.N.M.- - - -  X.X.X.X].`.].].; 7 1 3 m.N.N.N.m.s.m.s.s.s.s.s.s.s.s.s.l.s.s.s.s.s.s.s.",
"s.s.s.s.s.s.s.s.s.s.s.s.s.s.s.s.s.d.s.s.6 5 5 5 +XOX*X*X]. X*X@X3X8X3X4X9X7X7X7X5 6 5 g a.z.s.s.s.s.s.s.s.s.s.s.s.s.s.s.s.s.s.s.",
"s.s.s.s.s.s.s.s.s.s.s.s.s.s.s.s.s.s.s.a.h g 6 5 *X+X@X@X]._.OX[.<X3X;X4X7X7X1X7X5 g g h a.i.s.s.s.l.s.s.s.s.s.s.s.s.s.s.s.s.s.s.",
"s.s.s.s.s.s.s.s.s.s.s.s.s.s.s.s.s.s.k.t.h f g g @X#X%X%X}.{.|.|.5X5X:X:X6X8X9X9X3 h 5 h f.i.i.i.s.s.s.s.s.s.s.s.s.s.s.s.s.s.s.s.",
"s.s.s.s.s.s.s.p.s.s.s.s.s.s.s.s.a.s.s.v.k j g 5 +XoX%X}.R.L.!.!././.(.^.;X;X2X2X6 6 f 6 s.i.i.p.s.s.s.s.s.s.s.s.s.s.s.s.s.s.s.s.",
"s.s.s.s.s.s.s.s.s.s.s.s.s.s.s.d.m.s.s.a.h f g 2 =X`.W.R.=.' $.[ $.#.` =.~.XX}.&X2 g f k a.d.n.m.s.s.s.s.s.s.s.s.s.s.s.s.s.s.s.s.",
"l.s.s.s.s.s.s.s.s.s.s.s.s.s.s.m.m.d.s.a.l f l 2 OX`.W.P.` Y R I F F D ' P.W._.oX5 g j h n.d.m.m.d.s.s.s.s.p.s.s.s.s.s.s.s.s.s.s.",
"s.s.s.s.s.s.s.s.s.s.s.s.s.s.s.s.a.d.p.i.g f l g +XOX|.Y.@.R P G H P R @.!.|.OX+Xg g g h i.s.d.a.s.s.s.s.s.s.s.s.s.s.s.s.s.s.s.s.",
"s.s.s.s.s.s.s.s.s.s.s.s.s.s.s.s.a.s.s.i.6 g l 5 @XOX$XQ.=.) } E E ] ) *.Q.$X@X>X5 l g g a.i.s.s.s.s.s.s.s.s.s.s.s.s.s.s.s.s.s.s.",
"s.s.s.s.s.s.s.s.s.s.s.s.s.s.s.s.s.s.s.d.m.m.N.N.6 7 7 8 : < y y y O @ : 8 7 6 5 n.B.B.B.s.i.s.s.s.s.s.s.s.s.s.s.s.s.s.s.s.s.s.s.",
"s.s.s.s.s.p.s.s.s.s.s.s.s.s.s.s.s.s.s.s.m.m.m.n.6 6 6 h h h k h k h h h h 6 6 6 B.m.m.s.s.s.s.s.s.s.s.s.s.s.s.s.s.s.s.s.s.s.s.s.",
"s.s.s.s.s.s.s.s.s.s.s.s.s.s.s.s.p.i.s.s.s.s.B.B.2 3 5 4 6 4 5 4 4 4 5 4 5 6 2 2 n.m.s.m.s.s.i.s.s.s.s.s.s.s.s.s.s.s.l.s.s.s.s.s.",
"s.s.s.s.s.s.s.s.s.s.s.s.s.s.s.s.s.s.s.s.s.m.s.m.6 3 3 6 6 6 h 6 6 h 6 6 6 6 w 3 B.s.m.s.d.s.p.s.s.s.s.s.s.s.s.s.s.s.s.s.s.s.s.s.",
"s.s.s.s.s.s.s.s.s.s.s.s.s.s.l.s.s.i.i.s.i.s.s.m.i.a.n.n.n.n.m.n.m.n.n.a.n.a.a.a.s.s.s.s.i.i.k.s.s.s.s.s.s.s.s.s.s.s.s.s.s.s.s.s.",
"s.s.s.s.s.s.s.s.s.s.s.s.s.s.s.s.i.p.i.s.s.s.s.s.d.m.s.m.m.s.m.m.m.M.M.m.m.s.M.s.s.s.s.s.i.p.s.s.s.s.s.s.s.s.s.s.s.s.s.s.s.s.s.s.",
"s.s.s.s.s.s.s.s.s.s.s.s.s.s.s.s.s.s.i.i.s.s.i.s.s.a.s.s.s.s.s.a.s.i.s.s.s.s.s.s.s.i.i.s.s.s.s.p.s.s.s.s.s.s.s.s.s.s.s.s.s.s.s.s.",
"s.s.s.s.s.s.s.s.s.s.s.s.s.s.s.s.s.i.s.p.s.s.s.s.i.s.s.s.s.s.i.s.a.s.i.s.s.i.a.s.s.s.i.s.i.p.s.s.s.s.s.s.s.s.s.s.s.s.s.s.s.s.s.s."
};
