/* XPM */
static char *_65d56ea1423419c8b90db860a44849fDF14tLLHIGDXiQl5[] = {
/* columns rows colors chars-per-pixel */
"64 56 195 2 ",
"   c #2A1E1E",
".  c #3C2809",
"X  c #292017",
"o  c #3B2914",
"O  c #3A271B",
"+  c #3A281C",
"@  c #372618",
"#  c #1B242D",
"$  c #1E2535",
"%  c #1E2B3C",
"&  c #1C2838",
"*  c #2C2A2C",
"=  c #28272B",
"-  c #362C22",
";  c #3C2C22",
":  c #312728",
">  c #362827",
",  c #242534",
"<  c #2A2635",
"1  c #242B35",
"2  c #2B2B35",
"3  c #23263A",
"4  c #2B263A",
"5  c #252B3C",
"6  c #2B2C3C",
"7  c #342E34",
"8  c #312B3C",
"9  c #2A313B",
"0  c #273039",
"q  c #30323F",
"w  c #4B2B0C",
"e  c #42280B",
"r  c #412615",
"t  c #452E19",
"y  c #452911",
"u  c #6B3C01",
"i  c #1E2B44",
"p  c #1E2A4B",
"a  c #232744",
"s  c #242C43",
"d  c #2A2B44",
"f  c #242749",
"g  c #232C4A",
"h  c #2B2C4C",
"j  c #2A2641",
"k  c #332E42",
"l  c #2C3343",
"z  c #25324C",
"x  c #2B324B",
"c  c #253242",
"v  c #353947",
"b  c #232D50",
"n  c #293251",
"m  c #233050",
"M  c #353D50",
"N  c #3F4857",
"B  c #444654",
"V  c #FDA415",
"C  c #FFA51D",
"Z  c #FFAB1C",
"A  c #DC972F",
"S  c #D99737",
"D  c #E0962D",
"F  c #F5A625",
"G  c #FAA424",
"H  c #FFAB22",
"J  c #F6A52D",
"K  c #FCA52B",
"L  c #F6AC2C",
"P  c #FCAA2C",
"I  c #EFA63F",
"U  c #ECAA39",
"Y  c #F6A633",
"T  c #FCAA33",
"R  c #FAA539",
"E  c #F9A939",
"W  c #FFB636",
"Q  c #FFB039",
"!  c #E19F49",
"~  c #DBA24B",
"^  c #DBA050",
"/  c #DAA65B",
"(  c #EBA541",
")  c #EAAA42",
"_  c #E9A54A",
"`  c #E3AB4C",
"'  c #ECAB4B",
"]  c #E4A345",
"[  c #F3AB47",
"{  c #FAB043",
"}  c #F6B14C",
"|  c #E5AA54",
" . c #EAAB54",
".. c #E5AD5A",
"X. c #E8A959",
"o. c #E4B05A",
"O. c #F2B251",
"+. c #DCAA63",
"@. c #D3AB6D",
"#. c #CEA977",
"$. c #D9AF75",
"%. c #D7AC79",
"&. c #E0AA60",
"*. c #888E8D",
"=. c #869089",
"-. c #949B8E",
";. c #94978C",
":. c #848791",
">. c #8B8C90",
",. c #8E9A94",
"<. c #8E9796",
"1. c #939695",
"2. c #999793",
"3. c #959C95",
"4. c #999C95",
"5. c #95969B",
"6. c #969C9A",
"7. c #9A9C9B",
"8. c #A39B9A",
"9. c #91A396",
"0. c #9BA196",
"q. c #95A09A",
"w. c #9BA19C",
"e. c #828DA1",
"r. c #8B9BA3",
"t. c #8E95AA",
"y. c #9397A1",
"u. c #959BA2",
"i. c #9A9CA2",
"p. c #959BA9",
"a. c #989EAE",
"s. c #94A1A4",
"d. c #9EA2A4",
"f. c #93A0A9",
"g. c #9CA2AA",
"h. c #9FA9AC",
"j. c #A3A6A6",
"k. c #A2A6AB",
"l. c #A1ACB9",
"z. c #DFCA9F",
"x. c #E5C79A",
"c. c #E9C89C",
"v. c #E0CA9B",
"b. c #DEC9A5",
"n. c #DCC9B2",
"m. c #D3CABC",
"M. c #E3C7A1",
"N. c #E2CAA4",
"B. c #E3CBAB",
"V. c #EED1AF",
"C. c #FFDAB0",
"Z. c #FEE1B4",
"A. c #FCE3BA",
"S. c #BECDDB",
"D. c #CBC6C3",
"F. c #CCCBC6",
"G. c #C5CCCE",
"H. c #CBCCCB",
"J. c #D2CDC4",
"K. c #D8CEC6",
"L. c #D2CECA",
"P. c #CFD1CC",
"I. c #D0D2C6",
"U. c #D0D1CC",
"Y. c #CBC7D5",
"T. c #C5CCD4",
"R. c #CBCED3",
"E. c #C3CDDB",
"W. c #CACCDB",
"Q. c #D3CED2",
"!. c #C7D0D7",
"~. c #C5D1DD",
"^. c #CDD1DB",
"/. c #C8D0D2",
"(. c #D6D0D0",
"). c #E8D7D0",
"_. c #F1DED0",
"`. c #F9E3C8",
"'. c #E7E7DE",
"]. c #EAE5DA",
"[. c #F0E3DC",
"{. c #F1E1D1",
"}. c #CDCBE0",
"|. c #CAD3E4",
" X c #D3DCE5",
".X c #DBDCEB",
"XX c #D5DAE9",
"oX c #E1DEE9",
"OX c #DFE7E9",
"+X c #E2E7E6",
"@X c #E9E5E7",
"#X c #E3E6EB",
"$X c #E8E3EB",
"%X c #E2E8EB",
"&X c #E5E3F4",
/* pixels */
"6.6.6.6.6.6.6.6.6.6.6.6.6.6.6.6.6.6.6.6.6.6.6.6.6.4.6.6.6.6.6.6.q.6.6.6.6.6.4.6.6.6.6.6.6.6.6.4.6.6.6.6.6.6.6.6.6.6.6.4.6.6.6.6.",
"6.6.6.6.6.6.6.6.6.6.6.6.6.4.6.6.6.6.6.6.6.6.6.6.6.6.6.6.6.6.6.6.6.6.6.6.6.6.6.6.6.6.6.6.6.6.6.6.6.6.6.6.6.6.6.6.6.6.6.6.6.6.6.6.",
"6.6.6.6.6.6.6.6.6.6.6.6.6.6.6.6.6.6.q.6.6.6.6.6.6.6.6.6.6.6.6.6.6.6.6.6.6.6.6.6.6.6.6.6.6.6.6.6.6.6.6.6.6.6.6.6.6.6.6.6.6.6.6.6.",
"6.6.6.6.6.6.6.6.6.6.6.6.6.6.6.6.6.6.6.6.6.6.6.6.6.6.6.6.6.6.6.6.6.6.6.6.6.6.6.6.6.6.6.6.6.6.6.6.6.6.6.6.6.6.6.6.6.6.6.q.6.6.6.6.",
"6.6.6.6.6.6.6.6.6.6.6.6.6.6.6.6.6.4.6.6.6.6.6.6.6.6.6.6.6.6.6.6.6.6.6.6.6.6.6.6.6.6.6.6.6.6.6.6.6.6.6.6.6.6.6.6.6.6.6.6.6.6.6.6.",
"6.6.6.6.6.6.6.6.4.6.6.6.6.6.6.6.6.6.6.6.6.6.6.6.6.6.6.6.6.6.6.6.6.6.6.6.6.6.6.6.6.6.6.6.6.6.6.6.6.6.6.6.6.6.6.6.6.4.6.6.6.6.6.6.",
"6.6.6.6.6.6.6.6.6.6.6.6.6.6.6.6.6.6.6.6.6.6.6.6.6.6.6.6.6.6.6.4.4.6.6.6.6.6.6.6.4.6.6.6.6.6.6.6.6.6.6.6.6.4.6.6.6.6.6.6.6.6.6.6.",
"6.6.6.6.6.6.6.4.6.6.6.6.6.6.6.6.6.6.6.6.6.6.6.6.6.6.6.6.6.6.6.6.6.6.6.6.6.6.6.6.6.6.6.6.6.6.6.6.6.6.6.6.6.6.6.6.6.6.6.6.6.6.6.6.",
"6.6.6.6.6.6.6.6.6.6.6.6.6.6.6.6.6.6.6.6.6.6.6.6.6.6.6.6.6.6.6.6.6.6.6.6.6.6.6.6.6.6.6.6.6.6.6.6.6.6.6.6.6.6.6.6.6.6.6.6.6.6.6.6.",
"6.6.6.6.6.6.6.6.6.6.6.6.q.6.6.6.6.6.6.6.6.6.6.6.6.6.6.6.6.6.6.6.6.6.6.6.6.6.6.6.6.6.6.6.6.6.6.6.4.6.6.6.6.6.6.6.6.6.6.6.6.6.6.6.",
"6.6.6.6.6.6.6.6.6.6.6.6.6.6.6.6.6.6.6.6.6.6.6.6.6.6.6.6.6.6.6.6.6.6.6.6.6.6.6.6.6.6.6.6.6.6.6.6.6.6.6.6.6.6.6.6.6.6.6.6.6.6.6.6.",
"6.6.6.6.6.6.6.6.6.6.6.6.6.6.6.6.6.6.6.6.6.6.6.6.6.6.6.6.6.6.6.6.6.6.6.6.6.6.6.6.6.6.6.6.6.6.6.6.6.6.6.6.6.6.6.6.6.6.6.6.7.6.6.6.",
"6.6.4.6.6.4.6.6.6.6.6.6.6.4.6.6.6.6.6.6.6.6.6.6.6.6.6.6.6.6.6.6.6.6.6.6.6.6.6.6.6.6.6.6.6.6.6.6.6.6.6.6.6.6.6.6.6.6.6.6.4.6.6.6.",
"6.6.6.6.6.6.6.6.6.6.6.6.6.6.6.6.6.6.6.6.6.6.6.6.6.6.6.6.6.6.6.6.6.6.6.6.6.6.6.9.6.6.6.6.6.6.6.6.6.6.6.6.6.6.6.6.6.6.6.6.6.6.6.6.",
"6.6.6.6.6.6.6.6.6.6.6.6.6.6.6.6.6.6.6.6.6.6.6.6.6.6.6.6.6.6.6.6.6.6.6.6.6.6.6.6.6.6.6.6.6.6.6.6.6.6.6.6.6.6.4.6.6.6.6.6.6.6.q.6.",
"6.6.6.6.6.6.6.6.6.6.6.6.6.6.6.6.6.6.6.6.6.6.6.6.6.u.u.6.q.u.u.u.i.u.6.6.u.u.u.u.6.6.4.6.6.u.9.6.6.6.6.6.6.6.6.6.6.6.6.6.6.6.6.6.",
"6.6.6.6.7.6.6.6.6.6.6.6.6.6.6.7.2.7.r.r.w.4.2.q.% a s 5 1 5 i i g s 1 1 s s i & 7.-.4.d.r.r.9.2.4.6.6.6.6.6.6.6.6.6.6.6.6.6.6.6.",
"6.6.6.6.6.6.6.4.6.6.6.6.6.6.6.4.8.8.r.r.7.4.-.6.c g d d 6 5 g g n c 1 5 d h p f 5.2.4.7.r.r.q.6.6.6.q.6.6.6.6.6.6.6.7.6.4.6.6.6.",
"6.6.6.6.6.6.6.6.6.6.6.6.6.6.6.6.6.5.r.f.6.8.7.i.5 a j 4 < < 6 4 4 < , , 4 j j % i.7.8.6.f.r.5.6.6.6.6.6.6.6.6.6.6.6.6.6.6.6.6.6.",
"q.6.6.6.6.6.6.6.6.6.6.6.6.6.6.6.1.5.s.h.>.5.6.g.d d k d 6 7 7 8 2 < 4 4 k v v l i.i.5.>.h.f.5.5.6.6.6.6.6.6.6.6.6.6.6.6.6.6.6.6.",
"6.6.6.6.6.6.6.6.6.6.6.6.6.6.6.6.w.q.3.=.v 9 5 5 S.S.E.E.S.S.T.Y.W.W.~.|.XX.X.X X1 0 0 N =.3.w.d.6.6.6.6.6.6.6.6.6.4.6.6.6.6.6.6.",
"6.6.6.6.6.6.6.6.6.6.6.6.6.6.6.6.4.4.0.1.9 3 i % !./.R.!.~.~.T.R.^.^.|.XXoX$X$X%X% % & 1 ,.0.6.6.6.6.6.6.6.6.6.6.6.6.6.6.6.6.6.6.",
"6.6.6.6.6.6.6.6.6.6.6.6.6.6.6.6.6.6.0.7.s p z c F.m.m.m.H.G.F.F.F.D.H.(.).{.{.].9 z i % q.q.5.u.6.6.6.6.6.6.6.6.6.6.6.6.6.6.6.6.",
"6.4.6.6.6.6.6.6.6.6.6.6.6.6.6.6.i.5.4.i.f p h < n.c.c.c.N.B.N.x.M.N.B.V.C.Z.A.`.* z p i i.7.5.i.7.6.6.6.6.6.6.6.6.6.6.6.6.6.6.6.",
"6.6.6.6.6.6.6.6.6.6.6.6.6.6.6.7.i.y.7.i.i i 6 @ $. ._ '  . . .| |  .o.` ' _ ..$.O 8 f f u.7.5.i.6.6.6.6.6.6.6.6.6.6.6.6.6.6.6.6.",
"6.6.6.6.6.6.6.6.6.6.6.6.6.6.6.6.y.5.7.6.s i 7 e / I T K G J K K J F F F L Y ( +.y 7 j s 6.8.5.6.6.6.6.6.6.6.6.6.6.6.6.6.6.6.6.6.",
"6.6.6.6.6.6.6.6.6.6.6.6.6.6.6.6.7.7.0.3.c & : e +.} Q K C V V Z Z V V Z F { O.+.e : 3 d 2.0.4.6.6.6.6.6.6.6.6.6.6.6.6.6.6.6.6.6.",
"6.6.6.6.6.6.6.6.4.6.6.6.6.6.6.6.d.6.4.*.M 0 * . #.&.! D W H C C Z V Z W A ^ +.#.o : d M *.3.q.q.6.6.6.6.6.6.6.6.6.6.6.6.q.6.6.6.",
"6.6.6.6.q.6.6.6.6.6.6.6.6.6.6.6.5.5.w.k.e.t.i.8.; t w u S Y J T Y Y Y S u w t ; 8.i.t.e.h.q.<.,.q.6.6.6.4.6.6.6.6.6.6.6.6.6.6.6.",
"6.6.6.6.6.6.6.6.6.6.6.6.6.6.6.6.5.6.5.q.p.a.i.i.4 <   y ^ { Y J Y Y { ^ y   < 2 i.i.a.p.s.,.6.6.6.6.6.6.6.6.6.6.6.6.6.6.4.6.6.6.",
"6.6.6.6.6.6.6.6.6.6.6.6.6.6.6.q.9.9.,.3.6.7.3.5.z z 3 t ..T G C C G Q | t 6 n x 6.2.6.6.3.3.q.q.6.6.6.6.6.6.6.6.6.6.6.6.6.6.6.6.",
"6.6.6.6.6.4.6.6.6.6.6.6.6.6.6.0.,.9.-.-.w.6.4.u.i z 5 ; @.| I [ [ ] | @.- 5 z 3 7.4.4.w.;.2.0.3.6.6.6.6.6.6.6.6.6.6.6.6.6.6.6.6.",
"6.6.6.6.6.6.6.6.6.6.6.6.6.6.6.6.3.3.3.3.6.6.6.6.s.f.5.j.X ; @ @ + O ; X k.y.p.u.u.7.7.6.4.4.4.4.6.6.6.6.6.6.6.6.6.6.6.6.6.6.6.6.",
"6.6.6.6.6.6.6.6.6.6.6.6.6.6.6.6.4.4.4.6.6.6.u.6.0.,.<.g., x d i i h h 3 k.5.5.w.6.6.u.6.3.2.4.4.6.6.6.6.6.6.6.6.6.6.6.6.6.6.4.6.",
"6.6.6.6.6.6.6.6.6.6.6.6.6.6.6.6.7.6.6.6.6.7.u.6.3.<.7.i., , 6 5 3 5 , , u.i.,.3.7.6.6.6.3.4.6.7.7.6.6.6.6.6.6.6.6.6.6.6.6.6.6.6.",
"6.6.6.6.6.6.6.6.6.6.6.6.6.6.6.6.6.u.6.u.6.6.6.u.k.g.p.:.B l 5 1 3 6 8 B :.u.d.j.6.6.3.3.6.3.6.6.6.6.6.6.6.6.6.6.6.6.6.6.6.6.6.6.",
"6.6.4.6.6.6.6.6.6.6.6.6.6.6.6.6.6.6.6.6.6.6.6.q.# $ $ N l.S.~.~.~.E.E.l.B $ $ # u.6.6.6.6.6.u.6.6.6.6.6.6.6.6.6.6.6.6.6.6.6.6.6.",
"6.6.6.6.3.6.6.6.6.6.6.6.6.6.6.6.6.6.6.6.3.3.q.r.9 l & l T. XG.T.R.G. XE.l $ x 9 u.6.6.6.5.u.6.6.6.6.6.6.6.6.6.6.6.6.6.6.6.6.6.6.",
"6.6.6.6.6.6.6.6.6.6.6.6.6.6.6.6.,.q.6.6.6.9.q.6.= 8 6 2 H.F.D.J.J.D.D.H.2 2 8 < u.6.6.6.6.u.u.q.6.6.6.6.6.6.6.6.6.6.6.6.6.6.6.6.",
"6.6.q.6.6.6.6.6.6.6.6.6.6.6.6.6.q.6.6.6.q.6.6.u.< < < = Q.H.I.F.J.I.L.Q.< < < 6 u.u.6.u.6.u.6.u.6.6.6.6.6.6.6.6.4.6.6.6.6.6.6.6.",
"6.6.6.6.6.6.6.6.6.6.6.6.6.6.9.6.6.6.6.5.0 1 0 s }.}.}.W.W.E.R.R.+X+X%X#X&X&X&X&X5 5 1 0 5.7.6.5.6.6.6.6.6.6.6.6.6.6.6.6.6.6.6.6.",
"6.6.6.6.6.6.6.6.6.6.6.6.6.6.6.6.6.6.7.5.9 % c i W.Y.Y.Y.E.T.G.G.+X+XOX%X#X@X$X&X5 s 5 0 5.7.6.6.6.6.6.6.6.6.6.6.6.6.6.6.6.6.6.6.",
"6.6.6.6.6.6.6.6.6.6.6.6.6.6.6.6.,.6.6.5.9 i i 5 Q.K.K.I.I.P.I.I.].'.'.'.[.[.[.@Xs c % 9 5.6.6.,.6.6.6.6.6.6.6.6.6.6.6.6.6.6.6.6.",
"6.6.6.6.6.4.6.6.6.6.6.6.6.6.6.6.,.9.4.6.c g s 2 n.x.x.v.N.b.z.z.Z.A.`.A.Z.Z.A.{.2 s f s 6.6.6.6.6.6.6.6.6.6.6.6.6.6.6.6.6.6.6.6.",
"6.6.6.6.6.6.6.6.6.6.6.6.6.6.6.6.,.3.q.,.s s 2 + $.o.O.'  . .' ' ` ' X.X.' ' ..%.+ 8 f s 5.6.,.6.6.6.6.6.7.4.6.6.6.6.6.6.6.6.6.6.",
"6.6.6.6.6.6.6.6.6.6.6.6.6.6.6.6.q.3.q.3.s a 8 o / U Z F Y Y G G K J R R K J I ..r 8 j d 3.q.6.6.q.6.6.6.6.6.6.6.6.6.6.6.6.6.6.6.",
"6.6.6.6.6.6.6.6.6.6.6.6.6.6.6.q.r.6.3.5.g f 8 r o.L Z Z T T P H Z G T K Z Z L o.r 8 f g 3.3.3.6.6.6.6.6.6.6.6.6.6.6.6.6.6.6.4.6.",
"6.6.6.6.6.6.6.6.6.6.6.6.6.6.6.6.u.6.q.5.s f 4 ; @.` ) ) ' | ' ) ' ' |  .) U ` @.O j j d 5.3.3.6.6.6.6.6.6.6.6.6.6.6.6.6.6.6.6.6.",
"6.6.6.4.6.6.6.6.6.6.6.4.6.6.6.6.6.6.6.6.p.p.u.i.O o o r + ; + + + O + + o o o @ 7.u.p.p.6.6.6.6.6.4.6.6.6.6.6.6.6.6.6.q.6.6.4.6.",
"6.6.6.6.6.6.6.6.6.6.6.6.6.6.6.6.6.6.6.u.6.u.u.u.5 5 5 d d d j f d d d d d l 5 6 p.u.u.6.6.6.6.6.6.6.6.6.6.6.6.6.6.6.6.6.6.6.6.6.",
"6.6.6.6.6.6.6.6.6.6.6.6.6.6.6.6.6.3.6.6.u.u.u.p.1 < 6 3 5 5 3 5 j 3 5 5 1 1 1 1 y.y.7.u.6.6.6.3.6.6.6.6.6.6.6.6.6.6.6.6.6.6.6.6.",
"6.6.6.6.6.6.6.6.6.6.6.6.6.6.6.6.4.6.6.6.6.6.7.u.0 0 2 6 6 6 d 9 6 d 6 6 6 6 6 9 u.i.u.6.6.6.6.3.6.6.6.6.6.6.6.6.6.6.6.6.6.6.6.6.",
"6.6.6.6.6.6.6.6.6.6.6.q.6.6.6.6.3.q.3.3.6.6.6.6.6.6.5.y.y.y.y.y.y.y.y.y.y.5.5.5.7.6.6.6.3.3.3.6.6.6.6.6.6.6.6.6.6.6.6.6.6.6.6.6.",
"6.6.7.6.6.6.6.6.6.6.4.6.6.6.6.6.6.4.4.3.6.6.6.6.7.u.6.u.u.u.u.u.u.i.i.u.6.u.u.6.7.6.3.6.4.q.0.6.6.6.6.6.6.6.6.6.6.6.6.6.6.6.6.6.",
"6.6.6.6.6.6.6.6.6.6.6.6.6.6.6.6.3.6.6.3.6.3.6.6.6.5.6.6.6.6.6.6.6.5.6.6.6.5.6.5.6.6.6.6.6.3.6.4.6.6.6.6.6.6.6.4.4.6.6.6.6.6.6.6.",
"6.6.q.6.6.4.6.6.6.6.6.6.6.6.6.6.6.3.6.6.3.6.3.6.6.5.6.3.6.6.6.5.6.3.6.5.3.6.6.6.3.3.6.4.3.6.4.6.6.6.6.6.6.6.6.6.6.6.6.6.6.6.6.6."
};
