/* XPM */
static char *c21f80e99d924d17adae18ab21da2f05yCBZGPhkQSDBaNs4[] = {
/* columns rows colors chars-per-pixel */
"64 56 191 2 ",
"   c #3E1F0D",
".  c #381F1B",
"X  c #2F2E1D",
"o  c #3A2A17",
"O  c #3C271C",
"+  c #372A1C",
"@  c #3B281A",
"#  c #332D13",
"$  c #293217",
"%  c #2D1F2A",
"&  c #1C242F",
"*  c #1E2334",
"=  c #1C2B37",
"-  c #1F3236",
";  c #23232C",
":  c #2A2028",
">  c #2D2226",
",  c #362921",
"<  c #3B2C29",
"1  c #253220",
"2  c #232635",
"3  c #262A36",
"4  c #292D37",
"5  c #23263A",
"6  c #26293C",
"7  c #2A2D3C",
"8  c #2C243B",
"9  c #302F37",
"0  c #3D2837",
"q  c #3A263B",
"w  c #23313C",
"e  c #2C313D",
"r  c #4F1E00",
"t  c #431E16",
"y  c #482100",
"u  c #44290D",
"i  c #442315",
"p  c #452816",
"a  c #513E2D",
"s  c #4C4229",
"d  c #474333",
"f  c #1A2745",
"g  c #1E2A40",
"h  c #1E3449",
"j  c #262745",
"k  c #242B44",
"l  c #2A2C43",
"z  c #23264E",
"x  c #262C4A",
"c  c #2A2E49",
"v  c #342B41",
"b  c #382842",
"n  c #332848",
"m  c #382545",
"M  c #2D3143",
"N  c #213349",
"B  c #313444",
"V  c #373E46",
"C  c #393D46",
"Z  c #3D414A",
"A  c #FF9D1E",
"S  c #FCA71F",
"D  c #FAA91C",
"F  c #F99F25",
"G  c #EDAD2B",
"H  c #FEA624",
"J  c #F6AB26",
"K  c #FCA824",
"L  c #F4A72D",
"P  c #FDA52B",
"I  c #FCA92A",
"U  c #F3A523",
"Y  c #EEA53C",
"T  c #EBA536",
"R  c #FCA532",
"E  c #F6AA34",
"W  c #FAAB34",
"Q  c #F5A738",
"!  c #F5A035",
"~  c #EFB73E",
"^  c #AE9554",
"/  c #DBAF57",
"(  c #D6AF5C",
")  c #D7B150",
"_  c #D9B054",
"`  c #E5AB4E",
"'  c #E9A94F",
"]  c #E9AB44",
"[  c #FDBF48",
"{  c #F1B545",
"}  c #ECA754",
"|  c #E5AB53",
" . c #E9A952",
".. c #E6AB59",
"X. c #EDA958",
"o. c #E2B051",
"O. c #FFBC52",
"+. c #FEBC58",
"@. c #D6AD6F",
"#. c #D8AB74",
"$. c #CDB170",
"%. c #E3AC65",
"&. c #EDCC4B",
"*. c #FDC345",
"=. c #FCC44D",
"-. c #F6CA4B",
";. c #E9CD53",
":. c #FCC757",
">. c #F5CA50",
",. c #FFC45D",
"<. c #FAC950",
"1. c #DCCC77",
"2. c #EAC769",
"3. c #FCC463",
"4. c #E3CB77",
"5. c #868B8E",
"6. c #919C8D",
"7. c #989A8E",
"8. c #868D91",
"9. c #888D91",
"0. c #8F9993",
"q. c #8E969C",
"w. c #8F9F9E",
"e. c #919795",
"r. c #989792",
"t. c #949C95",
"y. c #9A9B95",
"u. c #91969D",
"i. c #969C9A",
"p. c #999B9B",
"a. c #96A18B",
"s. c #8DA09C",
"d. c #94A095",
"f. c #9FA094",
"g. c #96A09C",
"h. c #9AA29D",
"j. c #8D9FA4",
"k. c #8F9DA8",
"l. c #9397A1",
"z. c #9A97A2",
"x. c #959BA3",
"c. c #999EA3",
"v. c #969CAB",
"b. c #999DA9",
"n. c #8CA0A1",
"m. c #98A0A2",
"M. c #96A2AD",
"N. c #9BA4AB",
"B. c #95A1B1",
"V. c #9CA3B4",
"C. c #A1A9A8",
"Z. c #AFB3B6",
"A. c #D5CC93",
"S. c #C2C6BF",
"D. c #BABFC3",
"F. c #BFCACE",
"G. c #BFCAD0",
"H. c #C2C6C2",
"J. c #C4CBC5",
"K. c #C2C5CC",
"L. c #C6CBCB",
"P. c #CACCCB",
"I. c #CACBC3",
"U. c #CCD2CB",
"Y. c #C9D1C6",
"T. c #D2D3CC",
"R. c #C6CBD1",
"E. c #C6CBD4",
"W. c #CACFD3",
"Q. c #CACDD6",
"!. c #CACDD3",
"~. c #C6CDDB",
"^. c #CBCEDB",
"/. c #C7D1D0",
"(. c #CAD0D0",
"). c #CDD1D3",
"_. c #CCD3DB",
"`. c #D2D5D3",
"'. c #D2D8D4",
"]. c #D1D6DC",
"[. c #D5D8DB",
"{. c #DADEDA",
"}. c #DBDCD7",
"|. c #E0E1D9",
" X c #DADCE7",
".X c #DADCE8",
"XX c #DFE2E3",
"oX c #E2E4E3",
"OX c #E3E6EA",
"+X c #E8E9E7",
"@X c #E6E9F1",
/* pixels */
"i.i.i.i.i.i.i.i.i.i.i.i.i.i.i.i.i.i.i.i.i.i.y.g.i.i.i.i.i.i.i.g.i.i.i.i.i.i.y.i.i.i.i.i.d.i.i.i.i.i.i.i.i.i.i.i.i.i.i.i.i.i.i.i.",
"i.i.i.i.i.i.i.i.i.i.i.i.i.i.i.i.i.i.i.i.i.i.i.i.i.i.i.i.i.i.i.i.i.i.i.i.i.i.i.i.i.i.i.i.i.i.i.i.i.i.i.i.i.i.i.i.i.i.i.i.i.i.i.i.",
"i.i.i.i.i.i.y.i.i.i.i.i.i.i.i.i.i.i.i.i.i.i.i.i.i.i.i.i.i.i.i.i.i.i.i.i.i.i.i.i.i.i.i.i.i.i.i.i.i.i.i.i.i.g.i.i.i.y.i.i.i.i.i.i.",
"i.i.i.i.i.i.i.i.i.i.i.i.i.i.i.i.i.i.i.i.i.i.i.i.i.i.i.i.i.i.i.i.i.i.i.i.i.i.i.i.i.i.i.i.i.i.i.i.i.i.i.i.i.i.i.i.i.i.i.i.i.i.i.i.",
"i.i.i.i.i.i.i.i.i.i.i.i.i.i.i.i.i.i.i.i.i.i.i.i.i.i.i.i.i.i.i.i.i.i.i.i.i.i.i.i.i.i.i.i.i.i.i.i.i.i.i.i.i.i.i.i.i.d.i.i.i.i.i.i.",
"i.i.i.i.i.i.i.i.i.i.i.i.i.i.i.i.i.i.i.i.i.i.i.i.i.i.i.i.i.i.i.i.i.i.i.i.i.i.i.i.i.i.i.i.i.i.i.i.i.i.i.i.i.y.i.i.i.p.i.i.i.i.i.i.",
"i.i.i.i.i.i.i.i.i.i.i.i.i.i.i.i.y.i.i.i.i.i.i.i.i.i.i.i.i.i.i.i.i.y.i.i.i.i.i.i.i.i.i.i.i.i.i.i.i.i.i.i.i.i.i.i.i.i.i.i.i.i.i.i.",
"i.i.i.i.i.i.i.i.i.i.i.i.i.g.i.y.i.i.i.i.g.i.i.i.i.i.i.i.i.i.y.i.i.g.i.i.i.i.i.i.i.i.i.i.i.y.i.i.i.i.i.i.i.i.i.i.i.i.i.i.i.i.i.i.",
"i.i.i.i.i.i.i.i.i.i.i.y.i.i.i.i.i.y.i.i.i.i.i.i.i.i.i.i.i.i.i.i.i.i.i.i.i.i.i.i.i.i.i.i.i.i.i.i.i.i.i.i.i.i.i.i.i.i.i.i.i.i.i.i.",
"y.i.i.i.i.i.i.i.i.i.i.i.i.i.i.i.i.i.i.i.i.i.i.i.i.i.y.i.i.i.i.i.i.i.i.i.i.i.i.i.i.i.i.i.i.i.i.i.i.i.i.i.i.i.i.i.p.i.i.i.i.i.i.i.",
"g.i.i.i.i.i.i.i.i.i.i.i.i.i.i.i.i.i.i.i.i.i.i.i.i.i.i.i.i.i.i.i.i.i.i.i.i.i.i.i.i.i.i.i.i.i.i.i.g.y.i.i.i.i.i.i.i.i.i.i.i.i.i.i.",
"i.i.i.i.i.i.i.i.i.i.i.i.i.i.i.i.i.i.i.i.i.i.i.i.i.i.i.i.i.i.i.i.i.i.i.i.i.i.i.i.i.i.i.i.i.i.i.i.i.i.i.i.i.i.i.i.i.i.i.i.i.i.i.y.",
"i.i.i.i.i.i.i.i.i.i.i.i.i.i.i.i.i.i.i.i.i.i.i.i.i.i.i.i.i.i.i.i.i.i.i.i.i.i.i.i.i.i.i.i.i.i.i.i.i.i.i.i.i.i.i.i.i.i.i.i.i.i.i.i.",
"i.i.i.i.i.i.i.i.i.i.i.i.i.i.i.i.i.i.i.i.i.i.i.i.i.i.i.i.i.i.i.i.i.i.i.i.i.i.i.i.i.i.i.i.i.i.i.i.i.i.i.i.i.i.i.i.i.i.i.i.i.i.i.g.",
"i.i.i.i.i.i.i.i.i.i.g.y.i.i.i.i.i.i.i.i.p.i.i.i.i.i.i.i.i.i.i.i.i.i.i.i.i.i.i.i.i.i.i.i.i.i.i.i.i.i.i.i.i.i.i.i.i.i.i.i.i.i.i.i.",
"i.i.i.i.i.i.i.i.i.i.i.i.i.i.i.i.i.i.i.i.i.i.i.i.i.x.i.c.x.l.p.p.i.i.x.i.x.x.p.x.i.i.y.i.y.i.i.g.i.i.i.i.i.i.i.i.i.y.i.i.i.i.i.i.",
"i.i.i.i.y.i.i.i.i.i.i.i.i.i.i.i.i.i.t.e.f.d.i.p.3 6 l 7 7 6 3 3 4 w 5 6 k 6 5 * n.i.d.h.0.t.i.t.i.i.i.i.i.i.i.y.i.i.i.i.i.i.i.i.",
"i.i.i.i.i.i.i.i.i.i.i.i.i.i.i.i.p.g.t.t.i.i.i.l.7 l j j j l 7 7 e l 6 j l c l 3 l.0.g.d.e.i.p.i.i.i.i.i.i.i.i.i.i.i.i.i.i.i.i.i.",
"i.i.i.i.i.i.i.i.i.i.i.i.i.i.i.i.i.t.u.i.i.h.c.c.3 6 6 6 7 3 3 3 3 2 2 5 k l 3 5 c.c.m.i.g.t.i.w.i.i.i.i.i.i.i.i.i.i.i.i.i.i.i.i.",
"i.i.i.i.i.i.i.i.i.i.i.i.i.i.i.i.t.i.c.C.9.u.l.b.7 7 l 7 7 7 7 7 4 3 3 7 e B B B c.c.q.8.C.g.t.q.i.i.i.i.i.i.i.i.i.i.i.i.i.g.i.i.",
"i.i.i.i.i.i.i.i.y.i.i.i.i.i.i.i.h.c.l.9.C e 4 3 E.E.E.E.E.E.L.~.).Q.!.].[. X X.X3 7 7 V 8.i.n.m.i.i.i.i.i.i.i.i.i.i.i.i.i.i.y.i.",
"i.i.i.y.i.g.i.i.g.i.i.i.i.i.i.i.p.p.m.u.e 2 3 3 ~.).(.(./.U.Q.)._.).`.[.XXOXOXOX3 3 * e q.m.i.g.i.i.i.g.i.i.i.i.i.i.i.i.i.i.i.i.",
"i.i.i.i.i.i.i.i.i.i.i.i.i.i.i.i.i.t.c.v.6 7 l 7 E.L.L.L.J.P.L.L.K.P.I.T.}.XXOXOX7 e 6 6 b.b.w.0.i.i.i.y.i.i.i.i.i.i.i.i.i.i.i.i.",
"i.i.i.i.i.i.i.i.i.i.i.i.i.i.i.i.x.t.z.b.6 7 7 3 ).U.Y.Y.Y.Y./.U.P.P.T.`.|.+X+X@X3 M 6 6 b.x.0.g.i.i.i.i.i.i.i.i.i.i.i.i.i.i.i.i.",
"i.i.i.i.i.i.i.i.i.i.i.i.i.i.i.i.i.u.c.c.6 6 l 7 ].J.U.I.U.Y.'.J.P.T.P.T.I.T.P.].7 7 6 3 v.b.q.g.i.i.i.y.i.i.i.i.i.i.i.i.i.i.i.i.",
"i.i.i.i.i.i.i.i.i.i.i.i.i.i.i.i.t.i.c.v.7 7 l 7 R.K.U.H.U.S.Y.L.P.P.S.T.S.T.K.R.7 l 6 k b.x.w.0.i.i.i.i.i.i.i.i.i.i.i.i.i.i.i.i.",
"i.i.i.i.i.i.i.i.i.i.i.i.i.i.i.i.i.i.c.u.7 5 6 3 Q.(.[.J.{.Y.).'.`.`.P.}.I.[.!.!.3 3 = w q.m.i.g.i.i.i.i.i.i.i.i.i.i.i.i.i.g.i.i.",
"i.i.i.i.i.i.i.i.i.i.i.i.y.i.i.i.h.p.i.9.C 7 7 3 _.~.L.Z.XXL.J.S.H.I.P.oXZ.P.!.^.3 7 7 Z 8.i.g.g.i.i.i.i.i.i.i.i.i.i.i.i.i.y.i.i.",
"i.i.i.i.i.i.i.i.i.y.i.i.i.i.i.i.e.t.i.C.9.u.c.b.2 3 7 Z D.P.'.'.'.).R.D.Z v 8 2 M.z.q.8.N.g.t.0.i.i.i.i.i.i.g.i.i.i.i.i.i.i.i.i.",
"i.i.i.i.i.i.i.i.i.g.i.i.i.i.i.i.t.t.t.i.i.m.c.b.6 6 2 7 K.Q.H.F.H.J.W.F.8 * 6 7 b.m.m.i.g.0.t.i.i.i.i.i.i.i.i.i.i.i.i.i.i.i.i.i.",
"i.i.i.i.i.i.i.i.i.i.i.i.i.i.i.i.i.p.t.t.p.i.i.l.l l l l _.].W.U.)./.]._.k k l l l.u.i.d.t.t.y.g.i.i.i.i.i.i.i.i.i.i.i.i.i.i.i.i.",
"i.i.i.i.i.i.g.y.i.i.i.i.i.i.i.i.u.p.i.6.h.p.i.z.2 7 6 5 ^.E.G._._.G.~.~.5 6 7 ; b.i.i.g.6.t.g.i.i.i.i.i.i.i.i.y.i.i.i.i.i.i.i.i.",
"i.i.i.i.i.i.i.i.i.i.i.i.i.i.i.i.p.p.w.i.p.p.p.p.r.p.u.V.; e = N h = M 2 V.l.p.7.x.x.i.i.t.d.s.i.i.i.i.i.i.i.i.i.i.i.y.i.i.i.i.i.",
"i.i.i.i.i.i.i.i.i.i.i.i.i.i.i.i.p.p.j.x.z.p.p.p.f.t.u.V.; e k f f x 7 2 V.q.7.f.i.x.p.i.d.s.i.i.x.i.i.i.i.i.i.i.i.i.i.i.i.i.i.i.",
"i.i.i.i.i.i.i.i.i.i.i.i.i.i.i.i.i.t.p.i.y.y.i.i.e.u.B.v.> > b n n q : > M.M.e.0.i.n.i.i.t.g.t.i.i.i.i.i.i.i.i.i.i.i.i.i.i.i.i.i.",
"i.i.y.i.i.i.i.i.i.i.i.i.i.i.i.i.y.t.x.z.y.y.i.x.C.M.B.9.a u t t i o o s 9.b.N.m.s.s.i.y.i.n.t.i.i.i.i.i.i.i.i.i.i.i.d.i.i.i.i.i.",
"i.i.i.i.i.i.i.i.i.i.i.i.i.i.i.i.i.i.n.i.y.y.y.j.& * = d ^ /  .| | ` ) ^ d 2 2 & n.s.t.y.l.x.i.i.i.i.i.i.i.i.i.i.i.i.i.i.i.i.i.i.",
"i.i.i.i.i.i.i.i.i.i.i.i.i.i.i.i.i.w.j.i.y.y.i.x.M 7 ; o @.{ L S U G ~ _ u % v v n.s.d.y.x.b.x.i.i.i.i.i.i.i.y.i.i.i.i.i.i.i.i.i.",
"i.i.i.i.i.i.i.i.i.y.i.i.i.i.i.i.t.d.t.i.i.y.k.b.8 q 0 i %.] P P I W Y %.i q m 8 k.n.d.i.i.j.i.t.i.i.i.i.i.i.i.i.i.i.i.i.i.i.i.i.",
"i.i.i.i.i.i.i.i.g.i.i.i.i.i.i.i.i.t.d.t.t.p.k.l.O u p r X.! P A U W T ..y p . 0 k.n.i.i.i.i.y.y.i.i.i.i.i.i.i.i.i.i.i.i.i.i.i.i.",
"i.i.i.i.i.i.i.i.i.i.i.i.i.i.i.i.i.i.i.e.e 2 w X $./ / ] L K S K [ *.*.>.2.4.1.A.1 - 6 w u.p.i.r.y.i.i.i.i.i.i.i.i.i.i.i.i.i.i.i.",
"i.i.i.i.i.i.i.i.i.y.i.i.i.i.i.i.p.i.p.u.c k 4 # ) G G J K K K H *.=.-.-.&.&.;.1.$ w k c j.i.i.i.i.i.i.i.i.i.i.i.i.i.i.i.i.i.i.i.",
"i.y.i.i.i.i.i.i.i.i.i.i.i.i.i.p.z.z.p.p.x z k + ` P K H P R R Q ,.3.,.:.=.>.<.4.X x z x l.g.p.p.p.i.i.i.i.i.i.i.i.g.i.i.i.i.i.i.",
"i.g.i.i.i.i.i.i.i.i.i.i.i.i.i.i.z.z.i.u.x z x o ' K K P P R R Q O.+.+.O.[ *.*.2.+ x z x q.e.p.p.i.i.i.i.i.i.i.i.i.y.i.i.i.i.i.i.",
"i.i.i.i.i.i.i.i.i.i.i.i.i.i.i.i.i.t.7.t.w k k o } P H F H H D K J W E E W W W ..+ j j 7 6.a.t.t.i.i.i.i.i.i.i.y.i.g.i.i.i.i.i.i.",
"i.i.i.i.i.i.i.i.i.i.i.i.i.i.i.i.t.t.a.0.w k 4 o } R P H H K D D D D P P P P L | O l j 7 6.a.i.e.i.i.i.i.i.i.i.i.i.i.i.i.i.i.i.i.",
"i.i.i.i.i.i.i.i.i.i.i.i.i.i.i.t.t.t.i.t.k k k o ..R P H K K P H K K H I K K L | p c j j t.d.i.p.i.i.i.i.i.i.i.i.i.i.i.i.i.i.i.i.",
"g.y.i.i.i.i.i.i.i.i.i.i.i.i.i.t.s.i.i.u.c k k + #...|  .| | } X.' '  .' ` ` | @., j j c q.d.i.p.i.i.i.i.i.i.i.i.i.i.i.i.i.i.y.i.",
"i.i.i.i.i.i.i.i.i.i.i.i.i.i.i.i.i.d.i.x.x.v.x.x., @ @ O @ O O p O O O @ @ o o + p.v.v.x.p.i.i.i.i.i.i.i.i.i.y.i.i.i.i.i.i.i.g.i.",
"i.i.i.i.i.i.i.i.i.i.i.i.i.i.i.i.i.i.i.i.p.l.b.z.7 7 l 7 j j c j c j j l l l 7 e z.x.l.p.i.i.d.i.i.i.i.i.i.i.i.i.i.i.i.i.i.i.i.i.",
"i.i.i.i.i.i.i.i.i.i.i.i.i.i.i.i.i.i.i.i.i.x.x.c.4 3 2 5 6 6 6 6 7 6 3 6 6 5 3 3 z.x.c.p.i.i.i.i.g.i.i.i.i.i.i.i.i.i.i.i.i.i.i.i.",
"i.i.i.i.g.i.i.i.i.y.i.i.i.i.i.i.y.t.i.i.x.i.i.l.4 4 7 7 7 7 l 7 l 7 7 7 7 7 4 4 x.l.x.i.i.i.t.i.i.i.i.p.i.i.i.i.i.i.i.i.i.i.i.i.",
"i.i.i.i.i.i.i.i.i.i.i.i.i.i.i.i.t.d.y.i.i.i.u.p.i.u.p.l.l.l.l.l.l.l.l.l.l.u.p.u.x.i.i.i.i.d.t.i.i.i.i.i.i.i.i.i.i.i.i.i.y.i.i.i.",
"i.i.i.i.i.y.i.i.i.i.i.i.i.i.i.i.i.y.i.d.i.i.i.i.i.p.l.l.i.x.x.b.x.x.p.x.x.i.i.x.i.i.i.i.y.t.y.i.i.i.i.i.i.i.i.i.i.i.i.i.i.i.i.i.",
"i.i.i.i.i.i.i.i.g.y.i.i.i.i.i.i.i.t.i.d.i.t.i.i.i.i.i.p.i.u.i.i.i.i.p.p.i.i.i.i.y.t.i.i.i.t.i.g.i.i.i.i.i.i.i.i.i.i.i.i.i.i.i.i.",
"i.i.i.i.i.i.i.i.i.i.i.i.i.i.i.i.i.i.i.y.t.i.i.i.i.i.i.t.p.t.i.i.i.i.u.t.i.i.e.i.i.i.t.i.t.i.i.y.i.i.i.i.i.i.i.i.i.i.i.i.i.i.i.i."
};
