/* XPM */
static char *ae183a4eb8fe469efb7372934397849d06Yc0qZ3Um4kXGis[] = {
/* columns rows colors chars-per-pixel */
"64 56 217 2 ",
"   c #2A1E1A",
".  c #331E14",
"X  c #3C240B",
"o  c #3A280A",
"O  c #3C271A",
"+  c #3B281B",
"@  c #372717",
"#  c #39331D",
"$  c #1F1E2C",
"%  c #281B22",
"&  c #1C242D",
"*  c #1C2127",
"=  c #1E2631",
"-  c #1D2A34",
";  c #1E243A",
":  c #1D2B3C",
">  c #162C39",
",  c #1E3136",
"<  c #28292E",
"1  c #3A2622",
"2  c #372920",
"3  c #3E2C23",
"4  c #212635",
"5  c #252B35",
"6  c #2B2C35",
"7  c #24243A",
"8  c #252A3B",
"9  c #2B2C3C",
"0  c #292634",
"q  c #312B3E",
"w  c #30263A",
"e  c #24313C",
"r  c #2B323C",
"t  c #2A3135",
"y  c #32323D",
"u  c #43240F",
"i  c #4C320F",
"p  c #402613",
"a  c #432D18",
"s  c #432B13",
"d  c #493114",
"f  c #593609",
"g  c #1C2C43",
"h  c #1E2B4B",
"j  c #1B3043",
"k  c #242742",
"l  c #232B43",
"z  c #2A2B43",
"x  c #242B49",
"c  c #2A2C4C",
"v  c #2A2641",
"b  c #312E44",
"n  c #223146",
"m  c #2C314E",
"M  c #283548",
"N  c #373F42",
"B  c #32304C",
"V  c #343647",
"C  c #293753",
"Z  c #333E50",
"A  c #43484D",
"S  c #444655",
"D  c #FFA31E",
"F  c #F8A91C",
"G  c #F2A61A",
"H  c #EE9C2E",
"J  c #F19B2C",
"K  c #FCA423",
"L  c #F6AB22",
"P  c #FFA924",
"I  c #F5A62C",
"U  c #FBA42D",
"Y  c #F4AC2E",
"T  c #FDAB2B",
"R  c #F9B02F",
"E  c #E8AA36",
"W  c #F4A534",
"Q  c #FFA634",
"!  c #FCA934",
"~  c #F3A83D",
"^  c #FAA73B",
"/  c #C9964D",
"(  c #DF9D49",
")  c #DC9D50",
"_  c #DDA849",
"`  c #D9A856",
"'  c #DEB25B",
"]  c #E4A54D",
"[  c #E4AC4C",
"{  c #ECAC4B",
"}  c #ECA846",
"|  c #F2AA4B",
" . c #F3A74B",
".. c #FFB543",
"X. c #FFB34C",
"o. c #FFB948",
"O. c #EDA652",
"+. c #E6AA54",
"@. c #EBAC53",
"#. c #E6AB59",
"$. c #E9AB5B",
"%. c #F3AC52",
"&. c #E4B25B",
"*. c #EBB45B",
"=. c #F9BA54",
"-. c #CDA667",
";. c #DAAB69",
":. c #DEB063",
">. c #CEB573",
",. c #DCB275",
"<. c #D4B676",
"1. c #E8AF66",
"2. c #EDB263",
"3. c #E3AC76",
"4. c #E9C85E",
"5. c #FBC655",
"6. c #FAC845",
"7. c #DAC872",
"8. c #E3CE7D",
"9. c #FAC370",
"0. c #ECC86A",
"q. c #838C8E",
"w. c #8C8C8C",
"e. c #939C8D",
"r. c #94978E",
"t. c #858E94",
"y. c #868A94",
"u. c #8D9B94",
"i. c #8E979C",
"p. c #8F9B9A",
"a. c #939694",
"s. c #959C95",
"d. c #999C95",
"f. c #94969B",
"g. c #969C9A",
"h. c #999B9C",
"j. c #A19E95",
"k. c #91A18E",
"l. c #8EA095",
"z. c #8FA098",
"x. c #92A193",
"c. c #9AA194",
"v. c #95A19E",
"b. c #9BA19B",
"n. c #A6A69E",
"m. c #8F96A3",
"M. c #8E9AA2",
"N. c #9397A0",
"B. c #959CA3",
"V. c #9A9CA3",
"C. c #959AA8",
"Z. c #9A9CAA",
"A. c #94A1A2",
"S. c #9AA3A4",
"D. c #9BA5AB",
"F. c #9CA4B1",
"G. c #A6A6A3",
"H. c #A7ABAE",
"J. c #A5A7B3",
"K. c #F5B983",
"L. c #DDC199",
"P. c #DBD193",
"I. c #EDC09E",
"U. c #E7CB9B",
"Y. c #FDD59D",
"T. c #F5CF88",
"R. c #DCC9AB",
"E. c #CECCBE",
"W. c #D4C9BB",
"Q. c #D8C9B6",
"!. c #E9CAA3",
"~. c #ECC6AD",
"^. c #E3C8A6",
"/. c #EED3A4",
"(. c #F5D6A1",
"). c #E3C9BA",
"_. c #FADBB8",
"`. c #ECDDB6",
"'. c #FFE5AD",
"]. c #FFE5BC",
"[. c #D5BEC6",
"{. c #BCD2DB",
"}. c #CBCAC4",
"|. c #C5CBCC",
" X c #CACCCC",
".X c #CAC8C8",
"XX c #D5CCC4",
"oX c #D8C6CD",
"OX c #C7D0CF",
"+X c #D1D1CF",
"@X c #C5CBD4",
"#X c #CBCCD3",
"$X c #CBCDDA",
"%X c #C3CBDB",
"&X c #D0CFD6",
"*X c #D9C7D3",
"=X c #C7D3D6",
"-X c #C4D4DC",
";X c #C9D2D6",
":X c #D7D4D6",
">X c #E8DCCB",
",X c #E1D7DF",
"<X c #DFE1DE",
"1X c #E9E3CB",
"2X c #ECE3D8",
"3X c #FFE4D7",
"4X c #C5CCE1",
"5X c #D2CFE4",
"6X c #CFD0E2",
"7X c #D6DBE4",
"8X c #D7DCED",
"9X c #D8D5E6",
"0X c #E3DEE2",
"qX c #DEE0EC",
"wX c #E7E7E8",
"eX c #E2E7F5",
"rX c #F4E6EB",
/* pixels */
"g.g.g.g.g.g.g.g.g.g.g.g.g.g.g.g.g.g.g.g.g.g.g.g.g.g.g.g.g.g.g.g.g.g.g.g.g.g.g.g.g.g.g.g.g.g.g.g.g.g.g.g.g.g.g.g.g.g.g.g.s.g.g.g.",
"g.g.g.g.g.g.g.g.g.g.d.g.g.g.g.g.g.g.g.g.g.g.g.g.g.b.g.g.g.g.g.g.g.d.g.g.g.g.g.g.g.g.g.g.g.g.g.g.g.g.g.g.g.g.g.g.g.g.g.g.g.g.g.g.",
"g.g.g.g.g.g.g.g.g.g.g.g.g.g.g.g.g.g.g.g.g.g.g.g.g.g.g.g.g.g.g.g.g.g.g.g.g.g.g.g.g.g.g.g.g.g.g.g.g.g.g.g.g.g.d.g.g.g.g.g.g.g.g.g.",
"g.g.g.g.g.g.g.g.g.g.g.g.g.g.g.g.g.g.g.g.g.g.g.s.g.g.g.g.g.g.g.g.g.g.g.g.g.g.g.g.g.d.g.g.g.g.g.g.g.g.d.g.g.g.g.g.b.g.g.g.g.g.g.g.",
"g.g.g.g.g.g.g.g.g.g.g.g.g.g.g.g.g.g.g.g.g.g.g.g.g.g.g.g.g.g.g.g.g.g.g.g.g.g.g.g.g.g.g.g.g.g.g.g.g.g.g.g.g.g.g.g.g.g.g.g.g.g.g.g.",
"g.g.g.g.g.g.g.g.g.g.g.d.g.g.g.g.g.g.g.g.g.g.g.g.g.g.g.g.g.g.g.g.g.g.g.g.g.g.g.g.g.g.g.g.g.g.g.g.g.g.g.g.g.g.g.g.g.d.g.g.g.g.g.g.",
"g.g.g.g.g.g.g.g.g.g.g.g.g.g.g.g.g.g.s.g.g.g.g.g.g.g.g.g.g.g.g.g.g.g.g.g.g.g.g.d.g.g.g.g.g.g.g.g.g.g.g.g.g.g.g.g.g.g.g.g.g.g.g.g.",
"g.g.g.g.g.d.g.g.g.g.g.g.g.g.g.g.g.g.g.g.g.g.g.g.g.g.g.s.g.g.g.g.g.g.g.g.g.g.g.g.g.g.g.g.g.g.g.g.g.g.g.g.g.g.g.g.g.g.g.g.g.g.g.g.",
"g.g.g.g.g.g.g.g.g.g.g.g.g.g.g.g.s.g.g.g.g.g.g.g.g.g.s.g.g.g.g.g.g.g.g.g.g.g.g.g.g.g.g.g.g.g.g.g.g.g.g.g.g.g.g.g.g.g.g.g.g.g.g.g.",
"g.g.g.g.g.b.g.g.g.g.g.g.g.g.g.g.g.g.g.g.g.g.g.g.g.g.g.g.g.g.g.g.g.g.g.g.g.g.g.g.g.g.g.g.g.g.g.g.g.g.g.s.g.g.g.g.g.g.g.g.g.g.g.g.",
"g.g.g.g.g.g.g.g.g.g.g.g.g.g.g.g.g.g.g.g.g.g.g.g.g.g.g.g.g.g.g.g.g.g.g.g.g.g.g.g.g.g.g.g.g.g.g.g.g.g.g.g.g.g.g.g.g.g.g.g.g.g.g.g.",
"g.g.g.s.g.g.g.g.g.g.g.g.g.g.d.g.g.g.g.g.g.g.g.g.g.g.g.g.g.g.g.g.g.g.g.g.g.g.g.g.g.g.g.g.g.g.g.g.g.g.g.b.g.g.g.g.g.g.g.g.d.g.g.g.",
"g.g.g.g.g.g.g.g.g.g.g.g.g.g.g.g.g.g.g.g.g.g.g.g.g.g.g.g.g.g.g.g.d.g.g.g.g.g.g.g.s.g.g.g.g.g.g.g.g.g.g.g.g.g.g.g.g.g.g.g.g.g.g.g.",
"g.g.g.g.g.g.g.g.g.g.g.g.g.g.g.g.g.g.g.g.g.g.g.g.g.g.g.g.g.g.g.g.g.g.g.g.g.g.g.g.g.g.g.g.g.g.g.g.g.g.g.g.g.g.g.g.g.g.g.g.g.g.g.g.",
"g.g.g.g.g.g.g.d.g.g.g.g.g.g.g.g.g.g.g.g.g.g.g.g.g.g.g.g.g.g.g.g.g.g.g.g.g.g.g.g.g.g.g.g.g.g.g.g.g.g.g.g.d.g.g.g.g.g.g.g.g.g.g.g.",
"g.g.g.g.g.g.g.g.g.g.g.g.g.g.g.g.g.v.g.g.s.s.g.g.B.B.g.B.B.B.h.B.h.V.g.B.B.B.g.B.g.g.s.g.g.g.h.g.g.g.g.g.g.g.g.g.g.g.g.g.g.g.g.g.",
"g.g.g.g.g.g.g.g.g.g.g.g.g.g.g.g.p.A.B.a.c.e.s.A.: l j : l 8 6 6 b 9 8 5 l g : = c.e.c.b.a.g.C.p.g.g.g.g.g.g.g.g.g.g.g.g.g.g.g.g.",
"g.g.g.g.g.g.g.g.g.g.g.g.g.g.g.g.v.v.B.f.c.x.u.p.l x l n n x z 9 b n 8 8 c c z 5 i.s.d.d.a.g.A.A.g.g.g.g.g.g.g.g.g.g.g.g.g.g.g.g.",
"g.g.d.g.g.g.g.g.g.g.g.g.g.g.g.s.s.s.f.S.s.c.v.V.6 w 6 5 8 8 l : : - - 4 8 z w 7 C.S.A.v.h.s.r.e.g.g.g.g.g.g.g.g.g.g.g.d.g.g.g.g.",
"g.g.g.g.g.g.g.g.g.g.g.g.g.g.g.d.r.s.B.D.q.u.V.Z.9 q 9 q 9 z e e , - 5 6 q V V M Z.C.i.t.D.v.e.e.c.g.g.g.g.g.g.g.g.g.g.g.g.g.g.g.",
"g.g.g.g.g.g.g.g.s.g.g.g.g.g.g.g.b.g.g.t.N t 8 k 4X%X%X@X@X@X@X|.;X$X$X6X-XqXqXqX8 8 t N t.B.h.b.g.g.g.g.g.g.g.g.g.g.g.g.g.g.g.g.",
"g.g.g.g.g.g.g.g.g.g.g.g.g.g.g.s.d.s.b.i.r : k k 4X=X;XOX$X#X+X+X+X&X5X9XqX2XqXeX8 w < t N.V.h.g.g.g.g.g.g.g.g.g.g.g.g.g.g.g.g.g.",
"g.g.g.g.g.g.g.g.g.g.g.b.g.g.g.g.s.s.b.h.8 l M z }.E.W.E. X X X}.E..X$X&X>X1X2X0Xc c 8 6 V.V.s.s.s.g.g.g.g.g.g.g.g.g.g.g.g.g.g.g.",
"g.g.g.g.d.g.g.g.g.g.g.g.g.g.g.g.s.s.h.A.8 l c < R.U.U.R.XX#XOX=X|. X&X:X(.'.3X3Xw c k 8 V.h.e.x.s.g.g.g.g.g.g.g.g.g.d.g.g.g.g.g.",
"g.g.g.g.g.g.g.g.g.g.g.g.g.g.g.g.g.r.j.V.g h z @ 1.} @.;.R..X-X{.{.=XOXQ.:.{ @.3.1 z g g Z.b.e.c.c.g.g.g.g.g.g.g.g.g.g.g.s.g.g.g.",
"g.g.g.g.g.g.g.g.g.g.g.g.g.g.g.g.g.s.j.h.h h z s _ H ^ ] R.E.;X4X{.=X}.R._ Y H _ # t g j V.g.u.s.g.g.g.g.g.g.g.g.g.g.g.g.g.g.g.g.",
"g.g.g.g.g.g.g.g.g.g.g.g.g.g.g.g.g.h.j.a.n g 5 o 2.X.X.#.(.R.W.}.}.}.Q./.[ ....2.o , > n f.V.B.B.g.g.g.g.g.g.g.g.b.g.g.g.g.g.g.g.",
"g.g.g.g.g.s.b.g.g.g.g.g.g.g.g.g.S.h.d.w.Z n 5 @ -.` ) / Y.U.!.!.!.!.!.Y./ ( ` -.o < r Z w.d.B.S.g.g.g.g.d.g.g.g.g.g.g.g.g.g.g.g.",
"g.g.g.g.g.g.g.g.g.g.g.g.g.g.g.g.i.f.h.G.t.M.g.b.3 a i f -.` O.O.O.+.` -.f i a 3 h.V.N.y.n.c.u.u.g.g.g.g.g.g.g.g.g.g.g.g.g.g.g.g.",
"g.g.g.g.g.g.g.g.g.g.g.d.g.g.g.g.p.g.s.v.g.b.v.A.& &   X ;.}  .Q ! ! } ` X % $ & B.A.Z.B.c.e.s.g.g.g.g.g.g.g.g.g.g.d.g.g.g.g.g.g.",
"g.g.g.g.g.g.g.g.g.g.g.g.g.g.g.g.g.h.g.i.h.g.s.g.C C 9 u &.! K D K K Y *.p z C M p.s.g.v.u.k.c.g.g.g.g.g.g.g.g.g.g.g.g.g.g.g.g.g.",
"d.g.g.g.g.g.g.g.g.g.g.g.g.g.g.d.d.d.s.u.b.g.r.h.g h 0 . ,.O.}  .| ] +.,.@ 8 h > x.e.B.A.u.l.A.f.g.g.g.g.g.g.g.g.g.g.g.g.g.g.g.g.",
"g.g.g.g.g.g.g.g.g.g.g.g.g.g.g.g.g.g.s.d.h.h.d.s.C.S.s.n.  3 X O O @ 3   G.f.A.A.s.d.V.B.u.k.B.B.g.g.g.g.g.g.g.g.g.g.g.g.g.g.g.g.",
"g.g.g.g.g.g.g.g.g.g.g.g.g.g.g.g.g.g.d.d.V.V.h.g.S.f.a.S.7 m z : g c B 7 S.a.p.v.d.d.B.C.l.k.g.g.g.g.g.g.g.g.g.g.g.g.g.g.g.g.g.g.",
"g.g.g.g.d.g.g.g.g.g.g.g.g.g.g.g.g.x.r.d.f.V.V.h.N.N.B.B.; ; 8 8 7 l 4 4 C.A.i.p.g.h.C.M.k.k.x.g.g.g.g.g.g.g.g.g.g.s.g.g.g.b.g.g.",
"g.g.g.g.g.g.g.g.g.g.g.g.g.g.g.g.g.s.s.s.V.N.h.h.J.F.B.q.S m 5 - : 8 b S y.C.F.F.B.g.C.B.x.k.s.g.g.g.g.g.g.g.g.g.g.g.g.g.g.g.g.g.",
"g.g.g.g.g.g.g.g.g.g.g.d.g.g.g.g.g.g.g.z.B.g.g.s.$ = & A J.$X@X$X=X;X|.H.A & 4 & s.p.B.A.p.g.B.g.g.g.g.g.g.g.g.g.g.g.g.g.g.g.g.g.",
"g.g.g.g.g.g.g.g.g.g.g.g.g.g.g.g.C.B.z.M.p.g.d.s.e M & y *X0X.X#X#X X:X#Xr = M t v.g.B.M.g.g.g.B.B.g.g.g.g.g.g.g.g.g.g.g.g.g.s.g.",
"g.g.g.g.g.g.g.g.g.g.g.g.g.g.g.h.V.g.z.z.g.g.s.g.: M x 9 *X[.oXoX*X.X.XoXz x m : B.z.B.g.x.s.g.h.g.g.g.g.g.g.g.g.g.g.g.g.g.g.g.g.",
"g.g.g.g.g.g.g.g.g.g.g.g.g.g.g.g.g.g.z.z.g.g.g.B.g : 7 w ).~.!.!.^.).Q.XX0 k l l A.M.g.B.x.s.s.h.g.g.g.g.g.g.g.g.g.g.g.g.g.g.g.g.",
"g.g.g.g.g.g.g.g.g.g.g.g.g.g.g.g.h.d.v.u.t 5 e 5 %X=X XR.<.` [ [ 4.4.7.P.1XwXeXeX8 t 5 6 a.g.d.s.g.g.g.g.g.g.g.g.g.g.g.d.g.g.g.g.",
"d.g.g.g.g.g.g.g.g.g.g.g.g.g.g.h.f.h.g.p.8 8 l 8 {.|.W.L.&.E Y L 6.5.4.P.`.2X0XeX8 k 8 9 f.h.s.g.g.g.g.g.g.g.g.g.g.g.g.g.g.g.g.g.",
"g.g.g.g.g.g.g.g.g.g.g.g.g.g.g.g.h.h.f.f.l k c x *XXX).I.2.} ! U 5.5.4.T._.3XrXrXv c x z N.V.g.g.g.g.g.g.d.g.g.g.g.g.g.g.g.g.g.g.",
"g.g.g.g.g.g.g.g.g.g.g.g.g.g.g.g.h.h.h.f.z x x 6 Q.R.!.K.%.^ U U o.5.=.9.Y._._.>Xw c v 9 B.g.f.g.g.g.g.g.g.g.g.g.g.g.g.g.g.g.g.g.",
"g.g.g.g.g.g.g.g.g.g.g.g.g.g.g.g.g.d.d.s.e 8 5 @ >.' $.| Y F P K T T Y E %.*.' >.@ 6 5 e f.c.g.f.g.g.g.g.g.g.g.g.g.g.g.d.g.g.g.g.",
"g.g.g.g.g.g.g.g.g.g.g.g.g.g.g.g.g.s.r.s.e 8 t o ' E ~ ! G F P P K L G G I Y E ` u 6 5 e u.v.s.s.g.g.g.g.g.g.g.g.g.g.g.g.g.g.g.g.",
"g.g.g.g.g.g.g.d.g.g.g.g.g.g.g.g.f.g.d.g.x l 9 o $.! Q T L L U I I T F D P ! T &.s q k h M.g.g.g.g.g.b.g.g.g.g.g.g.g.g.g.g.g.g.g.",
"g.g.g.g.g.g.g.g.g.g.g.g.g.g.g.g.B.g.v.f.l x z + ;.] O.%.] [ #.#.#.@.[ }  . .] ;.+ z k n M.B.g.f.g.g.s.g.g.g.g.g.g.g.g.g.g.g.g.g.",
"g.g.g.g.g.g.g.g.g.g.g.g.g.g.g.g.g.g.g.g.C.C.C.h.1 O O O O O + + 1 2 + O O a O 2 h.C.C.B.B.B.g.g.g.g.g.g.g.g.g.g.g.g.g.g.g.g.g.g.",
"g.g.g.g.g.g.g.g.g.g.g.g.g.g.g.g.g.g.g.B.g.g.g.C.9 9 z z c z x z z z z z z 8 l 9 C.C.g.g.g.g.g.g.g.g.g.g.g.g.g.g.g.g.g.g.g.g.g.g.",
"g.g.g.g.g.d.g.g.g.g.g.g.g.d.g.g.g.g.g.g.g.g.B.C.6 8 8 8 8 8 8 8 8 8 8 8 8 w 8 5 V.g.g.g.g.g.g.g.g.g.g.g.g.g.g.g.g.g.g.g.g.g.g.g.",
"g.g.g.g.g.g.g.g.g.g.g.g.g.g.g.g.g.g.g.g.g.g.B.g.6 6 9 9 9 9 9 9 9 9 9 9 9 8 t 9 B.g.g.g.g.g.g.g.g.g.g.g.g.g.g.g.g.g.d.g.g.g.g.g.",
"d.g.g.g.g.g.g.g.g.g.g.g.g.g.g.g.g.s.g.c.g.g.g.g.f.f.B.N.N.N.B.f.N.N.N.N.f.B.f.f.g.g.g.s.g.g.s.g.g.g.g.g.g.g.g.g.g.g.g.g.g.g.g.g.",
"g.g.g.g.g.g.g.g.g.g.g.g.g.g.g.g.g.s.d.s.s.s.g.g.g.B.g.B.g.B.B.g.V.g.B.B.B.B.B.g.g.g.d.s.s.c.g.s.g.g.g.g.d.g.g.g.g.g.g.g.g.g.g.g.",
"g.g.g.g.g.g.g.g.s.g.g.g.g.b.g.g.g.g.g.c.s.d.g.g.g.g.f.B.g.g.g.g.g.g.g.g.g.g.g.g.g.d.s.g.g.s.d.g.g.g.g.g.g.g.g.g.g.g.g.g.g.g.g.g.",
"g.g.g.g.g.g.g.g.g.g.g.g.g.g.g.g.g.s.g.s.s.s.s.g.g.g.g.g.g.f.f.g.a.g.g.g.g.f.g.g.g.g.s.s.s.c.g.g.g.g.g.g.g.g.g.g.g.g.g.d.g.g.g.g."
};
