/* XPM */
static char *e5ce9d71208d43c7caa33c73048253df9cdBFzASW36LHHz2[] = {
/* columns rows colors chars-per-pixel */
"64 56 196 2 ",
"   c #39250F",
".  c #292019",
"X  c #2A2014",
"o  c #3C2315",
"O  c #3A2917",
"+  c #3C271B",
"@  c #342A1C",
"#  c #3C2A1B",
"$  c #372413",
"%  c #2A1E2A",
"&  c #301E36",
"*  c #1D262C",
"=  c #1F2928",
"-  c #1C2524",
";  c #1D2734",
":  c #1E2439",
">  c #1C2B3A",
",  c #26242C",
"<  c #3C2621",
"1  c #332B22",
"2  c #3A2B20",
"3  c #222434",
"4  c #2A2433",
"5  c #252B34",
"6  c #2A2D36",
"7  c #24263B",
"8  c #252A3C",
"9  c #2A2C3C",
"0  c #28253A",
"q  c #342D34",
"w  c #33293B",
"e  c #233236",
"r  c #25303C",
"t  c #2B303B",
"y  c #2C3232",
"u  c #323438",
"i  c #462C14",
"p  c #40251B",
"a  c #462A19",
"s  c #422321",
"d  c #4E3F2A",
"f  c #523D2C",
"g  c #1C2940",
"h  c #252643",
"j  c #2C2645",
"k  c #242A43",
"l  c #2B2C43",
"z  c #2E274B",
"x  c #262C49",
"c  c #2D2D4B",
"v  c #302742",
"b  c #312A4C",
"n  c #233040",
"m  c #2C3244",
"M  c #2C314C",
"N  c #323249",
"B  c #353F48",
"V  c #383947",
"C  c #393B50",
"Z  c #3C4A55",
"A  c #414951",
"S  c #404759",
"D  c #FFA11C",
"F  c #F7A71F",
"G  c #F6A423",
"H  c #FDA525",
"J  c #F5AB24",
"K  c #FAAA22",
"L  c #FEA62B",
"P  c #F4AB29",
"I  c #FAAA2C",
"U  c #F0B12E",
"Y  c #ECA83D",
"T  c #F6A635",
"R  c #F6AD30",
"E  c #F5A93B",
"W  c #F4B131",
"Q  c #BA9D5C",
"!  c #DCAB4D",
"~  c #CDAA56",
"^  c #DDAC55",
"/  c #D4AB57",
"(  c #DFB257",
")  c #EDA74F",
"_  c #E4AD4D",
"`  c #EBA84C",
"'  c #E8A443",
"]  c #F6AB47",
"[  c #ECBA49",
"{  c #FFBD4A",
"}  c #FAB946",
"|  c #E6AA53",
" . c #EAA951",
".. c #E5A855",
"X. c #D2AD6B",
"o. c #D5AB69",
"O. c #ECCC4B",
"+. c #FCC34C",
"@. c #F5C944",
"#. c #ECCA58",
"$. c #FFC657",
"%. c #F0C856",
"&. c #FBC853",
"*. c #F4C95A",
"=. c #E1CE6B",
"-. c #E9C66A",
";. c #E3CB75",
":. c #E2C97A",
">. c #EAC97C",
",. c #7F8995",
"<. c #868A8E",
"1. c #868F91",
"2. c #898C93",
"3. c #898B9A",
"4. c #8E9A95",
"5. c #8E979B",
"6. c #8E9A9B",
"7. c #929693",
"8. c #959C95",
"9. c #9A9C96",
"0. c #95969A",
"q. c #98979D",
"w. c #969C9A",
"e. c #9A9C9C",
"r. c #95A095",
"t. c #96A19D",
"y. c #9CA19C",
"u. c #9396A1",
"i. c #959CA2",
"p. c #9A9CA2",
"a. c #9797AF",
"s. c #9A97A8",
"d. c #949CAA",
"f. c #999DA9",
"g. c #9499B1",
"h. c #94A1A3",
"j. c #9AA2A3",
"k. c #9AA3AB",
"l. c #9FA9AA",
"z. c #9CB0B1",
"x. c #A3A4A5",
"c. c #A4A6A9",
"v. c #A8A4A3",
"b. c #A3ACB5",
"n. c #C3BDB4",
"m. c #D9CA93",
"M. c #E6C79B",
"N. c #EAC99E",
"B. c #DDCAAE",
"V. c #CFC7B4",
"C. c #CEC8B0",
"Z. c #DBCDB5",
"A. c #DBCDBE",
"S. c #D3C5B5",
"D. c #D4D0BE",
"F. c #E2CBAB",
"G. c #EBC8A0",
"H. c #E9D2A0",
"J. c #E0CBB6",
"K. c #EBDCB5",
"L. c #BED0D1",
"P. c #CACBC7",
"I. c #C6C5CD",
"U. c #C6CCCC",
"Y. c #CACDCC",
"T. c #CAC5C7",
"R. c #D2CECE",
"E. c #D7CAC5",
"W. c #C9D0C9",
"Q. c #D8D0CE",
"!. c #CEC7D5",
"~. c #C5CAD6",
"^. c #C4CCD3",
"/. c #CACED2",
"(. c #CACCD5",
"). c #C5CAD8",
"_. c #C7CDD9",
"`. c #CBCDDA",
"'. c #D3CDD3",
"]. c #C7D0D5",
"[. c #CAD1D5",
"{. c #CAD1D4",
"}. c #C7D0D9",
"|. c #CDD3DB",
" X c #D5D1D2",
".X c #D1D1D9",
"XX c #DBD6DC",
"oX c #D9D5D4",
"OX c #E5DCDB",
"+X c #D0E0DD",
"@X c #D7DCE0",
"#X c #DCDAE8",
"$X c #E2DBE4",
"%X c #EBE4E3",
"&X c #EBE5EC",
"*X c #EAE7E8",
/* pixels */
"w.w.w.w.w.w.w.w.w.w.w.w.w.w.w.w.w.w.w.w.w.w.w.w.w.w.w.w.w.w.w.w.w.w.w.w.w.w.w.w.w.w.w.w.w.w.w.w.w.w.w.w.w.w.w.w.9.w.w.w.w.w.w.w.",
"w.w.w.w.w.w.w.w.w.w.w.w.w.w.w.w.w.w.w.w.w.w.w.w.w.w.w.w.w.w.w.w.w.w.w.w.w.9.w.w.9.w.w.w.w.w.w.w.w.w.w.9.w.w.w.w.w.w.w.w.w.w.w.w.",
"w.w.w.w.w.w.w.w.9.w.w.w.w.w.w.w.w.w.w.w.w.w.w.w.w.w.w.w.w.w.w.w.w.w.w.w.w.w.w.w.w.w.w.w.w.w.w.w.w.w.w.w.w.w.w.w.w.w.w.w.w.w.w.r.",
"w.w.w.w.w.w.w.w.w.w.w.w.w.w.w.w.w.w.w.w.w.w.w.9.w.w.w.w.9.w.w.w.w.w.w.w.w.w.w.w.w.w.w.w.w.w.w.w.w.w.w.w.w.w.w.w.w.w.w.w.w.w.w.w.",
"w.w.w.w.w.w.w.w.w.w.w.w.w.w.w.w.w.w.w.w.w.w.w.w.w.w.w.w.w.w.w.w.w.w.w.w.w.w.w.w.w.w.w.w.w.w.w.w.w.w.w.w.w.w.w.w.w.w.w.w.w.w.w.w.",
"w.w.w.w.w.w.w.w.w.w.w.w.9.w.w.w.w.w.9.w.w.w.w.w.w.w.w.w.w.w.w.w.w.w.w.w.w.w.w.w.w.w.w.w.9.w.w.w.w.w.w.w.9.w.w.w.w.w.w.w.w.w.w.w.",
"w.w.w.w.w.w.w.w.w.w.w.w.w.w.w.w.w.w.w.w.w.w.w.w.w.w.9.w.w.w.w.w.w.w.w.w.w.w.w.w.w.w.w.w.w.w.w.w.w.w.w.w.w.w.w.w.w.w.w.w.w.w.w.w.",
"w.w.w.w.w.9.w.w.w.9.w.w.w.w.w.w.w.w.w.w.w.w.w.9.w.w.w.w.w.w.w.w.w.w.w.w.9.w.w.w.w.w.w.w.w.w.w.w.w.w.w.w.w.w.w.w.w.w.w.w.w.w.w.w.",
"w.w.w.w.w.w.w.9.w.w.w.w.w.w.w.w.w.w.w.w.w.w.w.w.w.w.w.w.w.w.w.w.w.w.w.w.w.w.w.w.w.w.w.w.w.w.w.w.w.w.w.w.w.w.w.w.w.w.w.w.w.w.w.w.",
"w.w.w.w.w.w.w.w.w.w.w.w.w.w.w.w.w.w.w.w.w.w.w.w.w.w.w.w.w.w.w.w.w.w.w.w.w.w.w.w.w.w.w.w.w.w.w.w.w.w.w.w.w.w.w.w.w.w.w.w.w.w.w.w.",
"w.w.w.w.w.w.w.w.w.w.w.w.w.w.w.w.w.w.w.w.w.w.w.w.w.w.w.w.w.w.w.w.w.w.w.w.w.w.w.w.w.w.w.w.w.w.w.w.w.w.w.w.w.w.w.w.w.w.9.w.w.w.w.w.",
"w.w.w.w.w.w.w.w.w.w.w.w.w.w.9.w.w.w.w.w.w.w.w.w.w.w.w.w.w.w.w.w.w.9.w.w.w.w.w.w.w.w.w.w.w.w.w.w.w.w.w.w.9.w.w.w.w.w.w.w.w.w.w.w.",
"w.w.w.w.w.w.w.w.w.w.w.w.w.w.w.w.w.w.w.w.w.w.w.w.w.w.w.w.w.w.w.w.w.w.w.w.w.w.w.w.w.w.w.w.w.w.w.w.w.w.w.w.w.w.w.w.w.w.w.w.w.w.w.9.",
"w.9.w.w.w.w.w.w.w.9.w.w.w.w.w.w.w.w.w.w.w.w.w.w.w.w.w.w.w.w.w.w.w.w.w.w.w.w.w.w.w.w.w.w.w.w.w.w.w.w.w.w.w.w.w.w.w.w.w.w.w.w.w.w.",
"w.w.w.w.w.w.w.w.w.w.w.w.w.w.w.w.w.w.w.w.w.w.w.w.w.w.w.w.w.w.w.w.w.w.w.w.w.w.w.w.w.w.w.w.w.w.w.w.w.w.w.w.w.w.9.w.w.w.w.w.w.w.w.w.",
"w.w.w.w.w.w.w.w.w.w.w.w.w.w.w.w.w.w.w.e.w.w.w.w.w.i.w.w.u.e.i.p.i.w.i.w.i.i.e.w.w.w.9.w.w.w.e.w.w.9.w.w.w.w.w.w.w.w.w.w.w.w.w.w.",
"w.w.w.w.9.w.w.w.w.w.w.w.w.w.w.w.9.w.e.0.e.9.9.e.5 8 r 8 8 8 k 8 n r > 8 h 9 0 4 r.4.r.t.0.e.i.8.w.w.w.w.w.w.w.w.w.8.w.w.w.w.w.w.",
"w.w.w.w.w.w.w.w.w.w.w.w.w.w.w.w.w.t.q.q.e.9.8.0.8 k k n x n x x M x k k c c z 0 6.8.r.r.0.q.p.e.w.w.w.w.w.w.w.w.w.w.w.w.w.w.w.w.",
"w.w.w.w.w.w.w.w.w.w.w.w.w.w.w.w.9.8.0.p.q.e.p.f.8 k k k k k h h k g g g h h h 7 k.h.t.w.e.0.8.8.w.w.w.w.w.w.w.w.w.w.w.w.w.w.w.w.",
"w.w.w.w.w.w.w.w.w.w.w.w.w.w.w.w.7.8.e.c.2.0.p.f.l k c x l l w m k g > 8 N N N m h.d.6.1.c.e.8.7.9.w.9.y.w.w.w.w.w.w.w.w.w.w.w.w.",
"w.w.w.w.w.r.w.w.w.w.w.w.w.w.w.w.y.e.w.<.V t 6 5 ~.~.).).~./.Y.Y.(.(.'..X@X$X$X#X> 8 n Z 2.9.w.t.w.w.w.w.w.w.w.w.w.w.w.w.w.w.w.w.",
"w.w.w.w.w.w.w.w.w.w.w.w.w.w.w.w.e.e.y.0.t 3 8 5 [.]././.Y.'.P.Y. X'. XXXOX*X&X&X8 8 ; 8 6.t.9.r.w.w.w.w.w.w.w.w.w.w.w.w.w.w.w.9.",
"w.w.w.w.w.w.w.w.w.w.w.w.w.w.w.w.e.q.e.i.8 8 l m /.U.U.U.P.P.P.P.P.T.E.Q.OXOX%X&X9 l k k i.r.6.8.w.w.w.w.9.w.w.w.w.w.w.w.w.w.w.w.",
"w.w.w.w.w.w.w.w.w.w.w.w.w.w.w.w.p.0.e.p.8 k x 5 W.W.W.U.Y.Y.Y./.Y.Y.R.oXOX%X*X&X5 c g 8 j.w.6.w.w.w.w.w.w.w.w.w.w.w.w.w.w.w.w.w.",
"w.w.w.w.w.w.w.w.w.w.w.w.w.w.w.w.w.6.r.f.k h x 8 [.U.U././.(.`.).).`.[././.U././.0 l k 8 j.t.0.f.w.w.w.w.w.w.w.w.w.w.w.w.w.w.w.w.",
"w.w.w.w.w.w.w.w.w.w.w.w.w.w.w.w.w.6.t.i.k h l r ^.].|.{.R.P.'..X.X/.Y.W.}.|.(.~.9 l h h w.t.6.w.w.w.w.w.9.w.w.w.9.w.w.w.w.w.w.w.",
"w.w.w.w.w.w.w.w.w.w.w.w.w.w.w.w.w.h.j.5.c h 8 5 U.|..XP.D.C.S.E.E.C.C.D.U.|.|.^.5 6 0 l 0.j.i.w.w.w.w.w.w.w.w.w.w.w.w.w.w.w.w.w.",
"w.w.w.w.w.9.w.w.w.w.w.w.w.w.w.r.h.w.w.2.B l 5 5 ^.(.T.n.K.H.N.G.N.M.H.K.n.^._.^.5 6 w C 1.w.i.j.w.w.w.w.w.w.w.w.w.w.w.w.w.w.w.w.",
"w.w.w.w.w.w.w.w.w.w.w.w.w.w.w.w.4.8.e.c.3.u.i.j.8 t q d Q / ^ ......^ Q f q l 9 p.e.u.2.l.t.6.4.t.w.w.w.w.w.w.w.w.w.w.w.9.w.w.w.",
"w.w.w.w.w.w.w.w.w.9.w.w.w.w.w.w.8.8.8.e.i.p.t.h.l 8 , a ~ [ Y T T E ] / a % 8 l p.e.p.f.t.4.4.r.w.w.w.w.w.w.w.w.w.w.w.w.w.w.w.w.",
"w.9.w.w.w.w.w.w.w.w.w.w.w.w.w.9.w.y.8.7.p.p.4.6.x c & a ! U F D D G P ! i & c x 6.8.u.j.4.4.r.r.w.w.w.w.w.w.w.w.w.w.w.w.w.w.w.w.",
"w.w.w.w.w.w.w.w.w.w.w.w.w.w.w.9.7.w.9.7.j.w.8.i.k b w p X.^ Y ] ] ' _ o.# 6 M g i.w.i.j.4.r.r.4.9.w.w.w.w.w.w.w.w.9.w.w.w.w.w.w.",
"w.w.w.w.w.w.w.w.w.w.w.w.w.w.w.w.w.4.8.9.6.t.6.6.w.p.0.v.. 2 $ o o o a . x.w.k.d.w.w.e.e.w.9.4.t.8.w.w.w.w.w.w.w.w.w.w.w.w.w.w.w.",
"w.w.w.w.w.w.w.w.w.w.w.w.w.w.w.w.t.t.9.9.w.d.d.w.y.7.0.x.8 M l 7 h c N 3 k.6.6.t.9.q.q.q.w.9.w.t.w.w.w.w.w.w.w.w.w.w.w.w.w.w.w.w.",
"w.w.w.w.w.w.w.w.w.w.w.w.w.w.w.w.8.8.q.e.f.i.d.e.8.7.e.e.3 ; c j h k : : d.h.6.6.w.w.9.9.9.9.8.r.w.w.w.w.w.w.w.w.w.w.w.w.w.9.w.w.",
"w.w.w.w.w.w.w.w.w.w.w.w.w.w.w.w.r.w.q.q.p.i.w.w.c.x.i.<.A t l 7 7 8 m S ,.d.k.l.w.w.8.9.8.8.w.6.w.w.w.w.w.w.w.w.w.w.w.w.w.w.w.w.",
"w.9.w.w.w.w.w.w.w.r.w.w.w.w.w.w.6.h.e.i.8.8.r.t.* ; ; Z z.L.].W.].^.^.b.Z * = - w.i.w.8.9.w.i.w.w.w.w.w.w.w.w.w.9.w.w.w.w.w.w.w.",
"w.w.w.w.w.w.w.w.w.w.w.w.w.w.w.w.t.6.e.q.r.r.r.6.9 m : m ].|.L.W.W.P.@X~.u , y y u.d.6.t.w.w.e.i.w.w.w.w.w.w.w.w.w.w.w.w.w.w.w.w.",
"w.w.w.w.w.w.w.w.w.w.w.w.w.w.r.6.t.6.w.w.r.4.i.i.4 w l j /.U.T.R.R.T.!.!.q q q , a.g.d.i.w.w.w.i.w.w.w.w.w.w.w.w.w.w.w.w.w.w.w.w.",
"w.w.w.w.w.w.w.w.w.w.w.w.w.w.w.w.6.w.w.9.w.6.d.p.#   o o J.B.F.B.B.Z.Z.A.$ O   @ s.g.d.d.6.w.u.u.w.w.w.w.w.w.w.w.w.w.w.w.w.w.w.w.",
"w.w.w.w.9.w.w.w.w.w.w.w.w.w.w.w.t.8.q.0.e 5 l < X.^ _ _ | _ _ ! -.=.=.=.;.:.:.m.1 9 5 e 0.w.w.w.w.w.w.w.w.w.w.w.w.w.w.w.w.9.w.w.",
"w.w.w.w.w.w.w.w.w.w.w.w.9.w.w.9.8.8.9.w.l 8 v p ( P H K P P P P @.O.O.#.%.%.#.:.@ 9 5 e w.i.w.w.w.w.w.w.w.w.w.w.w.w.w.w.w.y.w.w.",
"w.w.w.w.w.w.w.w.w.w.w.w.w.w.w.w.8.8.8.e.k h z s | K H H I T L I +.&.&.&.$.$.*.:.< 9 5 r w.w.8.4.w.w.w.w.w.w.w.w.w.w.w.w.w.w.w.w.",
"w.w.w.w.w.w.w.w.w.w.w.w.w.w.w.8.8.8.8.7.n k z s ` F H H L L L L } { { +.{ { +.-.s j k r u.w.w.8.8.w.w.w.9.w.w.w.w.w.w.w.w.w.w.w.",
"w.w.w.w.w.w.w.w.w.w.w.w.w.w.w.t.w.6.e.8.e > x # _ P L L I J K K I R R R I I U ( < z 8 n u.i.w.8.w.w.w.w.w.w.w.w.w.w.w.w.w.w.9.w.",
"w.w.w.w.w.w.w.w.w.w.w.w.w.w.w.w.6.w.u.0.e > 9 # _ P I H J J F F K K P K H H J _ s v 8 r u.w.8.4.w.w.w.w.w.w.w.w.w.w.w.w.w.w.w.w.",
"w.w.w.w.w.9.w.w.w.w.w.w.w.w.w.w.r.8.s.u.9 8 l p | I H H K K L L L L I I L H J _ p j 5 r 6.w.9.r.9.w.w.w.w.w.9.w.w.w.w.w.w.w.w.w.",
"w.w.w.w.w.w.w.w.w.w.w.w.w.8.w.r.4.w.f.s.l 0 9 < o._ ) ' [ _  . . . .| ` ) ` _ o.< l 5 e 6.w.8.8.w.w.w.w.w.w.w.w.w.w.w.w.w.w.w.w.",
"w.w.w.w.w.w.w.w.9.w.w.w.w.w.w.w.w.w.i.i.i.i.s.p.1 O o # # # o < + # + # # o O @ q.i.i.i.w.w.w.w.w.w.w.w.w.w.w.w.w.w.w.w.w.w.w.w.",
"w.w.w.w.w.w.w.w.w.w.w.w.w.w.w.w.w.w.w.w.w.e.i.i.0 9 l h h c l l h h c h l l 9 9 i.f.w.w.w.w.w.w.w.w.w.w.w.w.w.w.w.w.w.w.w.w.w.w.",
"w.w.w.w.w.w.w.w.w.w.w.w.9.w.w.w.w.w.w.w.w.w.i.u.5 5 0 8 8 8 8 8 9 8 8 8 8 8 5 5 i.i.w.w.w.w.w.w.w.w.w.w.w.w.w.w.w.w.w.w.w.w.w.w.",
"w.w.w.r.w.w.w.w.w.w.w.w.w.w.w.w.w.w.w.w.w.w.i.e.9 9 t t 9 9 9 8 9 9 9 9 9 9 9 8 i.e.w.w.w.w.w.w.9.w.w.w.w.w.w.w.w.w.9.w.w.w.w.w.",
"w.w.w.w.w.w.w.w.w.w.w.w.w.w.w.w.w.8.w.9.8.w.w.u.w.0.u.u.u.u.0.u.i.u.u.0.u.u.w.w.q.w.8.8.w.8.w.w.w.w.w.w.w.w.w.w.w.w.w.w.w.w.w.w.",
"w.w.w.w.w.w.w.w.9.w.w.w.w.w.w.w.9.w.8.r.8.9.w.w.i.i.i.u.w.i.i.i.e.i.i.i.i.u.i.i.w.w.9.9.9.r.8.w.w.w.w.w.w.w.w.9.w.w.w.w.w.w.w.9.",
"w.w.w.w.w.w.w.w.w.w.w.w.w.w.w.w.w.8.8.9.8.9.8.w.w.w.e.0.w.w.w.w.8.w.w.e.u.w.8.w.w.w.8.8.8.8.8.w.w.w.w.w.w.w.w.w.w.w.w.w.w.w.w.w.",
"w.w.w.w.e.9.w.w.w.w.w.w.w.w.w.w.w.w.w.8.8.r.e.8.8.w.w.w.w.w.w.8.0.8.w.w.w.w.8.w.8.w.8.9.9.r.w.w.w.w.w.w.w.w.w.w.w.w.w.w.w.w.w.w."
};
