/* XPM */
static char *_424919935be457a96ec7bd08255710eVOQlwds1DtGPd1bx[] = {
/* columns rows colors chars-per-pixel */
"64 56 234 2 ",
"   c #1A130B",
".  c #0C141D",
"X  c #1B1417",
"o  c #0E0D1F",
"O  c #251708",
"+  c #3B1E00",
"@  c #231817",
"#  c #3C0B00",
"$  c #3C2507",
"%  c #352518",
"&  c #3C3118",
"*  c #2E241C",
"=  c #0C1429",
"-  c #1C1D2B",
";  c #191927",
":  c #1B1D36",
">  c #080C25",
",  c #201E2C",
"<  c #1C232D",
"1  c #1A2129",
"2  c #1D2334",
"3  c #192439",
"4  c #0F2034",
"5  c #24252D",
"6  c #292729",
"7  c #352A27",
"8  c #232434",
"9  c #252A33",
"0  c #2C2A35",
"q  c #22263B",
"w  c #242C3B",
"e  c #2A2C3C",
"r  c #292734",
"t  c #342D36",
"y  c #2C323C",
"u  c #2F393B",
"i  c #32343D",
"p  c #3A3637",
"a  c #431D00",
"s  c #4C350C",
"d  c #533504",
"f  c #4E3A1E",
"g  c #4E300D",
"h  c #623E16",
"j  c #633C05",
"k  c #473727",
"l  c #4D3E3A",
"z  c #3E403F",
"x  c #594216",
"c  c #714912",
"v  c #564436",
"b  c #574431",
"n  c #6D5532",
"m  c #1F2746",
"M  c #252C43",
"N  c #2B2E41",
"B  c #252A49",
"V  c #2C3345",
"C  c #2D334C",
"Z  c #2E394B",
"A  c #323442",
"S  c #343A45",
"D  c #31344B",
"F  c #343A4B",
"G  c #3A3C4B",
"H  c #3B3A44",
"J  c #2D3451",
"K  c #3D3E53",
"L  c #3B424C",
"P  c #3A4546",
"I  c #3D4453",
"U  c #3C455A",
"Y  c #45454B",
"T  c #554945",
"R  c #585649",
"E  c #434553",
"W  c #444953",
"Q  c #474B5A",
"!  c #524D54",
"~  c #4A545B",
"^  c #57585A",
"/  c #726B57",
"(  c #4C5168",
")  c #5B6271",
"_  c #57616A",
"`  c #646764",
"'  c #6B7076",
"]  c #78787E",
"[  c #736767",
"{  c #83572D",
"}  c #8B5C32",
"|  c #8B6E37",
" . c #A47942",
".. c #877F7D",
"X. c #A67C63",
"o. c #93785A",
"O. c #79847E",
"+. c #B2863F",
"@. c #DF981C",
"#. c #E8951B",
"$. c #F99D14",
"%. c #FEA51D",
"&. c #FAA61A",
"*. c #D29636",
"=. c #EA9C2D",
"-. c #EEA32C",
";. c #EEA326",
":. c #FAA728",
">. c #FFB229",
",. c #EAA63D",
"<. c #F7A835",
"1. c #FDB239",
"2. c #B98D58",
"3. c #B28B53",
"4. c #908770",
"5. c #A9987B",
"6. c #B5976A",
"7. c #BBA47A",
"8. c #D99D42",
"9. c #CA9950",
"0. c #DAA24D",
"q. c #D7A258",
"w. c #DCB454",
"e. c #EAA846",
"r. c #F4AC44",
"t. c #F9B447",
"y. c #EAAB58",
"u. c #E9B456",
"i. c #F7B858",
"p. c #CB9E64",
"a. c #CCA96C",
"s. c #D7A967",
"d. c #C8AC78",
"f. c #D7B375",
"g. c #D0AC7A",
"h. c #E7B668",
"j. c #EFBA73",
"k. c #FEC655",
"l. c #FFC64F",
"z. c #DDC07E",
"x. c #FCC566",
"c. c #F9C878",
"v. c #FFD979",
"b. c #757D87",
"n. c #797D91",
"m. c #6E7487",
"M. c #7D848B",
"N. c #7A8486",
"B. c #7D8594",
"V. c #7F90A0",
"C. c #898E8C",
"Z. c #84878B",
"A. c #8C948E",
"S. c #8C968B",
"D. c #95958A",
"F. c #858B93",
"G. c #8A8E93",
"H. c #858C9B",
"J. c #8A8E99",
"K. c #818694",
"L. c #8D9493",
"P. c #8E9993",
"I. c #8D939B",
"U. c #8F999C",
"Y. c #849190",
"T. c #919694",
"R. c #949B95",
"E. c #999F94",
"W. c #92969B",
"Q. c #969C9A",
"!. c #999E9B",
"~. c #9C9794",
"^. c #96A19C",
"/. c #9BA29D",
"(. c #99A296",
"). c #A1A199",
"_. c #B3A388",
"`. c #8A95A0",
"'. c #959CA2",
"]. c #9A9DA3",
"[. c #9A9DAB",
"{. c #939AA5",
"}. c #A19FA0",
"|. c #9CA2A4",
" X c #9CA3AB",
".X c #9AA5A7",
"XX c #9DA9B4",
"oX c #A1A6A4",
"OX c #A4AAAC",
"+X c #A5A8A7",
"@X c #A7ABB3",
"#X c #ABB1B7",
"$X c #B7B8B8",
"%X c #B2B2A7",
"&X c #C99D84",
"*X c #D8B88A",
"=X c #C6AE91",
"-X c #E9BD80",
";X c #C3B2A8",
":X c #DBC298",
">X c #E4C493",
",X c #F4CF8F",
"<X c #DCC7A7",
"1X c #D9CDBB",
"2X c #CDCBBF",
"3X c #E7CCA5",
"4X c #FCDBB8",
"5X c #EAD7BC",
"6X c #FFE3A8",
"7X c #ACB3C4",
"8X c #B7BAC5",
"9X c #AFB2CB",
"0X c #BEC4C5",
"qX c #BDC3D1",
"wX c #C9C9CA",
"eX c #D3CECA",
"rX c #D6D1C7",
"tX c #C6CAD3",
"yX c #D4D5D3",
"uX c #D4D5DC",
"iX c #DADADB",
"pX c #C8D3D9",
"aX c #E8DBC5",
"sX c #E8DCD8",
"dX c #F6E6CA",
"fX c #F5E1D2",
"gX c #ECE3D8",
"hX c #DAD9E3",
"jX c #D1D5EA",
"kX c #E2DFE6",
"lX c #DCE1EC",
"zX c #E5E3E9",
"xX c #E5E9F8",
"cX c #FCFFFF",
/* pixels */
"Q.Q.Q.Q.Q.Q.Q.Q.Q.Q.Q.Q.Q.Q.Q.Q.Q.Q.Q.Q.Q.Q.Q.Q.Q.Q.Q.Q.Q.Q.Q.Q.!.!.'.!.W.'.Q.Q.Q.Q.Q.Q.Q.Q.Q.Q.Q.Q.Q.Q.Q.Q.Q.Q.Q.Q.Q.Q.Q.Q.Q.Q.",
"Q.Q.Q.Q.Q.Q.Q.Q.Q.Q.Q.Q.Q.Q.Q.Q.Q.Q.Q.Q.Q.Q.Q.Q.Q.Q.Q.Q.Q.Q.Q.Q.W.!.!.W.!.Q.W.!.Q.Q.Q.Q.Q.Q.Q.Q.Q.Q.Q.Q.Q.Q.Q.Q.Q.Q.Q.Q.Q.Q.Q.Q.",
"Q.Q.Q.Q.Q.Q.Q.Q.Q.Q.Q.Q.Q.Q.Q.Q.Q.Q.Q.Q.Q.Q.Q.Q.Q.Q.Q.Q.Q.Q.Q.Q.!.Q.Q.Q.Q.Q.!.Q.Q.E.Q.E.Q.R.Q.R.Q.Q.Q.Q.Q.Q.Q.Q.Q.Q.Q.Q.Q.Q.Q.Q.",
"Q.Q.Q.Q.Q.Q.Q.Q.Q.Q.Q.Q.Q.Q.Q.Q.Q.Q.Q.Q.Q.Q.Q.Q.Q.Q.Q.Q.Q.Q.Q.Q.Q.Q.Q.E.E.Q.Q.Q.Q.W.E.Q.E.Q.(.Q.Q.Q.Q.Q.Q.Q.Q.Q.Q.Q.Q.Q.Q.Q.Q.Q.",
"Q.Q.Q.Q.Q.Q.Q.Q.Q.Q.Q.Q.Q.Q.Q.Q.Q.Q.Q.Q.Q.Q.Q.Q.Q.Q.Q.Q.Q.Q.Q.Q.Q.R.Q.R.E.E.Q.Q.E.Q.Q.W.Q.E.Q.Q.Q.Q.Q.Q.Q.Q.Q.Q.Q.Q.Q.Q.Q.Q.Q.Q.",
"Q.Q.Q.Q.Q.Q.Q.Q.Q.Q.Q.Q.Q.Q.Q.Q.Q.Q.Q.Q.Q.Q.Q.Q.Q.Q.Q.Q.Q.Q.Q.Q.E.R.(.E.E.W.Q.R.Q.Q.Q.E.Q.Q.Q.Q.Q.Q.Q.Q.Q.Q.Q.Q.Q.Q.Q.Q.Q.Q.Q.Q.",
"Q.Q.Q.Q.Q.Q.Q.Q.Q.Q.Q.Q.Q.Q.E.Q.Q.Q.Q.Q.Q.Q.Q.Q.Q.Q.Q.E.Q.Q.Q.Q.Q.Q.Q.R.Q.Q.Q.Q.Q.Q.Q.Q.W.Q.Q.Q.Q.Q.Q.Q.Q.Q.Q.Q.Q.Q.Q.Q.Q.Q.Q.Q.",
"Q.Q.Q.Q.Q.Q.Q.Q.Q.Q.Q.Q.Q.Q.Q.Q.Q.Q.Q.Q.Q.Q.Q.Q.Q.Q.Q.Q.Q.Q.Q.Q.Q.R.Q.E.Q.Q.Q.Q.Q.!.'.Q.Q.!.!.W.Q.Q.Q.Q.Q.Q.Q.Q.Q.Q.Q.Q.Q.E.Q.Q.",
"Q.Q.Q.Q.Q.Q.Q.Q.Q.Q.Q.Q.Q.Q.Q.Q.Q.Q.Q.Q.Q.Q.Q.Q.Q.Q.T.!.T.A.|.T.R.E.^.^.T.Q.!.Q.Q.!.T.T.|.^.R.R.Q.Q.Q.Q.Q.Q.Q.Q.Q.Q.Q.Q.Q.Q.Q.Q.",
"Q.Q.Q.Q.Q.Q.Q.Q.Q.Q.Q.Q.Q.Q.Q.Q.Q.Q.Q.Q.Q.Q.Q.Q.Q.Q.Q.oX|.Q.oXT.P.L.R.!.Q.!.!.L.Q.!.!.Q.W.R.R.Q.Q.Q.Q.Q.Q.Q.Q.Q.Q.Q.Q.Q.Q.Q.Q.Q.",
"Q.Q.Q.Q.Q.Q.Q.Q.Q.Q.Q.Q.Q.Q.Q.Q.Q.Q.Q.Q.Q.Q.Q.Q.!.Q.L.R.R.R.Q.T.^.Q.Q.W.T.!./.Q.R.R.Q.Q.R.E.^.(.E.Q.Q.Q.Q.Q.^.E.Q.Q.Q.Q.Q.Q.Q.Q.",
"Q.Q.Q.Q.Q.Q.Q.Q.Q.Q.Q.Q.Q.Q.Q.Q.Q.Q.Q.Q.Q.Q.Q.Q.Q.Q.W.T.Q.Q.|.^.|.!.|.!.L.A.T.Q.oXQ.E.^.E.Q.E.T.Q.Q.Q.Q.Q.Q.Q.Q.Q.Q.Q.Q.Q.Q.Q.Q.",
"Q.Q.Q.Q.Q.Q.Q.Q.Q.!.Q.Q.Q.Q.Q.Q.Q.Q.Q.Q.Q.Q.Q.Q.Q.^./.^.^.Q.T.W.W.I.].OX[.!.|.^.R.L.T.R.T.R.R.T.Q.Q.Q.Q.Q.Q.Q.Q.Q.Q.Q.Q.Q.Q.Q.Q.",
"Q.Q.Q.Q.Q.E.Q.Q.Q.Q.Q.Q.Q.Q.Q.Q.Q.Q.Q.Q.Q.Q.Q.Q.Q.W.!.R.Q./.Q.|.@XW.J.`.{.{.].W.].|.|.!.Q.Q.Q./.Q.Q.Q.Q.Q.Q.Q.Q.Q.Q.Q.Q.Q.Q.Q.Q.",
"Q.Q.Q.Q.Q.Q.Q.Q.Q.Q.Q.Q.Q.Q.Q.Q.Q.Q.Q.Q.Q.Q.Q.Q.Q.R.Q.W.|.oXP.U.m.Q A e e e t 0 I.'.G.G.oX|.W.|.!.Q.Q.Q.Q.Q.Q.Q.Q.Q.Q.Q.Q.Q.Q.Q.",
"Q.Q.Q.Q.Q.Q.Q.Q.Q.Q.Q.Q.Q.Q.Q.Q.Q.Q.Q.Q.Q.E.Q.Q.^.^.|.W.`.N.P w F q - r e r 0 r 0 i 5 G Z.[.I.W.W.Q.Q.Q.Q.Q.Q.Q.Q.Q.Q.Q.Q.Q.Q.Q.",
"Q.Q.Q.Q.Q.Q.Q.Q.Q.Q.Q.Q.Q.Q.Q.Q.Q.!.|.C.Q.T.E.(.oXN.OXI.V 3 J M J - ; k t @ v @ 7 X ! o W Y.U..X!.Q.Q.Q.Q.Q.Q.Q.Q.Q.Q.Q.Q.Q.Q.Q.",
"Q.Q.!.Q.Q.Q.Q.Q.Q.Q.!.Q.Q.Q.Q.Q.T.Q.OXW.@XoXW.L.B.L y 3 : C V 2 < 7 n / v l o.3X% T b.0 y 9 I M.'.Q.Q.Q.Q.Q.Q.Q.Q.Q.Q.Q.Q.Q.Q.Q.",
"Q.Q.Q.Q.Q.Q.Q.Q.Q.Q.Q.Q.Q.Q.Q.Q.).D.!.Z.[.n.Q B Z q q i H 6   k $ s } 3.X.&X{ | 5.=X%X/ ` ^ _ I Q.Q.Q.Q.Q.Q.Q.Q.Q.Q.Q.Q.Q.Q.Q.Q.",
"Q.Q.Q.Q.Q.Q.Q.Q.Q.Q.Q.Q.Q.Q.Q.Q.~.!.W.E D J : 3 q A 6 7 k $ x d.z.,X,X9.a {  .,X=X5.D.` R O.8XB.'.Q.Q.Q.Q.Q.Q.Q.Q.Q.Q.Q.Q.Q.Q.Q.",
"Q.Q.Q.Q.Q.Q.Q.Q.Q.Q.Q.Q.Q.Q.Q.Q.Q.XX{.: = D 0 t X k $ h 2.q.0.v.x.w.k.c.{ } c + 4.v D.%XS.S. XI.Q.Q.Q.Q.Q.Q.Q.Q.Q.Q.Q.Q.Q.Q.Q.Q.",
"Q.Q.Q.Q.Q.Q.E.Q.Q.Q.Q.Q.Q.Q.Q.Q. XH.`.F t t   f n 3.p.0.x.k.-.@.l.k.l.w.a c s.d.6.4.).E.W.Q.Q.|.Q.Q.Q.Q.Q.Q.Q.Q.Q.Q.Q.Q.Q.Q.Q.Q.",
"Q.Q.Q.Q.Q.Q.Q.Q.Q.Q.Q.Q.Q.Q.Q.!.W.L.!.p * g j 9.*.x.x.r.#.#.:.>.&.&.;.1.y.s.a.d k ~.@XW.'.|.W.Q.Q.Q.Q.Q.Q.Q.Q.Q.Q.Q.Q.Q.Q.Q.Q.Q.",
"Q.Q.Q.Q.Q.Q.Q.Q.Q.Q.Q.Q.Q.Q.Q.W.W.OX].O f p.8.t.t.;.#.>.:.%.>.&.$.>.>.-.y.s.f.7.@ +X{.J. XQ.^.E.Q.Q.Q.Q.Q.Q.Q.Q.Q.Q.Q.Q.Q.Q.Q.Q.",
"Q.Q.Q.Q.Q.Q.Q.Q.Q.Q.Q.Q.Q.Q.Q.!.L.u   k *Xq.<.:.%.:.$.:.:.:.:.<.>.1.=.u.f.a a & p H.XX`.'.^.S.(.(.Q.Q.Q.Q.Q.!.Q.Q.Q.Q.Q.Q.Q.Q.Q.",
"Q.Q.Q.Q.Q.Q.Q.Q.Q.Q.E.Q.Q.Q.Q.W.L < P * 3.i.=.%.$.$.$.:.<.r.,.=.w.0.h.j.*Xb _.4.M. X.XI..X^.S.R.E.Q.Q.Q.Q.Q.Q.Q.Q.Q.E.Q.Q.Q.Q.Q.",
"Q.Q.Q.Q.Q.Q.Q.Q.Q.Q.Q.Q.Q.Q.Q.'.V.3 L   n j.-.&.%.%.:.<.,.e.y.s.:X5X_.R t 8 P.U.XX.XP.P.Q.Q.P.(.E.Q.Q.Q.Q.Q.Q.Q.Q.Q.Q.Q.Q.Q.Q.Q.",
"Q.Q.Q.Q.Q.Q.Q.Q.Q.Q.Q.Q.Q.Q.Q.{.XX4 w 6 $ 3.t.:.:.-.r.j.c.-X>X3XgX#X^ OXjXqX.XXX{.U.P.(.Q.U.Q.^.Q.Q.Q.Q.Q.Q.Q.Q.Q.Q.Q.Q.Q.Q.Q.Q.",
"Q.Q.Q.Q.!.Q.Q.Q.Q.Q.Q.Q.Q.Q.Q.!.H.U 2 p O c u.0.u.q.s.*X*X1XrXrX$XuX8XW : K J.Z.].W.).).W.{.'.U.W.Q.!.Q.Q.Q.Q.Q.Q.Q.Q.Q.Q.Q.Q.Q.",
"Q.Q.Q.Q.Q.Q.Q.Q.Q.Q.Q.Q.Q.Q.Q.!.|.L.3 G * & 3.>X*X>XaXaX2XeXyXwXuXuXhX- K : !.+X!.Q.E.D.W..X|.U.Q.Q.Q.Q.Q.Q.Q.Q.Q.Q.Q.Q.Q.Q.Q.Q.",
"Q.Q.Q.Q.Q.Q.Q.Q.Q.Q.Q.Q.Q.Q.Q.E.R.|.V m 8 r T ;X7 ! ].uXiXwXwXwXeXtX0XP F.L.%XS.R.Q.D.D.W.|.W.Q.Q.Q.Q.Q.Q.Q.Q.Q.Q.Q.Q.Q.Q.Q.Q.Q.",
"Q.Q.Q.Q.Q.Q.Q.Q.Q.Q.Q.Q.Q.Q.Q.!.Q.R.Z = U H.e i N : ( 9XuXtXwXiXtXA 2 '.I..XS.(.Q.|.Q.Q.].W.T./.Q.Q.Q.Q.Q.Q.Q.Q.Q.Q.Q.Q.Q.Q.Q.Q.",
"Q.Q.Q.Q.Q.Q.Q.Q.Q.Q.Q.Q.Q.Q.Q.Q.[.Z.Q Z. X{.[.q e e G 7XhX8XG 9 N e - D H..X.XU.Q./.S.oXL.OXC.E.Q.Q.Q.Q.Q.Q.Q.Q.Q.Q.Q.Q.Q.Q.Q.Q.",
"Q.Q.Q.Q.Q.Q.Q.Q.Q.Q.Q.Q.Q.Q.Q.Q.oX|.N.oX|.L.G.G ; V w E 8 V w 3 C q : C K.[.M.y P.).Y.Q.W.W.R./.E.Q.Q.Q.Q.Q.Q.Q.Q.Q.Q.Q.Q.Q.Q.Q.",
"Q.Q.Q.Q.Q.Q.^.Q.Q.Q.Q.Q.Q.Q.Q.Q.W.|.E.!.E.T.|.G.I J.W.n.2 < V y m m J J F V G 5 l Z.~.W.@XT.!.!.Q.Q.Q.Q.Q.Q.Q.Q.Q.Q.Q.Q.Q.Q.Q.Q.",
"Q.Q.Q.Q.Q.Q.Q.Q.Q.Q.Q.Q.Q.Q.Q.Q.!.!./.T.T.Q.^..XG. XU.|._ w > U : ( 9XjX7XA ; 0 , Z.8XJ.[.Z.)./.E.Q.Q.Q.Q.Q.Q.Q.Q.Q.Q.Q.Q.Q.Q.Q.",
"Q.Q.Q.Q.Q.Q.Q.Q.Q.Q.Q.Q.Q.Q.Q.Q.T.R./.(././.S.R.OXL.I.XX) I P #XhXqXtXuX8X! , A E G m.G N I Y.Z.Q.Q.Q.Q.Q.Q.Q.Q.Q.Q.Q.Q.Q.Q.Q.Q.",
"Q.Q.Q.Q.Q.Q.Q.Q.Q.Q.Q.Q.Q.Q.Q.Q.L.A.^.P.(./.S./.U.|..XH._ 7XpXjXtXeXsXeXkX[.Q , 8XQ F M > F .X.XW.Q.Q.Q.Q.Q.Q.Q.Q.Q.Q.Q.Q.Q.Q.Q.",
"Q.Q.Q.Q.Q.Q.Q.Q.Q.Q.Q.Q.Q.Q.Q.Q./.^.^.^.L.T.R.E.T.T.A < w 8XxX#XeX2XeX%XuXkXxXxXcX9XV Z M M M..XQ.Q.Q.Q.Q.Q.Q.Q.Q.Q.Q.Q.Q.Q.Q.Q.",
"Q.Q.Q.Q.Q.Q.Q.Q.Q.Q.Q.Q.Q.Q.Q.Q.^.P.U..X].!.^.T././.1 V < Y #XiXyX$XyXuXkXkXkXzXiXcX5 < F = U `.'.Q.Q.Q.Q.Q.Q.Q.Q.Q.Q.Q.Q.Q.Q.Q.",
"Q.Q.Q.Q.Q.Q.Q.Q.Q.Q.Q.Q.Q.Q.Q.Q.|.E.].}.'.!.!.W.T.'.8 i 8 H $XiXpXtXuXzXsXsXfXfX4XdXaXp ; H -  XQ.Q.!.Q.Q.Q.Q.Q.Q.Q.Q.E.Q.Q.Q.Q.",
"Q.Q.Q.Q.Q.Q.Q.Q.Q.Q.Q.Q.Q.Q.Q.E.R.Q.Q.G.W.W.'.}.W.[.; W #XiXkX0XtXtXyXgXfXdXdX4X6Xf.6.x @ 0 D B.'.Q.E.Q.Q.Q.Q.Q.Q.Q.Q.Q.Q.Q.Q.Q.",
"Q.Q.Q.Q.Q.E.Q.Q.Q.Q.Q.Q.Q.Q.Q.Q.R.+X/.!.XX{.I.`. XB.K @XxXtX$XwXrX1X1X3X-X-Xy.e.1.8.j.6.k @ 2 U '.Q.Q.Q.Q.Q.Q.Q.Q.Q.Q.Q.Q.Q.Q.Q.",
"Q.Q.Q.Q.Q.Q.Q.Q.Q.Q.Q.Q.Q.Q.Q.E.D.(.P.Q.W.b.~ 2 V q Q #XtXeXrXaX:X>X>Xj.y.r.=.:.;.t.c.2.k l U m.'.Q.Q.Q.Q.Q.Q.Q.Q.Q.Q.Q.Q.Q.Q.Q.",
"Q.Q.Q.Q.Q.Q.Q.Q.Q.Q.Q.Q.Q.Q.Q.Q.P.P.(..X.X XB.3 qXtXwXsX1XaX<X>Xh.u.u.,.=.-.1.t.i.8.3.h % Z.B.7XW.Q.Q.Q.Q.Q.Q.Q.Q.Q.Q.Q.Q.Q.Q.Q.",
"Q.Q.Q.Q.Q.Q.Q.Q.Q.Q.Q.Q.Q.Q.Q.Q.(.^.^.L.N..X XP t l O g *X,Xs.h.r.;.-.<.t.i.y.*.+.c h % 7 #X{.W.Q.Q.Q.Q.Q.Q.Q.Q.Q.Q.Q.Q.Q.Q.Q.Q.",
"Q.Q.Q.Q.Q.Q.Q.Q.Q.Q.Q.Q.Q.Q.Q.Q.U.^.Q.S.' ] OX4.% _.g.s.y.e.@.<.:.$.<.1.0.q.2.n b @ ; r r [.}.A.Q.Q.Q.Q.Q.Q.Q.Q.Q.!.Q.Q.Q.Q.Q.Q.",
"Q.Q.Q.Q.Q.Q.Q.Q.Q.Q.Q.Q.Q.Q.Q.^.U..XW.^.' ! Z.+Xk + d q.u.,.t.<.r.e.i.9.j a k X , D N J M H.oXE.Q.Q.Q.Q.Q.Q.Q.Q.Q.Q.Q.Q.Q.Q.Q.Q.",
"Q.Q.Q.Q.Q.Q.Q.Q.Q.Q.Q.^.E.Q.Q.Q.^.L.P.u J.'.0 5 6 k =X*Xg.s.q.s.7.f $ % * t r r A 8 N q L G./.Q.Q.Q.Q.Q.Q.Q.Q.Q.Q.Q.Q.Q.Q.Q.Q.Q.",
"Q.Q.Q.Q.Q.Q.Q.Q.Q.Q.Q.Q.Q.Q.Q.Q.S./.|.L.P <  X`.+X7   % f a $ s p 1 i S N : ; K q K H.{.W.oXQ.R.Q.Q.Q.Q.Q.Q.Q.Q.Q.Q.Q.Q.Q.Q.Q.Q.",
"Q.Q.Q.Q.Q.Q.Q.Q.Q.Q.Q.Q.Q.Q.Q.E.).P.P U.H.y Z w K.Y r T [ l 7 * 6 6 5 < A G E b.I.K.OXOXW.Q.T.!.Q.Q.Q.Q.Q.Q.Q.Q.E.Q.Q.Q.Q.Q.Q.Q.",
"Q.Q.Q.Q.Q.Q.Q.Q.Q.Q.Q.Q.Q.Q.Q.Q.R.@X` u ~ m.F H.N e = 8 H 0 t 0 5 9 i E b.W.F. X#XW.I.T.T.^.Q.!.Q.Q.Q.Q.Q.Q.Q.Q.Q.Q.Q.Q.Q.Q.Q.Q.",
"Q.Q.Q.Q.Q.Q.Q.Q.Q.Q.Q.Q.Q.Q.Q.Q.A.R.wXM.. I < S q Z Z B.#XB.Q 3 u W b.L.OXOX!.!.L.T.Q.!.Q.^.Q.!.Q.Q.Q.Q.Q.Q.Q.Q.Q.Q.Q.Q.Q.Q.Q.Q.",
"Q.Q.Q.Q.Q.Q.Q.Q.Q.Q.Q.Q.Q.Q.Q.Q.|.L.M.$X.XI..X`. XM.y y V 3 3 M I.L. X|.L.A.R.E.!.!.).E.T.Q.!.Q.Q.Q.Q.Q.Q.Q.Q.Q.Q.Q.Q.Q.Q.Q.Q.Q.",
"Q.Q.Q.Q.Q.Q.Q.Q.Q.Q.Q.Q.Q.Q.Q.Q.P.0XP.M..XM.Q.Q.|.OX^.U.L.^.U..XOX].].].T.R.(.(.T.R.R.E.!.|.Q.R.Q.^.Q.Q.Q.Q.Q.Q.Q.Q.Q.Q.Q.Q.Q.Q.",
"Q.Q.Q.Q.Q.Q.Q.Q.Q.Q.Q.Q.Q.Q.Q.Q.|.O.@XP..X^.|.T.Q.P.S.^.^..XL.U.W.W.W.Q.^.R.R.R.R.(.E.R.R.L.Q.+XQ.Q.Q.Q.Q.Q.Q.Q.Q.Q.Q.Q.Q.Q.Q.Q."
};
