/* XPM */
static char *_43dbcd2568f47b4dd7bc956a7cca189WOgjOe5F6gIQuXvo[] = {
/* columns rows colors chars-per-pixel */
"64 56 232 2 ",
"   c #080C17",
".  c #16181A",
"X  c #110F12",
"o  c #261609",
"O  c #331907",
"+  c #271B18",
"@  c #331E1B",
"#  c #332708",
"$  c #352518",
"%  c #2F2912",
"&  c #0A1223",
"*  c #191C29",
"=  c #1A1D36",
"-  c #0E0B20",
";  c #221F28",
":  c #2B1E32",
">  c #1C222A",
",  c #1E2433",
"<  c #1D243D",
"1  c #182539",
"2  c #23242C",
"3  c #282628",
"4  c #372A29",
"5  c #3C3526",
"6  c #222633",
"7  c #232A34",
"8  c #22253B",
"9  c #252B3D",
"0  c #2B2C3B",
"q  c #2D2B35",
"w  c #362D39",
"e  c #2D333C",
"r  c #293138",
"t  c #32343C",
"y  c #373637",
"u  c #482F05",
"i  c #57320A",
"p  c #553917",
"a  c #4D2E0E",
"s  c #633C11",
"d  c #653100",
"f  c #493B28",
"g  c #453C3B",
"h  c #5B3920",
"j  c #5F410F",
"k  c #654412",
"l  c #5C462B",
"z  c #644825",
"x  c #6A4F30",
"c  c #1C2842",
"v  c #2A2D44",
"b  c #242B45",
"n  c #332A47",
"m  c #2C3344",
"M  c #2E3348",
"N  c #333444",
"B  c #323B44",
"V  c #383C44",
"C  c #32364A",
"Z  c #353C4A",
"A  c #3B3A4B",
"S  c #353C53",
"D  c #2E3D50",
"F  c #453B4B",
"G  c #3B434B",
"H  c #3C4454",
"J  c #454748",
"K  c #5F5146",
"L  c #424556",
"P  c #434A5B",
"I  c #464B56",
"U  c #4C545C",
"Y  c #4D5256",
"T  c #54575C",
"R  c #47504D",
"E  c #575A67",
"W  c #4C4F62",
"Q  c #59656A",
"!  c #666D75",
"~  c #6B737A",
"^  c #757C7C",
"/  c #707974",
"(  c #646B6B",
")  c #8F7D65",
"_  c #7A857C",
"`  c #BD883B",
"'  c #DD961A",
"]  c #F59E19",
"[  c #E99211",
"{  c #FCA51C",
"}  c #DB9921",
"|  c #D3993A",
" . c #FBA627",
".. c #ECA83B",
"X. c #F6AA37",
"o. c #FFB332",
"O. c #FFB43E",
"+. c #F7AA2B",
"@. c #EE9E2B",
"#. c #FFC339",
"$. c #B6854B",
"%. c #B79255",
"&. c #BE9344",
"*. c #978A7A",
"=. c #958772",
"-. c #BA9B67",
";. c #B09671",
":. c #BDA370",
">. c #C89757",
",. c #CF954A",
"<. c #CDA35A",
"1. c #DAAA57",
"2. c #D8A44D",
"3. c #F3A945",
"4. c #F9B749",
"5. c #E7AA54",
"6. c #E7B355",
"7. c #F7B655",
"8. c #E8AF48",
"9. c #D7AB64",
"0. c #D5AC71",
"q. c #D4B472",
"w. c #E5B666",
"e. c #E6BD76",
"r. c #F4B86F",
"t. c #FFC550",
"y. c #FECA69",
"u. c #EEC476",
"i. c #7A7C81",
"p. c #797D8B",
"a. c #727B89",
"s. c #7B8285",
"d. c #7C838A",
"f. c #7F8889",
"g. c #7D8793",
"h. c #82858B",
"j. c #848B8D",
"k. c #898E8C",
"l. c #828885",
"z. c #8B938D",
"x. c #8B958B",
"c. c #919B8E",
"v. c #95938D",
"b. c #838B93",
"n. c #8A8D98",
"m. c #8D9493",
"M. c #8F9994",
"N. c #8C959B",
"B. c #889499",
"V. c #919694",
"C. c #949C95",
"Z. c #999C96",
"A. c #93969A",
"S. c #969C9A",
"D. c #999C9C",
"F. c #9B9594",
"G. c #A39183",
"H. c #97A09B",
"J. c #9BA29C",
"K. c #99A194",
"L. c #A7A69D",
"P. c #B9AC99",
"I. c #8E93A2",
"U. c #8E9CA3",
"Y. c #959CA2",
"T. c #9A9DA2",
"R. c #9699A6",
"E. c #A19EAB",
"W. c #96A2A3",
"Q. c #9CA3A2",
"!. c #9DA9A2",
"~. c #9CA4A9",
"^. c #9EA8A8",
"/. c #9DA5B0",
"(. c #A1A5A4",
"). c #A3A9A5",
"_. c #A2A6AB",
"`. c #A3ABAB",
"'. c #A8ADAB",
"]. c #A9A7AA",
"[. c #A8B2AB",
"{. c #BEBAA9",
"}. c #A4AAB5",
"|. c #AAAEB2",
" X c #B2ABB8",
".X c #ACB4B1",
"XX c #ABB2B9",
"oX c #B7BABA",
"OX c #D8BB8A",
"+X c #C7B187",
"@X c #E4B985",
"#X c #EFBF91",
"$X c #C5B8AD",
"%X c #DBC599",
"&X c #D7C395",
"*X c #E7C98C",
"=X c #F3D89B",
"-X c #EED194",
";X c #CAC6B7",
":X c #D7CABD",
">X c #D4CCAF",
",X c #E3CAA7",
"<X c #E8CAB5",
"1X c #E8D6BB",
"2X c #FDE0BE",
"3X c #B6BAC5",
"4X c #B7B9CC",
"5X c #C0BFC5",
"6X c #BBC1CA",
"7X c #CACBCC",
"8X c #C6C8C8",
"9X c #D6CAC8",
"0X c #D5D3CA",
"qX c #CDCCD3",
"wX c #C6C9D5",
"eX c #CCD1D7",
"rX c #D3D2D5",
"tX c #D8D8D6",
"yX c #D0CDD1",
"uX c #E6D7C4",
"iX c #E0CCCD",
"pX c #DBE6DC",
"aX c #E3EADB",
"sX c #DAD8E5",
"dX c #C6D2E0",
"fX c #E4DBE7",
"gX c #D9E0E8",
"hX c #E4E7E7",
"jX c #E7E5F5",
"kX c #F5ECFA",
"lX c #FFFEFF",
"zX c #EEF2ED",
/* pixels */
"S.S.S.S.S.S.S.S.S.S.S.S.Z.S.S.S.S.S.S.S.S.S.S.S.S.S.S.S.S.S.S.S.S.S.S.S.S.S.S.S.S.S.S.S.S.S.S.S.S.S.S.S.S.S.S.S.S.S.S.S.S.S.S.S.",
"S.S.S.S.S.S.S.S.S.S.S.S.S.S.S.S.S.S.S.S.S.S.S.Z.S.S.S.S.S.S.S.S.S.S.Z.S.S.S.S.S.S.S.S.Z.S.S.S.S.S.S.S.S.S.S.S.S.S.S.S.S.S.Z.S.S.",
"S.S.S.S.S.S.S.S.S.S.S.S.S.S.S.S.S.S.S.S.S.S.S.S.S.S.S.S.S.S.Z.S.S.S.S.S.S.S.S.S.S.S.S.S.S.S.S.H.Z.C.S.S.S.Z.S.S.S.S.S.S.S.S.S.S.",
"S.S.S.S.Z.S.S.S.S.S.S.S.S.S.S.S.S.S.S.S.S.S.S.S.S.S.S.S.S.S.S.S.S.S.S.S.S.S.S.S.S.S.S.S.S.S.S.S.D.S.S.S.S.S.S.S.S.S.S.S.S.S.S.S.",
"S.S.S.S.S.S.S.S.S.S.S.S.S.S.S.S.S.S.S.S.S.S.S.S.S.S.S.S.S.S.S.S.S.S.S.S.S.S.S.S.S.S.S.S.S.S.S.S.S.S.S.S.S.S.S.S.S.S.S.S.S.S.S.S.",
"S.S.S.S.S.S.S.S.S.S.S.S.S.S.S.S.S.S.S.S.S.S.S.S.S.S.S.S.S.S.S.S.S.S.S.H.S.S.Z.S.S.C.S.S.S.S.S.S.S.S.S.S.S.S.S.S.S.S.S.S.S.S.S.S.",
"S.S.S.S.S.S.S.S.S.S.S.S.S.S.S.S.S.S.C.S.S.S.S.S.S.Z.S.S.S.S.S.S.S.S.S.S.S.S.S.S.S.S.S.S.S.S.S.S.S.S.S.S.S.S.S.S.S.S.S.S.S.Z.S.S.",
"S.S.S.Z.S.S.S.S.S.S.S.S.S.S.S.Z.S.D.Z.S.S.S.S.S.S.S.S.S.S.S.S.S.S.S.S.S.S.S.S.S.S.S.S.S.S.S.S.S.S.S.S.S.S.S.S.S.S.S.S.S.S.S.S.S.",
"S.S.S.S.S.S.Z.S.S.S.S.S.S.S.S.S.S.S.S.S.S.S.S.S.S.S.S.S.S.Z.S.S.S.S.S.S.S.S.S.S.S.S.S.S.S.S.S.S.S.S.S.S.S.S.S.S.S.S.S.S.S.S.S.S.",
"S.S.S.S.S.S.H.S.S.S.S.S.S.S.S.S.S.S.S.S.S.S.S.S.S.S.S.S.S.S.S.S.S.S.S.S.S.S.S.S.S.S.S.S.S.S.S.S.S.S.S.S.S.Z.S.S.S.S.S.S.S.S.S.S.",
"S.S.S.S.S.S.S.S.S.S.S.S.S.S.S.S.S.S.S.S.S.S.S.S.S.S.S.S.S.S.S.S.S.S.Z.S.S.S.S.S.S.S.S.S.S.S.S.S.S.S.S.S.S.S.S.S.S.Z.H.S.S.S.S.S.",
"S.S.S.S.S.S.S.S.Z.S.S.S.S.S.S.S.S.S.S.S.S.S.S.S.S.S.S.S.S.S.S.S.S.S.S.S.S.S.S.S.S.S.S.S.S.S.S.S.S.S.S.S.S.S.S.S.S.S.S.S.S.S.S.S.",
"S.S.S.S.S.S.S.S.S.S.S.S.Z.S.S.S.S.S.S.D.S.S.S.S.S.S.S.S.S.S.S.S.S.S.S.S.S.S.S.S.S.S.S.S.S.S.S.S.S.Z.S.S.S.S.S.S.S.S.S.S.S.S.S.S.",
"S.S.Z.S.S.S.S.S.Z.S.S.S.S.S.S.S.S.S.S.Z.S.S.S.S.S.S.S.Z.S.S.S.S.S.S.S.S.D.S.S.S.S.S.S.S.S.S.S.S.S.S.S.S.S.S.S.S.S.S.S.S.S.S.S.S.",
"S.S.S.S.S.S.S.S.S.S.S.S.S.S.S.S.S.S.S.S.S.S.S.S.S.S.S.S.S.S.S.S.S.D.S.S.S.S.S.S.S.S.S.S.S.S.S.S.S.S.S.S.S.S.S.S.S.S.S.S.S.S.Z.S.",
"S.S.S.S.S.S.S.S.S.S.S.S.S.S.S.S.C.C.S.S.S.S.S.S.Z.S.Z.S.S.S.S.S.C.Z.D.S.Y.S.Y.S.S.S.S.S.S.S.S.S.Z.S.C.S.S.C.S.C.S.S.D.D.S.S.C.S.",
"S.S.S.S.S.S.S.S.S.S.S.S.S.S.S.Z.C.V.S.D.(.V.Z.D.x.C.J.H.M.M.S.V.J.m.~.B.N 0 n.}.~.d.B h.^.m.S.z.H.H.H.K.Z.c.v.H.S.S.D.R.S.S.C.M.",
"S.S.S.S.Z.S.S.S.S.S.S.S.S.S.S.S.C.C.Z.T.A.S.Z.C.).K.C.C.V.S.(.Q.x..Xg.M = 8 L p.n.Y   U T.J.k.(.M.S.M.x.C.Z.Z.Z.Z.D.Y.D.S.Z.C.H.",
"S.S.S.S.S.S.S.S.S.S.S.S.S.S.S.S.S.D.A.Q.k.(.C.V.V.k.M.Q.Q.S.S.B.~.g.H & N 0 X F n n = m ~ .XY.V.H.H.S.S.A.Q.T.F.T.T.F.D.C.C.C.K.",
"S.S.S.S.S.S.S.S.S.S.S.S.S.S.S.D.S.D.D._.k.).V.C.).W.D.J.M.M.S.W.b.H 1 G B 3 4 4 4 4 A m B g.].V.S.N.W.^.S.D.Y.A.D.D.D.F.Z.C.C.C.",
"S.S.S.S.S.S.S.S.S.S.S.S.S.S.S.S.D.T.(.D.V.Q.z.J.V.V.A.A.S.Q.Q.m.B 8 1 b   f P.-.-.z o q b M p.'.W.B.M.H.M.M.Y.R.R.D.Z.Z.Z.C.Z.S.",
"S.S.S.S.S.S.S.S.S.S.S.S.S.S.S.S.D.A.(./ Z.Z.V.J.V.Y.E.T.D.D.^ I 2 v < S E G.-Xu.e.%.h ; v = Y p.^.W.M.M.D.Y.S.Y.T.D.S.Z.Z.Z.S.D.",
"S.S.S.S.S.S.S.S.S.S.S.S.S.S.S.S.T.F.S.G J.M.H.Z.D.F.A.F.S.(.T.k.q . E 4XjXkX<XOX<.q.:.a : M e B s.!.H.c.J.H.m.Y.A.D.Z.Z.Z.S.D.Y.",
"S.S.S.S.S.Z.S.S.S.S.S.S.S.S.S.S.T.R.S.> D.S.Q.m.D.Z.D.D.F.V.Y.S.A.L 6XlXsXfX9X<X*X0.0.h @ w > < G g.J.c.K.K.x.Q.D.R.S.S.Z.S.Y.D.",
"S.S.S.S.S.S.S.S.S.Z.S.S.S.S.S.S.q b.B B.~.~.B.~.m.].Z.J.K.Z.|.n.n.S 5XlXsXkXwXiX<X*Xe.&.j % 0 b m , ^.M.c.c.!.N.S.A.S.S.S.S.U.D.",
"S.S.Z.S.S.S.S.S.S.S.S.S.S.S.S.D.6 3X& I.G n.R.7 T.S.v.J.x.x.k.A S = T ].fXkXsXwX:X%Xw.6.,.p o N M b B.H.!.x.M.H.D.Y.S.H.S.S.S.S.",
"S.S.S.S.S.S.S.S.S.S.S.S.S.S.S.Y.m g.B }.* I.}.6 N.H.K.c.x.[.Y.7 c b - L pXaXzXgX0X<X9.8.4.` p ; 9 = P a.[.W.M.H.S.U.H.U.H.M.S.N.",
"S.S.S.S.S.S.S.S.S.S.S.S.S.S.S.Y.I.H 0 h.t R._.6 ^.s.M.[.l.m.m.B c b S F ;X0XaXpXtX<X@X2.8.7.%.p w v < H d.^.Y.M.N.H.H.S.S.H.H.H.",
"S.S.S.S.S.S.S.S.S.S.Z.S.S.S.S.D.t * . ;Xl.F.F.t b.oX!._ W..XM.N.e m 6XXXtXtXhXhXtX9X<X#X1.7.7.>.O B ; v A n.R.S.C.H.H.U.Y.S.S.C.",
"S.S.S.S.H.Z.S.S.S.S.S.S.S.S.D.Z.* l @ P.O f 4 k.Y.W.f.Q Q U.Y.R.7 1 jXjX6X8X7XrXeXrXiX<X@X5.X.7.p 3 ; A = I._.m.M.M.S.H.U.S.S.S.",
"S.S.S.S.S.S.S.S.S.S.S.S.S.S.S.Z.g ) p ;.z ;.f G.|.X L U.! f.}.b.C b [.pX7X7X7XrX7XeX7X;X,Xr.8.| %.5 y ) N E.~.M.H.K.N.H.Y.Y.D.S.",
"S.S.S.S.S.S.S.S.S.S.S.S.S.S.S.Z.+ $XO k %.*X-.a # y 2 V 6X/.> B < b G .XtXeXrX7X7X6XwXrX<XOX6.6.q.# w E.N n.N.J.C.H.S.S.S.Y.S.Y.",
"S.S.S.S.S.S.S.S.m.J.S.z.V.D.Z.C.g G.z O 0.d 8.i 9.p $Xt 6X1 t q 8 < b A |.hXoXrXrXqXqX;XuX%Xq.q.# j . B , /.W.S.S.S.S.S.S.S.S.U.",
"S.S.S.S.S.S.S.S.Q.S.D.Q.m.S.z.y X K ;.i 9.| 4...6.>.1X3 dXdX8XN C n 8   E wXeX8X4XwXsXyX{.:X>X# :.+Xy > b B.H.x.S.S.D.D.S.S.U.S.",
"S.S.S.S.S.S.Z.D.Q.m.z.Q.Q.'.V.3 l + =.j | t.' +.3.9.2XP.gXwXtX$X= b S b H }.sXwX8 F R.jXgX8X:X5 l ) g 2 G B.L.K.S.D.D.A.U.C.H.S.",
"S.S.S.S.S.S.S.S.Z.S.S.S.V.V.m.).x.3 x %.6.t.#.o.X.5.&XuX;X5XyXfXF = 8 v & , I < b = P 3XeXqXyX+ v.x F X e H.K.x.Z.D.R.S.H.C.C.S.",
"S.S.S.S.S.C.S.S.D.M.).m.D.z.T _ G X # -Xy.} t.{  .7.<.,X{.pX0X$X`.U & b G U ! e m < < v W }.sXB g + h.~ ^ V.K.K.S.S.Y.S.M.M.H.H.",
"S.S.S.S.S.S.S.S.Q.j.Q.V.J.'.( G , r 5 q.y.t.#.{  .X.1.=X%X;X8XrXkX3XB B a.M.W.G , Z M , Q p.R.eXq 2 E T .XK.L.v.D.S.Y.U.H.K.C.C.",
"D.Z.S.S.S.S.S.S.S.S.).Z.j.Q..Xb.M M > l <.y.o.] ] +.6.e.%X;XrXqX6X8Xe m N.~.^._ H.N.f.U }.R.E 3X* B b.I ]._ v.c.D.S.S.S.H.C.S.S.",
"S.C.S.S.S.S.S.S.V.Q.j.Q.D.V.V.t c b r o z >... . .] 4.2.-X,X0XqX6XgX, 9 ~.B.H.^.H.W.^.  B eXb.B e r I.2 V.L.Z.C.D.Y.H.C.c.K.C.S.",
"S.S.S.S.S.S.S.S.S.S.S.S.S.S.S.Y.S = v q f -.y.} +.{ @.3.9.&XiX7X6Xr m 9 6 |.j.J.Q.D.~.B.e k.r , r B.B Y.Y.k.(.T.R.A.S.C.C.C.Z.S.",
"S.S.S.S.S.S.S.S.S.S.S.S.S.S.S.S.b.H < * + z $.r.@. .o.O.8.0.>X;XT & = N 8 T.T.J.Z.Q.^ T ~ U > D U.~.> k._.D.S.N.Y.D.Z.C.c.K.S.Z.",
"S.S.S.S.S.S.S.S.S.S.S.S.S.S.S.Z.^.d.H b w + i >.7.X.] ] X.6.*X1XD.E * A N p.Q.v.k.Q..X( R d.U., W.g.t m.T.T.R.R.Y.S.S.Z.Z.C.C.Z.",
"S.S.S.S.S.S.S.S.S.S.S.S.S.S.S.S.m.!.g.C 0 w $ i 2.X. .{ o.X.1.OXzX3XS p.A.~.'.V.'.z.j.3XY.m.Z Y.B.W.h.].A.T.Y.Y.Y.S.S.Z.Z.Z.S.D.",
"S.S.S.S.S.S.S.S.S.S.S.S.S.S.S.S.M.).I.L * w t $ h ,.3. .] o.r.,X$X XL I.3XY.c.z.l..XV.S.m.b.e M.W.W.J.Q.m.Y.T.S.S.S.D.F.Z.D.S.S.",
"S.S.S.S.S.S.S.S.S.S.S.Z.S.S.S.S.Q.B.~.d.A * 6 w a >.r. .[ X.6.:.y P & H ~ Y.Z.).].l.A._.z.R B.k.H.x.V.C.S.S.Q.m.S.S.R.T.D.D.S.S.",
"S.S.S.S.C.S.S.S.S.S.S.S.S.S.S.S.Q.k.L.).f.L = 9 ; x ` 3.4.7.$.l 3 8 < v L /.B.m.D.(.Y.m.Q./ .XH.S.S.).).).z.H.M.C.S.T.F.T.D.S.S.",
"S.S.S.D.Z.S.S.S.S.S.S.S.S.S.S.S.S.D.C.c.).g.D 1 q o s >.r.>.x o t = S 9 * R.A.'.A.).A.D.z.[.m.M.V.Z.F.k.J.x.!.M.C.S.R.F.T.Y.S.Z.",
"S.S.S.S.S.S.S.S.S.S.S.S.S.S.S.S.Q.m.H.S.V.Q.b.G r 4 % l G.$ 4 3 r . G h._.Q.H.S.D.D.D.S.S.Z.S.S.S.S.S.S.S.C.S.C.S.S.Z.D.D.S.S.S.",
"S.S.S.S.S.S.S.S.S.S.S.S.S.S.S.S.D.M.J.J.A.Q.Q.d.t * , * I 6 2 e . R k.Q.S.m.S.S.S.S.S.S.S.S.S.S.S.S.S.S.S.S.S.S.S.S.S.S.D.S.S.S.",
"S.S.S.S.D.S.S.S.S.S.S.S.S.S.S.S.D.V.S.D.m.m.Q._.e . T s.n.m.V 2 G l.`.D.z.S.D.V.S.S.S.S.S.S.S.S.S.S.S.S.S.S.S.S.S.S.S.S.S.S.S.S.",
"S.S.S.S.Z.C.S.S.S.S.S.S.S.S.S.S.H.S.V.S.Q.m.N.D.s.I s.|.Y.Q.e 2 z.Z.S.k.S.Q.S.S.S.S.S.S.S.S.S.S.S.S.S.S.S.S.S.S.S.S.S.S.S.S.S.S.",
"S.S.S.S.S.S.S.S.S.S.S.S.S.S.S.S.V.Z.C.S.Q.~.S.D.!.S.b.`.k._.d.~.D.H.S.D.Q.S.z.Q.S.S.S.S.S.S.S.S.S.S.S.S.S.S.S.S.S.S.S.S.S.S.S.S.",
"S.S.S.S.S.S.S.S.S.S.S.S.Z.S.S.S.V.H.J.Z.S.S.S.D.m.`.m.Y.m.~.S.T.D.S.S.D.J.V.V.Q.S.S.S.S.S.S.S.S.S.S.S.S.S.S.S.S.S.S.S.S.S.S.S.S.",
"S.S.Z.S.S.S.S.S.Z.S.S.S.S.S.S.S.S.S.S.Z.z.M.S.V.S.Q.V.m.T.`.T.m.Q.S.m.M.M.D.Q.S.S.S.S.S.C.S.S.S.S.S.S.S.S.S.S.S.S.S.S.S.S.S.S.S.",
"S.S.H.S.S.S.S.S.S.S.S.S.S.S.S.S.J.z.V.J.C.S.J.S.D.m.Q.S.S.V.S.T.S.m.D.Q.S.D.J.M.S.S.S.S.S.S.S.S.S.S.S.S.S.S.S.Z.S.S.S.S.S.S.S.S."
};
