/* XPM */
static char *c217a6d687c44020940571cc9005c2936uJS9rUlQlLgnQlx[] = {
/* columns rows colors chars-per-pixel */
"64 56 234 2 ",
"   c #1D191D",
".  c #151213",
"X  c #391B00",
"o  c #2A1C1B",
"O  c #2D1C08",
"+  c #3A2608",
"@  c #2C241A",
"#  c #34291B",
"$  c #312817",
"%  c #352A0E",
"&  c #0C0C22",
"*  c #0F192D",
"=  c #171A29",
"-  c #1C1E3B",
";  c #191C33",
":  c #120E2F",
">  c #261F25",
",  c #241F35",
"<  c #1C2329",
"1  c #1D2436",
"2  c #1C233B",
"3  c #1A2839",
"4  c #282223",
"5  c #23232D",
"6  c #2C2B2B",
"7  c #272829",
"8  c #362923",
"9  c #382926",
"0  c #3A332A",
"q  c #232434",
"w  c #232B33",
"e  c #2A2B34",
"r  c #23253A",
"t  c #242B3C",
"y  c #2A2D3B",
"u  c #2B2738",
"i  c #342D35",
"p  c #2A323B",
"a  c #293538",
"s  c #34333D",
"d  c #36373A",
"f  c #472C06",
"g  c #4D3403",
"h  c #462C15",
"j  c #4D361C",
"k  c #473825",
"l  c #553B29",
"z  c #41342C",
"x  c #6F4613",
"c  c #584832",
"v  c #624628",
"b  c #775226",
"n  c #1B2543",
"m  c #2B2C43",
"M  c #272A46",
"N  c #2D3344",
"B  c #2B344A",
"V  c #263247",
"C  c #333442",
"Z  c #343C44",
"A  c #33344B",
"S  c #353B4A",
"D  c #393B49",
"F  c #3A3D52",
"G  c #373956",
"H  c #313149",
"J  c #423E44",
"K  c #413D56",
"L  c #36434F",
"P  c #3B434B",
"I  c #324043",
"U  c #3C4553",
"Y  c #374051",
"T  c #45444D",
"R  c #4A4C5A",
"E  c #454859",
"W  c #4C545C",
"Q  c #54595D",
"!  c #4C5463",
"~  c #5C5A68",
"^  c #4C4D61",
"/  c #5F6A70",
"(  c #6B6F78",
")  c #726656",
"_  c #F59F19",
"`  c #F89A1C",
"'  c #E59E32",
"]  c #F79B20",
"[  c #FCA62A",
"{  c #FEAC2B",
"}  c #F8A524",
"|  c #E8A536",
" . c #F5A933",
".. c #FDB73B",
"X. c #EFA029",
"o. c #D79535",
"O. c #B38750",
"+. c #8C817D",
"@. c #A98D69",
"#. c #B49B75",
"$. c #AC9B7D",
"%. c #BDA377",
"&. c #C79848",
"*. c #CC9A56",
"=. c #DBA44A",
"-. c #DBA658",
";. c #DFB054",
":. c #EBAB49",
">. c #F8AC43",
",. c #EBB54C",
"<. c #F8B549",
"1. c #E5AE58",
"2. c #ECB153",
"3. c #F4B453",
"4. c #C29E6A",
"5. c #CDAA67",
"6. c #D9A66C",
"7. c #D7AC67",
"8. c #D9B364",
"9. c #CEAD7A",
"0. c #D4B576",
"q. c #D2A770",
"w. c #E7B565",
"e. c #E1AE72",
"r. c #E7BA75",
"t. c #FBC75C",
"y. c #FFC045",
"u. c #F8CA6F",
"i. c #E7C27D",
"p. c #717C8B",
"a. c #7A7D86",
"s. c #6E7683",
"d. c #7D8588",
"f. c #7C8696",
"g. c #82858B",
"h. c #8B8F8C",
"j. c #848E8D",
"k. c #8B948C",
"l. c #8E998D",
"z. c #849086",
"x. c #92928E",
"c. c #959B8F",
"v. c #848B94",
"b. c #8A8D94",
"n. c #878B98",
"m. c #938E9C",
"M. c #8D9493",
"N. c #8E9995",
"B. c #87949A",
"V. c #8D959B",
"C. c #8E9A9B",
"Z. c #859293",
"A. c #919594",
"S. c #949A95",
"D. c #9A9C96",
"F. c #93959A",
"G. c #969C9A",
"H. c #999E9C",
"J. c #A09792",
"K. c #99A495",
"L. c #95A19D",
"P. c #9BA29C",
"I. c #9DA99F",
"U. c #A0A59E",
"Y. c #BFAC84",
"T. c #8C97A2",
"R. c #959CA2",
"E. c #9A9DA2",
"W. c #979AA8",
"Q. c #969FB0",
"!. c #A09DA5",
"~. c #94A2A1",
"^. c #9CA3A3",
"/. c #94A3AB",
"(. c #9CA3AA",
"). c #9DAAA7",
"_. c #9BA2B4",
"`. c #A2A5A3",
"'. c #A3A6AA",
"]. c #A8AAAD",
"[. c #A5A4B2",
"{. c #A4AAB8",
"}. c #A5AAB6",
"|. c #ABB0BD",
" X c #AAB1B6",
".X c #B5B5BA",
"XX c #B6B0AF",
"oX c #DBB987",
"OX c #C9B797",
"+X c #D7B58B",
"@X c #E5BF91",
"#X c #C2B9AE",
"$X c #B9C4BD",
"%X c #DDC496",
"&X c #E6C483",
"*X c #F3C489",
"=X c #E5C895",
"-X c #F5D296",
";X c #DDC5A8",
":X c #C8C8B8",
">X c #D6CEBA",
",X c #D8D1BF",
"<X c #E6CAA2",
"1X c #ECD5A9",
"2X c #E8D0B3",
"3X c #B9BBC3",
"4X c #A8B4C0",
"5X c #C0BDCE",
"6X c #BAC4CA",
"7X c #C4CBC5",
"8X c #CCCBCA",
"9X c #C7C8C8",
"0X c #D1CECC",
"qX c #D5CFC1",
"wX c #CAD3CB",
"eX c #D3D4CC",
"rX c #C9CBD1",
"tX c #CCD3D3",
"yX c #CAD3D9",
"uX c #D3D4D4",
"iX c #DBDCDD",
"pX c #D5D9D8",
"aX c #D0CBD2",
"sX c #E2D6C7",
"dX c #E8DED7",
"fX c #E6E5DB",
"gX c #EDE4CA",
"hX c #DEDFE4",
"jX c #DCE2E5",
"kX c #E4E4E2",
"lX c #E5EAEB",
"zX c #E3E8F4",
"xX c #FAFCFF",
"cX c #EDF3F1",
/* pixels */
"G.G.G.G.G.G.G.G.G.G.G.G.G.G.G.G.G.G.G.G.G.G.G.G.G.G.G.G.G.G.G.G.G.G.G.G.G.G.G.G.G.G.G.G.G.G.G.G.G.G.G.G.G.G.G.D.G.G.G.G.G.G.G.G.",
"G.G.G.G.G.G.G.G.G.G.G.G.G.G.G.G.G.G.G.G.G.G.G.G.G.G.G.G.G.G.G.G.G.G.G.G.G.G.G.G.L.G.G.G.G.G.G.G.G.G.G.G.G.G.G.G.G.G.G.G.G.G.G.G.",
"G.G.G.G.G.G.G.G.G.G.G.G.G.G.G.G.G.G.G.D.G.G.G.G.G.G.G.G.G.D.G.G.G.G.G.G.G.G.G.G.G.G.G.G.G.G.G.G.G.G.G.G.G.G.G.G.G.G.G.G.G.G.G.G.",
"G.G.G.G.G.G.G.G.G.G.G.G.G.G.G.G.G.G.G.G.G.G.G.G.G.G.G.G.G.G.G.G.G.G.G.G.G.G.G.G.G.G.G.G.G.G.G.G.G.G.G.G.G.G.G.G.G.G.G.G.G.G.G.G.",
"G.G.G.G.G.G.G.G.G.G.G.G.G.G.D.G.G.G.G.G.G.G.G.G.G.G.G.G.G.G.G.G.G.G.G.G.G.G.G.G.G.G.G.G.G.G.G.G.G.G.G.G.G.G.G.G.G.G.G.G.G.G.G.G.",
"G.G.G.G.G.G.G.G.G.G.G.G.G.G.G.G.G.G.G.G.G.G.G.G.G.G.G.G.G.G.G.G.G.G.G.G.G.G.G.G.G.G.G.G.G.G.G.G.G.G.G.G.G.G.G.G.G.G.G.G.G.G.G.G.",
"G.G.G.G.G.G.G.G.G.G.G.G.G.G.G.G.G.G.G.G.G.G.G.G.G.G.G.G.G.G.G.G.G.G.G.G.G.G.G.G.G.G.G.G.G.G.G.G.G.G.G.G.G.G.G.G.G.G.G.G.G.G.G.G.",
"G.G.G.G.G.G.G.G.G.G.G.G.G.G.G.G.G.G.G.G.G.G.G.G.G.G.G.G.G.G.G.G.G.G.G.G.G.G.G.G.G.G.G.G.G.G.G.G.G.G.G.G.G.G.G.G.G.G.G.D.G.G.G.G.",
"D.G.G.G.G.G.G.G.G.G.G.G.G.G.G.G.G.G.G.G.G.G.G.G.G.G.G.G.G.G.G.G.U.G.G.S.S.G.H.G.G.G.G.G.G.G.G.G.G.G.G.G.G.G.G.G.G.G.G.G.G.G.G.G.",
"G.G.G.G.G.G.G.G.G.G.G.G.G.G.G.G.G.G.G.G.G.G.G.G.G.G.G.G.G.G.G.G.G.G.G.^.^.L.G.S.G.G.G.G.G.G.G.G.G.G.G.G.G.G.G.G.G.G.G.G.G.G.G.G.",
"G.G.G.G.G.G.G.G.G.G.G.G.G.G.G.G.G.G.G.G.G.G.G.G.G.G.G.G.G.G.G.G.S.A.S.G.G.S.G.^.G.G.G.G.G.G.G.G.G.G.G.G.G.G.G.G.G.G.G.G.G.G.G.G.",
"G.G.G.G.G.G.G.G.G.G.G.G.G.G.G.G.G.G.G.G.G.G.G.G.G.G.G.G.G.G.G.G.H.H.P.H.F.G.G.P.G.G.G.G.G.G.G.G.G.G.G.G.G.G.G.G.G.G.G.G.G.G.G.G.",
"G.G.G.G.G.G.G.G.G.D.G.G.G.G.G.G.G.G.G.G.G.G.G.G.G.G.G.G.G.G.G.G.h.F.P.G.G.P.G.F.G.G.G.G.G.G.G.G.G.G.G.G.G.G.L.G.G.G.G.G.G.G.G.G.",
"G.G.G.G.G.G.G.G.G.G.G.G.G.G.G.G.G.G.G.G.G.G.G.G.G.G.L.G.G.G.G.G.^.^.L.N.S.H.H.G.G.G.G.G.G.G.G.G.G.G.G.G.G.G.D.G.G.G.G.G.D.G.G.G.",
"G.G.G.G.G.G.G.G.G.G.G.G.G.G.G.G.G.G.G.G.G.G.G.G.G.G.G.G.G.G.G.G.P.M.h.S.^.G.G.H.G.G.G.G.G.G.G.G.G.G.G.D.G.G.G.G.G.G.G.G.G.G.G.G.",
"G.G.G.G.G.G.G.G.G.G.G.G.G.G.G.G.G.G.G.G.G.G.G.G.G.G.G.G.R.R.R.T.w 7 T d.^.G.M.G.G.G.G.G.G.G.G.G.G.G.G.G.G.G.G.G.G.G.G.G.G.G.G.G.",
"G.G.G.G.G.G.G.G.G.G.G.G.G.G.G.G.x.P.^.h.].A.S.D.F.E.(.d.U 2 n V 1 a w d F.E.F.G.l.N.~.C.C.G.A.U.G.G.G.G.G.G.G.G.G.G.G.G.G.G.G.G.",
"G.G.G.G.G.G.G.G.G.G.G.G.G.G.G.G.D.U.`.v.R.V.^.G.H u C V 3 2 V B d 6 4 d g.E.'.M.).L.~.~.~.~.D.A.G.G.G.G.G.G.G.G.G.G.G.G.G.G.L.G.",
"G.G.G.G.G.G.G.G.G.G.G.G.G.G.G.G.D.x.g.R t 3 V 3 - - M m N d 7 . O + # $ 6 > D a d.L.C.L.R.C.'.A.G.G.G.G.G.G.G.G.G.G.G.G.G.G.D.G.",
"G.G.G.G.G.D.G.G.G.G.G.G.G.G.G.G.U.U.W.a.V 3 V M G A ,   o 0 c f 0.i.=XY.)   e 3 L B.N.L.F.M.].H.G.G.G.G.G.G.G.G.G.G.G.G.G.G.G.G.",
"G.G.G.G.G.G.G.G.G.G.G.G.G.G.G.G.k.F.{.Q.N a 7 8 . z l h x O.-.;.,.t.u.i.%.0 a V 3 T.).l.D.A.!.H.G.G.G.G.G.G.G.G.G.G.G.G.G.G.G.G.",
"G.G.G.G.G.G.P.G.G.G.G.G.G.G.G.G.C.T.(.V.< 0 % f b O.6.-.=.3.<. .X.y.y.u.0.j < t V /.).M.P.D.F.F.G.G.G.G.G.G.G.G.G.G.G.G.G.G.G.G.",
"G.G.G.G.G.G.G.G.G.G.G.G.G.G.G.L.~.C.C.x.c %.8.;.o.>.<.>.[ [ ` _ X...,.t.8.g @ N B p.(.G.D.P.N.N.G.G.G.G.G.G.G.G.G.G.G.G.G.G.G.G.",
"G.G.G.G.G.G.G.G.G.G.G.G.G.G.G.G.3 a e d O 5.,. .{ [ ` ] [ [ [ ..| ..| y.&.g $ w 1 E n.E.S.P.C.~.G.G.G.G.G.G.G.G.G.G.G.G.G.G.G.G.",
"G.G.G.G.G.G.G.G.G.G.G.G.G.G.G.G.).< s 8 f e.>.[ ` { {  .' 3.:.-.8.;.;.;.-.%X$ w ; ! f.H.G.G.~.~.L.G.G.G.G.G.G.G.G.G.G.G.G.G.G.G.",
"G.G.G.G.G.G.G.G.G.G.G.G.G.G.G.G.B.P = o j O.1.>.[ X.' 3.;.0.-X=X1X%X&X-X9.@.8 d R s.C.^.G.G.G.G.G.G.G.G.G.G.G.G.G.G.G.G.G.G.G.G.",
"G.G.G.G.G.G.G.G.G.G.G.G.G.G.G.G./.T.t i 9 v q.-.w.1.r.@X<XOXsXqX:X>XgX$.c 8 d v.v.G.^.K.S.G.G.R.G.G.G.G.G.G.G.G.D.G.G.G.G.G.G.G.",
"G.G.G.G.G.G.G.G.G.G.D.G.G.G.G.L.B./.t N , 9 ;X<X=X=X1XOXgX:XwX6X6XeX8X0 4 > D [.R.^.L.S.S.G.E.R.G.G.G.G.G.G.G.G.G.G.G.G.G.G.G.G.",
"G.G.G.G.G.G.G.G.G.G.G.G.G.G.G.G.~./.3 3 B C XXdXdXXXdX:XwXwX8XyXyX6X6Xw H y ; m.H.G.c.c.G.E.W.G.G.G.G.G.G.G.G.G.G.G.G.G.G.G.G.G.",
"G.G.G.G.G.G.G.G.G.G.G.G.G.G.G.G.N.C.Y * V * ! 4X.X~ '.iX7XwXtXuX6XyXzXY ; B F T.G.c.c.K.G.H.G.S.G.G.G.G.G.G.G.G.G.G.G.G.G.G.G.G.",
"G.G.G.G.G.G.G.G.G.G.G.G.G.G.G.G.D.D.g.T F 1 2 A D & T rX:X7X0X8XyXhX(.p U f.n.(.L.c.D.D.H.G.G.D.G.G.G.G.G.G.G.G.G.G.G.G.G.G.G.G.",
"G.G.G.G.G.G.G.G.G.G.G.G.G.G.G.D.D.x.].b.n.{.T.r , H r rXuX0X8X0X9XrXP w f.4XV.G.D.D.S.G.G.F.D.K.G.G.G.G.D.G.G.G.G.G.G.G.G.G.G.G.",
"G.G.G.G.G.G.G.G.G.G.G.G.G.G.G.G.P.A.G.G.V.(.v.F 1 r y u 4XyXA r M H = C B.~.f.).L.A.I.M.A.^.h.U.S.G.G.G.G.G.G.G.G.G.G.G.G.G.G.G.",
"G.G.G.G.G.G.G.G.G.G.G.G.G.G.G.G.H.A.P.P.F.E.^.d.y E ( F H A * H G H r q d.6XB.~.P.P.G.A.E.`.`.b.G.G.G.G.G.G.G.G.G.G.G.G.G.G.G.G.",
"G.G.G.G.G.G.G.G.G.G.G.G.G.G.G.G.L.S.L.L.N.M.^.'.F.n.|.m.H ; H M : : E H L / I a d.I.h.!.].m.!.!.H.G.G.G.G.G.G.G.G.G.G.G.G.G.G.G.",
"G.G.D.G.G.G.G.G.G.G.G.G.G.G.G.G.L.C.N.S.L.A.x.G.[.F.!.!.m ; E n K ^ 4X{.! I t < Z S.D.F.[.m.m.[.H.G.G.G.G.G.G.G.G.G.G.G.G.G.G.G.",
"G.G.G.G.G.G.G.G.G.G.G.G.G.G.G.G.N.L.G.S.I.P.S.S.h.`.`.g.q W  XrX6X XjXcXR.Y n B M n.{.n.Z._./.j.G.G.G.G.G.G.G.G.G.G.G.G.G.G.G.G.",
"G.G.G.G.G.G.G.G.G.G.G.G.G.G.G.G.M.P.L.G.G.G.D.K.K.P.d.R 7 `.pXpXpXtX$XtX3XU & F A ; m A S d.).N.G.G.G.G.G.G.G.G.G.G.G.G.G.G.G.G.",
"G.G.G.G.G.G.G.G.G.G.G.G.G.G.G.G.D.D.G.G.M.F.G.C.M.Z e < H hXiX.X7XeX8X:XfX`.( .XrX~ = 2 1 U C.).G.G.G.G.G.G.G.G.G.G.G.G.G.G.G.G.",
"G.G.G.G.G.G.G.G.G.G.G.G.G.G.G.G.U.x.A.H.G.E.~.G./.= C A > 9X8XpXrXwXpX:XfXcX9XxXxX5XK r t N h.L.G.G.G.G.G.G.G.G.G.G.G.G.G.G.G.G.",
"G.G.G.G.G.D.G.G.G.G.G.G.G.G.G.D.F.P.A.E.^.M.F.(.W.u q s K #XuX8XrXaXhXkXhXkXzXzXzXzXM - A m (.S.G.G.G.G.G.G.G.G.G.G.G.G.G.G.G.G.",
"G.G.G.G.G.G.G.G.G.G.G.G.G.G.G.G.F.A.P.S.M.'.'.v.b.q ^ [.|.hX8XeX9XuXlXcXhXhXhXkXiXaXK , m y g.^.G.G.G.G.G.G.G.G.G.G.G.G.G.G.G.G.",
"G.G.G.G.G.G.G.G.G.G.G.G.G.G.G.G.H.F.^.l.l.(.a.E D D _.xXaXtX6XwXeXqXiXfXhXdXdXdXdXdXJ.J i q P V.G.G.G.G.G.G.G.G.G.G.G.G.G.G.G.G.",
"G.G.G.G.G.G.G.G.G.G.G.G.G.G.G.G.^.G.L.k.I.k.Z < : G [.zX3X$XwXwX:X:X>XsXsX2X;X+X+X%XOXk > 7 < V.G.G.G.G.D.G.G.G.G.G.G.G.G.G.G.G.",
"G.G.G.G.G.G.G.G.G.G.G.G.G.G.G.G.L.k.c.l.I.Z.U 2 G - ^ 5X0XeXeX>X<X<X-X@X+X@X@Xr.8.0.9.+ # T N R.E.G.G.G.G.G.G.G.G.G.G.G.G.G.G.G.",
"G.G.G.G.G.G.G.G.G.G.G.G.G.G.G.G.^.N.K.K.k.^.p.B G , i #X2X;X=XoX7.w.6.6.e.@Xr.*.5.5.%.v +.E.d.}.G.G.G.G.G.G.G.G.G.G.G.G.G.G.G.G.",
"G.G.G.G.G.G.G.G.G.G.G.G.G.G.G.G.E.H.K.K.z.(.{.M , 9 l 9.0.=.3.:.' >.2.-.6.oXO.v + k 0 4 F.(.S.N.G.G.G.G.G.G.G.G.G.G.G.G.G.G.G.G.",
"G.G.G.G.G.G.G.G.G.G.G.G.G.G.G.G.b.!.k.c.N.(.W.r C 4 + 5.w.=.<.| 2.1.&.x X h z o 6 d < e W.C.^.l.G.G.G.G.G.G.G.G.G.G.G.G.G.G.G.G.",
"G.G.G.G.G.G.G.G.G.G.G.G.G.G.G.G.!.A.D.G.A.).Z.L y s o k #.oX7.oXf 9 9 8 9 i e s e e w D s.^.).G.G.G.G.G.G.G.G.G.G.G.G.G.G.G.G.G.",
"P.G.G.G.G.G.G.G.G.G.G.G.G.G.H.D.E.A.E.P.N.L.~.d.& d J i 9 # + O u m M M M r q t p y < e Q d.A.G.G.G.G.G.G.G.G.G.G.G.G.G.G.G.G.G.",
"G.G.G.G.G.G.G.G.G.G.G.G.G.G.G.H.H.F.D.P.l.l.L.`.W p.E.a.d @ 0 0 u t r q m C u e E.^.G.b.F.P.^.^.G.G.G.G.G.G.G.G.G.G.G.G.G.G.G.G.",
"G.G.G.G.G.G.G.G.G.G.G.G.G.G.G.G.H.D.A.S.K.l.k.L.F.R. XW.R = 1 w y u y E a.R.W.R.b.F.E.P.E.H.G.F.G.G.G.G.G.G.G.G.G.G.G.G.G.G.G.G.",
"G.G.G.G.G.G.G.G.G.G.G.G.G.G.G.G.F.H.G.G.I.P.D.G.L.M.V.T.s.Y t N (.W.V.V.(.'.G.M.^.^.P.F.A.A.S.A.G.G.G.G.G.G.G.G.G.G.G.G.G.G.G.G.",
"G.G.G.G.D.G.G.G.G.G.G.G.G.G.G.G.V.E.^.F.S.D.D.D.L.G.G.(.[./.B.C.G.R.R.G.P.L.G.^.G.F.G.G.S.G.I.P.G.G.G.G.G.G.G.G.G.G.G.G.G.G.G.G.",
"G.G.G.G.G.G.G.G.G.G.G.G.G.G.G.G.G.R.R.F.A.A.D.F.G.H.F.x.N.L.L.L.M.S.S.A.G.S.S.P.S.M.S.P.G.A.S.l.G.G.G.G.G.G.G.G.G.G.G.G.G.G.G.G.",
"G.G.G.G.G.G.G.G.G.G.G.G.G.G.G.G.~.N.F.E.R.E.!.G.F.c.U.U.S.S.L.S.I.P.S.S.P.P.A.A.P.S.H.I.S.S.H.D.G.G.G.G.G.G.G.G.G.G.G.G.G.G.G.G."
};
