/* XPM */
static char *_4d59d1b03684227f5fdb3e671cecc51nxfmC4XoFc8Q9JWB[] = {
/* columns rows colors chars-per-pixel */
"64 56 231 2 ",
"   c #050919",
".  c #0A131D",
"X  c #140F0B",
"o  c #251407",
"O  c #371A04",
"+  c #261818",
"@  c #220300",
"#  c #1D211F",
"$  c #382307",
"%  c #29221B",
"&  c #362717",
"*  c #0B1624",
"=  c #141523",
"-  c #151B2B",
";  c #1B1C2C",
":  c #151925",
">  c #141D34",
",  c #030E22",
"<  c #271F28",
"1  c #271F36",
"2  c #1D232D",
"3  c #1B2428",
"4  c #1D2434",
"5  c #1D243C",
"6  c #1A2738",
"7  c #23232D",
"8  c #292728",
"9  c #372B29",
"0  c #363326",
"q  c #232335",
"w  c #242B3C",
"e  c #2A2B3C",
"r  c #252A37",
"t  c #322D33",
"y  c #352D3C",
"u  c #2B323C",
"i  c #293237",
"p  c #32333C",
"a  c #383C38",
"s  c #4A1400",
"d  c #472C03",
"f  c #583505",
"g  c #4A371A",
"h  c #593C17",
"j  c #4B2D0B",
"k  c #713D04",
"l  c #483827",
"z  c #433837",
"x  c #563B32",
"c  c #3D413F",
"v  c #654208",
"b  c #664C1E",
"n  c #66511C",
"m  c #524433",
"M  c #74552A",
"N  c #644B32",
"B  c #694E2D",
"V  c #1B2542",
"C  c #262C42",
"Z  c #2C3343",
"A  c #293348",
"S  c #323543",
"D  c #343B44",
"F  c #3C3C45",
"G  c #343B4A",
"H  c #33374A",
"J  c #2C3252",
"K  c #343C54",
"L  c #322D41",
"P  c #3B444B",
"I  c #3B4253",
"U  c #3A4659",
"Y  c #464848",
"T  c #44485B",
"R  c #454856",
"E  c #495157",
"W  c #555559",
"Q  c #594E52",
"!  c #715B47",
"~  c #4B5462",
"^  c #595A66",
"/  c #5A6664",
"(  c #656876",
")  c #6D7579",
"_  c #747A7D",
"`  c #71767A",
"'  c #77664A",
"]  c #946522",
"[  c #91754F",
"{  c #847F7B",
"}  c #7B867C",
"|  c #EC9616",
" . c #FDA61A",
".. c #E79D30",
"X. c #EBA22A",
"o. c #FBA623",
"O. c #FAA728",
"+. c #E7A73D",
"@. c #F6A937",
"#. c #FFB739",
"$. c #9F8354",
"%. c #B88A49",
"&. c #B88E5B",
"*. c #B79258",
"=. c #AF8C50",
"-. c #9A8568",
";. c #9A8D7B",
":. c #B99A6C",
">. c #BCA67C",
",. c #C79649",
"<. c #C69756",
"1. c #DA9D4B",
"2. c #D5A756",
"3. c #DBA94F",
"4. c #E8AA4A",
"5. c #F7B548",
"6. c #E9AE56",
"7. c #E7B15B",
"8. c #F7B857",
"9. c #F0AD4B",
"0. c #C09F72",
"q. c #CBA76F",
"w. c #D6A867",
"e. c #DCB77B",
"r. c #CFA972",
"t. c #E7B469",
"y. c #E5BB77",
"u. c #E9B365",
"i. c #FEC963",
"p. c #F2C778",
"a. c #797D88",
"s. c #6F7689",
"d. c #7C838C",
"f. c #7B8486",
"g. c #7D8591",
"h. c #838987",
"j. c #868C8B",
"k. c #8A8D8C",
"l. c #848688",
"z. c #948B87",
"x. c #8B928D",
"c. c #88948B",
"v. c #95948C",
"b. c #848B94",
"n. c #8A8E94",
"m. c #848996",
"M. c #928F96",
"N. c #8D9493",
"B. c #8E9994",
"V. c #8D939B",
"C. c #8E999A",
"Z. c #869198",
"A. c #919694",
"S. c #939B96",
"D. c #999C96",
"F. c #92959B",
"G. c #969C9A",
"H. c #999D9C",
"J. c #999697",
"K. c #A29C9D",
"L. c #AC9B8B",
"P. c #96A19B",
"I. c #9BA19E",
"U. c #94A295",
"Y. c #B9A585",
"T. c #A1A49F",
"R. c #A6A39A",
"E. c #8D94A1",
"W. c #959CA2",
"Q. c #9A9DA2",
"!. c #9D9EAA",
"~. c #9297A5",
"^. c #9496AA",
"/. c #95A2A3",
"(. c #9CA2A3",
"). c #9DA3AA",
"_. c #9DA9A9",
"`. c #9DA6B2",
"'. c #A2A6A5",
"]. c #A3AAA6",
"[. c #A3A6AB",
"{. c #A4ABAB",
"}. c #A9AAA8",
"|. c #A9B1AE",
" X c #A4ABB2",
".X c #A9ADB8",
"XX c #ACB3BB",
"oX c #B5B7B9",
"OX c #B7A9A1",
"+X c #D6B687",
"@X c #CCBB98",
"#X c #C8B48E",
"$X c #C1B9BB",
"%X c #C6BBAB",
"&X c #D8C698",
"*X c #E4C382",
"=X c #E8C18C",
"-X c #EDCB92",
";X c #C9C5BD",
":X c #D7CAB5",
">X c #DDCCB1",
",X c #E4CAAA",
"<X c #F4D7B8",
"1X c #E7CCAC",
"2X c #FFE5BA",
"3X c #AEB5C3",
"4X c #B6BAC7",
"5X c #BDBBD1",
"6X c #C5BEC7",
"7X c #C0B8D0",
"8X c #BFC9C6",
"9X c #BEC2D6",
"0X c #CACAC3",
"qX c #C8C8C9",
"wX c #D2CCCC",
"eX c #D7CAC5",
"rX c #CBD1CC",
"tX c #D9D5CA",
"yX c #C9CAD5",
"uX c #D5CDD7",
"iX c #C9D3DA",
"pX c #D4D3D7",
"aX c #E3DAD8",
"sX c #E8D5C9",
"dX c #F2EADA",
"fX c #D9D9E8",
"gX c #CCD5E6",
"hX c #DCE5EB",
"jX c #DCE5F4",
"kX c #E6E5E9",
"lX c #F1EDF3",
/* pixels */
"G.G.G.G.D.G.G.G.G.G.G.G.P.G.G.D.D.S.G.G.S.G.D.G.G.G.G.G.G.G.G.G.G.G.G.G.G.G.G.G.G.G.G.G.G.G.G.G.G.G.G.G.G.D.G.G.G.G.G.G.G.G.G.G.",
"G.G.G.G.G.G.G.G.G.G.D.G.G.G.G.G.G.S.G.D.G.D.G.D.G.G.G.G.H.W.W.G.G.G.G.G.G.G.G.G.G.G.G.G.G.G.G.G.G.G.D.G.G.G.G.G.G.G.D.G.G.G.G.G.",
"G.G.G.G.G.G.G.G.G.G.G.G.G.G.G.G.G.G.G.G.G.S.G.G.W.G.G.G.G.G.H.G.H.G.G.G.G.G.G.G.G.G.D.G.G.G.G.G.G.G.G.G.G.G.G.G.G.G.G.G.G.G.P.G.",
"G.G.G.G.G.G.G.G.G.G.G.G.G.G.G.G.G.G.H.G.P.G.G.G.H.G.G.G.G.G.G.G.G.G.G.G.G.G.G.G.G.G.G.G.D.G.G.G.G.G.G.G.G.G.G.G.G.G.G.G.G.G.D.G.",
"G.G.G.G.G.G.G.G.G.G.G.G.G.G.G.D.W.G.W.G.W.G.G.G.G.G.W.H.G.G.G.G.G.G.G.G.D.G.G.G.G.G.G.G.G.G.G.G.G.G.G.G.G.G.G.G.G.G.G.G.G.G.G.G.",
"G.G.G.G.G.G.G.G.G.D.G.G.G.G.G.G.G.G.G.W.G.G.G.H.G.G.G.G.G.G.G.G.G.G.G.G.G.G.G.G.P.G.G.G.G.G.G.G.G.G.G.G.G.G.G.G.G.G.G.G.G.G.G.G.",
"G.G.G.G.G.G.D.G.G.G.G.G.G.G.G.G.H.G.G.W.H.G.G.G.G.G.G.G.G.G.D.P.G.G.G.D.G.G.G.G.G.G.G.G.G.G.G.G.G.G.G.G.G.G.D.G.G.G.G.G.D.G.G.G.",
"D.G.G.G.G.G.G.G.G.G.G.G.G.G.G.G.W.G.G.G.G.G.G.G.G.G.G.G.G.S.G.S.G.G.G.G.G.G.G.G.G.D.G.G.G.G.G.G.G.G.P.D.G.G.G.G.G.G.G.G.G.G.G.G.",
"G.G.G.D.G.G.G.G.G.G.G.P.G.G.G.G.G.G.G.P.G.G.G.S.D.D.A.'.S.F.I.x.S.(.B.H.P.x.I.F.G.(.P.G.I.B.N.I.G.G.G.G.G.G.P.G.G.D.G.G.G.D.G.G.",
"G.G.G.G.G.G.G.G.G.G.G.G.G.G.G.G.G.G.G.G.G.G.G.D.].I.x.x.].D.B.'.x.G.I.(.I.I.'.B.S.F.A.A.S.I.F.G.G.D.G.G.G.G.D.G.G.G.G.G.G.G.P.G.",
"G.G.G.G.G.G.G.G.G.G.G.G.G.G.G.D.G.D.S.G.D.D.G.G.h.j.oXG.S.N.G.Q.|.G.F.c.h.D.I.I.G.P.G.S.F.I.H.A.G.G.G.G.G.G.G.G.G.G.G.G.G.G.G.G.",
"G.G.G.G.G.G.G.G.G.G.G.D.G.G.G.G.S.D.G.D.S.G.S.G.{.k.H.f.Q.{.Q.N.N.j.'.].{.}.j.x.G.F.I.'.G.G.H.S.G.G.G.G.G.G.G.G.G.G.G.G.G.G.G.G.",
"G.G.G.G.G.G.G.U.G.G.G.G.G.G.G.G.S.G.D.G.G.G.G.G.S.W..XQ.[.n.l. XF.'.].h.j.x.j.|.G.A.A.G.F.S.G.G.G.G.G.G.G.G.G.G.G.G.G.G.G.G.G.G.",
"G.G.G.G.G.G.G.G.G.G.G.G.G.G.G.G.G.D.G.S.G.G.G.H.G.N.W.[.a. X.Xn.(.P.` Y i a Y h.].I.B.A.I.G.F.H.G.G.G.G.G.G.G.G.G.G.G.D.G.D.G.G.",
"G.G.D.G.G.G.G.G.D.G.G.G.G.G.G.G.G.G.G.G.W.G.H.W.F.~   F q W.V.u t # c c.I.} j.].h.(.I.A.I.H.B.H.G.G.G.G.G.D.G.G.G.G.G.G.G.G.G.G.",
"G.G.G.G.G.G.G.G.G.G.G.G.G.G.G.G.G.G.G.D.D.D.F.H.S a.T Z.p r t v.v.0 0 R.}.c 8 i a j.(.S.H.H.N.(.G.G.G.D.G.G.G.G.G.G.G.G.G.G.G.G.",
"G.H.G.G.G.G.G.H.G.G.G.G.H.W.G.G.G.H.x.K.R.z.v.T./.A V J 6 t g $ &X0.#X;.OXz.M.!.P.C.P.C.J.W.H.H.G.G.G.G.G.G.G.G.D.G.G.G.G.G.G.G.",
"H.H.G.G.G.G.G.G.G.G.W.G.Q.F.W.G.N._.H.M.v.T.}.h.i V J V 8 Q -.e.O d q.>.g z 7 M.G.U.S.G.W.W.H.H.G.G.G.G.G.G.G.G.G.G.G.G.G.D.G.G.",
"G.G.G.G.G.G.G.G.G.G.G.G.G.W.G.W.F.W.G.W.G.W.a.I i A i 3 0 & $ v f q.&.M ' OXz.[.G.G.G.P.G.G.S.U.G.G.G.G.G.G.G.G.G.G.G.G.G.G.G.G.",
"G.G.G.G.G.G.G.G.G.G.G.H.W.G.W.G.[.M.Q..Xg.U C 6 i 3 X N #X>.[ [ w.s f $.@Xv.}.l.G.G.D.G.G.F.B.U.D.G.G.G.G.G.G.G.G.G.G.G.G.G.G.G.",
"G.G.G.G.G.G.G.G.G.G.G.G.F.W.W.H.J.J.!.m.U 6 5 H % g n =.-Xt.] ] s k &.b [ ! . Y W.G.G.G.S.U.S.S.S.G.S.G.G.G.G.G.G.G.G.G.G.G.G.U.",
"G.G.G.G.G.G.G.G.G.G.G.W.Q.G.G.W.J.K.m.I 6 C p % j $.7.i.i.i.i.1.t.2.y.0.h z.H.F.G.G.P.S.S.U.U.U.P.G.G.G.G.G.D.G.D.G.G.G.G.G.G.G.",
"G.G.G.G.G.G.G.G.G.G.G.G.G.W.W.G.{.b.~ > q t % d 2.i.5.O. .O.#.5.4.,.f d l z.[.~.W.H.D.D.S.U.U.U.G.G.G.G.G.G.G.G.G.G.G.G.G.G.G.G.",
"H.W.G.D.G.G.G.G.G.G.G.H.W.G.H.W.Z.G * e z + f w.8.@.|  .#. .O.X.1.k 0.#XL.M.~.~.G.H.S.D.G.S.G.S.G.G.G.G.G.P.G.G.G.G.G.G.G.G.G.G.",
"G.W.G.G.G.G.G.G.S.S.F.S.G.[.l.u V J e < O B <.6.@.O.o.o.O.O.X.5.3.q.j ;.K.!.V.Q.F.G.G.J.F.G.P.B.G.G.G.G.G.G.G.G.G.G.D.G.G.G.G.G.",
"G.G.G.G.G.G.G.G.(.P.I.F.n.j.^ . K - + ! <.1.9.@.@.O.O.O.@.8.u.,.:.j o z M.[._.V.B.S.I.'.Q.S.U.].G.P.D.G.G.G.G.D.G.G.G.G.G.G.G.G.",
"G.H.G.G.G.G.G.D.S.B.H.H.Q.Q.a.R < + h ,.5.@.O.o.o.o.9.9.2.y.0.N h % 9 F b.P.P.B.S.S.A.Q.G.F.B.S.S.G.G.G.G.G.G.G.G.G.G.G.G.G.G.G.",
"G.G.G.G.G.G.G.G.H.F.H.G.Q.(.A.l.< ! <.+. . .o.O.@.4.8.y.y.1XsX$X8XuXL ; P B.c.U.S.(.F.H.F.'.S.B.G.G.G.G.G.G.G.G.G.G.G.G.G.G.G.G.",
"G.G.G.G.G.G.P.G.I.F.I.F.H._.Q.}.z [ t.5.o. .O.@.6.w.*X&X@X:XwXuXfX5XH T ( |.B.U.B./.F.).x.I.S.(.G.G.G.G.G.G.G.G.G.G.G.G.G.G.G.G.",
"G.W.G.G.G.G.G.G.S.B.I.F.Q.(.l.n.8 N %.5.#.O...8.r.=X,X:XtXeXyXiX9XK s.`.{.P.B.Z.).).N.(.A.(.N.G.G.G.G.G.G.G.G.G.G.G.G.G.D.G.G.G.",
"G.W.G.G.G.G.G.G.(.H.'.S.G.f.P i q 8 B [ u.u.u.-X>XsX0X6X;X0XrXpXgX4 E g.C.F.C._.m.`.U.U.} ]./.~.H.G.G.G.G.G.D.G.G.G.G.G.G.G.G.P.",
"G.G.G.G.G.G.G.G.B.N.Q.F.[.V.a 2 H ; & N :.1X,X%XeXyXyXyXiXrX0XrXu 6 4 G.(.C.Z 6 A E._.f.m c.W.!.W.G.G.G.G.G.G.G.G.G.G.G.D.G.G.G.",
"G.G.D.G.G.G.G.G.I.B.H.G.A.).j.P C 5 S t 9 wXaX4XP 4XfX4XyX4XD u 6 A L e = L C C K m.a.Y q H s.3XW.G.F.F.P.I.G.S.S.G.G.W.H.G.G.G.",
"G.G.G.G.G.D.G.G.H.J.H.I.A.H.(.f.e 5 C 4 w yX3XI   E 3XhX8X^ . w K 6 * C S G > C   ^ T , 4 w U d.!.).W.G.F.P.G.D.G.G.G.G.G.G.G.G.",
"G.G.P.G.G.G.G.G.H.S.G.P.S.B.H.[.m.T 4 H - R R 3 P - i w 6 , Z H - 2 ~ 3XfX.XR q Q yX7X( 5 > V G m.W.(.H.F.G.G.D.G.G.G.G.H.W.G.G.",
"G.G.G.G.G.G.G.G.P.F.S.F.G.N.B.H.XXa.7 4 P g.g.Z i . i 6 P r U * ; ^ !.jXjXXXY 8 uXlXlX5XA V U * E ) G.(.H.S.D.G.G.G.H.G.G.G.G.G.",
"G.G.G.G.G.G.G.G.S.H.F.G.'.I.S.H.A.H.Y S ) 3XE.i 3 U C./.Z.4 > T T !.yXiXqXwX;XdXlXiXkXfXW = C A * E n.(.H.S.D.G.G.G.G.W.G.W.F.G.",
"G.G.G.G.G.G.G.G.A.H.I.G.G.F.H.G.n.(.k.F. X~.G.W.C.B.P./.V.P w 4X7XfXjXpX6XtXtXkXkXkXkXtXOXY . G = E n.(.H.F.H.G.G.G.G.G.G.G.G.G.",
"G.G.G.D.G.G.G.G.G.F.P.S.B.A.G.S.I.(.Q.F.V.B.G.I.I.S.c._.H.d.T 9XuXwX0X0X0XdXkXlXgXhX:X&X2XY.0 r E ` G.H.F.G.P.S.H.G.G.G.G.H.G.G.",
"G.G.G.G.G.G.G.G.I.N.S.H.G.P.I.G.H.n.(.(.G.H.I.A.D.D.P.c.p Z ; iXwXwXrXtX;XkXfXlXiX0X&X+X*X&.z r n.(.[.F.N.P.P.S.G.G.G.H.H.H.G.G.",
"G.G.G.G.G.G.G.G.G.D.G.G.G.G.G.G.(.H.F.G.G.D.D.T.D.D.T.G.r 4 I 3 uX;X8XrXyXpXfXuX$X<Xy.2.y.*.c 6 V.[.[.A.B.P.G.S.G.G.H.G.G.G.G.G.",
"G.G.G.G.G.G.G.G.G.G.G.G.G.G.D.G.N.C.Q.H.G.A.v.D.H.x.F.(.P 2 , A ;XwXiX9XqXwXsX,X<X+Xt.y.*.b # w P ) V.F.G.H.D.D.G.G.W.G.G.W.G.G.",
"G.G.G.D.D.G.G.G.G.G.G.G.G.G.G.G.).P.S.S.D.H.(.I.).{.(.b.3 K U 9XiX9XgXiXwX>X=Xt.t.t.t.&.b o ; L * W N.(.Q.F.S.G.G.G.G.G.G.G.G.G.",
"G.G.G.G.G.G.G.G.G.G.G.G.G.G.G.G.D.G.H.I.F.S.A.k.V.C.b..XZ.iX.XhXiXrX8XpX>X=X7.4.7.,.M & 9 t e L R _ (.).I.S.B.G.G.G.G.G.G.H.G.G.",
"G.G.G.G.G.G.G.G.G.G.G.G.P.G.G.G.x.S.I.U.x.B.(._.m.XXE.b.i 8 Y $XpX0XeX1Xy.6.9.9.<.h X < Z 5 I m.b.Q.[.H.G.G.S.D.G.G.H.G.G.G.G.G.",
"G.G.G.G.P.G.G.G.G.D.G.G.G.G.G.G.I.S.C.B.B.P.(.Z.a ) E t % m ;.dX>X,X=Xt.6.5.4.,.f O t J V C a.oXQ.(.G.N.F.H.G.G.G.G.G.W.W.G.G.G.",
"G.G.G.G.G.G.G.G.G.G.G.G.G.G.G.G.I.N.B./._.P.f.P n.^ W Q L.Y.' @ *Xt.4.X.@.9.[ N + e J C K m.|.x.G.W.V.N.G.P.G.G.G.G.G.G.G.H.G.G.",
"D.G.G.G.G.D.G.G.G.G.G.G.G.G.F.H.H.B.P.U.B././.Z.i = oX;.m $ :.e.7.4.X.@.9.,.] X C J V J a..XG.A.F.(.Q.F.H.G.S.S.G.G.G.W.G.G.G.G.",
"G.G.G.G.G.G.G.G.G.G.G.G.G.G.G.G.G.C.C.U.} / } _.~.w 4 Y ;.0 & d 4.5.+.6.*.h % u C > T m.(.P.U.S.G.G.H.G.G.G.D.G.G.G.D.G.G.G.G.G.",
"G.G.G.G.G.G.G.G.G.G.G.G.G.G.G.G.(.P.(.{.U.) P r 6 C H = t z v.@X2.8.[ M l 9 7 - J I ) Q./.G.P.S.G.G.G.G.G.G.G.G.G.G.G.G.G.G.G.G.",
"G.G.G.G.G.G.D.G.G.G.G.G.G.G.D.G.G.V.B.x.U.(.G.b.~.`.E.H 8 < 0 9 j x l = < ; A I b.A.'.].A.S.P.S.G.G.G.G.G.G.G.G.G.G.G.G.G.G.G.G.",
"G.G.G.G.G.G.G.G.D.G.G.G.P.G.G.G.H.'.(.S.c.C./._.).b.W.).|.a.Q + L 1 1 T K > P g.(.H.U.v.k.S.I.C.G.G.G.G.G.G.G.G.G.G.G.G.G.G.G.G.",
"G.G.G.G.P.D.G.G.G.G.G.G.G.G.G.G.n.A.F.I.P.S.B.c.C.P 3 3 7 a l.[.L q G a.d.~ _ oXJ.v.v.A.H.'.I.C.G.G.G.G.G.G.G.G.G.G.G.G.G.G.G.G.",
"G.D.G.G.G.G.G.G.G.D.G.G.G.G.G.D.'.Q.G.I.P.S.D.I.P.f./. XG.V.[.Q.m.E./.{._.C.B.x.I.H.H.T.I.F.G.W.G.G.G.G.G.G.G.G.G.G.G.G.D.G.G.P.",
"G.G.G.G.G.G.G.G.G.G.G.G.G.G.G.G.F.J.Q.I.G.A.D.I._.P.U.B.V.).).n.T.}.F.j.c.I.{.C.F.G.J.F.N.n.F.(.G.G.G.G.G.P.G.G.G.G.G.G.G.G.G.G.",
"G.G.G.G.G.G.G.G.G.G.G.G.G.G.G.G.(.H.D.J.G.T.P.x.c.P.C.C.).).V.Q.K.v.v.T.(.k.B.H.F.Q.!.Q.(.).P.G.G.G.G.G.G.G.D.G.G.G.G.G.D.G.G.G."
};
