/* XPM */
static char *_6542_346140ea248e7acb65689c3de87acc82d0ba10c4d58a6a8db49cd1f1c7a70064[] = {
/* columns rows colors chars-per-pixel */
"64 60 254 2 ",
"   c #2A1D1A",
".  c #341E1B",
"X  c #361D15",
"o  c #361E0A",
"O  c #1B3408",
"+  c #1D2C18",
"@  c #162E0C",
"#  c #232D0C",
"$  c #292907",
"%  c #3B2302",
"&  c #392406",
"*  c #223309",
"=  c #2D2415",
"-  c #2D241B",
";  c #272918",
":  c #3B2214",
">  c #33231C",
",  c #3A241C",
"<  c #32291C",
"1  c #352517",
"2  c #243816",
"3  c #323F1D",
"4  c #2B1F26",
"5  c #341E23",
"6  c #371F23",
"7  c #2C1F34",
"8  c #1A2B29",
"9  c #172C37",
"0  c #133237",
"q  c #2D2423",
"w  c #2C2924",
"e  c #2C242B",
"r  c #272726",
"t  c #332423",
"y  c #3A2423",
"u  c #312922",
"i  c #33242B",
"p  c #372928",
"a  c #383727",
"s  c #332333",
"d  c #242D32",
"f  c #1F1B0F",
"g  c #461F01",
"h  c #432100",
"j  c #4C2200",
"k  c #462819",
"l  c #5C3E1B",
"z  c #613D1A",
"x  c #442D24",
"c  c #482B26",
"v  c #453228",
"b  c #593E27",
"n  c #4C3934",
"m  c #643C26",
"M  c #254D07",
"N  c #5B421B",
"B  c #63421D",
"V  c #5C432B",
"C  c #584428",
"Z  c #5A4634",
"A  c #4C442D",
"S  c #664225",
"D  c #68472D",
"F  c #527339",
"G  c #0B2F44",
"H  c #387659",
"J  c #347555",
"K  c #18777A",
"L  c #0E7975",
"P  c #377766",
"I  c #267779",
"U  c #2B746C",
"Y  c #447555",
"T  c #48734B",
"R  c #477B68",
"E  c #7CB736",
"W  c #77B637",
"Q  c #6FC63A",
"!  c #15847A",
"~  c #10866D",
"^  c #2A8A78",
"/  c #298A59",
"(  c #678A51",
")  c #7BBB47",
"_  c #6DB95B",
"`  c #75B95C",
"'  c #76B958",
"]  c #71AC52",
"[  c #4D8A71",
"{  c #6AB865",
"}  c #77B966",
"|  c #6FB875",
" . c #50BC65",
".. c #5DC64C",
"X. c #5BC948",
"o. c #5CC853",
"O. c #59D249",
"+. c #62C445",
"@. c #63C54C",
"#. c #64CA4B",
"$. c #69C748",
"%. c #63C453",
"&. c #66C856",
"*. c #73C651",
"=. c #59C468",
"-. c #4CC67B",
";. c #53C57B",
":. c #55C579",
">. c #4EC96F",
",. c #74C566",
"<. c #69C170",
"1. c #87B72C",
"2. c #84BB3D",
"3. c #8AB738",
"4. c #94B538",
"5. c #92AF30",
"6. c #A3B63C",
"7. c #FEA41C",
"8. c #FCA719",
"9. c #FBB017",
"0. c #D8B32B",
"q. c #DCAE35",
"w. c #DCB53C",
"e. c #D8B637",
"r. c #CBB43A",
"t. c #EBAB2B",
"y. c #FDA424",
"u. c #FEA924",
"i. c #FEA42B",
"p. c #FCAA2B",
"a. c #F5A929",
"s. c #E4B52A",
"d. c #F9B328",
"f. c #EBAA36",
"g. c #F8A935",
"h. c #E5B437",
"j. c #F9B238",
"k. c #FD9F26",
"l. c #8BC233",
"z. c #F4D309",
"x. c #D1C838",
"c. c #DFDC20",
"v. c #87BA44",
"b. c #94B743",
"n. c #85B754",
"m. c #8FAE51",
"M. c #B9BB49",
"N. c #B9B85A",
"B. c #B2B050",
"V. c #A4927B",
"C. c #87AE6F",
"Z. c #BAB867",
"A. c #B9B979",
"S. c #A7AC6D",
"D. c #98837E",
"F. c #C8B946",
"G. c #D8B644",
"H. c #C9AD58",
"J. c #C9B658",
"K. c #D4B458",
"L. c #D3AB50",
"P. c #E9AB49",
"I. c #E2B645",
"U. c #E5AA54",
"Y. c #F6AC46",
"T. c #CBB364",
"R. c #C7B568",
"E. c #D3B462",
"W. c #CAB26F",
"Q. c #E5AB61",
"!. c #D2C74D",
"~. c #C9E350",
"^. c #097D8A",
"/. c #177A88",
"(. c #067D97",
"). c #137D93",
"_. c #166F81",
"`. c #287685",
"'. c #206F8D",
"]. c #047DA7",
"[. c #677296",
"{. c #697190",
"}. c #636DA0",
"|. c #6572A6",
" X c #5D6FA7",
".X c #08838A",
"XX c #148285",
"oX c #01839C",
"OX c #088697",
"+X c #178497",
"@X c #129996",
"#X c #3A8988",
"$X c #2D8D9B",
"%X c #348B9D",
"&X c #3C8C96",
"*X c #2E9290",
"=X c #0387A6",
"-X c #0D9CAC",
";X c #0B9AA9",
":X c #1398AA",
">X c #0A9BB3",
",X c #159AB7",
"<X c #148AB7",
"1X c #2C8EA8",
"2X c #358DA3",
"3X c #2A93AA",
"4X c #3391A7",
"5X c #258EB6",
"6X c #2D8EB6",
"7X c #0DA1B1",
"8X c #23A790",
"9X c #478B8B",
"0X c #60A789",
"qX c #54C484",
"wX c #4CC592",
"eX c #66C782",
"rX c #0798C9",
"tX c #1395C8",
"yX c #0394D3",
"uX c #039AD5",
"iX c #0A9BD3",
"pX c #0295DC",
"aX c #029ADC",
"sX c #0997D9",
"dX c #0C90CE",
"fX c #009BE3",
"gX c #0099E8",
"hX c #0094F2",
"jX c #00A1E8",
"kX c #109BD1",
"lX c #9A998C",
"zX c #8F9C9A",
"xX c #959C95",
"cX c #9B9B94",
"vX c #959C9B",
"bX c #9A9B9B",
"nX c #989699",
"mX c #96968C",
"MX c #A2988B",
"NX c #A29A93",
"BX c #8DA197",
"VX c #94A194",
"CX c #95A19B",
"ZX c #9CA199",
"AX c #99A98D",
"SX c #B4BB81",
"DX c #A7AF8F",
"FX c #959CA2",
"GX c #999AA2",
"HX c #9599A6",
"JX c #8D9AA0",
"KX c #94A1A1",
"LX c #8EA0A2",
"PX c #C3B284",
/* pixels */
"bXvXbXvXVXvXVXVXvXvXbXbXbXbXGXGXGXFXxXcXvXxXNXNXV N B B m S B B B B m B B S D n NXnXvXLXGXGXzXLXvXbXbXbXcXvXcXvXvXvXvXCXzXvXvXxX",
"bXvXvXvXvXxXxXxXbXxXvXbXbXGXnXGXFXvXxXxXzXvXbXMXb N z N m m z B B z z z B N m b NXcXvXvXnXbXvXLXFXbXbXbXbXbXvXvXvXvXvXCXvXvXxXvX",
"bXxXvXvXxXbXvXvXvXvXxXvXvXvXFXFXGXbXvXVXvXvXbXcXA C B B D m S m B m B B C N V Z MXAXvXGXnXNXFXvXFXvXbXvXvXbXvXvXvXvXvXvXCXvXvXvX",
"vXvXvXbXvXxXbXvXvXbXvXvXvXvXvXvXcXcXcXxXbXnXcXlXA N C N m m m m m m m B N C C C MXMXNXZXNXNXcXcXvXFXvXFXbXvXvXvXvXvXxXvXzXvXvXCX",
"xXvXvXbXvXxXbXvXvXvXCXvXvXzXCXxXc k v k c c c v < : : , , , , , y t p p < : k : b b b m b b b C cXxXvXvXFXvXFXvXxXbXvXxXvXvXvXCX",
"vXxXxXbXbXbXvXbXvXvXvXxXvXxXxXcXc k k l c c c x 1 1 5 . ; = - - 4 r ; ; 1 , X X Z m m m m S B C MXvXxXCXvXFXvXvXvXvXbXbXvXxXvXzX",
"xXCXxXxXvXbXvXvXCXzXvXvXxXcXcXNXc c c k c c v x p p 6 y < < 1 1 < ; < ; > , k : A V b S B N B S MXlXcXZXvXvXvXFXvXvXvXvXvXvXCXzX",
"xXxXvXvXvXvXvXvXvXvXvXxXcXcXNXMXc c c c c c x x t t t > # O * O * O O # = 1 > > Z V S S V C B C V.MXMXlXxXbXvXvXvXbXvXvXvXvXvXvX",
"bXxXvXvXvXvXvXvXCXvXnXcXp p n v . . - - , . X . 5 t - + C.} } } } } } C.2 ; t 5 . , k X , > : : C Z A Z lXZXxXbXvXFXFXvXvXvXvXxX",
"xXvXxXvXKXvXvXvXxXvXNXNXv c c v t p > > y y t y y p r 2 C.} o.....%.} } @ + e p y , . . t t   : V V C Z mXNXcXxXvXvXvXFXvXvXxXbX",
"bXbXvXvXvXBXCXxXbXZXNXNXc c c y - t > = q q   -     @ O ` *.#.O.X.@.,.] O @ +     = X > - t 5 1 V C b V V.NXNXZXvXvXvXvXvXbXbXxX",
"bXbXvXvXvXvXbXxXmXmXNXD.n n c c 5 t = r d G d 3 2 2 * * ] v.E E E E 3.m.M 2 + 2 # # 2 3 f   t y V V S D V.V.mXmXcXvXvXFXvXbXbXbX",
"bXbXvXvXvXBXxXcXn v n n   X X . i i q d U I L J | | ] m.!.I.e.x.0.e.!.!.5.] { { ` } } ] w - - X X X & o Z D Z Z cXxXvXvXvXvXbXbX",
"GXbXFXvXCXxXxXcXp 6 x c 6 y y t t i   d I +XL ~ qX,.' 3.w.a.y.u.8.8.a.G.4.' ,.&.@.&.&.{ 2 ; - > y , x g b b C A MXcXxXvXvXGXbXbX",
"GXFXvXvXvXvXcXNXv v c c , > > = - <   8 K (.L ~  .o.) E e.u.y.u.p.y.a.e.2.+.....+.X.&.} * X > t 4 . 6 X D C S Z MXlXxXvXvXFXbXbX",
"bXFXFXzXvXvXcXcXp v c x y   - ; 8 8 8 0 L ! ~ / } ) 1.3.N.W.H.K.T.T.R.N.b.1.) 2.1.1.v.n.O * 2 + w 5 , X Z V C A MXlXvXvXvXvXbXbX",
"GXnXCXBXLXvXnXcXw ; > y X , t 8 U `.`.U ;.=.>.` J.h.s.F.9X3X$X*X$X2X4X[ N.q.w.h.s.0.q.!.m.} } | + i < . y t - ; cXxXbXvXBXBXcXcX",
"NXnXBXBXFXFXcXcXr - 5 t X 1 p 9 `.+XOX~ =.X.X.W G.i.7.K.1XgXuXuXuXaXaX2XJ.a.g.i.7.8.a.G.1.@._ } # i 1 . 6 i - r cXxXbXbXBXBXxXcX",
"bXVXVXxXGXbXbXcXw q i > > = X 8 I /.OX~ o.Q Q l.r.f.d.J.&XrXuXaXaXuXyX%XW.g.i.i.7.u.a.e.5.$.%.{ # : X =   t q w cXbXbXGXvXBXvXvX",
"xXxXxXVXbXbXbXbXi i   f 3 2 # + U ! ! / ' 1.1.5.Z.Z.R.DX2XtXuXuXiXyXiX3XDXZ.T.E.E.J.Z.N.4.5.3.) O * * 3 f 5 t i xXbXnXGXvXCXvXCX",
"VXxXxXxXGXvXvXxXq   - 3 ] { { { =.=.o.) !.q.G.R.[ 9X%X3XoXoX=X].oXoX=X(.4X*X2X2X1X1X%X0XN.e.e.!.n.` { ] 3 q   - xXxXvXbXvXxXvXxX",
"vXxXbXvXvXFXxXvXt t = 2 { &.o.X.#.X.$.1.h.k.f.R.9XtXpXsXoXOX(.)..X.XOXoXrXrXsXfXgXfXrX XZ.j.8.s.E &.&.} 2   t t xXxXvXvXxXvXbXvX",
"bXxXbXvXvXFXxXvXs i - 2 } $.X.X.O.X.Q 1.G.Y.Y.W.#XiXhXfX^.! /.^.^.^./.(.uXaXaXfXfXpXyX%XR.j.p.0.1.X.$.` O = y t cXVXvXbXvXbXFXGX",
"vXvXxXbXnXNXcXnX4 s   $ m.v.1.3.E E l.4.Z.R.W.DX*XrXaXtXU T H P U P H U ,XuXiXrXuXaXyX5XDXT.T.Z.3.3.3.m.$ = t 5 MXlXNXcXbXvXGXHX",
"xXVXCXcXv x v v p 5 , h T.G.h.q.h.q.r.Z.[ 9X9X*X^.OXoXK A.K.J.T.K.L.K.A.I oXOX].tXyXfXuX2X9X$X[ N.h.G.H.h X . t b C Z n cXxXvXKX",
"vXBXCXlXx k k v < t X j U.f.i.i.y.i.f.Z.9XtXgXdXoX@X! / J.j.t.p.p.a.d.K.Y XX+XOXtXaXjXgXdXtXaX1XE.i.f.U.g k > 1 C D D C AXlXxXKX",
"vXvXCXAXx k k k > - k j L.t.d.8.8.8.p.R.2XfXhXgXoXL L T H.g.u.u.y.a.j.H.P _.).].uXgXjXgXsXkXpX$XW.p.f.U.j k > = V C S C AXVXxXVX",
"FXvXvXxXv k k , - - 1 % L.r.0.e.e.J.J.DX3XaXgXtXI [ Y F B.G.h.h.h.h.w.B.( Y P I <XyXpXuXpXfXaX1XS.q.r.H.h X - > b l b v lXVXxXvX",
"bXbXFXxXi < , , i 4 - $ S.3.v.} #X3X&X%X.X=X.XU A.J.H.B.b.b.E 1.W W 4.b.B.F.J.A.P ).+X<XdXgXgX:X,.l.b.S.$ ; q e < , p p xXFXvXGX",
"cXvXvXnXi t > > i 7 - @ } ) @.qX>XgXrXtXoXOXK T K.j.j.G.v.*.$.#.+._ ' 4.0.9.d.K.Y K /.OXdXgXgX;X:.$.$.' @ w 4 e < - - e vXGXGXbX",
"VXxXbXnXi - - = 5 5 ; O *.@.%.qX>XaXuXiXoXOXL T J.t.p.h.E @._ &.+.Q o.) s.9.a.H.U ).^.OXyXgXuX:X:.#.+.' O + t q < - - e nXvXvXxX",
"VXxXxXcXp - - = % g % O | ;.;.wX;XrXrX,XK P H T N.G.w.!.] ;.qX=.Q Q l.1.!.0.h.J.Y U J ^ <XsXrX;XwXqX:.<.@ O + ; < u q i nXvXxXVX",
"xXxXBXVX6 6 t k Q.P.P.W.#X-X7X-X.XOX=XI A.K.K.J.b.) v. .*X;X7X^ ~.c.c.x.l.E 3.b.J.T.K.A.I ).=XoX>X>X-X*X:.` } C.+ i q t vXFXxXxX",
"vXxXAXmXy 6 s & Y.8.p.T.4XaXaXrX.X.X_.P G.u.y.w.v.&.&.-.7XuXjX*X~.z.z.c.l.O.*.4.w.g.a.K.Y /..X=XrXaXaX-X:.#.@.} + i > t vXFXxXxX",
"bXmXVXlXt 5 e & P.8.a.R.2XpXsXtX=X+X/.R L.g.t.e.5.W $.>.-XrXfX*X~.z.z.z.l.+.$.3.w.a.s.J.J .X! .XrXyXsX:X:.X.$.' # i X t GXHXzXxX",
"GXxXvXxXt 5 e % Y.7.p.T.2XsXaXuX].].(.9XV.K.J.M.5.1.3._ 8X7X,X[ x.z.z.z.l.@.#.2.w.a.t.J.U ! ! ^.tXsXuX;X:.X.+.' # p . y bXHXxXvX",
"HXHXbXnXt q t h g.7.i.W.2XpXjXaXaXuXrX;X#XR J F N.r.w.M.{ -.qX] x.9.9.e.v...O.W h.7.7.I.J OX).].sXfXjX7X-.O.@.` @ t 1 t bXHXzXvX",
"GXHXbXnXw > 1 h Y.k.i.W.%XyXaXjXfXaXrX>X].).L F R.Y.j.h.v.o.o.*.h.u.p.e.v.o.O.W h.k.7.U.J OX(.].sXpXjX7XqXo.@.} + e . t nXFXzXCX",
"nXzXbXxXw - < % U.f.P.W.9XtXsXsXjXkX>X7X].=X/.Y H.f.g.q.5.Q $.3.h.a.j.r.2.Q O.E !.f.f.K.U .X).OXrXrXrX@X:.) *.` 2 q 5 q xXvXxXBX",
"bXcXVXcX> > < & E.F.F.A.[ &X&X%X4X2X^ %X].dXOXI W.K.K.J.6.1.3.5.F.q.w.F.5.1.l.1.Z.T.J.SXI OX(.OX@X:X;X^ ` 3.4.m.# i > q vXCXzXxX",
"bXxXCXvXt 5 t # m.4.5.6.N.R.W.W.W.W.E.SX6XpXsX:XU J J F J.F.G.J.b.v.3.5.!.h.G.J.F Y H ^ <XrXrX:XwXwXqX| M.e.r.J.% t . q vXCXxXvX",
"FXvXFXnXi 6 < O ` W Q 5.r.I.g.i.i.g.g.W.2XpXaXiXoXXX! Y E.g.p.w.) +.E 5.G.f.g.H.T I L OXrXpXuX;XqX&.=.n.r.d.s.L.h , t q nXbXnXbX",
"HXJXHXFXi 6 t @ | &.$.l.r.f.p.8.y.p.j.Z.*XrXyXyX=XoX(.H H.i.7.0.E Q Q 5.G.Y.Y.E.H .XoX=XrXpXjX;X:.@.@.b.0.9.a.U.g y > w xXZXnXcX",
"LXzXLXvXy . p + eX:.=.} N.N.L.L.K.K.T.S.9X%X%X%XXX.X! / H.t.s.x.5.1.l.4.B.H.E.A.^ =X=XrXyXuXjX>X>.+.+.3.s.8.k.P.g , q w xXxXcXbX",
"xXxXVXcXt = t 8 P ~ ~ ~ P R P P #X%X9X0XDXA.W.Z.} { =.%.n.4.) v.!.I.x.B.( Y Y U <XrXdXdXdXdXaX>X-.O.o.n.0.u.g.U.h t r r xXxXxXxX",
"lXxXVXlX> - < 8 I ^..XoX).).XXoXyXyXdX&XW.Y.p.h.b.) X.X.*.%.o.n.P.k.f.N.H L L ^.rXpXfXsXdXsXsX-X;.o.o.) q.p.g.U.% t q w xXxXxXxX",
"CXzXbXcX> - u 8 I XXoXOX/./..XoXyXuXuX$XW.p.9.e.v.o.+.$...%.#.3.h.a.d.K.R ).OX=XrXpXfXaXsXpXaX-X:.#.o.) 0.u.a.P.h ,   i cXbXvXvX",
"HXJXGXbX< = u 9 `.(.=X=X(.OXoXoX;X,X7X*XZ.0.0.x.v.) 1.1.2.*.2.3.J.H.E.SXI (.=XoX:X:X>X>X,X>X,X*X` v.v.b.F.G.J.R.& 1 t t cXxXnXFX",
"FXzXbXcX< = < 0 1XrXuXaXrXtXrX-XwXqX;.=.' E 2.5.F.e.h.h.w.r.e.J.[ 1X2X1XtXiXrX-XwX;.:.-.-.-.:.} !.q.w.J.F J / P + > q w nXbXcXxX",
"FXzXvXcX1 = t G 5XuXfXfXpXpXpX:X:.%._ $.o.O.*.3.e.a.y.y.i.a.u.T.$XaXpXaXfXaXrX;XqX&.#.#.#.%.@.v.q.y.g.L.H L ^.`.8 t q w mXbXxXZX",
"bXcXbXnXt 4 7 G 5XrXaXfXaXpXaX>X-...@...#.+.Q 5.r.f.p.p.p.y.y.E.%XpXiXuXaXaXuX;XqX{ $.@...o...E w.f.j.H./ /.1X`.8 , > w xXFXzXzX",
"cXcXGXnXp 7 s 0 $X:X-X>X-X;X:X8X,.) v.v.2.4.4.6.Z.Z.R.T.H.K.H.SX#X:X-X;X-X7X;X^ } n.v.v.v.v.) 3.N.H.H.S.#XOXOX'.8 1 - t cXFXzXLX",
"xXxXvXvXt q < + eXqX-.:.:.:.:.} M.0.e.e.0.q.F.A.[ 9X4X6X2X2X4X%XwX:.:.-.-.qXqX} M.e.0.q.h.q.q.J.F H [ #X=XrXkX6X0 q ; < cXvXxXvX",
"xXxXvXxXe - 1 # { &.o.X.@.+.+.2.w.p.a.p.u.a.P.SX#X,XpXgXfXfXgX>XqX@...X...@._ v.e.d.p.p.i.i.i.K.H L `.).rXaXkX].G w - < cXcXxXvX",
"vXxXFXvXi - < O } %.#.+.$.@.@.2.q.a.i.k.7.k.P.W.#XtXfXhXpXgXpX:XqX*.&.@.*.' ' b.e.t.a.k.y.p.u.J.^ ^.).].iXaXkX6X0 r = - bXFXzXvX",
"HXHXFXGXe q < # C.} ' _ ' ' _ n.K.U.U.P.g.g.U.PX9X1XtXtX5X5X5X2X0X} } ` ' ' ` m.K.P.P.U.P.P.P.R.H `.`.'.5X5X6X2X9 q - q GXHXHXHX",
"{.{.{.R 7 s 5 q # # @ O 2 # + ; % % % % g g g : 8 0 G G 9 9 9 8 ; * # O # O + # % g g g g h h & 8 8 8 9 G G G 9 t . t r {.{.[.[.",
"}.|.{.{.7 s i q > ; ; w e 5 t q t y q q > , . > q r - q > > t t > y - t > - r w : X t t q t t - ; > > > r r 7 r t X q 4 {.}.[.}.",
"|.|.[.{.7 e ; < - < ; ; < ; ; - 6 6 t 5 t t q t t 1 > > > - q q w q t t . t r e > < w r r w - > - > , y > - e i t . t d [.}.|.}.",
"|.|.}.{.d w ; ; - = ; ; < = ; = X y . t q r r 5 > X : 1 > r ; q i i 7 6 y t e e > q r r - - w - > t 6 6 . < 6 i t 5 i 7 [.}.|.}."
};
