/* XPM */
static char *_abac5fb21d3417be842e17a68ff4ba1UvJwwtlOqNG2Z9IU[] = {
/* columns rows colors chars-per-pixel */
"64 72 162 2 ",
"   c #2E395B",
".  c #313B5E",
"X  c #323E60",
"o  c #2E4058",
"O  c #34455F",
"+  c #374465",
"@  c #3A4466",
"#  c #344861",
"$  c #394965",
"%  c #37446B",
"&  c #3A4669",
"*  c #3C496A",
"=  c #374470",
"-  c #444A5A",
";  c #4A4F5F",
":  c #47505F",
">  c #4D5464",
",  c #4E5669",
"<  c #4E5A6A",
"1  c #525667",
"2  c #505568",
"3  c #535A6B",
"4  c #424F71",
"5  c #4D5F77",
"6  c #595E71",
"7  c #57606F",
"8  c #5B6273",
"9  c #53647E",
"0  c #5F6678",
"q  c #5F6879",
"w  c #606577",
"e  c #606779",
"r  c #636A7C",
"t  c #566584",
"y  c #596686",
"u  c #556983",
"i  c #5A6A86",
"p  c #576788",
"a  c #5A6688",
"s  c #576A88",
"d  c #5B698A",
"f  c #5C7089",
"g  c #5F719C",
"h  c #666F81",
"j  c #686D80",
"k  c #616C8E",
"l  c #6C7486",
"z  c #62758D",
"x  c #6E7689",
"c  c #66788E",
"v  c #6F7A8E",
"b  c #707689",
"n  c #747C8E",
"m  c #7B7D8F",
"M  c #626E92",
"N  c #647196",
"B  c #6A7C94",
"V  c #64759C",
"C  c #737E91",
"Z  c #797E91",
"A  c #5F71A2",
"S  c #6273A3",
"D  c #6F8197",
"F  c #748193",
"G  c #7C8295",
"H  c #75869B",
"J  c #7B8699",
"K  c #73889D",
"L  c #7F8A9E",
"P  c #7F8FA8",
"I  c #7E92A7",
"U  c #83899D",
"Y  c #838DA1",
"T  c #888DA0",
"R  c #8594A5",
"E  c #8B93A5",
"W  c #8495AC",
"Q  c #8B95AB",
"!  c #8C9AAD",
"~  c #939AAF",
"^  c #879BB1",
"/  c #8B9BB2",
"(  c #929DB3",
")  c #8EA1B4",
"_  c #8EA2BA",
"`  c #94A1B3",
"'  c #93A5BB",
"]  c #98A4BA",
"[  c #95A9BD",
"{  c #9AACBE",
"}  c #9BADC3",
"|  c #9EAEC9",
" . c #9EB3C5",
".. c #9EB4CA",
"X. c #9FBACC",
"o. c #9FBBD0",
"O. c #A2ACC5",
"+. c #A0AFCC",
"@. c #A1B6C7",
"#. c #A2B4CB",
"$. c #A9B5CD",
"%. c #A2BCCE",
"&. c #A7BDCF",
"*. c #A5BCCE",
"=. c #A3BACE",
"-. c #A9B8CF",
";. c #A3B7D0",
":. c #A5B6D1",
">. c #A0B7D6",
",. c #A3B6D6",
"<. c #A2B7D6",
"1. c #A2B6D7",
"2. c #A5B5D6",
"3. c #A6B7D1",
"4. c #A8B7D4",
"5. c #A0B8D0",
"6. c #A2B8D0",
"7. c #A3B9D0",
"8. c #A0BBD0",
"9. c #A2BBD1",
"0. c #A2BAD2",
"q. c #A4B8D1",
"w. c #A7B9D1",
"e. c #A5BBD0",
"r. c #A4BAD1",
"t. c #A5B9D2",
"y. c #A4BAD2",
"u. c #A5BBD2",
"i. c #A5BBD3",
"p. c #A6BAD3",
"a. c #A6BAD2",
"s. c #A1BCD1",
"d. c #A3BCD0",
"f. c #A2BDD0",
"g. c #A3BED1",
"h. c #A3BCD2",
"j. c #A4BDD1",
"k. c #A6BCD1",
"l. c #A4BFD2",
"z. c #A6BFD3",
"x. c #A6BBD6",
"c. c #A7BBD6",
"v. c #A4BCD6",
"b. c #A5BAD1",
"n. c #A9B9D2",
"m. c #A9BBD3",
"M. c #AFBBD3",
"N. c #A8BDD0",
"B. c #A9BFD1",
"V. c #A9BAD6",
"C. c #ACBAD4",
"Z. c #A8BED5",
"A. c #AABCD4",
"S. c #A8BBD3",
"D. c #A9BAD8",
"F. c #AFBFD8",
"G. c #A7C1D2",
"H. c #A5C1D6",
"J. c #ABC0D3",
"K. c #A8C1D5",
"L. c #AFC1D9",
"P. c #B3C3DD",
/* pixels */
"S S V V 1.x.;.u.%.%.%.%.%.%.%.%.o.H.H.} W H C G Z Z n G Z b b n m m U b U ` E ~ ! `  .G.G.%.o.X.%.%.%.%.%.%.%.%.*.=.D.1.S g S A ",
"A S g V 1.x.;.6.%.%.%.%.%.*.%.%.X.G.h.%.' ! R U h n T ~ U e ; - ; 1 w 6 w b F ~ R )  .X.=.X.o.%.h.%.%.%.%.%.%.%.-.%.1.1.V V S A ",
"A S g V 1.v.=.%.%.%.%.%.%.%.%.%.X.h.*.&.=.{ ! U G Z U U l 8 3 3 1 1 8 r r F F R ! ) { #.X.X.%.G.X.h.%.%.%.X.%.%.%.=.v.o.V g S S ",
"A A g V o.x.o.j.=.%.%.%.X.%.%.%.X.%.*.&.-.] R F Z b r r 0 3 > - 1 - ; 8 r F J E ` { %.*.%.%.=.h.h.%.X.%.%.%.%.%.%.=.v.o.V A S A ",
"A S g V o.v.o.6.=.h.o.h.h.o.%.h.X.%.*.=.} ^ F l 2 , 2 8 r q 8 3 1 > 1 3 7 7 F R ` } -.J.&.%.%.X.%.X.h.o.h.X.h.=.6.o.c.>.V g A g ",
"A S g V v.v.6.h.h.=.h.h.%.h.h.X.X.%.-.%.{ W H n x x l r 8 8 r h b b b n r r F H Q ]  .*.*.%.=.X.X.G.o.h.h.h.6.6.v.6.c.>.V g V A ",
"g V g V >.x.;.u.6.h.6.6.h.6.h.o.6.u.u.-.#.{ ` ! C G Y Y C C C Z J J G Q ~ ~ ` R / }  .-.-.=.=.h.h.h.h.6.h.6.u.u.j.6.c.>.V g S g ",
"V S N V 2.V.:.x.u.u.u.u.u.u.h.h.u.:.;.V.F.M.C.$.+.$.O.] ( / / Q Q ~ E ~ ! ` J.G.} #.n.n.u.=.c.c.h.6.6.v.u.u.u.u.u.:.D.>.B N S V ",
"= = % % $ O @ O # # # # + # # # # # + # # # # + - O @ O O @ O O O @ O - - % @ O O O O O # # $ # # # # # + O @ @ # + @ @ * % % = ",
"4 X & & @ + $ + + + @ # # @ # # # $ # + @ + + + @ $ O @ - @ - + - + - X X - @ + @ @ $ $ # $ # + # # @ # @ @ O @ + + + + + % % = ",
"X = 4 X @ @ @ + @ @ $ $ @ @ @ $ & $ $ @ $ & * $ @ & * @ * @ & $ & ; = 4 4 X & + & $ * $ & & $ @ $ $ @ $ $ @ & @ O - + & & = & X ",
"& = @ @ @ @ - O + @ @ @ @ + # @ + + + + + + # % + + + + + + + + X X @ X + @ + + + + @ @ + + @ + @ + + + @ @ & X @ $ @ @ & = X 4 ",
"& & & & @ @ @ @ d d k d d d d d k d d k k d d d d d d k d d d d M k k a d k d k d d d d d k k d d i d k k k k a @ @ @ @ & @ & & ",
"& & @ & @ @ @ @ a p a a a a y y y y y y p s s u s s p s p s d p a a a a a a a y a d a a y y y y y a a a a a a a @ @ @ @ & @ @ & ",
"@ & @ & @ @ + % d d d d d d d d i i i d d d d f d d s d d d d d d d d d a a d k d d d k y k i i d d d d a a a a @ @ @ @ @ @ & & ",
"@ @ @ @ + + + % d d d d d d d i i d a d d s d s s s d s d d d a a d a d d a a a d y i a i a y i i d d a a k a a @ @ @ @ @ @ @ @ ",
"@ @ @ @ j y y y i d a i d a d a d d d d d s d s d d s d d y y a a a a d a d d d d d s s d d d s a a d d a a d d i d i h + @ + @ ",
"@ @ @ @ a y a j a a a y d d a d d d d d d d d d d u d d d d k z a y y y y y i u d s d s d s d d a d d d a a u i i i u k + + @ @ ",
"@ @ @ @ h y a y a t y y d a d a p u u u u y u u d i i d i u t u d z z f d d d i s u u u s u s u a d d d a y p a i d y i @ @ @ $ ",
"@ @ & @ d y a y a a y a k M k d d d f f i f f f u q i i i i u i 9 9 9 9 u u u u u f f f f f f f k k M d a p d d i i y i O $ @ @ ",
"% + * + d a d y a a k k k N N N #.#...#.#.#...#.L.-.| ' W H B N W ^ _ } ....c.J.X.....X...X.....M M M M k a a d d i a a @ * @ @ ",
"@ + * + d a d i a k a k N N N N c.j.B.B.J.B.B.j.| } ) ^ P K C C F K I ^ '  .=.6.c.G.h.h.j.j.j.c.N N N M M a d d i d a k @ @ @ @ ",
"& X * + d a d d a k a k M N N N 2.u.:.6.-.u.u.-.#.| } ( ^ W Y W ^ / _ } #.;.u.u.u.:.=.6.;.6.6.6.N N N M d a a a d d a d + & & & ",
"X 4 * @ d a d d a a a k M N V N :.u.n.3.:.n.3.3.P.C.2.:.+.+.$.$.:.:.u.c.V.3.:.-.:.u.u.u.u.u.x.2.N N N N d k a a d d a d + & @ & ",
"& X 4 X k a i d d d p d 4 X = = + # # @ # + + + + + $ O @ @ @ @ # @ @ X - X @ @ @ @ O + # + $ # % & % % d a d d d d a d @ * + % ",
"& & 4 X d a d d d d a d X X = = * + + + + + @ @ @ + @ @ @ @ @ @ + @ @ @ X 4 @ @ @ X + @ @ + $ @ & % * + d a d d d d a d + * @ @ ",
"& & 4 X d a d d d d a d X 4 4 X % * * * * * & & X 4 4 @ & & @ 4 & 4 & & & & 4 X & 4 * * & & & & X 4 % % k a d i d d a d + & @ & ",
"@ X 4 X d a i i d d p k X 4 X & + % + + @ @ % @ = X - X @ @ @ X & X @ @ & X 4 X + % + % @ @ + % = X * % d a d d u d a d + & @ @ ",
"@ @ @ @ d i d i a d a d * * & @ d d d d d k d d k k k k k k k k a k k d k k a k d d d d d d d k & & & X d y d i i i y k + @ @ @ ",
"@ @ @ @ h y i i d i a d + % & + p a d u p d a a a a y y y y y y a a t a a y a y d u d s s p a a & & 4 & d y d i i i y i + & @ @ ",
"@ @ - @ d y i i i i y d + * + % d i d i d i d i k h a i y h a i a h d i a h k y d i f u d s d d & X X X d a d y i i a i @ $ @ @ ",
"@ @ & X d y i i i d y d + * % + d i u i i i i i y y a y y y y i i a i i i y y y i s s d u d d k X 4 X 4 k y d i i i a h O $ @ @ ",
"+ % * + d p d d d d a d X & & @ d d d i u i u i @. . .%.@.{ @.@.} -. ...u f u d i i i u d d d d % @ & + k a d a d s p a % * % + ",
"@ + * + k p d d a d a d & 4 X & d d u d i i i i @. .@.{ @.@.{ @.*...} =.u f i u i a i d d a d a @ @ & + d a d d d d d d % % & + ",
"& @ % % d d d p d d a d @ & 4 X d u d i i i i q #.%.%.@.@.@.@.@. . .=.=.i u f z i d d a a i a d @ % & * d a d d d d p d + & @ & ",
"& @ % % a p d d d d a k + & X & d d i d i i i i  .@.@. . . .@.@. .} } _ c u 9 9 i i u i d a d a @ + * + k a d d d d p k + & @ @ ",
"X & 4 X d d d d d d a d & & @ @ i a i y i i y i + O $ O + O O $ $ $ $ 5 ' 3.-.3.i a i d i d d a @ X 4 X k y d a d d a k % & @ @ ",
"4 X 4 X d a d d d d a k X & & @ a d y d i i i d + O $ O O O O O $ $ o O @.:.} +.i i d i d d a d X 4 4 X k y d d a a a a + & @ & ",
"@ @ X & k a d a d d p d X 4 4 X a a i i d a h y $ $ $ @ 4 % @ @ o $ $ $ | | | 4.a i u d i d d a 4 & & X a y a a d d a k & X @ X ",
"X & & @ d d d s d d a d X 4 X & a h i i a a a i + @ + + X - X & $ O + @ #.#.4.+.i i d i a i u d X @ 4 X k y d a d d a M X 4 X 4 ",
"4 X X X k y a d d d a d % % @ @ a d y d y a d y + + & X 4 X & X O $ $ $ & @ + @ i i d i d d i i + + % + d a d d d d a d % & @ @ ",
"X 4 4 & k k d a s d a d % * & @ d a d y d i y k * @ @ & X 4 & @ $ O $ O X - @ + i i i d u d a d % * & + d a d d d d a k % % * @ ",
"& & & X d a d d d d a d + * + @ y d i d y k a d + @ @ @ & & @ @ - @ @ @ 4 X @ X y d d i d i i d @ @ * % k a d d d d a d + & + + ",
"@ @ & @ d a d d d d a k + * % + d i d i i y d a * @ @ @ @ @ @ & + @ $ @ X @ @ @ d a i a i a d i @ @ % % d p d d s d a d + & @ & ",
"@ % * + d a a a d d p d + & % + d a s d d d d d @ @ @ @ @ @ @ @ @ & @ @ @ @ @ @ i a d i d i a d & & & + k p a a a d a a % * + @ ",
"@ + * + k a d d d d a d + & + + d s d a d a d d @ $ @ @ @ @ @ @ 4 X @ @ @ @ - @ y d i d d a i d @ @ & + d p d d d d a k + & & @ ",
"& @ * % d a d d d d a d + & % % d d s d s s d d @ + + + O - + @ X & @ @ @ @ @ @ d y i i i i d i X & & + k p d d a d a k X 4 X 4 ",
"@ @ % % d a d d a d a d * & % % d d d d a d d a + @ + @ @ @ @ @ & @ @ & @ @ @ @ y k y d a d a i 4 & & + d a d d d d a k X X 4 X ",
"& X 4 X M a s d d d a a % * % @ a a a a a a a a X X = & * @ @ + @ @ @ @ + * + % a a k a k a k a X @ 4 X k a d d d d p d % % * + ",
"X 4 4 X d a d d d d p k % % + * k a k a k d k k X 4 & & @ % @ @ & & @ @ + @ @ + a a a a a a a k 4 X 4 X d a d d p d d d % % @ % ",
"@ @ & X d a d d d d p d + & + % d p d a a a a d X 4 4 X & & % % & & % & & * % * k a k a a a a d X 4 X & d a d d d d p d X & @ @ ",
"@ & & & d a d a d d a d + & @ @ d d d d k a a a X X 4 X # % + % + + + % + + % % k a a a a k d a & X 4 X k a d a d d p k % 4 X & ",
"& X X X M k a d a d a d + & @ @ d d d d d d d a M k a k d d d k d d d d k d d k a a a a a a a d @ & X X k k d a d d a d + & @ & ",
"X 4 4 X k y k a d d a d % & & + a d d d a d d a a a a a a a p p a a a a a a s p k a d d a a d d @ @ 4 @ k a d d a a a k + & @ @ ",
"& @ 4 4 a y a a a d a d + & @ @ a d d d a d a a d d d d d d d d d d d d d d a k a d d d a k k a & & & & a y a a d d a a + & & @ ",
"& @ X X k y d d d k a k + & @ & d d a a d a a k d d d d d d d d d d d d d d a a d a d a k a a a @ @ & X k y d d d d a k + & & @ ",
"+ + * + d d d p a p M t % X & + @ @ & & X & @ @ & @ & X @ % @ % * % @ @ & & @ X X 4 X & @ X & @ X & X * p k p d d d a d % * + + ",
"& + * % d p d d a p d p % % 4 & & @ @ @ & & @ @ @ @ & @ @ @ @ + % + & X @ @ @ 4 4 X @ @ & & @ & 4 * + * p d p d d d a k % % @ % ",
"X 4 = * d p d d d a d t & . X X & & % % 4 4 @ & & & 4 @ 4 X * % & & 4 4 & & & & 4 & * % & & & & X X + * t d a d d d a d + & @ @ ",
"& X = X M p k d k s d t 4 & 4 @ @ @ % % X X @ @ @ @ X 4 X @ % % + @ X X @ @ @ @ X @ % % @ @ @ @ X 4 = = t d s k s d a d + & @ & ",
"& @ & X k a a d a y a k y t y t d d k d d d d k k a k k d d k d d d k d a a k k a M a d k a k a a a t t a d a d d d a d + & @ @ ",
"@ & X 4 d a a a a a k k a k k k a a p a a a a a y a a a a a a a a a a a a a a a p d a a a a a a k k k a k d s a d d a d % & & @ ",
"X 4 4 X k p d a d d a a a a t a d d d d a k d d d d a k d d d k d d d d d d a k k d d a a k a k y y a a a a k a a d a d + & @ @ ",
"& X 4 X d p k a k d a a a k a a d d d d d a a a d a a a d d a d a a d a d a a a d a a a a a a a a a k k a a d k d d a k + & @ & ",
"@ @ @ @ @ @ @ & k a k k a k a k a k a a k a k k a k k k a k a a a a g a a a a g a a k a g a a d k a a k a k a a & @ @ @ & @ @ @ ",
"& & @ @ @ @ @ & a a a a a w k a a a a a a a a a a a a a a a a a a a a a a a a a a a a a a a a a k a a a a a a k & & & @ & & & @ ",
"& & & @ & & & & k a a a a a a a k a a k a a a a a a a a a k a a a a A a k a a a k a a k a d a d a a a a a a k a & & & & & & & @ ",
"@ X @ @ @ . @ @ a k a j k k k a a a k a k a a a a k k a a a a k a a a a a k a k a a k a d d d d a k k k k k a k . @ @ . @ . @ @ ",
". . . . . . . .                 . .                     .                                                       . . . . . . . . ",
".       .   . . .                 .                     . .                                       .   .   .             .       ",
"  .             . .   . . . . . . . . .     .   . .   . .   . . . . .         . . . . .       . . . .   .   . .                 ",
".         .   .                                                                                                     . .   .     "
};
