/* XPM */
static char *_044_49d6afe81d997e1b049ee546317f0341eea8c5cb492da60f1c807da29a5f9193[] = {
/* columns rows colors chars-per-pixel */
"64 56 216 2 ",
"   c #7B4738",
".  c #981D16",
"X  c #A41E03",
"o  c #9A320D",
"O  c #9C2719",
"+  c #9C3311",
"@  c #AE2901",
"#  c #AA2A0D",
"$  c #AE3705",
"%  c #B53F0B",
"&  c #AF2C1B",
"*  c #A82814",
"=  c #B32C15",
"-  c #B22B1D",
";  c #A83B16",
":  c #B13C18",
">  c #B32D0A",
",  c #9E2723",
"<  c #873122",
"1  c #923A2A",
"2  c #913834",
"3  c #914315",
"4  c #974924",
"5  c #844939",
"6  c #AF5E32",
"7  c #AE5535",
"8  c #B75A37",
"9  c #B8673A",
"0  c #C15413",
"q  c #D9701F",
"w  c #E27919",
"e  c #EA7E19",
"r  c #CB572D",
"t  c #CB533C",
"y  c #CD5C3A",
"u  c #D65935",
"i  c #D66924",
"p  c #C76238",
"a  c #DD7335",
"s  c #E6782B",
"d  c #E57333",
"f  c #E77439",
"g  c #E46930",
"h  c #804946",
"j  c #9E654A",
"k  c #BC6A47",
"l  c #AB754C",
"z  c #B5764A",
"x  c #A66550",
"c  c #AD7C54",
"v  c #9E7D6A",
"b  c #A47A68",
"n  c #CA5C48",
"m  c #D75943",
"M  c #C06C41",
"N  c #C46349",
"B  c #D1634A",
"V  c #CC7145",
"C  c #DB7A53",
"Z  c #D97E45",
"A  c #EA6E49",
"S  c #E9821D",
"D  c #EC8328",
"F  c #F88D25",
"G  c #FF9D27",
"H  c #FF9D2B",
"J  c #F8952A",
"K  c #EE8833",
"L  c #FD8A31",
"P  c #F4833D",
"I  c #F98837",
"U  c #FF9332",
"Y  c #FFA423",
"T  c #FFA13E",
"R  c #FFB133",
"E  c #B78A5E",
"W  c #9D8E7E",
"Q  c #97867A",
"!  c #989879",
"~  c #AC8363",
"^  c #B28D65",
"/  c #BB8C67",
"(  c #B39167",
")  c #A88B7A",
"_  c #B58C73",
"`  c #BB8F76",
"'  c #A29374",
"]  c #AD9375",
"[  c #AB937B",
"{  c #AC9C7C",
"}  c #A7977B",
"|  c #BA9178",
" . c #9EA37A",
".. c #CE884C",
"X. c #D88341",
"o. c #DF8F5C",
"O. c #C68953",
"+. c #FF8740",
"@. c #FF9C4A",
"#. c #F79948",
"$. c #F99753",
"%. c #E3995C",
"&. c #FFA249",
"*. c #FFBA42",
"=. c #E9A05C",
"-. c #FFA051",
";. c #FFBA53",
":. c #C18263",
">. c #C6916F",
",. c #C38878",
"<. c #C89773",
"1. c #E69661",
"2. c #DAAE77",
"3. c #DCB678",
"4. c #F4AF62",
"5. c #F8AE71",
"6. c #F7B26B",
"7. c #FFC340",
"8. c #FFC75A",
"9. c #9B8485",
"0. c #8E9485",
"q. c #8D948D",
"w. c #8D998E",
"e. c #919586",
"r. c #999785",
"t. c #959C85",
"y. c #9A9C82",
"u. c #93958C",
"i. c #9B968C",
"p. c #949B8D",
"a. c #9B9C8C",
"s. c #9F8F90",
"d. c #8D9592",
"f. c #8D9A94",
"g. c #8C969B",
"h. c #8E9D9B",
"j. c #85969D",
"k. c #939694",
"l. c #9B9693",
"z. c #949B95",
"x. c #9A9C94",
"c. c #94969B",
"v. c #9B959B",
"b. c #969C9A",
"n. c #9A9C9B",
"m. c #8C8D85",
"M. c #A48A84",
"N. c #AC8E82",
"B. c #B28E82",
"V. c #A49586",
"C. c #AC9384",
"Z. c #AC9B84",
"A. c #A3958C",
"S. c #A59B8C",
"D. c #AC9C8B",
"F. c #A7988B",
"G. c #B29C84",
"H. c #B59987",
"J. c #A38591",
"K. c #A39593",
"L. c #A29C92",
"P. c #AA9A94",
"I. c #A29E9C",
"U. c #A29698",
"Y. c #95A08B",
"T. c #9CA28D",
"R. c #99A287",
"E. c #8BA19D",
"W. c #8FA096",
"Q. c #95A193",
"!. c #9DA294",
"~. c #9EAB91",
"^. c #94A29C",
"/. c #9AA19D",
"(. c #A8A98A",
"). c #B9A08A",
"_. c #A3A294",
"`. c #A3A49C",
"'. c #A9A69A",
"]. c #A5A99C",
"[. c #AAAB9B",
"{. c #A8AA93",
"}. c #AEB49B",
"|. c #B9BA97",
" X c #B6B98C",
".X c #8B95A0",
"XX c #8E9EA4",
"oX c #949CA2",
"OX c #9A9DA3",
"+X c #999CAA",
"@X c #9599A6",
"#X c #A099A0",
"$X c #8DA2A1",
"%X c #94A2A3",
"&X c #9CA2A2",
"*X c #9CA8A6",
"=X c #96A4AA",
"-X c #A3A4A3",
";X c #A4AAA7",
":X c #A8ADA3",
">X c #A3ABAA",
",X c #A9AFAD",
"<X c #A4B0A2",
"1X c #B6B7AA",
"2X c #A5A3B1",
"3X c #C28282",
"4X c #C59685",
"5X c #C4958D",
"6X c #DBAF80",
"7X c #C3BCA7",
"8X c #BBC2A9",
"9X c #B8C0BE",
"0X c #C3CAAC",
"qX c #D1CBAB",
"wX c #CECEB6",
"eX c #D8D6C9",
/* pixels */
"b.b.b.b.b.b.b.b.b.b.b.b.b.b.b.b.b.b.b.b.b.b.b.b.b.b.b.b.b.b.b.b.b.b.b.b.b.b.b.b.b.b.b.b.b.b.b.b.b.b.b.b.b.b.b.b.b.b.b.b.b.b.b.b.",
"b.b.b.b.b.b.b.b.b.b.b.b.b.b.b.b.b.b.b.b.b.b.b.b.b.b.b.b.b.b.b.b.b.b.b.b.b.b.b.b.b.b.b.b.b.b.b.b.b.b.b.b.b.b.b.b.b.b.b.b.b.b.b.b.",
"b.b.b.b.b.b.b.b.b.b.b.b.b.b.b.b.b.x.b.b.b.b.b.b.b.b.b.b.b.b.b.b.b.x.b.b.b.b.b.b.b.b.b.b.b.b.b.b.b.b.b.b.b.b.b./.b.b.b.b.b.b.b.b.",
"b.b.b.b.b.b.b.b.b.b.b.b.b.b.b.b.b.b.b.b.b.b.b.b.b.b.b.b.b.b.b.b.b.n.b.b.b.b.b.b.b.b.b.b.b.b.b.b.b.b.b.b.b.b.b.b.b.b.b.b.b.b.b.b.",
"b.b.b.b.b.b.b.b.b.b.b.b.b.b.b.n.b.b.b.b.b.b.b.b.b.b.b.b.b.b.b.b.b.b.b.b.b./.b.b.b.b.b.b.b.b.b.b.b.b.b.b.b.b.b.b.b.x.b.b.b.b.b.b.",
"b.b.b.b.b.b.b.b.b.b.b.b.b.b.b.x.b.b.b.b.b.b.b.b.b.b.b.b.n.b.b.b.b.b.b.b.b.b.b.b.b.b.b.b.b.b.b.b.b.b.b.b.b.b.b.b.b.n.b.b.b.b.b.b.",
"b.b.b.b.b.b.b.b.b.b.b.b.b.b.b.b.b.b.b.b.b.b.b.b.b.b.b.b.b.b.b.b.b.b.b.b.b.b.b.b.b.b.b.b.b.b.b.b.b.b.b.b.b.b.b.b.b.b.b.b.b.b.b.b.",
"b.b.b.b.b.b.b.b.b.b.b.b.b.b.b.b.b.b.b.b.b.b.b.b.b.b.b.b.b.b.b.b.b.b.b.b.b.b.b.b.b.b.b.b.b.b.b.b.b.b.b.b.b.b.b.b.b.b.b.b.b.b.b.b.",
"b.b.b.b.b.b.b.b.b.b.b.b.b.b.b.b.b.b.b.b.b.b.b.b./.b.b.n./.b.b.b.b.b.b.b.b.b.b.b.b.b.b.b.b.b.b.b.b./.b.b.b.b.b.b.b.b.b.b.b.b.b.b.",
"b.b.b./.b.b.b.b.b.b.b.b.b.b.b.b.b.b.b.b.b.b.b.b.b.b.c.z.z.b.b.b.b.b.b.b.b.b.b.b.b.b.b.b.b.b.b.b.b.b.b.b.b.b.b.b.b.b.b.b.b.b.b.b.",
"b.b.b.b.b.b.b.x.b.b.b.b.b.b.b.b.b.b.b.b.b.b.b.b.c.^.b.z.k.c.b.b.b.x.b.b.b.b.b.b.b.b.b.b.b.b.b.b.b.b.b.b.b.b.b.b.b.b.b.b.b.b.b.b.",
"b.b.b.b.b.b.b.b.b.b.b.b.b.b.b.b.b.b.b.b.b.b.b.b.d.n.&X/.b.^.b.c.b.b.b.b.b.b.b.b.b.b.b.b.b.b.b.b.b.b.b.b.b.b.b.b.b.b.b.b.b.b.b.b.",
"b.b.b.b.b.b.b.b.b.b.b.b.b.b.b.b.b.b.b.b.b.b.b.b.k./.b.c.n.n.c.b.b.b.b.b.b.b.b.b.b.b.b.b.b.b.b.b.b.b.b.b.b.b.x.b.b.b.b.b.b.b.b.b.",
"b.b.b.b.b.b.b.b.b.b.b.b.b.b.b.b.b.b.b.b.b.b.b.b.b./.k.f.^.b.f./.b.b.b.b.b.b.b.b./.b.b.b.b.b.b.b.b.b.b.b.b.b.b.b.b.b.b.b.b.b.b.b.",
"b.b.b.b.b.b.b.b.b.b.b.b.b.b.b.b.b.b.b.b.b.b.b.b./.^.d.n.,Xn.u.b.b.b.b.b.b.b.b.b.b.b.b.b.b.b.b.b.b.b.b.b.b.b.b.b.b.b.b.b.b.b.b.b.",
"b.b.b.b.b.b.b.b.b.b.n.b.b.b.b.b.^.b.b.x.b.b.b.b.b.b.x.:X9X;Xd.b.b.b.b.b.^.b.b.c.b.b.b.b.Q.b.b.b.b.b.b.b.b.n.b.b.b.b.b.b.b.b.b.b.",
"b.b.b.b.b.b.b.b.b.b.b.b.b.b.b.^.^.^.`.u.x.&Xd.^.z.p.|.0X`.c./.b.v.b.h.XXE.b.n.c.&XXXE.Q.Y.Q.oXoXb.b.b.b.b.b.b.b.b.b.b.b.b.b.b.b.",
"b.b.b.b.b.b.b.b.b.b.b.b.b.b.b.z.^.f.x.k.v.OXf.^.x._.|.}./.c.b.z.b.b.oXb.b.b.b.b.oXE.f.Q.p.x.v.b.b.b.b.b.b.b.b.b.b.b.b.b.b.b.b.b.",
"b.b.b.b.b.b.b.b.b.b.b.b.b.b.b.b.f.f.b.n.oXoXz.x.i.L.(.R.c.@Xv.x.^.z.l.L.l.x.b.z.z.x.n.v.c.c.b.x.b.b.b.b.b.b.b.b.b.b.b.b.b.b.b.b.",
"b.b.b.b.b.b.b.b.b.b.b.b.b.b.b.b.^.f.^.&XOXc.z.p.u.'.T.e.XX+Xv.b.z.p.F.C.F.l.b.h.q.!.#X#XOXoXl.x.x.b.b.b.b.b.b.b.b.b.b.b.b.b.b.b.",
"b.b.b.b.b.b.b.b.b.b.b.b.b.b.b.^.^.h.v.v.v.v./.x.-X1X[.p.OX=Xg.z.r.} | _ C.K.oXXXf./.n.v.+XOXc.n.b.b.b.b.b.b.b.b.b.b.b.b.b.b.b.b.",
"b.b.b.b.b.b.b.x.b.b.b.b.b.b.b.z.d./.i.l.v.x./.b.&X;X!.z.OXoXh.i.] / / ` C.L.b.$XXX^.k.k.OXn.c.OXn.b.b.b.b.b.b.b.b.b.b.b.b.b.b.b.",
"b.b.b.b.b.b.b.b.b.b.b.b.b.b.b.b.z.1Xx.u.x.b.b.b.g.c.k.p.x.b.x.Z.O...E ] V.l.n.b.%X$Xd.Q.:X!.q.^.b.b.b.b.b.b.b.b.b.b.b.b.b.b.b.b.",
"b.b.b.b.b.b.b.b.b.b.b.b.b.b.b.b.'.0X;Xq./.b.p.z.%Xb.b./.x.y.C.<.X.X./ [ l.b.v.n.oX^.f.:X8X{.0.Q.b.b.b.b.b.b.b.b.b.b.x.b.b.b.b.n.",
"b.b.b.b.b.b.b.b.b.b.b.b.b.b.b.x._.! f.$XE.f.b.x.b.d.=XXXa.G.x M d X.| K.2X.XOXv.l.c.OXOXu.{.0X{.Q.b.b.b.x.n.b.b.b.b.b.b.b.b.b.b.",
"b.b.b.b.x.b.b.b.b.b.b.b.b.b.b.x.wX[.^.E.f.d.z.v.b.h.%Xf.Z.>.8 y A C ,.9.2X+Xc.x.v.I.OXOXk.p.}.t.Q.b.b.b.b.b.b.b.b.b.b.b.b.b.b.b.",
"b.b.b.b.b.b.b.b.b.b.b.b.b.b.b.Q.:Xz.p.a.l.L.I.OX.X$X^.S.6Xo.: = = O 1   Q n.f.=XOXOXOXOXc.z.x.e.x.b.b.b.b.b.b.b.b.b.b.b.b.b.b.b.",
"b.b.b.b.b.n.b.b.b.b.b.b.b.b.b.b.d.q.i.D.H.C.K.c.%X*XQ ~ 5.$.$ X - * ; 3 c (.f.*Xc.n.c.%XoXc.x.x.v.b.b.b.b.b.b.b.b.b.b.b.b.b.b.b.",
"b.b.b.b.b.b.b.b.b.b.b.b.b.b.b.b.%X&XK.C._ _ N.P.l.M.  4 $.@.i r y g P &.4.3.! m.z.z.p.Y./.b.l.`.b.b.b.b.b.b.b.b.b.b.n.b.b.b.b.b.",
"b.n.b.b.b.b.b.b.b.b.b./.b.b.b.b.oXOXU.N._ / _ | 5X,.< + I U q i 0 i L &.@.=.<.G.a.p.Y.w.Q.z.k.v.b.b.b.b.b.b.b.b.b.b.b.b.b.b.b.b.",
"b.b.b.b.b.b.b.b.b.b.b.b.b.b.b.b.z./.OXv.Z.^ z 9 9 n . * I J F J 8.;.K s $ $ V :.G.i.^.h.f.b.z.b.b.b.b.b.b.b.b.b.b.b.b.b.b.b.b.b.",
"b.b.b.b.b.b.b.b.b.b.b.b.b.b.b.x.a./.c.XX_.] l 6 r A * = g e G R 7.*.D f @ > A C >.) I.b.k.&X/./.b.b.b.b.b.b.b.b.b.b.b.b.b.b.b.b.",
"b.b.b.b.b.b.b.b.b.b.b.b.b.b.b.z.Q.p.b.+XW.p.Z.,.n m = @ s S Y Y Y Y q s # - u p 6 l ' S.n.c.b.b.d.b.c.f.c.^.b./.b.b.b.b.b.b.b.b.",
"b.b.b.b.b.b.b.b.b.b.b.b.b.b.b.x.Q.z.b./.h.f.x.D.x 7 ; % s D H Y H H F P * , n p k c ^ ] S.v.c.b.&X;X&Xb./.b.z.c.b.b.b.b.b.b.b.b.",
"b.b.b.b.b.b.b.b.b.b.b.b.b.b.b.b.b.z.b./.h.h.x.S.H.<.1.$.@.L F q s D F F + 2 3X5X^ ^ E ^ N.K.@X@X>X,X-X^./.n.c.z.b.b.b.b.b.b.b.b.",
"b.b.b.b.b.b.b.b.b.b.b.b.b.b.b.b.z.p.x.n.x.k.v.z.r.{ 2.5.$.+.P d f d &.&.4 h J.v.(.] ( ^ B.K.OXXX%X&X/.b.b.^.b.b.b.b.b.b.b.b.b.b.",
"b.b.b.b.b.b.Q.b.b.b.b.b.b.b.b.b.p.w.T.{._.U.b.b.^.Y.{ ~ 4 * * * # % #.4.~ 9.2X=X/.y.' ] P.U.b.b.c./.b.f.c.n.b.b.b.b.b.b.b.b.b.b.",
"b.b.b.b.b.b.b.b.b.b.b.b.b.b.b.^.Q.w.].[.'.`./.b.^.W.a.Q 5 1 O & & ; %.3.Z.v.=Xg.x.a.y.a.n.&Xn.z.b./.b.k.b.b.c.b.b.b.b.b.b.b.b.b.",
"b.b.b.b.b.b.b.b.b.b.b.b.b.b.b.b.^.c./.-Xn.n.^.b.g.oX&X-X) ,.n u y 7 <.{ p.h.v.z.b.b.h.E.^.^.x.a.b.&Xn.z.b.b.b.b.x.b.b.b.b.b.b.b.",
"b.b.b.b.b.b.b.b.b.b.b.b.b.b.b.b.b.g.n.n.k.k.b.b.OX@X.X&XA.4XN B k j ).r.^.Q.z.x.v.c.XX$XE.h.x.x.k./.c.z.b.b.b./.b.b.b.b.b.b.b.b.",
"b.b.b.b.b.b.b.n.b.b.b.b.b.b.b.b.c.b.k.v././.z.z.v.c.c.b.(._ M 6 ` Z.L.p.w.Q./.b.`.x.d.z./././.c.n.b.b.b.b.b.b.b.b.b.b.b.b.b.b.b.",
"b.b.b.b.b.b.b.x.b.b.b.b.b.b.b.b.z.-X/.u.z.Q.x.b.n.b.b.a.' ~ z z } z.Q././.^.b.c.m.a.[.'.x.p.f.b.b.b.b.b.b.b.b.b.b.b.b.b.b.b.b.b.",
"b.b.b.b.b.b.b.b.b.b.b.b.b.b.b.x.L.1X8XR.e.x./.b.$X^.x.W v b b [ L.h.z.z.b.h.@XOXy.|.qX7X'.x.^.*Xb.b.b.b.b.b.b.b.b.b.b.b.b.b.b.b.",
"b.b.b.b.b.b.b.b.b.b.b.b.b.b.b.x.P.7X8XT.a./.n.g.$X^.Y.W b b ) P.n.b.b.c.b.c.@X&X(. X7X(.l.c.E.f.^.b.b.b.b.b.b.b.b.b.b.b.b.b.b.b.",
"b.b.b.b.b.b.b.b.b.b.b.b.b.b.b.x.u._.~.x.!.v.OXoXE.E.Y.V.M.) i./.v.n.&Xn././.OXc.!  .! 0.h.+X^.f.b.b.b.b.b.b.b.b.b.b.b.b.b.b.b.b.",
"b.b.b.b.b.b.b.b.b.b.b.b.b.b.b.b.x.z.q.z.v.n.oX&XE.W.x.S.P.L.v.c.x.x.l.k.t.p.v.b.t.R.Q.W.%X%X/.Q.x.b.b.b.b.b.b.b.b.b.b.b.b.b.b.b.",
"b.b.b.b.b.b.b.b.b.b.b.b.b.b.b.b.&X/.n.oXOXc.k./.b.x.b.b.n.OXb.f./.w.k.'.(.! e.&Xb.^.+X+Xc.z.c.c.b.b.b.b.b.b.b.b.b.b.b.b.b.b.b.b.",
"b.b.b.b.b.b.b.b.b.b.b.b.b.b.b.b.d./.OXOXOXn.k.x.x.x.b.b.XX^.h.b.^.w.:XeXwX Xe.^.%XXXoXoXb.x.c.OXb.b.b.b.b.b.b.b.b.b.b.b.b.b.b.b.",
"b.b.b.b.b.b.b.b.b.b.b.b.b./.b.b.b.b.b.b.b.b.b.b./.b./.z.*X9X>Xf.z.b.b.x.x.Y.b.b.b.oXb.n.b.b.n.n.b.b.b.b.b.b.b.b.b.b.b.b.b.b.b.b.",
"b.b.b.b.b.b.b.b.b.b.b.b.b.b.b.b.b.b.b.b.b.b.b.b.z.c.&Xz./.,X&Xd.b.b.b.b.b.b.b.b.b.b.b.b.b.b.b.b.b.b.b.b.b.b.b.b.b.b.b.b.b.n.b.b.",
"b.b.b.b.b.b.b.b.n.b.b.b.b.b.b.b.b.b.b.b.b.b.b.b.b.c./.c.z.b.b.c.b.b.b.b.b.b.b.b.b.b.b.b.b.b.b.b.b.b.b.b.b.b.b.b.b.b.b.b.b.b.b.b.",
"b.b.b.b.b.b.b.b.x.b.b.b.b.b.b.b.b.b.b.b.b.b.b.b./.b.^.b.b.c.f.b.^.b.b.b.b.b.b.b.b.b.b.b.b.b.b.b.b.b.b.b.b.b.b.b.b.b.b.b.b.b.b.b.",
"b.b.b.b.b.n.b.b.b.b.b.b.b.b.b.b.b.b.b.b.b.b.b.b./.b.d.b./.c.b.n.b.b.b.b.b.b.b.b.b.b.b.b.b.b.b.b.b.b.b.b.b.b.b.b.b.b.b.b.b.x.b.b.",
"b.b.b.b.b.b.b.b.x.b.b.b.b.b.b.b.b.b.b.b.b.b.b.b.b.z.d.b./.b./.b.b.b.b.b.b.b.b.b.b.b.b.b.b.b.b.b.b.b.b.b.b.b.b.b.b.b.b.b.b.b.b.b.",
"b.b.b.b.b.b.b.b.b.b.b.b.b.b.b.b.b.b.b.b.b.b.x.b.c./.d.c.b.c./.d.b.b.b.b.b.n.b.b.b.b.b.b.b.b.b.b.b.b.b.b.b.b.b.b.b.b.b.b.b.b.b.b.",
"b.b.b.b.b.b.b.b.b.b.b.b.b.b.b.b.b.b.b.b.b.b.b.b.z.&Xb././.z.&Xz.b.b.b.b.b.b.b.b.b.b.b.b.b.b.b.b.b.b.b.b.b.b.b.b.b.b.b.b.b.b.b.b."
};
