/* XPM */
static char *e354a9e85c564a829138465b7b0a3b0c1lcJfgC0wiQmEv5Y[] = {
/* columns rows colors chars-per-pixel */
"64 72 235 2 ",
"   c #145F5B",
".  c #1C5B5A",
"X  c #235E5A",
"o  c #27575B",
"O  c #315951",
"+  c #0A5B6B",
"@  c #165D63",
"#  c #1B5C64",
"$  c #0F5E78",
"%  c #235E64",
"&  c #275A66",
"*  c #0F6167",
"=  c #196467",
"-  c #096879",
";  c #066778",
":  c #136574",
">  c #12677A",
",  c #146A77",
"<  c #0E7976",
"1  c #15757B",
"2  c #1C757B",
"3  c #157C7F",
"4  c #1C797C",
"5  c #147674",
"6  c #2B6465",
"7  c #2D6C6C",
"8  c #276668",
"9  c #2F716F",
"0  c #276D75",
"q  c #23747A",
"w  c #2D757A",
"e  c #2B7A7D",
"r  c #287878",
"t  c #3A7474",
"y  c #33757C",
"u  c #367477",
"i  c #366C6E",
"p  c #487B7F",
"a  c #12807F",
"s  c #0B6681",
"d  c #026A83",
"f  c #016C8A",
"g  c #046784",
"h  c #1A6A86",
"j  c #037485",
"k  c #017C8F",
"l  c #077B87",
"z  c #167D84",
"x  c #1C7B85",
"c  c #167C8B",
"v  c #1C7B8D",
"b  c #177383",
"n  c #047691",
"m  c #047C92",
"M  c #0C7F9B",
"N  c #077C96",
"B  c #147C94",
"V  c #197B96",
"C  c #2A7582",
"Z  c #247A83",
"A  c #2C7B83",
"S  c #277B8E",
"D  c #317682",
"F  c #377881",
"G  c #297F98",
"H  c #0A7DA4",
"J  c #497D8A",
"K  c #098188",
"L  c #038493",
"P  c #0A8294",
"I  c #04849B",
"U  c #0B839C",
"Y  c #038A9B",
"T  c #168393",
"R  c #238299",
"E  c #318188",
"W  c #0583A2",
"Q  c #0D8DBC",
"!  c #1D8BB4",
"~  c #1E8EBD",
"^  c #128CB7",
"/  c #0A97BD",
"(  c #1C91B6",
")  c #1495BC",
"_  c #1C91BD",
"`  c #1E86A3",
"'  c #2B8DAD",
"]  c #248BAC",
"[  c #3A87A3",
"{  c #328AAB",
"}  c #3787A7",
"|  c #258DB4",
" . c #228EBC",
".. c #298FBA",
"X. c #2789B5",
"o. c #3288B3",
"O. c #2591B6",
"+. c #2293BC",
"@. c #2994B9",
"#. c #3194B6",
"$. c #448184",
"%. c #7B9394",
"&. c #749C9C",
"*. c #799B9A",
"=. c #6B9B9B",
"-. c #7FA39F",
";. c #4798BB",
":. c #4C95B1",
">. c #699DAB",
",. c #749CA4",
"<. c #749DAD",
"1. c #7C9CAD",
"2. c #7C9AA1",
"3. c #689DB7",
"4. c #739DB3",
"5. c #5DA5B6",
"6. c #5FB1BD",
"7. c #6DAAAB",
"8. c #74A2A3",
"9. c #7CA4A4",
"0. c #74A9A6",
"q. c #76A5AC",
"w. c #7CA5AB",
"e. c #76A9AC",
"r. c #7AA9AB",
"t. c #79A9A5",
"y. c #6BA6BA",
"u. c #64AEBC",
"i. c #6DAABC",
"p. c #67A5B7",
"a. c #76A6B4",
"s. c #7BA5B4",
"d. c #75A9B4",
"f. c #75A6BA",
"g. c #7AA5BB",
"h. c #73A9BB",
"j. c #79A9BA",
"k. c #78AAB2",
"l. c #64B1BD",
"z. c #76B1BA",
"x. c #038EC4",
"c. c #088CC5",
"v. c #1C8EC3",
"b. c #1A8DC6",
"n. c #0595C5",
"m. c #0D95C4",
"M. c #0A99C4",
"N. c #0594CB",
"B. c #0C95CB",
"V. c #039ACD",
"C. c #0B99CC",
"Z. c #049BC4",
"A. c #1393C5",
"S. c #1B91C3",
"D. c #1493CA",
"F. c #1B92CA",
"G. c #1A9AC7",
"H. c #028FD2",
"J. c #0395D4",
"K. c #0A95D4",
"L. c #029AD5",
"P. c #0A9CD3",
"I. c #0396DB",
"U. c #0C96DD",
"Y. c #019ADC",
"T. c #099ADC",
"R. c #1193D2",
"E. c #1598D4",
"W. c #218EC3",
"Q. c #2493C4",
"!. c #2599C9",
"~. c #03A1D8",
"^. c #16A0CE",
"/. c #27A3D7",
"(. c #0396E2",
"). c #019CE2",
"_. c #079AE6",
"`. c #04A3E6",
"'. c #5DACCA",
"]. c #5AACC2",
"[. c #5CB1C5",
"{. c #55B2CC",
"}. c #59B3C8",
"|. c #4CB4D7",
" X c #63AEC4",
".X c #62AECB",
"XX c #6CAAC2",
"oX c #75ABC5",
"OX c #62AED2",
"+X c #8B9A8D",
"@X c #969D8F",
"#X c #9A9C8E",
"$X c #9A948C",
"%X c #8D9B95",
"&X c #8E9E9D",
"*X c #859895",
"=X c #959D95",
"-X c #9A9B94",
";X c #9A979C",
":X c #959C9A",
">X c #9A9A9B",
",X c #989697",
"<X c #A39495",
"1X c #A29994",
"2X c #A29B9D",
"3X c #92A18F",
"4X c #85A39D",
"5X c #8CA19C",
"6X c #8CA296",
"7X c #92A095",
"8X c #93A19C",
"9X c #9BA29C",
"0X c #9CA196",
"qX c #A3A49E",
"wX c #8D9EA2",
"eX c #889DA5",
"rX c #9D97A2",
"tX c #939DA2",
"yX c #9B9BA2",
"uX c #919DAA",
"iX c #84A3A4",
"pX c #8CA2A3",
"aX c #85A2AB",
"sX c #8CA5AC",
"dX c #8BA9AB",
"fX c #87ABA8",
"gX c #93A2A2",
"hX c #9BA4A6",
"jX c #91A2AA",
"kX c #9BA9AA",
"lX c #9AA5AB",
"zX c #82A2B4",
"xX c #85A8B5",
"cX c #86B0AE",
"vX c #A1A3A0",
/* pixels */
":X:X:X:X-X:X:X:X:X:X:X:X:X:X>X:X:X-X:X:X:X:X:X:X:X:X:X:X:X:X:X>X:X:X:X:X:X:X:X:X:X:X:X:X:X:X:X:X:X:X:X:X:X:X:X:X-X:X:X>X-X:X:X:X",
":X:X:X:X>X:X:X:X:X:X:X:X:X:X:X-X:X:X:X:X:X:X:X:X:X:X:X:X:X:X:X:X:X-X:X:X-X:X:X:X-X:X:X:X:X:X:X:X:X:X:X-X:X:X:X>X:X:X:X:X:X:X:X:X",
":X-X:X:X:X:X:X:X:X:X-X:X:X:X:X:X>X:X:X:X:X:X>X:X:X:X-X:X:X:X:X:X:X:X:X:X:X:X:X:X:X:X:X:X:X-X:X:X:X:X:X:X:X:X-X:X:X:X:X:X-X:X:X:X",
":X:X:X:X:X:X:X:X:X:X:X:X:X:X:X:X:X:X:X:X:X:X-X:X:X:X:X:X:X-X:X:X:X:X:X:X-X:X:X>X>X:X:X:X:X>X:X:X:X:X:X:X:X:X:X:X:X:X:X:X:X:X:X:X",
":X:X:X:X:X:X:X:X:X:X:X:X:X:X:X:X:X:X:X:X:X:X:X:X:X:X:X:X:X:X:X:X:X:X:X:X:X:X:X:X:X-X:X:X>X:X:X:X:X>X:X:X:X:X:X:X:X:X:X:X:X:X:X:X",
":X:X:X-X:X:X:X:X:X:X:X-X:X:X:X-X:X:X-X:X>X:X:X:X>X:X:X:X:X:X:X:X:X:X:X:X:X:X:X:X:X:X:X:X-X:X:X:X:X:X:X:X>X:X:X:X-X:X:X:X:X:X:X:X",
":X:X:X:X:X:X>X:X:X:X:X:X:X:X:X:X:X:X:X:X:X-X:X:X:X:X:X:X>X:X:X:X:X-X:X:X:X-X:X:X:X:X:X:X:X:X:X:X-X:X:X:X-X:X:X:X:X:X:X:X:X:X:X:X",
":X:X:X:X:X:X:X-X:X:X:X:X>X:X:X:X:X:X:X:X:X:X:X:X:X-X:X:X-X:X:X:X:X:X:X:X:X>X:X:X:X:X:X:X:X:X:X:X:X:X:X:X:X:X:X:X:X:X:X:X:X-X:X>X",
":X:X:X:X:X:X:X:X:X>X:X:X:X:X:X:X:X:X:X-X:X:X:X-X>X:X:X:X:X:X:X:X:X:X:X:X:X:X:X-X:X:X:X:X:X:X:X:X:X:X:X:X:X:X:X:X:X:X:X:X:X:X:X:X",
":X:X:X:X:X:X:X:X:X-X:X:X-X:X:X:X:X:X:X:X:X:X:X:X:X:X:X:X:X:X:X:X:X:X>X:X:X:X:X:X:X:X:X:X:X:X-X:X:X:X:X:X:X:X:X:X:X:X:X:X:X:X>X:X",
":X:X:X:X:X:X:X:X:X:X:X:X:X:X:X:X:X:X:X:X:X:X:X:X:X:X:X:X:X:X:X:X:X:X:X:X:X:X:X:X:X-X:X:X:X:X:X:X:X:X:X:X:X:X:X:X:X:X:X:X:X:X-X:X",
"-X:X:X-X>X:X-X:X:X:X:X:X-X>X:X:X:X:X:X-X:X:X:X:X-X:X-X:X:X:X-X:X:X:X-X:X:X:X:X:X:X:X>X:X:X:X:X:X:X-X:X-X>X:X-X:X>X:X-X:X:X:X:X:X",
":X:X:X:X:X:X:X:X:X:X:X:X:X:X:X:X:X:X:X:X:X:X:X:X:X:X:X:X:X:X:X:X:X:X:X:X:X:X:X-X:X:X:X:X:X>X:X:X:X:X:X:X:X:X:X:X:X:X:X:X:X:X:X:X",
":X:X:X:X:X:X:X:X:X:X-X:X:X:X:X:X:X:X:X:X:X:X:X:X:X:X:X:X:X:X:X:X:X:X:X:X:X:X:X:X:X:X:X:X-X:X:X:X:X:X:X:X:X:X>X:X:X:X:X:X:X:X-X:X",
":X-X:X:X:X:X:X:X:X:X:X:X:X:X:X:X:X:X:X:X:X-X:X:X:X:X:X:X:X:X:X:X:X:X:X:X:X:X:X:X:X:X:X:X:X:X:X:X:X:X:X:X:X:X:X:X:X:X:X:X:X:X:X:X",
":X:X:X>X:X:X:X-X:X:X:X-X:X=X:X-X:X:X:X:X:X>X:X=X;X:X:X-X:X:X>X:X:X-X:X-X-X:X:X:X:X:X>X:X:X:X:X:X:X-X:X>X:X:X:X>X-X-X:X:X:X>X:X:X",
">X>X:X:X:X:X=X-X:X:X=X#X=X=X=X=X7X7X:X:XyXyX:X:X>X-X=X=X=X>X>XtX:X-X-X-X7X=X:X:X:X:X>XyXtXwX:X:X:X>X:X>X-X>XyXtX-X-X:XwX:X:X;X>X",
":X-X-X:XtX:X@X-X:XtX-X-X7X:X:X=X=X%X&X:X:X;X&X&X>X>X=X=X=X:XyX:X:X;X-X-X7X=X:X:X:X:X;XyX&X&X:X=X=X,X&X:X-X-XtX:X-X-XtXtX:X;X>X>X",
":X:X-X-X:X:X-X-XwXwX:X=X:X&X&X:X=X:X:XyX>XyXpX:X>X<X=X=X=X:X8XtX:XtX>X:X=X:X>X>X:X8X>X>X:X8X-X:X:X:X:XgX:X>XuXuX=X-X:XtX:X:X:X:X",
":X-X:X:XwX:X-X=XsXsXgXgXsXsXuXgXtX8XpXpXpX5XiXiX>X:X:X:X:X:X&X5XtX:XyX>X:X:X>X>X5XiX5XgXpXpXgX:XgXpXsXiX5XgXiXsX:X-X:XwX:X:X:X:X",
":X:X:X:X:X:X-X=XeXq.9.-.9.9.iXiXiXt.8.0.r.t.0.9.tX>X:X:X:X:X:X&X:X:X:X:X>X>XrXuXt.0.0.0.0.q.r.r.w.w.w.r.9.t.s.w.&X=X:XtX:X-X:X:X",
":X:X;X:XtX:X-X5X6 0 6 8 7 7 7 7 u u w w w w r t wXyX>X>X>X>X&X:X:X=X=X:X:X:X>XwXt e e e A e C A D D D D D y D u 5X=X:X:X-X=X:X=X",
":X:X>X:X:X:X=X4X8 - , 5 1 1 2 4 2 2 3 z z 4 4 0 iX:X>X>X>X>X:X:X=X=X=X=X=X>XyXiXr a K x z z T c c c B c c c v C iX7X:X:X:X=X=X:X",
":X:X:X:X:X:X:XiX- f j j n k m N N P L L I L P 4 w.tX-X-X:X>X:X:X:X:X=X=X=X=XtXaXx L Y U U U L I W W W W U I H v 9.:X>X:X:X-X:X=X",
":X=X=X:X>XtX:Xs.' A.m.M.m.m.D.B.C.V.V.V.L.N./ ] h.pX7X=X-X-X:X=X-X:X:X=X=X:XuXf.O./ V.P.P.C.V.V.Z.M.M.M.M./ M.' r.:XyX;X:X;X:X:X",
"-X=X=X-X:X>XtXf. .N.P.L.T.I.T.Y.Y.Y.Y.`.).Y.V.( i.iX7X7X=X-X=X:X;X:X:X:X=X:XuXoX| N.L.Y.I.I.Y.Y.L.L.L.L.V.V.V.| d.tXyX:X:X:X:X:X",
"=X=X:X:X>XtXtXg.v.I.I.Y.).(.(.(.I.T.L.I.I.I.n.O.h.pX=X=X-X:X:X:X>X:X>X:X:X:XuXoX..C.U.(.T.U.(.(.Y.Y.Y.Y.Y.Y.L.W.f.tX>XyX:X:X;X:X",
":X=X7X&X:X:X:Xg.v.Y.Y.).(.(.(.T.F.S.S.A.E.G._ { s.:X=X-X:X>X:X:X-X:X>X:X=X,XtXzX{ v.F.D.D.b.F.D.Y.(.(.).).Y.Y.v.g.tX>X>X:X:X:X:X",
":X&X5X:X:X:X:Xs.~ Y.Y.Y.Y.I.Y.A.{.u.u.6.[.}.}.l.iX-X#X-X:X>XyX:X:X:X:X:X=X#X,XpXu.{.{.{.}.}.[.|.K.).(.U.(.).Y.v.g.>X>X-X:X&X=X:X",
"tX:X5X:X>X-X:Xs.S.L.Y.Y.L.K.L.A.: % 6 8 0 q 2 7 &X-X-X=XtX>X>X:X=X:XtX:X-X=X=XpXu Z Z Z r q e B B.(.(.I.).).Y.b.g.:X-X=X:X5X:X:X",
">XtX:X&X-X-X:Xs._ Y.Y.Y.I.I.L.B.g : : 0 1 1 x r 4X=X=X=X:X:X=X=X=X=XyX>X:X=X:X9.w x x z 3 a c M C.Y.I.T.Y.).Y.S.s.=X-X-X%X7X=X:X",
"yX:X:X:X>X-X:Xs.~ Y.Y.Y.F. ._ _ f f j j n m P v r.4XiX5XtX:X=X#X=X-X>XtXwXiXpXq.v M U L L L I W ) _ ~ b.I.Y.L. .s.=X=X=X7X5X=X:X",
":X:X:XtXtX>X:Xs. .N.Y.A.XXs.j..X_ C./ m.V.V.B. . Xe.q.aX:X,X-X@X@X7X8XpX9.8.9.p._ N.L.C.M.M.J.A..Xj.k. XD.T.J. .s.:X&X=X:X:X7X=X",
"&X:XtX:X:X:X:Xs. .L.Y._ s.-X8Xk.) L.L.L.~.Y.T.A.B Z Z J *X-X,X=X7X=X7X%.p 9 9 2 A.Y.Y.Y.J.L.(.F.g.:X=Xs.v.T.K.W.f.&X5X:X:X:X8X%X",
":X=X:X:X:X:X8Xf._ L.Y.S.xX-X-Xs._ Y.L.T.L.L.K.A.L K < S %.7X%X:X:X:X>X%.u , 1 j A.Y.).Y.Y.Y.(.W.s.>X-XzXb.).I.v.f.:X=X=X=X=X=X=X",
"=X:X-X=X-X-X:Xk.S.Y.Y.A.s.-X2XiX{ _ W.+._ )  .+.L Y k T 0.dXeXuXsX&XhX,.S j N k ~ W.W.v.S.A.W.} sX1X-XzXF.).Y.v.f.:X-X-X=X=X=X:X",
":X:X;X-X-X:XwXy.A.Y.).D.g.:X:X:Xt.e.g.s.r.k.i..X_ E.C.G.6.k.4.s.aX,.r.p.Q.C.G.) OXoXzXzXd.d.xXiX%X=X>Xg.D.).).D.g.tX:X-X:X:X:X:X",
">X:X:X:X=X:XpXh._ L.Y.A.f.&X>X=X=X=XtX:X%X7XiXXXW.E.I.c.R A e w w 0 w R n.L.P._ XXeX;X<X&X&X=X7X7X7X:Xg.F.).L.S.g.yX>X:X8X:X:XyX",
";XyX;X>X:X>XtXd.| A.C.O.g.tXgX:X>XgXrXrX-X:XwXoX..R.K.c.U l K 5 < 5 < l / ~.C.O.oXgX-X1X8XpX5X6X6X6XgXs.+.C.B.| 1.tX:X:XtX:XtXrX",
">X>X>X>X:X:X:XaX[ ] O.[ sX>XtXtX:XyXrXrX=X=XtX1.:.X.W.Q.L L Y m L P l k ) _ ! } w.8X=X=XtX:X:X&X5X6X:XaX} | ' } aXyX:X:X:XtX:X>X",
"=X=X:X8X=X-X:X:Xs.i.i.j.:X<XrX:X8X8X>XrX:X:X:XpXs.a.oXOX .^ E.R.N.P.Q @.'.oXoXsXwX:X:XtXrXrX;X>X%X=X$X:Xs.oXh.zXtX-X=X7X:X:X=X=X",
"=X=X5X:X:X:X<X:XpX9.r.pX<X<XrX:X5X=X>X>XtX:X:X:X5X4XdXi.+.c._.(._._.D...3.sX;X;X:X:X:XtXrX2X;X>X>X0X1X-XgXaXeXwX-X-X7X8X:X=X=X=X",
"=X7X&X:X:X:X<X-X&XpXpX:X<X<XyXuX:X:X:X:XwXpX:X=X3X3XgXq.+.Z.~.).).I.x.O.,.:X$X$X=X6XiXwXtXtX&XwX:X=X$X#X%X%X%X=X-X-X=X%X:X-X=X-X",
"=X:X:XpX:X:X1X>X*X4X*X%X2X2XtXlX&X:X=X:XwXwX:X:X+X%X%X3.G.~.~.`.Y.Y.P.!.a.kX2X2X=X7X5X&X:X:X5X5XtX%X9X9X8XgXkX9X:X-X:X:X>X:X=X-X",
":X:XtX:XtX:X:XtXsXcX8.*.lXhX%X&XtX>X-X-X:XtXrXuXsXxXaX3./.).L.Y.Y.Y.I.G.;.7.,.eX&X:X>X>X-X:X:X5X5X&XgXpX&.=.8.&.wX:X:X:X>X>X>X>X",
"tXtX:X:X:X:XtXwXo 6 X i %.tX*X:X:X;X-X-X:XtXyXuX% 8 & h H.I.J.I.L.L.L.c.] S S F wX>X;X>X=X=X:X:X=X%XwX*.$.y y p iX:X:X=X:X>X:XtX",
":X:X=X=X=X=X&XaX& 0 # 7 2.lX+X=X:X:X=X:X>X:X:XeX= 5 = s x.).H.(.`.Y._.B.U l l 4 iX>XyX:X8X&X=X-X1X:XlX<.E 1 K q aXwX-X#X7X&X:XtX",
"tX:X=X=X7X=X8Xw.> s ; 0 1.lX@X#X=X:X5X5XtX:X&Xr.; < ; j _ Q.W.W.~ v.Q.| I L Y T a.wXwXwXiX4X:X=X#X-XhX<.R k U v k.:X=X=X=X7X&X:X",
"tXtX:X:X:X:X:Xw...B.A.X.zXtX;X=X6X-.r.r.iXiXw.XX_ C.M.+.y.xXs.s.f.a.zXy.) V.~.) [.e.fXt.7.7.t.4X=X,XyXq...x.J.! s.:X:X:X=X=X:X:X",
"tX:X:X:XtX:X:Xs.F.Y.I. .g.>X,X=XO X = % X X # - A.T.Y.!.w.>X%XtX:X:X9X4.!.Y.~.A.V A 9 w E e r i 5X:XyXa.!.T.`.!.a.:XtXtX=X-X:X:X",
"tX:X=X:XtXyX;Xs.Q.(.I.W.f.tXtXpX. @ * * .   * ; ^ D.N.Q.4.tX&X8X:X:XtX4.Q.J.B.Q M S q 4 K z c q *X%XpX>.v.H.Y.b.s.:XtX:X=X=X:X:X",
":X:X=X=X:X>X:Xs.v.Y.J.!.p.4XwX0.- d ; ; ; ; d f ' @.Q.#.<.uX&X8X:X:XrX1.;.W.@.| H M P P L I W B z.dXdXy.Q.I.Y.b.s.>X>XtX=X=X:X:X",
":X:X=X=X:XtX;Xs.b.I.T./.5.t.fXz.~ B.A.Q n.n.n.~ '.y.p.4.uXyX:X=X-X-X1XgX4.p.y.6.S.n.C.V.n.C.L.) 5.8.,.5.F.Y.Y.v.s.>XtX:X:X%X:X8X",
":X=X7X%XtX>X:Xs.!.Y.V.Q : % . + F.(.U.T.Y.Y.U.W.oXdXsXjXyXyX=X7X@X#X1X2XgXpXdXz.~ L.Y.L.L.J.I.D.S y D G Q J.I.v.s.>X;XyX=X=X5X:X",
"=X=X=X=X:XyX:Xg.F.Y.I.B.g : + ; D.U.K.L.Y.Y.J. .q.=X=X=X-X-X0X7X7X8X:X-X=X=X=Xw.W.Y.Y.~.U.E.U.E.f s b B x.Y.).F.zX;X>X:X:X7X:X:X",
":X:X=X:X>XtX:Xs.b.Y.Y.L.g g g f v.F.v.S.m.B.b.{ iX@X#X-X-X-X=X7X5X:X;X:X:X=X=XiXo.F.B.D.v.W.W.S.N n n H N.).Y.v.s.:X:X:X:X=X:X&X",
">X:X=X:X:X:X:Xa.b.Y.Y.L.m._ ) ( {.[. Xu.6.6. Xy.5X@X=X&X:X8X%X:X:XtXtXuXtXtX=XwXi..X6.u.u.u.[.{.) ) ) A.L.Y.Y.~ s.:X-X:X-X:X:X:X",
"yX>X:X:X>X:X:Xf.S.Y.).Y.P.D.C.) : # % X X X & & 5X=X5XwXtXtX:X:X:XtXtXuXuXtX-X&X& & X X X % . ; ) P.N.L.Y.Y.Y._ s.-X>X:X:X:X:XtX",
"yXyX>X:X:X:X:Xd.S.Y.Y.).L.I.Y.A.;   # # . o # & wX=XwXtXtX>X:X>X>X>X>X>X&X:X=XwX& # . . @ @   ; M.Y.L.Y.~.).Y._ w.=X=X-X:X:X:XyX",
"yX;XtX:X:X:X:Xf._ Y.Y.).).Y.Y.C.f ; s s - - s : aX:X:X:X>XyX>X:X:X:X>X-X:X=X:XiX: s - - g g ; f V.Y.).Y.).Y.L._ f.=X:X=X:X:X>X>X",
"yX;X:X&X:X:X:Xk.~ Y.Y.Y.(.(.).L.Z./ N.N.n.n.D.X.s.:X7X-X:X:X:X:X:X=X:X=X=X=X:Xf.X.R.N.J.J.K.n.n.Y.).).Y.Y.Y.L._ f.&X:X=X&X=X:X:X",
";X;X:X:X=X:X5Xf. .J.Y.Y.Y.Y.).Y.L.L.).).).).).F.f.:X-X#X=X:X7X8X7X5X:X=X-X=X:Xf.F.(.).)._.).).Y.~.).(.).Y.Y.Y.~ d.5X:X=X:X&X>X-X",
":X:X&X:X:X:XtXs._ K.J.L.T.Y.Y.Y.L.Y.(.(.I.Y.(.b.g.tX-X=XtX&X=X=X3X7X:XpX-X-X:Xf.b.Y.Y.Y.).(.I.L.Y.Y.Y.(.Y.Y.I.v.h.wX:X8X:X:X:X-X",
":X:X:X&X:X:X:Xw.}  . .~ v.v._ _ b.v.v.W.S.v.W.o.zX>X>X-X:XwX=X=X=X=XwX:X-X-X:XzX{ v._ ~ v.v._ _ _ _ S.v.v._ ~ { s.:X:X:X:X:X:X-X",
":X:X:X:X:X:X:XtXaXs.s.s.s.s.s.s.s.s.s.s.s.s.s.zXtX:X:X:X:X:X:X:X-X:X:X:X:X=X:X:XzXs.s.s.s.s.s.s.s.s.s.s.s.s.s.aXtX:X:X:X:X:X:X-X",
":X:X:X-X:X:X:X:X:X:X:X:X:X:X:X-X:X:X:X:X:X:X:X:X:X:X:X:X:X:X:X:X:X:X:X:X:X:X:X:X:X:X:X:X:X:X:X:X:X:X:X:X:X:X:X:X:X:X:X:X:X:X:X:X",
":X:X:X:X:X:X:X:X:X-X:X:X:X:X:X>X:X:X:X:X>X-X:X:X:X:X:X:X:X-X:X:X-X:X:X:X:X:X:X:X:X:X:X:X:X:X:X:X:X:X:X:X:X:X:X:X:X:X:X:X:X:X:X:X",
":X:X:X:X=X:X:X:X:X:X:X:X:X:X:X:X:X:X:X:X:X:X:X:X:X:X:X:X:X:X:X:X>X:X:X:X:X:X:X:X:X:X:X=X-X:X:X:X:X-X:X:X:X:X:X:X:X:X:X:X:X-X:X:X",
":X:X:X:X:X:X:X:X:X:X:X:X:X-X:X>X:X:X:X:X:X:X:X:X:X-X:X:X:X:X:X:X:X:X:X:X:X-X:X:X:X:X:X:X:X:X:X:X:X:X:X:X:X:X-X:X>X:X:X:X:X:X:X:X",
"-X:X:X:X:X:X:X:X:X:X:X:X:X:X:X:X:X:X:X:X:X:X:X:X:X>X:X:X:X:X>X:X:X:X:X:X:X:X:X:X:X:X:X:X:X:X:X:X:X:X:X:X:X:X:X:X:X:X-X:X:X:X:X:X",
":X:X:X:X:X:X:X:X>X-X:X:X:X:X:X:X:X:X:X-X>X:X:X:X:X:X:X:X:X:X:X:X:X-X:X:X:X:X:X:X:X:X-X:X>X:X:X:X:X:X-X:X>X:X:X:X:X:X:X:X:X:X:X:X",
":X:X:X:X:X:X-X>X:X:X:X:X:X:X:X:X:X:X:X:X:X:X-X:X:X:X:X:X:X:X-X:X:X:X>X:X:X:X:X:X:X:X:X:X:X-X:X:X>X:X:X:X:X:X:X:X:X:X:X:X-X:X:X-X"
};
