/* XPM */
static char *_520837538c44fc5a3aaaa49b54934bfk3kvwiq43N2KYZ3I[] = {
/* columns rows colors chars-per-pixel */
"64 56 235 2 ",
"   c #180800",
".  c #1E1A19",
"X  c #0A101B",
"o  c #321A08",
"O  c #261B17",
"+  c #2C1706",
"@  c #292419",
"#  c #3A2B1C",
"$  c #372717",
"%  c #3E2805",
"&  c #151A2B",
"*  c #1B1C28",
"=  c #191D36",
"-  c #0B1223",
";  c #261F30",
":  c #1D222D",
">  c #192122",
",  c #1C2334",
"<  c #1D2638",
"1  c #26292C",
"2  c #3B2C22",
"3  c #332B27",
"4  c #37332D",
"5  c #222633",
"6  c #242B36",
"7  c #23253A",
"8  c #252B3C",
"9  c #2A2D3C",
"0  c #2A2B38",
"q  c #2D333D",
"w  c #29333A",
"e  c #32353E",
"r  c #33393D",
"t  c #3A3239",
"y  c #372E31",
"u  c #501B00",
"i  c #442200",
"p  c #472E06",
"a  c #552600",
"s  c #422817",
"d  c #4B3713",
"f  c #652D00",
"g  c #463928",
"h  c #45383A",
"j  c #79511C",
"k  c #704A0B",
"l  c #554532",
"z  c #57462C",
"x  c #6C5439",
"c  c #6F5330",
"v  c #1B2342",
"b  c #252B42",
"n  c #2B2D43",
"m  c #272946",
"M  c #2C3343",
"N  c #2A3446",
"B  c #323443",
"V  c #333A44",
"C  c #343A4A",
"Z  c #383A49",
"A  c #2B3252",
"S  c #393D56",
"D  c #2D2D49",
"F  c #423E49",
"G  c #3D424B",
"H  c #394147",
"J  c #3C4453",
"K  c #45464B",
"L  c #454A57",
"P  c #545250",
"I  c #695843",
"U  c #66615B",
"Y  c #515763",
"T  c #495060",
"R  c #5C626E",
"E  c #626368",
"W  c #737978",
"Q  c #706B6F",
"!  c #844700",
"~  c #815A0F",
"^  c #926522",
"/  c #A57520",
"(  c #9D7D57",
")  c #817664",
"_  c #B3843A",
"`  c #FCAB1E",
"'  c #D6932F",
"]  c #FEA623",
"[  c #FDA923",
"{  c #FCA52B",
"}  c #F8A72A",
"|  c #EAA435",
" . c #F7AB3A",
".. c #FBB536",
"X. c #EDA52C",
"o. c #D29B2A",
"O. c #B78F57",
"+. c #B99459",
"@. c #A7895D",
"#. c #8E887F",
"$. c #93857A",
"%. c #BB9766",
"&. c #BD9C71",
"*. c #C89444",
"=. c #CE984D",
"-. c #E09F4F",
";. c #D9A844",
":. c #C8A155",
">. c #DCA657",
",. c #DEB05C",
"<. c #E9AA4A",
"1. c #F5AA44",
"2. c #E7B347",
"3. c #F9B948",
"4. c #E3A455",
"5. c #E5AB54",
"6. c #E5AA58",
"7. c #E8A959",
"8. c #EAB555",
"9. c #F7B752",
"0. c #F0AE5A",
"q. c #CBA769",
"w. c #DAA966",
"e. c #D6AC75",
"r. c #D3AE74",
"t. c #E6AD62",
"y. c #E4B36A",
"u. c #E8BC78",
"i. c #F4BD6D",
"p. c #FFC649",
"a. c #FFD05D",
"s. c #F5C675",
"d. c #757C83",
"f. c #777C88",
"g. c #6E7686",
"h. c #7C848B",
"j. c #7C8587",
"k. c #7D8592",
"l. c #82868D",
"z. c #848B8C",
"x. c #888C89",
"c. c #8C938D",
"v. c #8A968B",
"b. c #91958F",
"n. c #969487",
"m. c #858C93",
"M. c #8A8E93",
"N. c #8A8E9B",
"B. c #838998",
"V. c #869294",
"C. c #8D9494",
"Z. c #8C949A",
"A. c #8E9A9B",
"S. c #8C9896",
"D. c #919694",
"F. c #959B96",
"G. c #92959A",
"H. c #969C9A",
"J. c #999E9C",
"K. c #999A99",
"L. c #928F9A",
"P. c #AB9C87",
"I. c #94A294",
"U. c #95A29B",
"Y. c #9BA19D",
"T. c #8EA094",
"R. c #A4A59D",
"E. c #B7AA98",
"W. c #8C9BA3",
"Q. c #8C95A2",
"!. c #9396A1",
"~. c #959CA2",
"^. c #999DA3",
"/. c #999DA9",
"(. c #959CA9",
"). c #9C9EB5",
"_. c #95A2A3",
"`. c #9CA2A3",
"'. c #9FA8A5",
"]. c #9DA3AA",
"[. c #9BA7AA",
"{. c #9AA8B1",
"}. c #A1A4A5",
"|. c #A4ABA3",
" X c #A1A5AB",
".X c #A2ABAB",
"XX c #ACADAD",
"oX c #A4AAB2",
"OX c #A9ACB4",
"+X c #ACB3BA",
"@X c #B6B7BA",
"#X c #A6B1AD",
"$X c #C1AC8A",
"%X c #D7B583",
"&X c #D4BB9C",
"*X c #F1BE87",
"=X c #C9B8A8",
"-X c #B4C0BE",
";X c #ECC788",
":X c #E8C69A",
">X c #F7CA99",
",X c #C7C3BC",
"<X c #D1CCBC",
"1X c #D8C9B6",
"2X c #D5C5A9",
"3X c #E7C8A6",
"4X c #E8D4B8",
"5X c #EDD0B0",
"6X c #BBBDC6",
"7X c #C0BFC4",
"8X c #BBC2C8",
"9X c #CBCAC4",
"0X c #C4C4C9",
"qX c #CACCCE",
"wX c #C7C9C9",
"eX c #D5CCCA",
"rX c #CBD2CD",
"tX c #CBCCD2",
"yX c #C6C9D4",
"uX c #D3CBDA",
"iX c #CBD3D7",
"pX c #D4D3D5",
"aX c #D9D8D8",
"sX c #D2D2C8",
"dX c #E3DACE",
"fX c #E4DBD6",
"gX c #E5E5DD",
"hX c #E4E2D6",
"jX c #D7DBE2",
"kX c #EBDEF1",
"lX c #D9E1E8",
"zX c #E4E4E2",
"xX c #EBE7E5",
"cX c #F4E7EA",
"vX c #E7E6F3",
/* pixels */
"H.H.H.H.H.H.H.H.H.H.H.H.H.H.H.H.H.F.F.H.H.H.H.F.K.H.H.H.J.H.H.H.H.H.H.F.K.H.H.H.H.H.H.H.H.H.H.H.H.H.H.H.H.H.H.H.H.H.H.H.H.H.H.H.",
"H.H.H.H.H.H.H.H.H.H.H.H.H.H.H.K.K.I.K.I.K.F.F.H.H.H.H.H.H.H.H.H.H.H.F.K.I.H.H.H.H.H.H.H.H.H.H.H.H.H.H.H.H.H.H.H.H.H.H.H.H.H.H.H.",
"H.H.H.H.H.H.H.H.H.H.Y.H.H.H.H.H.F.H.H.H.H.F.K.H.H.K.H.I.H.H.H.H.H.H.H.H.H.H.H.H.H.H.H.H.H.H.H.H.H.H.H.H.H.H.H.H.H.H.H.H.H.H.H.H.",
"H.H.H.H.H.H.H.H.H.H.K.H.H.H.H.I.K.F.H.K.F.H.I.K.H.H.H.H.H.H.H.H.H.H.H.H.H.H.K.H.H.H.H.H.H.H.H.H.H.K.Y.H.H.H.H.H.H.H.H.H.H.H.H.H.",
"H.H.H.H.H.H.H.H.H.H.H.H.H.H.H.H.H.H.H.H.H.H.H.H.H.F.H.F.H.F.K.I.H.H.H.H.H.H.H.H.H.H.H.H.H.H.H.H.H.H.I.H.H.H.H.H.H.H.H.H.J.H.H.H.",
"H.H.H.H.H.H.H.H.H.H.H.H.H.H.H.H.H.I.H.H.H.K.H.K.H.H.K.F.I.K.F.H.H.H.H.H.H.H.H.H.H.H.H.H.H.H.H.H.H.H.H.K.H.H.H.H.H.H.H.H.H.H.H.H.",
"H.H.H.H.H.H.H.H.H.H.H.H.H.H.H.H.H.H.H.H.H.H.H.H.F.I.K.H.H.I.F.F.H.H.H.H.H.H.H.H.H.H.I.K.H.H.H.H.H.H.H.H.H.H.H.H.H.H.K.Y.H.H.H.H.",
"H.H.H.H.H.H.H.H.H.H.H.H.H.H.H.H.H.H.H.H.H.H.H.H.K.F.H.H.H.F.K.K.H.~.J.~.H.H.H.H.H.H.H.H.H.H.H.H.H.H.H.H.H.H.H.H.H.H.H.H.H.H.H.H.",
"H.H.H.H.H.H.H.H.H.H.H.H.H.H.H.H.`.C.G._.H.J._.H.H.F.Y.`.H.b.F.H.C.`.].G.H.H.H.`.H.H.H.H.H.H.H.H.H.H.H.H.H.H.H.H.K.H.H.H.H.H.H.H.",
"H.H.H.H.H.H.H.H.H.H.H.H.H.H.H.H.H.H.H.H.C.D.G.G.F..XC.D.D.G.+XM.@Xz.z._.!.J.!.C.H.H.H.H.H.H.H.H.H.H.H.H.H.H.H.H.H.H.H.H.H.H.H.H.",
"H.H.H.H.H.H.H.H.H.H.H.H.Y.K.H.H.D.Y.J.H.H.J.J.J.G.C.`.^.J.].H.H.W L r r 1 1 r 0 H.H.H.H.H.H.H.H.H.H.H.K.H.H.H.H.H.I.H.H.H.H.H.H.",
"H.H.H.H.H.H.H.H.H.H.H.H.H.H.H.J.D.H.H.H.}._.H.J.J..XC.M.OXl.w e K W M.D.H.`.K.C.H.~.H.H.H.H.F.H.H.H.H.H.H.H.H.H.H.H.H.H.H.H.H.H.",
"H.H.K.Y.H.H.H.H.K.H.H.H.H.H.H.H.H.H.F.H.~.D.C.J.J.G.^.Z.q 0 ^.!.M. XXX].J.^.J.].~.J.H.H.H.H.H.H.H.H.H.H.H.H.K.H.H.H.H.H.H.H.H.H.",
"H.H.H.H.H.H.H.H.H.H.H.H.H.H.H.H.H.F.H.J.D.D.^.}.oXd.e 9 /.G.* M e * Z l.~.J._.G.H.H.H.H.H.H.H.H.I.H.H.H.H.H.Y.H.H.H.H.H.H.H.H.H.",
"H.H.H.H.H.H.H.H.H.H.H.H.H.H.H.H.U.D.J.Y.G.`.].l.h.K /.G.: 5 B B h.E W ^.!.Z.^.~.H.H.H.H.H.F.H.H.H.H.H.H.H.H.H.H.H.H.H.H.H.H.H.H.",
"H.H.H.H.H.I.H.H.H.H.H.H.H.H.H.H.Y.D.H._.D.`.x.Z q N.0 M B n N.0 V f.oX/.J.J.H.H.~.H.H.U.F.U.F.F.H.H.H.H.H.J.H.H.H.H.H.H.H.H.H.H.",
"H.F.H.H.H.J.H.H.H.H.F.H.F.K.H.F.n.|.V.{.B.H.w b.G.9 , J B.V , )./.^.K.K.D.C.I.I.'.G._.U.T.I.J.G.H.H.H.H.H.H.H.H.H.H.H.~.H.H.H.H.",
"H.K.H.H.J.J.J.~.H.H.K.I.F.H.H.H.I.T.V.Q.].4 #.4 4 1 F R V !.n 9 N.C.R.R.J.H.I.T.F.S.G.A.v.F.J.^.H.K.F.H.K.I.H.H.H.H.H.~.J.H.H.H.",
"F.K.I.H.H.~.H.H.H.H.H.K.H.H.H.I.I._.oXW.@ E.  &X=X$.@ E * V * n V K W b.D.J.`.F.I.Y.I.H.I.H.L.K.H.H.K.I.H.F.H.H.H.H.~.H.H.H.H.F.",
"H.F.H.H.H.H.~.H.H.H.H.I.F.K.H.H.Z.A.{.@ E.+ 5X&.( z g #.K.Z N.].V.v.|.XX!.J.S.z.v.F.b.D.R.K.K.K.H.H.H.K.K.F.H.H.J.H.H.H.H.H.H.K.",
"H.H.H.H.~.H.H.~.H.H.H.H.H.H.H.!.oXh.1 P.% %Xo e.a i P.l K E 6XM.Y.b.Y.F.D.`.[.oXH.`.D.^. XK.!.L.H.H.H.H.G.H.H.H.~.H.~.H.H.H.H.F.",
"H.H.H.H.J.H.H.G.H.K.H.F.H.J.H.J.N.XX$ p % r.t.=.a %.5X) O K D.J.I.v.H.C.Y.|.V.Z.A._.Z.!.L.L.OX XJ.J.H.H.H.H.H.H.J.H.H.H.H.H.F.H.",
"H.H.H.H.~.H.H.H.H.F.H.H.H.H.!.^.G.O d q.e.w.y.a y.%X  I x.^.G.D.F.H.Y.D.Y.j.H b 6 N 8 Z B F k.V.~.H.H.H.H.H.F.H.H.H.H.H.H.H.K.I.",
"K.F.H.H.H.H.H.H.H.H.H.H.J.!.G.K.y # i y.*.i.-.f w.q.s n.}./.c.Y.Y.H.].D.|.v.w , 8 < b D * r S.[.H.~.~.J.H.H.H.F.H.H.H.H.H.H.H.K.",
"H.H.H.H.H.~.H.H.Y.F.D.J.C..X/.M.O I _ s.' t.a >.y.o dX9X XN.|.F.H.D.].C.Y.Y.: 7 < N = Z O y C._.oXG.].z.H.Y.b.H.H.H.H.H.H.H.H.H.",
"H.H.H.H.H.H.H.H.H.F.D.`.G.^.W Y h I _ / ! ' ! 4.=.f 1XaX/.Z. XD.c.J./.oXA.j.F 9 w V , t s l x.G.m.l..X^.`.H.F.F.H.H.J.~.~.H.H.H.",
"H.H.H.H.J.H.H.H.F.U.D.J.^.G.G 5 w z ,. .o.9.' 0.y.r.E.qX0 B z.'..X~.q n * K uXvXjXaXuX1Xr.@.K 9 B G C.J.D.H.H.Y.H.H.H.H.H.H.H.H.",
"H.H.H.H.H.H.H.H.F.Y.G.G.`.G.q : : @ s.a.3.p.1.<.-.*XI tX5 B ~.W.C./.& M < m kXkXvXfXdX3Xy.q.s * : 0 Z.].H.D.Y.H.H.H.H.H.~.H.H.J.",
"~.J.~.H.H.H.H.H.F.H.Y.C.].!.0 w N @ s.3.p.} | 1.t.>Xo 0X; 0 ]._.H.oX< N n 9 cXcXxXhXeX&X>.6.s B 9 B !. XH.J.H.D.H.H.H.H.H.~.H.H.",
"H.H.H.H.H.H.I.K.F.K.'.G.].!.5 n < 3 s.3.p..... .-.>Xh 7XZ G k.].Z.m.M v b S jXcXgXgXdX3X2.5.$ n 0 6 G.!.C.H.G.H.H.H.H.H.H.H.H.J.",
"H.H.H.H.H.H.H.H.H.c.}.G.^.~.5 9 w 2 t.} ` ` X.| 4.>XE.vX0X6XC , 0 L OXiXuXyXkXdXxXgXeX2X;.;.$ D n e ~.^.G.Y.D.Y.H.H.J.H.H.H.~.H.",
"~.H.~.J.H.H.H.H.Y.c.`.D.!.].0 n b $ 5...` ` } 3.t.:XfX6XtXlX= b b 0 uXjX6XaXfXcXgXgXeX5X .2.2 m 7 n !.!.H.Y.c.Y.F.H.H.H.H.~.H.H.",
"H.H.H.H.J.H.H.H.F.F.D.Y.G./.8 9 9 s 7.{ ` ` [ 1.;X1X9XrXeX0XD m m m 7XpXtXtXxXfXxXgXdXe.3.>.# b b 8 /.G.H.H.F.H.H.H.F.Y.F.H.H.H.",
"H.H.H.H.H.H.~.H.I.F.F.Y.G./.7 m 9 $ 7.{ ] ` } <.*X2X9XrXqXtXD A A B qXqX0XiXgXxXfXdX5Xt.1.<.# 8 b 8 /.G.Y.H.F.K.H.H.H.F.F.H.H.H.",
"H.H.H.H.H.H.H.H.K.F.K.Y.G./.m 8 w $ 5.{ ] [ X.5.3X=XpXrXpXaX< = = 7 iXpXtXrX,X<XaXeX3Xw.<.>.# b m 8 /.G.H.F.F.H.H.H.H.K.H.H.H.H.",
"H.H.H.H.H.H.H.H.K.F.K.J.G./.8 8 6 $ 5.{ [ { | ,.dX=XyX8X=XpXM C N 9 qX0X8XiXrXhXrX<X3X>.1.4.3 b b 8 (.J.Y.F.F.K.H.H.H.F.H.H.H.J.",
"H.H.H.H.H.H.J.H.H.F.F.Y.H.~.8 b b # ,.} ] { | ,.:X9XiXlXaXtX7 & : N 8XjXaXyX,X-XrX<X:X>.1.4.2 b b 0 ^.G.J.H.F.F.H.H.H.H.H.H.H.H.",
"H.J.H.H.I.K.H.H.F.F.F.Y.H.^.8 b v # 6.} ] { 1.y.3XfX8XiXyX+XT r w T {.8XyX6XgX9XrX<X:X>.1.5.2 8 b 0 ^.G.K.H.F.H.H.H.H.H.H.F.H.H.",
"H.H.H.H.H.F.H.H.K.F.F.Y.G.^.0 b m $ 7.{ ` { 2.y.4X9Xw 8 7 F d.G.A.j.J V M e qXqXiX<X;X5.1.<.# 8 8 7 ^.H.Y.F.F.H.H.J.H.H.H.F.K.H.",
"H.H.H.H.F.H.H.H.H.F.F.F.G.J.0 0 m # 6.} }  .8.;X2XrX< N m B C.^.~.A.M < 6 * jXpXiX<X;X<. .4.$ 0 0 0 ^.G.I.H.F.H.H.H.I.K.F.H.H.H.",
"H.H.H.K.H.K.H.H.Y.H.H.c..XC.q : 5 $ ,.p.o.<.:.:XdX0Xw 8 8 b `.^.`.].< 6 : w yXiXiX<X;X;. .7.$ 0 B M z.Y.c.|.F.D.H.H.H.H.H.H.H.H.",
"H.H.I.K.F.I.H.H.G.F.Y.D.J.z.G q r g +.,.,.*Xr.1X7XoXJ w 7 B D.D.G.G.r r 1 e yXuXtX2X:.8.0.*.h ; & K G.}.c.D.D.Y.H.~.H.H.H.H.H.H.",
"H.H.H.F.F.I.H.H.J.D.Y.F.H.`.l.C.A.W z p s $ @ y A T j._.!.!. XK.J.}.j.A.C.~.vX@XdXE.j ;.*.j Q L L h.J.F.I.Y.Y.Y.H.J.H.H.F.H.H.H.",
"H.H.H.H.F.F.H.H.`.D.J.D.c.J.^.oX{.A.1 O h ; B M < b Z.'.Z.^.c.D.b.`.`.#X}.6X6XF P.@.~ s.w.i h & d.+XY.c.Y.Y.K.c.H.~.H.H.H.K.F.H.",
"H.H.K.F.F.K.K.K.J.C.`.J.D.G.D.Z.~.W.w < S v A v m D ~.Y.z.'.b.R.D.}./.d.h.wXXXg c j ^ u.@.o e J B G.H.D.Y.I.I.U.J.J.H.H.F.K.H.H.",
"H.H.Y.F.F.I.F.Y.J.D.J._.H.}._.J.Z.m.V < D v m b 7 D m.Y.A.#Xc.F.J.K.B.B L `.U   +.^ ' O.x O Z g.Z l.H.H.Y.F.K.R.H.J.H.H.K.I.F.H.",
"J.J.K.I.F.I.H.H.`.`.F.D.F.b.F.K.R.R.F.A.W.W.U.U.].!.}.F.v.A.F.Y.1 7 Z - L XXn.$X;X_ s.O.g 1 1 H Z.`.Y.Y.F.b.C.C.H.~.H.H.H.H.H.F.",
"~.H.K.F.F.F.F.H.C.J.H.H.Y.H.G.J.n.n.R.U.S.U.T.I.J.J.D.F._._.H.C.G./.).D * V 3 $X%.k :.c   L h.A._.C.H.Y.b.H.Y.~.H.J.H.H.H.H.I.K.",
"H.H.H.H.K.I.H.H.H.H.H.H.H.H.H.H.J.K.H.H.H.F.I.F.S.`.Y.x.U.v._.U.Q.Z , D < B 1 @X4 3 O @ K l.[.H.H.J.K.H.K.Y.H.H.H.H.H.H.H.H.K.H.",
"J.G.H.H.H.H.H.H.H.H.H.H.H.H.H.H.H.H.H.H.H.H.F.F.F.S.F.F.#X'.[.V.oXg.N C & M 7 6 f.L 6 G d.].].C.H.H.H.H.H.H.H.H.H.H.H.H.H.H.H.H.",
"H.H.H.H.H.H.H.H.H.H.H.H.H.H.H.H.H.H.H.H.H.H.F.F.}.S.A.'.j.6 > V 8 J N k.L , M M Y Y Y d. X XG.H.H.H.H.H.H.H.H.H.H.H.H.H.H.H.H.I.",
"H.H.H.H.H.H.H.H.H.H.H.H.H.H.H.H.H.H.H.H.H.H.I.H.F.A.S.'.V.V V k.(.k.w 8 : M < : X Y N. X}.G.C.}.H.H.H.H.H.H.H.H.H.H.H.H.H.H.H.H.",
"H.H.H.H.H.H.H.H.H.H.H.H.H.H.H.H.H.H.H.I.F.H.F.F.Y.'.A./.Z.m.~.{.m 8 b 8 M h.Y h.Z h./.H.^.H.D.J.H.H.H.H.H.H.H.H.H.H.H.H.H.H.H.H.",
"H.H.H.H.H.H.H.H.H.H.H.H.H.H.H.H.H.H.H.H.H.F.H.U.A.A.~.N.H < V , b C Q.V.6 Z - K G.^.!.Z.^._.D.H.H.H.H.H.H.H.H.H.H.H.H.H.H.H.H.H.",
"H.H.H.H.H.H.H.H.H.H.J.H.H.H.H.H.H.H.H.H.H.H.A.H._.~./.H.H & < b N b b V 6 Z.~.S.`.~.J.!.J.H.H.K.H.H.H.H.H.H.H.H.H.H.H.H.H.H.H.H.",
"H.H.H.H.H.H.H.H.H.H.H.H.H.H.H.H.H.H.H.H.H.H.H.F.H.C.H , < N b m < C < N.(.~.~.~.A.H.^.H.D.H.Y.Y.H.H.H.H.H.H.H.H.H.H.H.H.H.H.H.H."
};
