/* XPM */
static char *dd46a1facc8b4af79a8c4a3939ddfa51DBg6hMpCLzf4uBnm[] = {
/* columns rows colors chars-per-pixel */
"64 56 241 2 ",
"   c #0A0C18",
".  c #181619",
"X  c #190D04",
"o  c #271A0C",
"O  c #3A1D00",
"+  c #261A17",
"@  c #311919",
"#  c #362307",
"$  c #28211C",
"%  c #362818",
"&  c #0C1525",
"*  c #131A2C",
"=  c #191C2C",
"-  c #151827",
";  c #1B1C34",
":  c #211C29",
">  c #1B232E",
",  c #1B2124",
"<  c #1C2433",
"1  c #1E263B",
"2  c #1B2739",
"3  c #242225",
"4  c #23252B",
"5  c #2C2626",
"6  c #362926",
"7  c #373125",
"8  c #212435",
"9  c #242B35",
"0  c #2A2B33",
"q  c #242A3C",
"w  c #2A2D3C",
"e  c #25243B",
"r  c #342C38",
"t  c #2D323C",
"y  c #2A3335",
"u  c #33353C",
"i  c #37373B",
"p  c #2F372C",
"a  c #471800",
"s  c #521900",
"d  c #4A2C04",
"f  c #582700",
"g  c #4D3314",
"h  c #6E3D00",
"j  c #453426",
"k  c #563F23",
"l  c #443A35",
"z  c #4B2F23",
"x  c #3B413D",
"c  c #6B4D19",
"v  c #494536",
"b  c #684D24",
"n  c #734E2C",
"m  c #1C2642",
"M  c #262C43",
"N  c #282E43",
"B  c #292641",
"V  c #322C46",
"C  c #2D3344",
"Z  c #2D344B",
"A  c #2C3848",
"S  c #323543",
"D  c #353D44",
"F  c #393D43",
"G  c #33344B",
"H  c #333B4A",
"J  c #3A3C4C",
"K  c #3A3246",
"L  c #283451",
"P  c #3B3E52",
"I  c #343B51",
"U  c #413E53",
"Y  c #3C424C",
"T  c #3B4244",
"R  c #3C4854",
"E  c #454749",
"W  c #594D48",
"Q  c #434454",
"!  c #474B58",
"~  c #4D5157",
"^  c #545859",
"/  c #5A605E",
"(  c #535A6B",
")  c #4D5067",
"_  c #5D6472",
"`  c #5E647D",
"'  c #5B6169",
"]  c #6B7678",
"[  c #74797C",
"{  c #646C73",
"}  c #6F6158",
"|  c #864B0B",
" . c #A77D38",
".. c #BB8734",
"X. c #FA9E17",
"o. c #EB9511",
"O. c #FBA31D",
"+. c #DE9C2B",
"@. c #EA9C28",
"#. c #FC9E21",
"$. c #E8A32B",
"%. c #FEA525",
"&. c #FBA828",
"*. c #EAA53C",
"=. c #EAA837",
"-. c #F5AA33",
";. c #FDAB33",
":. c #F6A839",
">. c #F6B43A",
",. c #FBB32B",
"<. c #D0921B",
"1. c #FFC03B",
"2. c #AB8A4D",
"3. c #B68A57",
"4. c #B49251",
"5. c #98877D",
"6. c #B99A68",
"7. c #A9926E",
"8. c #D59A43",
"9. c #D79E48",
"0. c #CB9552",
"q. c #D8A549",
"w. c #CAA255",
"e. c #D7A357",
"r. c #DCB35A",
"t. c #E9AB49",
"y. c #F4AE44",
"u. c #F7AF4B",
"i. c #FAB447",
"p. c #E7AA55",
"a. c #E9B559",
"s. c #F4B856",
"d. c #EAB448",
"f. c #C39A66",
"g. c #D6AB67",
"h. c #C7A67A",
"j. c #D5AD74",
"k. c #E9B66A",
"l. c #E6B977",
"z. c #F3BA74",
"x. c #FFC456",
"c. c #F4C476",
"v. c #FFD376",
"b. c #F0C465",
"n. c #797C88",
"m. c #6E7B81",
"M. c #7D8383",
"N. c #7C838B",
"B. c #7F8A8A",
"V. c #7F8885",
"C. c #858B8B",
"Z. c #898E8D",
"A. c #848587",
"S. c #8B918E",
"D. c #8B968C",
"F. c #97988E",
"G. c #858B95",
"H. c #858C9D",
"J. c #888B96",
"K. c #918E95",
"L. c #8D9393",
"P. c #8E9A94",
"I. c #8D949A",
"U. c #8E989C",
"Y. c #869494",
"T. c #919695",
"R. c #939A96",
"E. c #92959A",
"W. c #969C9A",
"Q. c #999E9D",
"!. c #98969A",
"~. c #908A8E",
"^. c #AA9E91",
"/. c #96A19D",
"(. c #9BA19E",
"). c #97A297",
"_. c #8FA29E",
"`. c #B3A998",
"'. c #8E96A1",
"]. c #9396A2",
"[. c #959BA2",
"{. c #9A9DA2",
"}. c #959AAA",
"|. c #959DB0",
" X c #95A0A3",
".X c #9CA3A3",
"XX c #9DA4AB",
"oX c #9EAAA5",
"OX c #9DA4B1",
"+X c #9CA6B5",
"@X c #9DB0AC",
"#X c #A1A6A5",
"$X c #A2A9A6",
"%X c #A2A5AB",
"&X c #A5ABAB",
"*X c #AAA8AA",
"=X c #A5ABB3",
"-X c #A8AAB7",
";X c #ACB3B3",
":X c #A8B3B9",
">X c #B8B9BA",
",X c #B4ACA7",
"<X c #CAA985",
"1X c #DAB789",
"2X c #C9B696",
"3X c #CFB595",
"4X c #E4BF96",
"5X c #C4B8AA",
"6X c #E8C498",
"7X c #F6CE8F",
"8X c #C7C4B8",
"9X c #DACAB6",
"0X c #FBD6A7",
"qX c #E9D4BA",
"wX c #E9CDAD",
"eX c #FFE6A6",
"rX c #BBBEC4",
"tX c #AAB0C1",
"yX c #C1BFCC",
"uX c #BCC3C8",
"iX c #C5CAC8",
"pX c #C7D1C9",
"aX c #D7D4CB",
"sX c #CACBD5",
"dX c #C6D1D4",
"fX c #CED3D4",
"gX c #CDD6D7",
"hX c #D4D4D4",
"jX c #D7D8DA",
"kX c #D6CAC8",
"lX c #E5D4C3",
"zX c #EEDDD4",
"xX c #D5E1DD",
"cX c #FAE6D3",
"vX c #CFCCE1",
"bX c #D9DAE5",
"nX c #CED6E5",
"mX c #E3DDE6",
"MX c #DEE6E5",
"NX c #EAE5E9",
"BX c #F3EDF3",
/* pixels */
"W.W.W.W.W.W.W.W.W.W.W.W.W.W.W.W.W.W.W.W.W.W.W.W.W.W.W.W.W.W.W.W.W.W.W.W.W.W.W.W.W.W.W.W.W.W.W.W.W.W.W.).W.W.W.W.W.W.W.W.W.W.W.W.",
"W.W.W.W.W.W.W.W.W.W.W.W.W.W.W.W.W.W.W.W.W.W.W.W.W.W.W.W.W.W.W.W.W.W.W.W.W.W.W.W.W.W.W.W.W.W.W.W.W.W.W.W.W.W.W.W.W.W.W.W.W.W.W.W.",
"W.W.W.W.W.W.W.W.W.W.W.W.W.W.W.W.W.W.W.W.W.W.W.W.W.W.W.W.W.W.W.W.W.W.W.W.W.W.W.W.W.W.W.W.W.W.W.W.W.W.W.W.W.W.W.W.W.W.W.W.W.W.W.W.",
"W.W.W.W.W.W.W.W.W.W.W.W.W.W.W.W.W.W.W.W.W.W.W.W.W.W.W.W.W.W.W.W.W.W.W.W.W.W.W.W.W.W.W.W.W.W.W.W.W.W.W.W.W.W.W.W.W.W.W.W.W.).W.W.",
"W.W.W.W.W.W.W.W.W.W.W.W.W.W.W.W.W.W.W.W.W.W.W.W.W.W.W.W.W.W.W.W.W.W.W.W.W.W.W.W.W.^.R.W.W.W.W.W.W.W.W.W.W.W.W.W.W.W.W.W.W.^.R.W.",
"W.W.W.W.W.W.W.W.W.W.W.W.W.W.W.W.W.W.W.W.W.W.W.W.W.W.W.W.W.W.W.W.W.W.W.W.W.W.W.W.W.W.W.W.W.W.W.W.W.W.W.W.W.W.W.W.W.W.W.W.W.W.W.W.",
"W.W.W.W.W.W.W.W.W.W.W.W.W.W.W.).W.W.W.W.W.W.W.W.W.).W.W.W.^.R.W.W.W.W.W.).W.W.W.W.W.W.W.W.W.W.W.W.W.W.W.W.W.W.W.W.W.W.W.R.W.W.W.",
"W.W.W.W.W.W.W.W.W.W.W.W.W.W.W.W.W.W.W.W.W.W.W.W.W.W.W.W.W.W.W.W.W.W.W.W.W.W.W.W.W.W.W.W.W.W.W.W.W.W.W.W.W.W.W.W.W.W.W.W.W.W.W.W.",
"W.W.W.W.W.W.W.W.W.W.W.W.W.W.W.W.R.W.R.(.(.T.W.W.(.W.W.W.T.W.Q.(.W.W.W.W.).W.W.W.W.W.W.W.W.W.W.W.W.W.W.W.W.W.R.W.W.W.W.W.W.W.W.W.",
"W.W.W.W.W.W.W.W.W.W.W.W.W.W.W.W.(.(..XT.L.#X(.C.W.T.T.Q.(.Q.R.S.W.W.W.W.W.W.W.W.W.W.W.W.W.W.W.W.W.W.W.W.W.W.W.^.W.W.W.W.W.W.W.W.",
"W.W.W.W.W.W.W.W.W.R.W.W.W.W.W.W.(.C./.(.R.(.W.#X(..XQ.W.W.T.Q.#XW.W.W.W.W.W.W.W.W.W.W.W.W.W.W.W.W.W.W.W.W.W.W.W.W.W.W.W.W.W.W.).",
"W.W.W.W.W.W.W.W.^.R.W.W.W.W.W.W.W.T.#XS.Z.W.S.(.C.T.W.W.(.Q.W.W.W.W.W.W.W.W.W.W.W.W.W.W.W.W.W.W.W.W.W.W.W.W.W.W.W.W.W.W.W.W.W.W.",
"W.W.W.W.W.W.W.W.W.W.W.W.W.W.W.W.(.T.(.&X$XM.^ A.#X#XL.S.W..XR.S.W.W.W.W.W.W.W.W.W.W.W.W.W.W.W.W./.W.W.W.W.W.W.W.W.W.W.W.W.W.W.W.",
"W.W.W.W.W.W.W.W.W.W.W.W.W.W.W.).R.).T.Z.M./ { $XZ.(.(.T.T.R.R..XW.W.W.W.^.W.W.W.W.W.W.W.W.W.W.W.W.W.W.W.W.W.W.W.W.W.W.W.W.W.W.W.",
"W.W.W.W.W.W.W.W.W.W.W.W.W.W.W.W.F.;XM.x x [ ;XW.E [ (.#X.XR.L.Q.W.W.W.W.R.W.W.W.W.W.W.Q.W.W.W.W.W.W.W.W.W.W.W.W.W.W.W.W.W.W.W.W.",
"W.W.W.W.W.W.W.W.W.W.W.W.W.Q.W.W.oX[ ~ V.(.(.I.y D.(.(.D.W.{.T.{.W.W.W.W.R.W.W.W.W.W.F.).W.W.W.W.W.W.W.W.W.W.W.W.W.W.W.W.W.W.W.W.",
"W.W.W.W.W.W.W.W.(.L.T.{.Q.[..XW.%XE.y W.t > A I./.R.).D.D.(.W.!.W.R.W.W..X(.F.F.).R.R.(.Q.P.I.).W.W.R.W.W.W.W.W.W.W.W.W.W.W.W.W.",
"Q.W.W.W.W.W.W.W.W.W.Q.W.L.I.[.E.[.<  X Xq N }.OXB.E ] ;XoX).{.Q.(.).).Y.S.R.R.&X(.L.W.Q.E..X&XE.W.R.).W.W.).W.W.W.W.{.W.{.W.W.W.",
"W.W.W.W.W.W.W.W.T.Q. XE.W.{.[.[.U.A '.C - Z H.+XF B.;XE.C./. XU.R.R. X.X=XOXH.G.N._ N.+X[.I.[.E.W.W.W.W.W.F.W.W.Q.W.W.W.W.W.W.R.",
"Q.Q.W.W.W.W.W.W.R.Q.Q.W.#X{.W.[.> +XH.I q N A '.t G.XXK..X/.D.W.P.P.W.Y.H.n.R L D   D [.+XG.Y.XXW.W.W.W.W.W.W.W.Q.W.W.W.W.W.W.W.",
"W.W.W.W.W.W.W.W.Q.W.T.W.{.E.I.[.B |.B ; ; K = w > ! J.%X XP././.P.oXL.E N R m > K 3 i n.-X[.J.[.W.W.W.W.W.W.W.W.W.Q.Q.W.W.W.R.W.",
"W.W.W.W.W.W.W.W.Q.R.Q.Q.E.L..X%XG m.U e K = u t V A.-X!.Z.R.oXW.P.oXZ.4 & Y 2 > X j j $ 5 y t q !.W.W.W.W.W.W.W.W.Q.W.W.W.W.W.W.",
"Q.Q.W.W.W.W.W.W.W.T.Q..XI..X{.N.. W @ 6 ,Xv 3 0 ].-XK.~.*X{.S.P.Q.{.K.Q 2 w , E b 3.6.b o = C N {.W.W.W.W.W.R.W.W.W.W.W.W.W.W.F.",
"W.!.W.W.W.W.W.W..XL.Q.W.T.XXG.v z ^.O g 2X6 5 W.].!.!.#X!.!.*XT.[.K.*Xn.Y > x 9X6.k.c.2.k 5 M m [.Q.[.W.W.W.W.R.W.W.Q.W.W.W.W.W.",
"W.W.W.W.W.W.W.W.W.W.#XW.T.W.E.5 g h.d g.3.k F.{.E..XW.Q.!.{.{.T.[.[.I.r U bXBXcXk.t.*.q.c o G m < %XE.E.#XS.*XW.W.W.W.W.[.W.W.W.",
"W.Q.W.W.W.W.W.W.Q.T.Q.Q..XXX{.7 6.w.r.r.c 7.j : Q.U.L.Q.XXE.!.T.I.S r P |.BXNXqX7Xu.-.i...g 9 L Z [..XW.(.F.W.D.W.W.W.{.W.W.W.W.",
"Q.Q.W.W.W.W.W.W..XT.W.W. X{.E.% 1Xf q.w.a 4X@ i XXU.[. X$XL.R..XY - C * ( vXzXcXeXt.&.i.w.b . m C [ %X[.E..XW.(.W.W.W.W.{.W.W.W.",
"W.W.W.W.W.W.W.W.W.W.Q.T.E.E.E.7 h.h ..b.s 1Xg o T.XX:Xm.I.;XR.L.n.I J   Q sXBXcX0Xp.@.;.s.2.7 C < J [.W.Z.oXS.(.W.W.W.W.W.W.W.W.",
"W.W.W.W.W.W.W.W.T.Q..XI.Q.XXW.6 g 0.| e.s l.6.k @ E '.( y B.I.$X:X> 2 ~ -XNXbXNXcXz.*.@.s.0.v 3 0 u E.XXE..XC.(.W.W.W.W.W.W.W.W.",
"{.W.W.W.W.W.W.W.R.Q.(.T..X#XT.$ O j.s 0.| 9.c.f.qX+ ) tX9 Y.rXN.H.Q :XpXbXsXsXBXcX6Xp.$.;.+.c o 0 w n.%X.X.XT.(.W.W.W.W.W.[.Q.[.",
"W.[.W.W.W.W.W.W.W.W.Q.E.{.E.E.v d j.s z.8.@.+.a.4X% : bX< R { ) e G gXfX8XiXmXmXmXwXk.y.;.u.3.j 5 = Q Y.{.T.R.T.W.W.W.W.W.W.W.W.",
"W.W.W.W.W.W.W.W.W.R.{.Q.W.I.;XA.# <Xf e.:.;.-.=.g.wX5 sXdXuXY * G e uXfXaX8XhXmXsXqXz.y.@.i.e.d r 8 w G.&XR.#XF.R.W.W.W.W.[.W.W.",
"{.W.W.Q.W.W.W.W.R.{.W.%XL.F - 0 p 7 2.v.x.&.:.y.q.wXlXyXxX;XQ ; e N V rXjXpXdXdXsX8X7Xq.>.>.t.s 6 < Z > XXE./.R.R.).R.).Q.Q.[.Q.",
"W.W.W.W.W.W.W.W.R.W.W.T.%XJ.J w q , c b.>.&.:.:.s.l.9XiXpXxX-XQ B * G vXsXiXdXpXdXaXwXg.d.<.y.z.6 q G 9 XX.X/.P.).R.W.R.Q.E.[.E.",
"W.W.W.W.W.W.W.R.(.S.W.E.XXG.9 < A 3 # k.>.&.&.;.y.e.9XjXiXMXiX8 A e G -XiXgXpXjX>XhX9X4Xc.q.$.q.7 M Z > A.[.W.P.R.).W.W.Q.[.Q.Q.",
"[.W.W.W.W.W.W.W.W.T..X{.{.G.! 8 C 5 # l.=.X.X.%.-.k.4XkXuXsX>XT < I * ( gXBX;XuXhXjXkX9X1Xk.>.d.o M C < ( Y././.).R.R.W.E.W.W.W.",
"W.W.W.W.W.W.W.W.W.(.(.R.E.=XJ.; 1 u % l.y.X.X.%.&.s.4XlXhXvXNXrX2 Y & Y OX=X! i iXsXrXNXwX4Xy.t.% ) ` ) _ {..X/.W.).W.W.W.W.W.W.",
"W.W.{.W.{.W.W.W.W.(.S.W.I.{.{.H m S 6 3.s.,.%.%.%.+.k.wX8XrXiXgX2 q R ] _ Y e . i uXnXvX,X0Xt.0.l m.` ` ~ E.E./.W.R.W.W.W.W.W.W.",
"W.W.W.W.W.W.W.W.W.D.T.*X{.E.{.H.m B 5 b q.-.%.#.;.$.e.1XqXmXsXnXY N._.@X{ = B U 0 sXsX>X} <Xp.k.+ G B V < H.E. XW.W.W.W.W.W.W.R.",
"W.W.[.W.W.W.W.W.R.R.W.R.W.[.I.OXN V 5 O w.y.;.%.#.;.d.w.qX>XC 1 2 +X/.P. XK ; V S 0 w kX5X0Xg.l.5 L ; L 9 XX XQ.U.).W.W.W.W.W.).",
"W.W.W.W.W.W.W.W.W.W.W.).Q.W.[.[.q 1 r j 4.b.@.%.%.O.@.a.1Xi - A m M.@X/.E.[.].}.].#X. aXqX`.d j.r N C - XXI.XXI./.W.W.W.W.W.R.W.",
"W.W.W.W.Q.W.W.W.W.R.W.F.W.W.W.[.}.P e + b 0.u.%.o.,.1.x.j.v 9 q & ' L.P.W.(.{..X-X[ E 8X% 2XO ^.4 H.N C H I.V..XW.W.W.W.W.W.).R.",
"W.R.W.W.W.Q.W.W.W.W.W.).W.Q.W.Q.].< e r z 3.x.&.&.X.o.t.0X5.E 4 Y [ I.Q.).).).).N.fX  zXo 2X# 7.i C C 2 - .XXX)._.W.W.W.W.W.W.W.",
"R.W.W.W.W.Q.W.W.W.W.W.R.W.W.W.[.I.S e V @ n 8.=.&.:.t.0.7.W ~ C.L..X%X{.).F.D.D.%X[ Q Z.,X% 7.`., w < > T .XY..XW.W.W.W.W.W.W.R.",
"W.W.W.W.W.[.W.W.W.W.W.W.R.W.W.).=XN.I M r z  .c.t.p.0.b z 5 ( ;X{.{.!.!.W.F.F.)..XOXn.%X+ ^.v `.u Y.R I., U.P.P.W.W.Q.Q.W.W.R.W.",
"W.W.W.W.{.W.W.W.W.W.W.W.W.W.W.W./.U.A * V 5 b 6.6.n g X 5 i ~ I.!.T.T.T.R.W.).W.U.2 tX8 i . `.7 I.R B.[.y /.&XL.W.W.W.W.W.W.W.W.",
"W.R.W.W.[.W.{.W.W.W.R.).R.W.R.W.U.P.T < Z 8 7 # i . N M N - B H.{.W.W.R.R.W.W.E.}.OX& t W.r 6 (..X> I.D R.(.V.(.W.W.W.W.W.W.W.R.",
"W.W.W.W.W.[.W.W.W.W.R.W.W.R.W.W.).oXC.[.|.|.T.p S * I 2 Z A ; J {.{.Q.R.R.Q.{.].[.< H I.t L.D K.Q.U.XXC.XXD.oXP.W._.W.W.W.W.W.).",
"W.W.W.W.W.W.W.W.W.W.W.W.W.R.W.W..XL.W.Q.I.XXC.x , T 9 T B.XXU.{.[.#XW.T.XX.XE.{.8 S I.I.4 u !.E.Q.W.W.[.W.W.W.W.W.W.W.W.W.W.W.W.",
"W.W.W.W.W.W.W.W.W.W.W.W.W.^.W.W.Q.T.(.(.P.(._.5.T [ P.W.$XW.Z.W.E.I.{.[.L.[.{.L.u L.L.D i N.%XXXE.Q.W.W.W.W.W.W.W.W.W.W.W.W.W.W.",
"W.W.W.W.).W.W.W.W.W.W.W.W.W.W.W.Q.R.W.W.T.T./.XXS.$X&XW.R.R.E.*X%XE.T.W.{.&XV.F L..XW.L. X XL.W.Q.W.W.W.W.W.W.W.W.W.W.W.W.W.W.W.",
"W.!.R.W.W.W.W.W.W.W.W.W.W.W.W.W.W.W.R.W.Q.I.F.W..XR.S.L.R..X(.S.S.E.%X&Xn.u F L.=XL..X=XQ.Q..XL.W.W.W.W.).W.W.W.W.W.W.W.W.W.W.W.",
"W.W.W.W.W.W.W.W.W.W.W.W.W.W.W.W.T.W.W.W.#X#XW.W.R.I.(.#XW.Q.(.L.;X.XT.W.XXS.C..XZ..XQ.Z.S.(..X.XW.W.W.W.W.W.W.W.W.W.W.W.W.W.W.W.",
"W.W.W.W.W.W.W.W.W.W.W.W.R.W.W.W.T.Q.(.W.R.W.W.W./.R.(.Q.S.L.(.(.C.I.#XW.L.*X&XC.W.{.Q..X*XR.Z..XW.W.W.W.W.W.W.W.W.W.W.W.W.W.W.W.",
"W.W.W.W.W.W.W.W.W.W./.W.W.W.W.W.W.W.W.R.L.T.W.R.T.S.R.W.W.W.W.T.;XS.I.#XR.C.R.$XW.W.W.L.Z.(.*XR.W.W.W.W.W.R.W.W.W.W.W.W.W.W.W.W.",
"W.W.W.W.W.W.W.W.W.W.W.W.W.W.W.W.Q.T.R.(.W.W.(.R.#X(.R.W.W.W.W.W.Z.$X(.S.W.#XW.L.W.Q.R.W.$X(.D.(.W.W.W.W.W.W.W.W.W.W.W.W.W.W.W.W."
};
