/* XPM */
static char *_2068f087dcb49adfb837bd6d5b2a3fa2dhvJp7OgebfRQ4S[] = {
/* columns rows colors chars-per-pixel */
"64 72 162 2 ",
"   c #2F375B",
".  c #2E385B",
"X  c #313A5D",
"o  c #323E60",
"O  c #36425D",
"+  c #39455F",
"@  c #374565",
"#  c #3A4466",
"$  c #344863",
"%  c #3B4865",
"&  c #37446B",
"*  c #3B4669",
"=  c #3C496B",
"-  c #374470",
";  c #464F5E",
":  c #455160",
">  c #4A5463",
",  c #44506A",
"<  c #4E5768",
"1  c #535C6C",
"2  c #424F71",
"3  c #5B6374",
"4  c #54647E",
"5  c #59657F",
"6  c #626A7C",
"7  c #556584",
"8  c #596685",
"9  c #576984",
"0  c #5A6A86",
"q  c #576788",
"w  c #5A6688",
"e  c #576A88",
"r  c #5B698A",
"t  c #5F719C",
"y  c #616D87",
"u  c #606A8C",
"i  c #6B7384",
"p  c #6F7886",
"a  c #62718E",
"s  c #6C768A",
"d  c #6E7A8B",
"f  c #717B8C",
"g  c #626E92",
"h  c #657196",
"j  c #697791",
"k  c #6E7B94",
"l  c #64759C",
"z  c #717C96",
"x  c #797F92",
"c  c #737E99",
"v  c #5F71A2",
"b  c #6273A3",
"n  c #718097",
"m  c #7B8296",
"M  c #74829A",
"N  c #7C8C9E",
"B  c #7985A0",
"V  c #7D8CA2",
"C  c #838CA2",
"Z  c #888FA2",
"A  c #828EA9",
"S  c #8292A5",
"D  c #8A95A7",
"F  c #8494AC",
"G  c #8C96AA",
"H  c #8798AB",
"J  c #8D9AAD",
"K  c #919BA7",
"L  c #9197AA",
"P  c #929BAC",
"I  c #8B96B2",
"U  c #8D9CB3",
"Y  c #8F9EB9",
"T  c #929DB2",
"R  c #989DB1",
"E  c #919DB9",
"W  c #94A2B6",
"Q  c #94A4BB",
"!  c #99A7BE",
"~  c #95A8B9",
"^  c #9CADBF",
"/  c #A1AEBF",
"(  c #9CACC4",
")  c #9EADC8",
"_  c #9DB2C5",
"`  c #9EB2C9",
"'  c #9FB8CE",
"]  c #A2AFCB",
"[  c #A2B1C6",
"{  c #A4B5CB",
"}  c #A9B5CC",
"|  c #A0B9CF",
" . c #A2B8CF",
".. c #A2BBCF",
"X. c #A7B9CF",
"o. c #A1BCCD",
"O. c #A2BCCD",
"+. c #A1BCCF",
"@. c #A3BDCE",
"#. c #A4BECD",
"$. c #A4BECF",
"%. c #A5BFCE",
"&. c #A5BCCD",
"*. c #A3B9CE",
"=. c #A8B8CF",
"-. c #A3B7D0",
";. c #A5B6D1",
":. c #A0B7D6",
">. c #A3B6D6",
",. c #A2B7D6",
"<. c #A2B6D7",
"1. c #A5B5D6",
"2. c #A7B7D0",
"3. c #AAB7D2",
"4. c #A0B8D0",
"5. c #A1B9D1",
"6. c #A2B8D0",
"7. c #A0BBD0",
"8. c #A2BBD1",
"9. c #A2BAD2",
"0. c #A4B8D0",
"q. c #A5BBD0",
"w. c #A4BAD1",
"e. c #A5B9D2",
"r. c #A4BAD2",
"t. c #A5BBD3",
"y. c #A6BAD3",
"u. c #A1BCD1",
"i. c #A3BCD0",
"p. c #A3BCD2",
"a. c #A4BDD1",
"s. c #A7BCD1",
"d. c #A6BFD3",
"f. c #A5BED2",
"g. c #A7BBD4",
"h. c #A6BBD6",
"j. c #A7BBD6",
"k. c #A5BDD5",
"l. c #A7BDD4",
"z. c #A6BFD5",
"x. c #A4BCD6",
"c. c #A5BDD7",
"v. c #A5BED4",
"b. c #A5BAD2",
"n. c #A8B9D3",
"m. c #A9BBD3",
"M. c #AABAD3",
"N. c #AABCD2",
"B. c #AABBD5",
"V. c #AABAD4",
"C. c #A9BAD6",
"Z. c #AABCD4",
"A. c #A8BED6",
"S. c #ACBED4",
"D. c #ACBCD6",
"F. c #AABDD4",
"G. c #A9BAD8",
"H. c #A6C0CF",
"J. c #A6C0D1",
"K. c #ADC1D7",
"L. c #ADC0D9",
"P. c #B2C4DB",
/* pixels */
"b b l l :.B.| s.@.@.O.O.O.O.O.O.H.O._ W K D L L L L P P P P P P K K P P K K K D L L L G Q ] p.p.@.O.O.O.o.H.' ' O.o.x.<.l t b b ",
"v b t l :.B.| 0.O.O.O.O.O.O.O.O.H._ W H D P R R x x f f d d s p p i p p f m x m R R P G H W ` J.@.@.O.O.' H.o.H.*.o.g.,.l t b v ",
"v b t l ,.:.| p.O.O.O.@.+.+.' @.H._ J S D P P G x f i 6 1 < > : > > > 1 6 6 p x L R T D F U ( J.' +.' @.H.' ' @.&.| g.:.l t b b ",
"v v t l :.c.| @.| O.O.@.+.' H.' H._ ~ T W P D m s i 6 1 1 > > : ; : > 1 1 6 i p x Z T R U ~ _ H.J.' H.' ' O.O.@.@.| x.:.l v b v ",
"v b t l u.x.5.p.@.@.u.u.u.u.' +.@.@.{ ^ W P C m f f f f d d d d d d d f x d f f m C U T (  .| p.' +.u.u.u.u.@.5.5.| c.:.l t v t ",
"v b t l :.x.5.p.5.' p.p.p.u.u.+.@.J.s._ ! E T T T T U J H S C N N N S H P P W T T T T ( [ s.J.@.+.+.u.u.p.p.p.p.s.5.g.:.l t l v ",
"t l t l :.c.0.0.5.s.g.5.5.p.J.u.u.x.s. .[ [ [ [ } [ ( ~ U D F S S S D T ~ ( [ { [ [ [ `  .c.c.p.u.p.u.5.5.s.5.0.c.| c.1.l t b t ",
"l b h l 1.B.;.g.0.5.0.g.0.p.5.u.5.c.B.g.3.C.D.3.D.M.0. .0.M.N.J.K.H.=. . .| N.N.C.D.C.C.0.B.c.5.p.p.5.s.0.0.g.0.0. .c.s.l h b l ",
"- - & & $ @ $ + $ % $ $ @ + + $ & $ @ $ @ $ # # $ + @ + $ + @ # + $ + $ $ % @ + $ $ @ $ $ $ $ $ $ + $ $ $ + @ @ @ @ @ # # & & & ",
"- o * * # % % + @ @ @ $ % @ $ $ * & * $ # # * o @ $ @ @ @ + @ # % + % $ $ @ @ $ # # @ @ @ @ $ @ $ $ # $ $ @ @ # + % @ # * & & - ",
"- 2 * * # # # + % % % # % % $ % 2 o o 2 * , o * % % % % % % ; o * % % # * % * * * * , # * * # # % % * # % % * % @ + # % * * & & ",
"- o % # # # # + @ @ # # @ @ @ @ o * * o * # o 2 # # @ @ @ # # # o # # # @ @ # # # o , o # # # # @ @ @ @ @ @ & o @ # # % # * o 2 ",
"* * * # # @ # # r u u r r r r u u u u u u u u r r r r u y 0 y y u u r u r r r r u u u u u y u u e r r r u u u w # # # # # - * * ",
"* # * # # # # # w q q q q q 8 8 r q 8 w w r 8 0 8 8 e 0 0 0 0 8 8 u q 8 q r 0 0 w w 8 8 8 w 8 8 8 0 r 8 w w w w # # # # # # # * ",
"# # # # # @ # & r r r r r r r r r 0 8 r r 8 e y e e 0 e 0 9 0 e u r 8 r r e e e u 8 0 y u 8 0 y r r r r u w w u # # # # - # # # ",
"# # # # @ # @ & r r r r r r r 0 r 0 r r 8 r e 0 e 9 e e 9 0 0 e w r r 0 q e e e 8 8 0 0 8 8 8 0 r r q r w u w w + # # # # # # # ",
"# * # + u 5 8 8 r r 8 r r r w w w r r e 0 8 7 q e e r e a e e e r r e e e q 8 9 r 0 0 r r r 8 w q r r r r w 8 r 0 0 8 0 @ % # # ",
"# # # # u 8 8 y 0 8 8 8 r r u w w r 0 e r 0 e e 7 e e e e 0 9 9 e 0 e a a r a a e r r e u u r q r u r w r w 8 8 0 r 0 r + % # % ",
"# # # # y 8 8 0 q 8 w w r r r w r e e e 0 0 r a y 0 r r r a 0 a e 9 9 0 r a r e e 9 4 9 0 9 9 9 w u r r q w q q 0 0 8 y # % @ # ",
"# # # # r 8 0 0 q 8 w r u g u r q 7 9 4 9 5 9 9 0 5 8 8 9 5 9 9 y 0 9 9 9 5 4 4 0 0 y 0 e 9 0 r u u u u r q q w 0 0 8 0 # % # # ",
"# # * @ u 8 r 0 r q r r g g h h B.N.c.s.J.N.0.| D.D.3.;.] ] 3.3.| { { =.L.P.L.K.{ o. . . . . .0.g g g g u w q r r 8 r r @ * # # ",
"# # * & r 8 0 r r r r g g h h h *.o.| p.s.o.( ~ A B C c c z z c n M B H Q ` | { { &.N.K.J.N.N.L.h h h g u u r r 8 r w r @ # # # ",
"* * * @ r q r r w w u u h h h h g.5.0.B.C.` Q U E I A B m c z c k j k B I Y Y Y Q (  .*.|  .' :.h h h g g r r r r r w r @ * * * ",
"* # * # u q r r w w w u g h h h n.0.B.B.C. .Y F E I A B c z x x E I I U Y Y Y V ( ) M.B.B.0.c.c.h l h g r w w q r r q r @ * * # ",
"* o = * u q r r r r q r o - 2 & @ $ $ @ @ @ @ # + # # ; # # # ; # # # # # # ; # @ @ @ $ $ $ $ $ & & & & r q r r r r q u # * * * ",
"# * * @ r 8 r r r r w u * & o - & @ @ % # @ # @ % # # o # # # # , o # # # # # # @ # # @ % @ * $ * & & @ g q r r r r q r @ * * * ",
"# # * & r 0 r r r r w u * * & o * * * * * * * * * * , # = = o , # # * * * # # # * * * * * * * * & o & * r q r 0 r 0 8 r @ * # # ",
"# # * @ r 8 r 0 r r q r * & & * @ @ & @ & # # * * # * o * * o # # # # # # # # # & # * * @ @ & @ o 2 * * u q r r r r 8 r @ * # # ",
"# # # @ 0 0 r 0 r r q u * * # * r r r r u r r u u u u u u r u u u u u u u u u u u r r r r u w u = # - * r q r 0 0 0 8 0 @ # # # ",
"# # % @ 0 8 0 0 e r q r & * * * r r q 8 r q q 8 w w 8 8 q 8 8 8 w w w 8 u w w w q 8 r 8 w 8 w w * * 2 o u 8 r 0 0 0 0 0 @ * # # ",
"@ # % @ y 8 0 0 0 0 8 r @ * * * r 0 r 0 r 0 r 0 w 8 8 8 r 0 0 0 w 8 u w 8 u w w u 0 r 8 w r u w # * * o r 8 r 8 0 0 0 y @ % @ @ ",
"# # # + r 8 0 0 0 r 8 r @ * # @ r 0 0 0 8 0 0 0 w u 8 y 0 0 0 0 8 y 6 8 8 8 8 w 0 8 0 y 8 8 u w # * 2 o u 8 r 0 r 0 8 0 @ % # # ",
"# # * @ r q r q r r r r @ * * @ r r r 0 0 0 0 0 } } [ } } [ } [ [ [ ( } 8 y 8 5 0 0 r 8 r 0 r q * * * @ r w r w r r w w & * # # ",
"# # * & r r r r r r q r @ * # * r q 0 0 0 0 5 5 [ [ } [ / / / / [ } ] } 5 y 5 8 0 8 0 r r r r q # # * @ r q r r r r w r & & # * ",
"# * & @ g q r r r r q r @ * # # r 8 0 r 0 0 y 8 ! Q Q W W P T U R ! E ( y 8 5 u 0 0 8 r r 0 r r # # * @ g q r r r r q g @ * # # ",
"# # & & r w r r r r r e & * # & 8 r r 0 0 0 0 8 Y T T T J J P G L E L A s y 4 5 0 0 r 0 8 r r r # # * & r q r r r r q r @ * # * ",
"# # * @ r r r r r r q r & * # @ r 0 r 0 8 0 0 0 @ + + + X ; X o X X ; 4 T } 3.3.0 0 r r 0 r r q * # * @ w w r r w r w u @ * # # ",
"* # * @ u w r r r r w u @ * # # 8 r 8 r 0 0 0 0 @ + @ @ o , , ; : + X > ( 3.] ] 0 8 0 q r q r r # # * @ r w r w r r q r & * * # ",
"* # * & r q r r r r q u @ * # & r 0 0 0 r 0 r q @ O + O X ; # o @ + X + ] 1.] ) 0 0 8 r e 0 0 r * * * @ u q r r r r q r @ * # # ",
"# # * @ r q r r r r w r @ * # @ r 8 0 0 0 r 8 8 # * % % # # * o # ; # X ] E Y E 0 0 r 0 0 r r q # # * @ r w r r r r q r @ * * # ",
"# * * @ r w w r r r q r & & * # 8 r r 0 q r 8 r @ & # # * # o , # # + @ + ; o @ 8 8 r 0 0 q r 0 # # * @ r q r r r r q r & * * * ",
"* o * @ r w r r r r q r * & # @ r 0 0 r r 0 r 8 # & # # # * 2 o # # + # # # # # 0 r 0 r r 8 0 r * # * & r q r r r r r r & & # # ",
"* o = # u w r r r r q r * * # & 8 r 0 q 8 r r r # @ # % # * * # # + # # # # o , r 8 r 8 0 r r 0 # # - * g q r r r r q u @ * # * ",
"* # = * r q r r r r w u @ * * @ r 8 r 0 r 8 r r # * # % * o * # # # # # # # * o r r 0 r r q 0 r # * - o r w r r r r q r @ * # # ",
"* # * @ r q r r r r w u @ * # # r w r q r r r r # # # # # + # # # % , o * o o * 8 r r 8 r 0 r 0 # # * @ r r r r r r w u & * # # ",
"# # * & u q r r r r q r @ * # @ r w r r r q r r % @ # @ # # # # # % o , o , , o r 8 0 r 0 r 8 r # * * @ u q r r r w w r @ * # * ",
"# # * @ r q r r r r q r & * * & r w q r r r r r @ @ + # # + @ @ # # * o , # o * 8 u 0 0 r 0 r 0 # # * @ r w r r r r w r * * # # ",
"# * & & g q r r w r w r @ * * & u r r r w w r w % # # # # % # # # # # # o * 2 o r 8 8 r 8 r 8 r * # * & r q r r r r w r @ = o * ",
"# * * * g w r r r r w r & & # # w r u w u w u w o - = = # # # * o # # * # # # * w w u w u w w u # * * @ r r r r r r q g o & * * ",
"o * * @ r w r q r r w r & & * # u w w u u w w u o - # # * # # # * * # * * # * * u u w u u w u w # # * @ u q r r r r q r - & # * ",
"# * * @ r q r r r r q g @ * # # w r r r w w u r o 2 - = & % = = * * * * * * - & w r r r w w r w # # * @ r q r r r r r r # * # * ",
"o * * @ u q r r r r q r @ * * # r r r q w w w w o * o # & @ & & @ * @ @ @ @ - o r w w r w w w r # # * & r q r r q r q r @ * # # ",
"* * o * u w r r r r q u @ * * * r r r r r w u w g g r r u r r r r r r u r t r r r w r w w w r r * # * @ r w r r w r w r @ * # # ",
"* * 2 o r w r r w r w r @ * * @ w r r q r w w u w w w w w q q q q q q r q q q q r r r w u w r r * # * @ r w r r r r w r & * # # ",
"o o 2 2 r w r w r r w r * & # @ r r r r r r w w r r r r r r r r r r r r r r r r r r w r w u w w o * * @ r q w r w u w r @ * * # ",
", o & o u w r w r r q r # = o * w r q r w r u w w r r r r r w r r r r r r r w r r r w r w u w u * * * # u w u r r r w r @ * * # ",
"# # * @ r q r r r q u q * o = o # o * * # o # # # # # # 2 o o 2 & & # # # * * * * o 2 o * * * # # * o & q g 7 r r r w r & * # # ",
"* * * & t q r r w q r q = o 2 = # * * * * = # # # # # # # o 2 o # # * # * o # # * * # # # * # # * = * = q r 7 r r r q g & & * # ",
"# # = * w w r r r q r 7 2 o o o * * 2 - = * * * - = = = * * 2 - * * * * o 2 * * 2 o = - * # * # o o o & 7 w q g r r q r @ * # # ",
"* o - o r w r r g q r q 2 o * 2 2 o o o # # # # # # # o # # o o # # # # * o , o o 2 o o # # # # * 2 & 2 7 r r r r r q r @ * * # ",
"* o 2 o r q r w w w u u 7 7 w w r g r r r r w g u u w u r r r g r r g r u u w u r r r g u r u u w 8 7 7 r r q q w r w g @ * # # ",
"* * * * r w r r w w u u u w u u w q q w w w w q w w w w q q r q w q w q w w w w w r q q w w w w u u w u u r r r r w w r & * # # ",
"* # * # g w r r r r w w w w w w r r r r r r r r r w w u r r r r r r r r r r r u r r r r w r r r w w w w q w r r r r q r @ * * # ",
"# # * # r q r r r r w w u w w w q r r r r r r r r w u w q r r r r r r r r r w w r r r q r r w w w w u u w q g u w r q w @ * * # ",
"# * * * # # # # u w u w u u u w w w u u r t q r r r r r r r r r r r r t q r r r r r r r r r r t w w u u w u w u , o * * # # # * ",
"# * * * * * * # w u w w w w w w w w w w r q q q r r r q q q q r q r q r q q r q q r q q w q w w w w w u w w w w o 2 * * * # # * ",
"* , o 2 # # # = w w u r u u u w w r w w r r r r r q r r r r r r r q r r r r r r r r r r r r q q u w u w u w w u 2 o - - # = * * ",
"o o o o # # # o u u r r w u u u r r r r r r r r r r r r r r r r r r r r r r r r r r r r r r w t u w w u u w u u o o * o # o # o ",
"o o o o   o o     . . . . .       . . . . . . . . .   . . . . . . . . . . . . . . . . . . . .     .             o X o X X o X o ",
"                . . . . . . .       o   . .     . . . . o . . . X   . . . X .   . o X . . . . . . X   X         . .   . . . . . ",
"              o o . . . o .   . o   X       X X . X X X X . . . X X     X X   X . . X   X . X X X .       o X X . . . .   . . . ",
"        o       . . . .                 .       . .         . .           .   . . . .   .       . .             . X .     . . . "
};
