/* XPM */
static char *_9660_c0d9d830d46591f7bcf9c137112eb70cbb735861f5bc91c5640d35d4e5e5581e[] = {
/* columns rows colors chars-per-pixel */
"64 56 177 2 ",
"   c #3C250F",
".  c #39280C",
"X  c #2A2113",
"o  c #2E2A1E",
"O  c #372617",
"+  c #3A2713",
"@  c #342914",
"#  c #3A2B15",
"$  c #36251A",
"%  c #3C261A",
"&  c #31291C",
"*  c #3C2B1C",
"=  c #271E24",
"-  c #1F222A",
";  c #1F2434",
":  c #1E2C3D",
">  c #292C2E",
",  c #2D2829",
"<  c #372E23",
"1  c #3B3123",
"2  c #363425",
"3  c #232534",
"4  c #2A2634",
"5  c #252A35",
"6  c #2B2C35",
"7  c #24263C",
"8  c #2D243D",
"9  c #252A3C",
"0  c #292C3C",
"q  c #302136",
"w  c #302A36",
"e  c #31233A",
"r  c #283033",
"t  c #2B303B",
"y  c #472C0F",
"u  c #412312",
"i  c #462C13",
"p  c #482C16",
"a  c #402418",
"s  c #412D1A",
"d  c #663D07",
"f  c #653D0C",
"g  c #412E20",
"h  c #1F2D47",
"j  c #1F2A4A",
"k  c #222643",
"l  c #242B44",
"z  c #2A2C42",
"x  c #222A4A",
"c  c #2A2F4A",
"v  c #302F41",
"b  c #223145",
"n  c #2C3142",
"m  c #27314A",
"M  c #2D314A",
"N  c #303243",
"B  c #373E44",
"V  c #363E4C",
"C  c #3C3C48",
"Z  c #434656",
"A  c #FFA214",
"S  c #FEA61C",
"D  c #FFAB1E",
"F  c #DA9736",
"G  c #D89836",
"H  c #D8973B",
"J  c #EFA927",
"K  c #FCA523",
"L  c #FEA923",
"P  c #F6A72D",
"I  c #FCA62A",
"U  c #F3A92C",
"Y  c #FCA92B",
"T  c #F3A633",
"R  c #FBA631",
"E  c #F5AA37",
"W  c #FBAB32",
"Q  c #F3A739",
"!  c #FFB335",
"~  c #FBB13E",
"^  c #FDBE3B",
"/  c #DDA14B",
"(  c #D7A252",
")  c #DCA351",
"_  c #DFAC54",
"`  c #DEAA5D",
"'  c #E5A343",
"]  c #E6AA4B",
"[  c #EBAB4C",
"{  c #F1AB4B",
"}  c #F9B144",
"|  c #F6B149",
" . c #F2BF4A",
".. c #E4AA53",
"X. c #E9AD53",
"o. c #E2AA5C",
"O. c #ECAB59",
"+. c #D4A867",
"@. c #D2A969",
"#. c #DFBE6F",
"$. c #CEA972",
"%. c #D2A772",
"&. c #D1AC77",
"*. c #E9B262",
"=. c #FFC641",
"-. c #FDC74A",
";. c #F1C757",
":. c #FFC853",
">. c #F3C65F",
",. c #DDC67A",
"<. c #E4C47E",
"1. c #F5C772",
"2. c #F0C778",
"3. c #868F8C",
"4. c #91998E",
"5. c #9E9C8F",
"6. c #838793",
"7. c #858E93",
"8. c #8C8C91",
"9. c #868C98",
"0. c #829091",
"q. c #8D9796",
"w. c #8F9A96",
"e. c #8E979A",
"r. c #8D9B9B",
"t. c #929695",
"y. c #9F9697",
"u. c #959C95",
"i. c #9A9D95",
"p. c #92959B",
"a. c #969C9A",
"s. c #9A9D9C",
"d. c #A19D9E",
"f. c #A29B93",
"g. c #9AA295",
"h. c #96A19B",
"j. c #9BA19D",
"k. c #A2A094",
"l. c #8E96A2",
"z. c #8C9CA3",
"x. c #8F9FAC",
"c. c #9397A1",
"v. c #959CA2",
"b. c #999DA3",
"n. c #949DAA",
"m. c #989BAC",
"M. c #94A1A2",
"N. c #9AA1A4",
"B. c #9FAAA6",
"V. c #92A0AB",
"C. c #9DA3AA",
"Z. c #9BABAB",
"A. c #A4A6A4",
"S. c #A1A7AB",
"D. c #A6AAB6",
"F. c #A6A9B8",
"G. c #D8C291",
"H. c #C4C7C5",
"J. c #CBCDC7",
"K. c #C7CBCE",
"L. c #CBCECC",
"P. c #CDD0CD",
"I. c #D1D2CE",
"U. c #C7CBD5",
"Y. c #CACDD3",
"T. c #CACDD8",
"R. c #CBD0D6",
"E. c #D1D0D3",
"W. c #D0D0DC",
"Q. c #E1E2DE",
"!. c #D7DBE4",
"~. c #D8DBE2",
"^. c #E5E5E4",
"/. c #E8E7E5",
"(. c #E6E8E2",
"). c #E5E5EB",
"_. c #E5E4F2",
/* pixels */
"a.a.a.a.a.a.a.a.a.a.a.a.a.a.a.a.a.a.a.a.a.a.a.a.a.a.a.a.a.a.a.a.a.a.a.a.a.a.a.a.a.a.a.a.a.a.a.a.a.a.a.a.a.a.a.a.a.a.a.a.a.a.a.a.",
"a.a.a.a.a.a.a.a.a.a.a.a.a.a.a.a.a.a.a.a.a.a.a.a.a.a.a.a.a.a.a.a.a.a.a.a.a.a.a.a.a.a.a.a.a.h.a.a.a.a.a.a.a.a.a.a.a.a.a.a.a.a.a.a.",
"a.a.a.a.i.a.a.a.a.a.a.a.a.a.a.a.u.a.a.h.a.a.a.a.a.a.a.a.a.a.a.a.a.a.a.a.a.a.i.a.a.a.a.a.a.a.a.a.a.a.a.a.a.a.a.a.a.a.a.a.a.a.a.a.",
"a.a.a.a.a.a.a.a.a.a.a.a.a.a.a.a.a.a.a.a.a.a.a.a.a.a.a.a.a.a.a.a.a.a.a.a.a.a.a.a.a.a.a.a.a.a.a.a.a.a.a.a.a.a.a.a.a.a.a.a.a.a.a.i.",
"a.a.a.a.a.a.a.a.a.a.a.a.a.a.a.a.a.a.a.a.a.a.a.a.a.a.a.a.a.a.a.a.a.a.a.a.a.a.a.a.a.a.a.a.a.a.a.a.a.a.a.a.a.a.a.a.a.a.a.a.a.a.a.a.",
"a.a.a.a.a.a.a.a.a.a.a.a.a.a.a.a.a.a.a.a.a.a.a.a.a.a.a.a.a.a.a.a.a.a.a.a.a.a.a.a.a.a.a.a.a.a.a.a.a.a.i.a.a.a.a.a.a.a.a.a.a.a.a.a.",
"a.a.a.a.a.a.a.a.a.a.a.i.a.a.a.a.a.a.a.a.a.a.a.a.a.a.a.i.a.a.a.a.a.a.a.a.a.a.a.a.a.a.a.a.a.a.a.a.a.a.a.a.a.a.a.a.a.a.a.a.a.a.a.a.",
"a.a.a.a.a.a.a.a.a.a.a.a.a.a.a.a.a.a.a.a.a.a.a.a.a.a.a.a.a.a.a.a.a.a.h.a.a.a.a.a.a.a.a.a.a.a.a.a.a.a.a.a.a.a.a.a.a.a.a.a.a.a.a.a.",
"a.a.a.a.a.a.a.a.a.a.a.a.a.a.a.a.a.a.a.a.a.a.a.a.a.a.a.a.a.a.a.a.a.a.a.a.a.a.a.a.a.a.a.a.a.a.a.a.a.a.a.a.a.a.a.a.h.a.a.a.a.a.a.a.",
"a.a.a.i.a.a.a.a.a.a.a.a.a.a.a.a.a.a.a.a.a.a.a.a.a.a.a.a.a.a.a.a.a.a.a.a.a.a.a.a.a.a.a.a.a.a.a.a.i.a.a.a.a.a.a.a.a.a.i.a.a.a.a.a.",
"a.a.a.a.a.a.a.a.a.a.a.a.a.a.a.a.a.a.a.a.a.a.a.a.a.a.a.a.a.a.a.a.a.a.a.a.a.a.a.a.a.a.a.a.a.a.a.a.s.a.a.a.a.a.a.a.a.a.a.a.a.a.a.a.",
"a.a.a.a.a.a.a.a.a.a.a.a.a.a.a.a.a.a.a.a.a.a.a.a.a.a.a.a.a.a.a.a.a.a.i.a.a.a.a.a.a.a.a.a.a.a.a.a.a.a.a.a.a.a.a.a.a.a.a.a.a.a.a.a.",
"a.a.a.a.a.a.a.a.a.a.a.a.a.a.a.a.a.a.a.a.a.a.a.a.a.a.a.a.a.a.a.a.a.a.a.a.a.a.a.a.a.a.a.a.a.a.a.a.a.a.a.a.a.a.a.a.a.a.a.a.a.a.a.a.",
"a.a.a.a.a.a.h.a.a.a.a.a.a.a.a.a.a.a.a.a.a.a.h.a.h.i.a.a.a.a.a.a.a.a.a.a.a.a.a.a.a.a.a.a.a.a.a.a.a.a.a.a.a.a.a.a.a.a.a.a.a.a.a.a.",
"a.a.a.a.a.a.a.a.a.a.a.a.a.a.a.a.a.a.a.a.a.a.a.a.a.a.a.a.a.a.a.a.a.a.a.a.a.a.a.a.a.a.a.a.a.a.a.a.a.a.a.a.a.a.a.a.a.a.a.a.a.a.a.a.",
"a.a.a.a.a.a.a.a.a.a.i.a.a.a.a.a.a.a.v.a.i.i.r.a.v.a.v.v.v.p.s.v.v.v.a.v.v.v.a.v.a.a.i.i.a.a.a.a.a.a.a.a.a.a.a.a.i.a.a.a.a.a.a.a.",
"a.a.a.a.a.a.a.a.a.a.a.a.a.a.a.h.a.M.z.r.k.5.u.h.5 9 x h 9 9 0 l b : 8 9 b x 0 4 v.u.g.g.e.z.M.u.a.a.a.a.a.a.a.a.a.a.a.a.a.a.a.a.",
"a.a.a.a.a.a.a.a.a.a.a.a.a.a.a.a.h.v.z.a.f.i.r.z.9 7 x x : : k z b l 8 8 x x z 6 c.a.5.g.r.r.h.g.a.a.a.a.a.a.a.a.a.a.a.a.h.a.a.a.",
"a.a.a.a.a.a.a.a.a.a.a.a.a.a.a.a.u.t.p.b.y.d.x.x.6 w 9 z 9 b z 0 9 0 q q z m w 6 m.m.j.u.h.r.u.4.i.a.a.a.a.a.a.a.a.a.a.a.a.a.a.a.",
"a.a.a.a.i.a.a.a.a.a.a.a.a.a.a.i.t.i.s.S.8.c.x.v.* u a % # # * % +   u % 2 2 g 1 v.n.r.3.A.h.4.4.a.a.a.a.a.a.a.a.a.a.a.a.a.a.a.a.",
"a.a.a.a.a.a.a.a.a.a.a.a.a.a.a.a.j.s.a.3.C w 0 o &.o.o._ _ _ ....X.[ O.*.#.,.G.G.< 5 t B 7.u.a.N.a.a.a.a.a.a.a.a.a.a.a.a.a.a.a.a.",
"a.a.a.a.a.a.a.a.a.a.a.a.a.a.a.a.a.a.h.r.z 7 5 @ ` T P P J P P I Y U W ~  .;.;.<.& 7 ; n p.N.b.a.a.a.a.a.a.a.a.a.a.a.a.a.a.i.a.a.",
"a.a.a.a.a.a.a.a.a.a.a.a.a.a.a.a.u.u.h.v.l l b # X.Y L L L L I I K Y Y ! ^ -.:.2.< c x l b.b.a.p.a.a.a.a.a.a.a.a.a.a.a.a.a.a.a.a.",
"a.a.a.a.a.a.a.a.a.a.a.a.a.a.a.a.a.u.h.v.h j t # ] K S S L K I I I K I W ^ =.-.1.$ c j x b.y.t.s.a.a.a.a.a.a.a.a.a.a.a.a.a.a.a.a.",
"a.a.a.a.a.a.a.a.a.a.a.a.a.a.a.a.s.a.a.b.l j z # X.K K K K Y W R P R R I Y J U o.O z x x b.y.u.i.i.a.a.a.a.a.a.a.a.a.a.a.a.a.i.a.",
"a.a.a.a.a.a.a.a.a.a.a.a.a.a.a.a.p.p.j.v.l l z # ..T P I K K I I R K S K P P U _ s 0 x z s.j.u.i.a.a.a.a.a.a.a.a.a.a.a.a.a.a.a.a.",
"a.a.a.a.s.a.a.a.a.a.a.a.a.a.a.a.v.v.M.e.n 3 > . o.} } P D A A D L A A D P } } `   6 7 z p.a.a.a.a.a.a.a.a.a.a.a.a.a.a.a.a.a.a.a.",
"a.a.i.a.i.a.a.a.a.a.a.a.a.a.a.a.M.M.a.0.V t > @ $.+.( G ! D S S S S D ! F ( o.%.O 6 n V 7.a.b.j.a.a.a.a.a.a.a.a.a.a.a.a.a.a.a.a.",
"a.a.a.a.a.a.a.h.a.a.a.a.a.a.a.a.r.r.h.Z.0.z.v.j.* p y d F I T R Q T T H f i p * b.v.l.9.S.M.a.a.s.a.a.a.a.a.a.a.a.a.a.a.a.a.a.a.",
"a.a.a.a.a.a.a.a.a.a.a.a.a.a.a.i.u.u.r.z.v.V.V.v.6 , = i / ~ T U T Q } ) p = 4 4 M.M.b.v.V.e.p.p.a.a.a.a.a.a.a.a.a.a.a.a.a.a.a.a.",
"a.a.a.a.a.a.a.a.a.a.a.a.a.a.a.a.g.u.a.a.s.s.p.v.c M 9 s ] ! K L L K ! o.s 9 M z r.w.u.g.u.a.h.a.a.a.a.a.a.a.a.s.a.a.a.a.a.a.a.a.",
"a.a.a.a.a.a.a.a.a.a.a.a.a.a.a.i.u.i.a.q.s.s.p.V.7 m z < @.] ' [ { ' ..@.< l m 9 h.u.i.g.w.w.h.u.a.a.a.a.a.a.a.i.a.a.a.a.a.a.a.a.",
"a.a.a.a.a.a.a.a.a.a.a.a.a.a.a.u.i.u.a.a.a.b.p.a.v.b.a.A.X * O $ % $ * X A.e.V.h.a.a.a.u.r.h.u.u.u.a.a.a.a.a.a.a.a.a.a.a.a.a.a.a.",
"a.a.a.a.i.a.a.a.a.a.a.a.a.a.a.a.u.i.a.a.a.a.s.a.j.t.q.S.3 M c j k c M ; Z.w.u.j.a.a.a.a.u.u.h.u.u.a.a.a.a.a.a.a.a.a.a.a.a.a.a.a.",
"a.a.a.a.a.a.a.a.a.a.a.a.a.a.a.a.a.u.a.a.a.a.a.a.a.e.b.v.3 - 9 9 k z ; 3 v.b.e.r.a.u.u.a.u.a.g.u.a.a.a.a.h.a.a.a.a.a.a.a.a.a.a.a.",
"a.a.a.a.a.a.a.a.a.a.a.a.a.a.a.a.s.a.a.i.u.u.a.a.S.C.b.6.Z n t ; 7 9 z Z 6.n.C.S.a.s.u.u.a.u.a.a.a.a.a.a.a.a.a.a.a.a.a.a.a.a.a.a.",
"a.a.h.a.a.a.a.a.a.a.a.a.a.a.a.a.p.a.a.a.i.u.a.v.- 3 3 Z D.U.U.R.Y.Y.U.F.Z 3 3 - s.s.i.i.g.a.b.p.a.a.a.a.a.a.a.a.a.a.a.a.a.a.a.a.",
"a.a.a.a.a.a.a.a.a.a.a.a.a.a.a.s.s.a.a.u.u.u.a.a.6 N ; M U.!.K.Y.L.K.~.U.v 3 t 0 c.a.t.i.a.s.p.c.a.a.a.a.a.a.a.a.a.a.a.a.a.a.a.a.",
"a.a.a.a.a.a.a.a.a.a.a.a.a.a.a.a.a.h.h.u.u.a.p.v.5 z z 9 U.U.H.P.L.H.L.Y.8 0 v 4 v.s.s.a.a.p.c.s.a.a.a.a.a.a.a.a.a.a.a.a.a.i.a.a.",
"a.a.a.a.a.a.a.a.a.a.a.a.a.a.a.a.r.a.a.a.a.s.b.c.0 5 5 5 R.Y.L.J.J.I.L.R.4 7 4 6 b.v.p.a.b.s.s.a.a.a.a.a.a.a.a.a.a.a.a.a.a.a.a.a.",
"a.a.i.a.a.a.a.a.a.h.a.a.a.a.a.u.a.u.a.a.r ; r t T.T.T.U.Y.L.P.L.(.(.^.^.)._._._.q 6 4 6 p.s.p.s.a.a.a.a.a.a.a.a.a.a.a.a.a.a.a.a.",
"a.a.a.a.a.a.a.a.a.a.a.a.a.a.a.a.w.h.a.r.0 5 0 0 T.R.U.Y.Y.L.K.P.(.(.^.^./.)._._.e 8 0 0 v.v.a.u.a.a.a.a.a.a.a.a.a.a.a.a.a.a.a.a.",
"a.a.a.a.a.a.a.a.a.a.a.a.a.u.a.u.u.4.h.z.9 9 9 9 T.Y.Y.P.L.P.L.P.)././.(./.).)._.9 0 7 0 c.a.u.u.a.a.a.a.a.a.a.a.a.a.a.a.a.a.a.a.",
"a.a.a.a.a.a.a.a.a.a.a.a.a.a.a.a.g.w.M.r.b 9 z 0 R.Y.K.J.P.J.P.K.Q.Q.Q.Q.Q.Q.~._.8 z z z c.a.u.u.i.a.a.a.a.i.a.a.a.a.a.a.a.a.a.a.",
"a.a.a.a.a.a.a.a.a.a.a.a.a.a.a.u.u.u.v.z.0 9 z 9 Y.L.L.J.L.L.L.L.E.E.E.I.I.I.E.W.0 z 9 z c.v.u.h.a.a.a.a.a.a.a.a.a.a.a.a.a.a.a.a.",
"a.a.a.a.a.a.a.a.a.a.a.a.a.a.a.r.r.u.v.c.z 9 z 0 T.Y.L.K.L.L.L.L.L.L.J.J.J.J.Y.U.0 0 9 t c.a.u.w.u.a.a.a.a.a.a.a.a.a.a.a.a.a.a.a.",
"a.a.a.a.a.a.a.a.a.a.a.a.a.a.a.h.h.r.M.z.t 9 9 6 T.Y.L.J.J.J.J.L.L.I.J.J.E.E.L.T.0 0 7 9 v.v.a.h.a.a.a.a.a.a.a.a.a.a.a.a.a.a.a.a.",
"a.a.a.a.a.a.a.a.a.a.a.a.a.a.a.a.a.a.v.z.9 9 9 0 T.Y.Y.E.L.E.E.Y.Y.Y.Y.Y.Y.Y.Y.Y.0 0 9 6 e.v.a.w.a.a.a.a.h.a.a.a.a.a.a.a.a.a.a.i.",
"a.a.a.a.a.a.a.a.a.a.a.a.a.a.a.a.a.a.a.v.v.v.n.c.0 0 0 0 z 0 z 9 9 z 0 z 0 0 0 6 c.n.v.v.a.a.a.a.a.a.a.a.a.a.a.a.a.a.a.a.a.a.a.a.",
"a.a.i.a.a.a.a.a.a.a.a.a.a.a.a.h.a.a.a.v.a.a.s.n.6 0 0 z z z k c z x z z z z 0 0 b.v.s.v.a.a.a.a.a.a.a.a.a.a.a.a.a.a.a.a.a.a.a.a.",
"a.a.a.a.a.a.a.a.a.a.a.a.s.i.a.a.a.u.a.a.a.p.v.v.5 0 7 7 0 9 7 9 z 8 9 9 9 9 5 5 c.b.v.s.a.a.a.a.a.a.a.a.a.a.a.a.a.a.a.a.a.a.a.a.",
"a.a.a.a.a.a.i.a.a.a.a.a.a.a.a.a.a.u.a.a.a.v.b.v.6 6 6 6 0 0 z 0 0 0 0 z 6 6 r t c.v.a.a.a.a.u.a.a.a.a.a.a.a.i.a.a.a.a.a.a.a.a.a.",
"a.a.a.a.a.a.a.a.a.a.a.a.a.a.a.a.a.u.i.a.a.a.p.s.p.p.v.p.v.c.v.c.c.c.c.c.c.p.p.p.s.s.a.a.i.u.u.i.a.a.a.a.a.a.a.a.a.a.a.a.a.a.a.a.",
"a.a.a.a.a.a.a.a.a.a.a.a.a.a.a.a.a.u.u.g.u.a.s.p.a.M.a.v.a.v.s.v.v.v.v.s.s.v.b.a.p.a.i.a.u.u.a.a.a.a.a.a.a.a.a.a.a.a.a.a.a.a.a.a.",
"a.a.a.a.a.a.a.a.a.a.a.a.a.a.a.a.a.i.u.a.a.a.u.a.a.a.a.p.p.a.a.p.a.a.a.a.a.p.a.a.a.a.a.u.a.a.a.a.a.a.a.a.a.a.a.a.a.a.a.a.a.a.a.h.",
"a.a.a.a.a.a.a.a.a.a.a.a.a.a.a.a.u.a.a.i.a.u.a.u.a.a.a.a.a.a.a.a.a.a.a.p.u.a.a.a.u.u.a.a.u.a.i.i.a.a.a.a.a.a.a.a.a.a.a.a.a.a.a.i."
};
