/* XPM */
static char *_693_85c176e3d402ea6f21aa71574b3282f74a69f6f2055b2c714c62d41639474eff[] = {
/* columns rows colors chars-per-pixel */
"64 56 216 2 ",
"   c #7C1A11",
".  c #7B1C22",
"X  c #66222F",
"o  c #7F2525",
"O  c #7C3825",
"+  c #662931",
"@  c #6B2833",
"#  c #7B2B32",
"$  c #762D36",
"%  c #6A3531",
"&  c #7A373F",
"*  c #7C3B3F",
"=  c #7C3A46",
"-  c #744247",
";  c #7C424D",
":  c #7B4546",
">  c #6E574F",
",  c #861E1D",
"<  c #9A281B",
"1  c #982012",
"2  c #8B1E25",
"3  c #991B29",
"4  c #A31D2C",
"5  c #A71D31",
"6  c #8B232D",
"7  c #872829",
"8  c #962E24",
"9  c #9B2D25",
"0  c #93212C",
"q  c #9C252D",
"w  c #942B2D",
"e  c #982424",
"r  c #88372A",
"t  c #95352C",
"y  c #8C2C35",
"u  c #832E3C",
"i  c #8A2F39",
"p  c #872832",
"a  c #912D31",
"s  c #9B2A34",
"d  c #932D3B",
"f  c #99273A",
"g  c #863230",
"h  c #82323B",
"j  c #88373A",
"k  c #9D3333",
"l  c #96343D",
"z  c #943B35",
"x  c #A52424",
"c  c #A22C2C",
"v  c #A5292A",
"b  c #AA2333",
"n  c #A42A36",
"m  c #A63235",
"M  c #A0383F",
"N  c #A93437",
"B  c #B23536",
"V  c #804235",
"C  c #A8433A",
"Z  c #B5523D",
"A  c #812941",
"S  c #9C2E47",
"D  c #8D3B43",
"F  c #873446",
"G  c #9B3A44",
"H  c #AD2D44",
"J  c #AC3844",
"K  c #B93444",
"L  c #8A464C",
"P  c #9C4E42",
"I  c #99494D",
"U  c #875B4E",
"Y  c #9D554D",
"T  c #844D52",
"R  c #964B52",
"E  c #995451",
"W  c #A35048",
"Q  c #A05458",
"!  c #B75051",
"~  c #B95B53",
"^  c #966D5B",
"/  c #9E5161",
"(  c #946A6D",
")  c #986C61",
"_  c #9D6E74",
"`  c #9A7C7A",
"'  c #A07A6F",
"]  c #A56A70",
"[  c #AD7A7E",
"{  c #A9787C",
"}  c #B67972",
"|  c #BC7A7E",
" . c #D07D6B",
".. c #C77F71",
"X. c #CF7A7F",
"o. c #948D7A",
"O. c #8C9271",
"+. c #9E987B",
"@. c #B48D6E",
"#. c #A8857B",
"$. c #B78679",
"%. c #AE957C",
"&. c #A59A7C",
"*. c #B39374",
"=. c #B69779",
"-. c #CB8A6E",
";. c #DD8C6E",
":. c #C4847B",
">. c #CF8D7F",
",. c #D48B7B",
"<. c #C9997C",
"1. c #E5907C",
"2. c #AD7A89",
"3. c #778E8D",
"4. c #8B8E8B",
"5. c #848E8D",
"6. c #9B8A83",
"7. c #8C948E",
"8. c #859683",
"9. c #9B9582",
"0. c #9D9984",
"q. c #93968B",
"w. c #949A8C",
"e. c #9B9C8D",
"r. c #929685",
"t. c #958C93",
"y. c #869795",
"u. c #8D9592",
"i. c #8D9A94",
"p. c #8E9D9B",
"a. c #8D949A",
"s. c #939693",
"d. c #9E9592",
"f. c #959C95",
"g. c #9A9B95",
"h. c #94969A",
"j. c #969C9A",
"k. c #9B9B9B",
"l. c #989699",
"z. c #A48B84",
"x. c #A48C8D",
"c. c #AC8C8C",
"v. c #A9868B",
"b. c #B68384",
"n. c #AB9382",
"m. c #A39A86",
"M. c #A4958A",
"N. c #A19C8C",
"B. c #AD9B8C",
"V. c #AA9887",
"C. c #BB9E82",
"Z. c #B69B89",
"A. c #B4958A",
"S. c #AC8D94",
"D. c #A78A94",
"F. c #B88B97",
"G. c #A69395",
"H. c #AC9595",
"J. c #A29B97",
"K. c #AC9C95",
"L. c #A3969C",
"P. c #A49C9B",
"I. c #AB9D9C",
"U. c #AE949F",
"Y. c #B39495",
"T. c #BB9C93",
"R. c #B29A99",
"E. c #B69795",
"W. c #93A78E",
"Q. c #8DA096",
"!. c #87A291",
"~. c #95A197",
"^. c #95A29D",
"/. c #9AA29C",
"(. c #9AA794",
"). c #88A48B",
"_. c #ACA18E",
"`. c #B5A287",
"'. c #A9A396",
"]. c #A2A29D",
"[. c #ACA39C",
"{. c #B6A699",
"}. c #949DA1",
"|. c #9C9DA2",
" X c #A59FA2",
".X c #AC9DA6",
"XX c #B296A4",
"oX c #89A3A3",
"OX c #96A3A1",
"+X c #9CA3A3",
"@X c #9AA9A1",
"#X c #9AB1A9",
"$X c #97B7B6",
"%X c #A3A2A1",
"&X c #A3ACAC",
"*X c #A8A8A6",
"=X c #C78483",
"-X c #C38C85",
";X c #D78180",
":X c #D78C82",
">X c #C39B8A",
",X c #C59786",
"<X c #C88F9E",
"1X c #C9989B",
"2X c #E59E8C",
"3X c #C6A488",
"4X c #D8A68C",
"5X c #C8A798",
"6X c #C2AA92",
"7X c #D5A596",
"8X c #DDB196",
"9X c #ECA389",
"0X c #E5AB8E",
"qX c #EDAC8E",
"wX c #F1A687",
"eX c #E0AD92",
/* pixels */
"j.j.j.j.j.j.j.j.j.j.j.j.j.j.j.j.j.j.j.j.j.j.j.j.j.j.j.j.j.j.j.j.j.j.j.j.j.j.j.j.j.j.j.j.j.j.g.j.j.j.j.j.j.j.j.j.j.j.j.j.j.j.j.j.",
"j.j.j.j.j.j.j.g.j.j.j.j.j.j.j.j.j.j.j.j.j.j.j.j.j.j.j.j.j.j.j.j.j.j.j.j.j.j.j.j.j.j.j.j.j.j.j.j.j.j.j.j.j.j.j.j.j.j.j.j.j.j.j.j.",
"j.j.j.j.j.j.j.j.j.j.j.j.j.j.j.j.j.j.j.j.j.j.j.j.j.j.j.j.j.j.j.j.j.j.j.j.g.j.j.j.j.j.j.j.j.j.j.j.j.j.j.j.j.j.j.j.j.j.j.j.j.j.j.j.",
"j.j.j.j.j.j.j.j.j.j.j.j.j.j.j.j.j.j.j.j.j.j.j.j.j.j.j.j.j.j.j.j.j.j.j.j.j.j.k.j.j.j.j.j.j.j.j.j.j.j.j.j.j.j.j.j.g.j.j.j.j.j.j.j.",
"j.j.j.j.j.j.j.j.j.j.j.g.j.j.j.j.j.j.j.j.j.j.j.j.j.j.j.j.j.j.j.j.j.j.j.j.j.j.j.j.j.j.j.j.j.j.j.j.j.j.j.j.j.j.j.j.j.j.j.j.j.j.j.j.",
"j.j.j.j.j.j.j.j.j.j.j.j.j.j.j.j.j.j.j.j.j.j.j.j.j.k.j.j.j.j.j.j.j.j.j.j.j.j.j.j.j.j.j.j.j.j.j.j.j.j.j.j.j.j.j.j.j.j.j.j.j.j.j.j.",
"j.j.j.j.j.j.j.j.j.j.j.j.j.j.j.j.j.j.j.j.j.j.j.j.j.j.j.j.j.g.j.j.j.j.j.j.j.j.j.j.j.j.j.j.j.j.j.j.j.j.j.j.j.j.j.j.j.k.j.j.j.j.j.j.",
"j.j.j.j.j.j.j.j.j.j.j.j.k.j.j.j.j.j.j.j.j.j.j.j.j.j.j.j.j.j.j.j.j.j.j.j.j.j.j.j.j./.g.k.j.j.j.j.j.j.j.j.j.j.j.j.j.g.j.j.j.j.j.j.",
"j.j.k.j.j.j.j.j.j.j.j.j.j.j.j.j.j.j.j.j.j.j.j.j.j.j.j.j.j.j.j.j.j.j.j.j.j.j.j.j.j.j.j.j.j.j.j.j.j.j.j.j.j.j.j.j.j.j.j.j.j.j.j.j.",
"j.j.j.j.j.j.j.j.j.j.j.j.j.j.j.j.j.j.j.j.j.j.j.j.j.j.j.j.j.j.j.j.j.j.j.j.j.j.j.j.j.j.j.k.j.j.j.j.j.k.j.j.j.j.j.j.j.j.j.j.j.j.j.j.",
"j.j.j.j.j.j.j.j.j.j.j.j.j.j.j.j.j.j.j.j.j.j.j.j.j.j.g.j.j.j.j.j.j.j.j.j.j.j.j.j.j.j.j.j.j.j.j.j.j.j.j.j.j.j.j.j.j.j.j.j.j.j.j.j.",
"j.j.j.j.j.j.j.j.j.j.j.j.j.j.j.j.j.j.j.j.j.j.j.j.j.j.j.j.j.j.j.j.j.j.j.j.j.j.j.j.j.j.j.j.j.j.j.j.j.j.j.j.j.j.j.j.j.j.j.j.j.j.j.j.",
"j.g.j.j.j.j.j.j.j.j.j.j.j.j.j.j.j.j.j.j.j.j.j.j.j.j.j.j.j.j.j.j.j.j.j.j.j.j.j.j.j.j.j.j.j.j.j.j.j.j.j.j.j.j.j.j.j.j.j.j.j.j.j.j.",
"j.j.j.j.j.j.j.j.j.j.j.j.j.j.j.j.j.j.j.j.j.j.j.j.j.j.j.j.j.j.j.j.j.j.j.j.j.j.j.j.j.j.j.g.j.j.j.j.j.j.j.j.j.j.j.j.j.j.j.j.j.j.j.j.",
"j.j.j.j.j.j.j.j.g.j.j.j.j.j.j.j.j.j.j.j.j.j.j.j.j.j.j.j.j.j.j.j.j.j.j.j.j.j.j.j.j.j.j.j.j.j.j.j.j.j.j.j.j.j.j.j.j.j.j.j.j.j.j.j.",
"j.j.j.j.j.j.j.j.j.j.j.j.j.j.j.j.j.j.j.j.j.j.j.j.g.j.j.g.j.j.g.j.j.j.j.j.g.j.j.j.j.j.j.j.j.j.j.j.j.j.j.g.j.j.g.j.j.j.j.j.j.j.j.j.",
"j.j.j.j.j.j.j.j.j.j.j.j.j.j.j.j.j.j.}.k.}.}.p.j.j.f.w.j.f.f.g.j.j.j.j.j.}.j.j.j.l.j.j.j.p.j.j.j.j.j.j.j.j.j.j.j.j.j.j.j.j.j.g.j.",
"j.j.j.j.j.j.j.j.j.j.j.j.j.j.j.f.f.j.j.j.}.}.^.j.k.g.g.g.j.j.f.g.l.f.j./.j.j.j.j.j.j.j.j.f.~.j.l.j.j.j.j.j.j.j.j.j.j.j.j.j.j.j.j.",
"j.j.j.j.j.j.j.j.j.j.j.j.j.j.j.j.f.~.f.j.}.}.p.j.k.L.j.j.j.Q.j.f.g.g.f.f.~.f.f.f.j.j.^.p.j.j.j.j.j.j.j.j.j.j.j.j.j.j.k.j.j.j.j.j.",
"j.j.j.j.j.j.j.j.j.j.j.j.j.j.j.g.~.f.f.f.p.j.j.}.l.|.|.}.p.p.p.f.f.g.f.f.f.~.f.~.~.j.j.j.j.j.j.h.j.j.j.j.j.j.j.j.j.j.j.j.j.j.j.j.",
"j.j.j.j.j.j.j.j.j.j.j.j.j.j.j.f.~.f.f.j.f.^.j.}.j.|.h.j.p.f.j.h.j.j.j.j.j.Q.^.p.p.j.}.p.}.k.|.|.j.j.j.j.j.k.j.j.j.j.j.j.j.j.j.j.",
"j.j.j.j.j.j.j.j.j.j.j.j.j.j.j.j.f.f.g.j.f.j.}.j.j.l.l.f.f.e.g.g.|.}.j.}.j.j.j.j.j.j.j.}.j.}.k.j.j.j.j.j.j.j.j.j.j.j.j.j.j.j.j.j.",
"j.j.j.j.j.j.j.j.j.j.j.j.j.j.j.j.p.j.k.k.j.j.j.p.f.e.0.(.e.N.K.P.l.j.j.k.g.g.e.f.f.f.j.j.j.j.l.j.j.j.j.j.j.j.j.j.j.j.j.j.j.j.j.j.",
"j.j.j.g.k.j.j.j.j.j.j.j.j.j.j.^.^.j.l.|.j.j.j.f.e.0.m.&.B.Z.K.'.g.e.N.N.V.m.m.e.e.e.~.f.f.f.~.f.j.j.j.j.j.j.j.j.j.j.j.j.j.j.j.j.",
"j.j.j.j.j.j.j.j.j.j.j.j.j.j.j.j.p.OX|.|.a.f.~.W.+.`.<.3X6Xn.> z.+.&.=.=.@.*.*.%.`.0.r.w.f././.i.g.j.j.j.j.j.j.j.j.j.j.j.j.j.j.j.",
"j.j.j.j.j.j.j.j.j.j.j.j.j.j.j.j.^.p.h.|.+X/.f.m.A.,X8X<.^ #.6.K.6X<.4X0X0XqX0X8X=._.'.g.f.f.^.^.j.j.j.j.j.j.j.j.j.j.j.j.k.g.j.j.",
"j.j.j.j.j.j.j.g.j.j.j.j.j.j.j.j./.i.u.j.^.s.9.%.<.r O Y ) E.J.d.' V r t 8 t r O U z.[.l.s.j.p.+Xj.j.j.j.j.j.j.g.j.j.j.j.j.j.j.j.",
"j.j.j.j.j.j.j.j.j.j.j.j.j.j.j.f.~.f.p.p.f.w.V.>X2Xr O } T.G.4.P.1XL w m v c w r % ` I.l.j.}.a.}.j.j.j.j.j.j.j.j.j.j.j.j.j.j.j.j.",
"j.j.j.j.j.j.j.j.j.j.j.j.j.j.j.j.w.~.^.Q.^.'.>X>.V , E b.H.h.f.P.F.A d H 5 4 0 I T c.*Xl.|.|.a.}.j.j.j.j.j.j.j.j.j.j.j.j.j.j.j.j.",
"j.j.j.j.j.j.j.j.j.j.j.j.j.j.j.j.f.~.^.p.].R.} W t r { U.j.p.&Xt.F.F S H 5 b N X.[ R. Xh.}.}.}.k.}.j.j.j.j.j.j.j.j.j.j.j.j.j.j.j.",
"j.j.j.j.j.j.j.j.j.j.j.j.j.j.g.g.g.j.p.j.J.v.Y , 6 I H.+XoX3.j.I.F.& p q x v C :X>XV.w.i.h.h.l.|.j.j.j.j.j.j.j.j.j.j.j.j.j.j.j.j.",
"j.j.j.j.j.j.j.j.j.j.j.k.j.j.j.j.j.f.j.j.P.{ I 6 l | I.3.$XoXh.H.F.F g y m 9   W 7Xn.w./.^.l.g.k.j.j.j.j.j.j.j.j.j.j.j.j.j.j.j.j.",
"j.j.j.j.j.j.j.j.j.j.j.j.j.j.j.j.q.j.+Xq.d.Y.h d i b.g.).#Xp.a.XX<X& $ j :.,.7 k j b.[.8./.u.k.h.k.j.j.j.j.j.j.j.j.j.j.j.j.j.j.j.",
"j.j.j.j.k.j.j.j.j.j.j.j.k.j.j.j.j.f.f.f.P.Y.h d l =X_.8.f.}.|..X2.; - - #.-Xt s J =X{.W.&Xl.|.|.l.j.j.j.j.j.j.j.j.j.j.j.j.j.j.j.",
"j.j.j.j.f.j.j.j.j.j.j.j.j.j.j.j./.f.s.g.g.c.j f N ;X5XN.7.u.OXa.P.d.H.z.T.A.l s 6 E z.r.~.q.k.l.j.j.j.j.j.j.j.j.j.j.j.j.g.j.j.j.",
"j.j.j.j.j.j.j.j.j.j.j.j.j.f.j.j.i.j.g.k.q.z.D s e ! $.Z.M.q.^.!.~.e.'.B.T.$.J n 3 D z.J.g.q. Xk.j.j.j.j.j.j.j.j.j.j.j.j.j.j.j.j.",
"j.j.j.j.j.j.j.j.j.j.j.j.j.j.j.j.s./.j.^.w.M.R 0 q q P $.Z.0.W.).(.r.o.n.$.Y 6 3 n D Y.[.k.s.P.h.j.j.j.j.j.j.j.j.j.j.j.j.j.j.j.j.",
"j.j.j.j.j.j.j.j.j.j.j.j.j.f.j.j.l.+Xu.~.i.I.] i J 3 t :.4X=.&.O.O.+.Z.7X$.l b K s u c.J.g.u.f.i.j.j.f.j.j.j.j.j.j.j.j.j.j.j.j.j.",
"j.j.j.j.j.j.j.j.j.j.j.j.j.j.j.k.g.+Xu.OXp. Xv./ d 0 w ~ -.-.<.<.*.4X,.,.~ , 4 b f u H.g.f./.j.OXj.j.j.j.j.j.j.j.j.j.j.j.j.j.j.j.",
"j.j.j.j.j.j.j.j.j.j.j.j.j.j.j.k.s./.p.&Xy.h.XX2.u G w e 8 Z ;.wX9X1.C 9 9 e K 3 l & H.f.p.^.u.p.j.j.j.j.j.j.j.j.j.j.j.j.j.j.j.j.",
"j.j.j.g.j.j.j.j.j.j.j.j.j.j.j.j.j.j.j.j.p.p.|.S.= F d m B x 1 < < 9 v e c m m p R 2.J.f.Q.^.^.j.j.j.j.j.j.j.j.g.j.j.j.j.j.j.j.g.",
"j.j.j.j.j.j.j.j.j.j.j.j.j.j.j.j.f.j.j.j.p.^.l.L.E.[ L . 2 v B N c c m N w , . h [ Y./.i.i.j.j.f.j.j.j.j.j.j.j.k.j.j.j.j.j.j.j.j.",
"j.j.j.j.j.j.j.j.j.j.j.j.j.j.j.j.j.j.f.j.f.~.j.k.J.c.( : # p 6 6 y p y g $ @ L ( Y.]./.i.j./.J.k.j.j.j.j.j.j.j.j.j.j.j.k.j.j.j.j.",
"j.j.j.j.j.j.j.j.j.j.j.j.j.j.j.j.j.j.g.j.f.p.~.f.~.].K.Y.] ; @ $ X + + + = ( x.I.g.s.i.p./.j.J.k.k.j.j.j.j.j.j.j.j.j.j.j.j.j.j.j.",
"j.j.j.j.j.j.j.j.j.j.j.j.j.j.j.j.j.j.k.l.f.f.~.Q.!.i.7.j..XS.x.S.S.S.D.x.D.I. Xj.j.p.j.j.j.h.s.f.j.j.j.j.j.j.j.j.j.j.j.j.j.j.j.j.",
"j.j.j.k.j.j.j.j.j.j.j.j.j.j.j.}.}.j.l.k.g.f.f.Q.Q.@X^.y.i.k.l.k..X Xk.%X%Xl.i.j.^.j.|.k.s.s.f.j.j.j.j.j.j.j.j.j.j.j.j.j.j.j.j.j.",
"j.j.j.j.j.j.j.j.j.j.j.j.j.j.j.j.}.j.}.k.j.j.j.j.5.+X&X/.l.j.g.j.+X}.j.l.j.7.i.+Xj.k.|.|.h.j.OX^.j.j.j.j.j.j.j.j.j.j.j.j.j.j.j.j.",
"j.j.j.j.j.j.j.j.j.j.j.j.j.j.j.j.j.}.j.k.|.j.j.j.+Xl.t.s./.f.f./.u.j.j.p.f.+Xj.i.j.h.k. Xh.j.OXy.j.j.j.j.j.j.j.j.j.j.j.j.j.j.j.j.",
"j.j.j.j.j.j.j.j.j.j.j.j.j.j.j.j.j.j.j.j.k.k.j.j.j.j.l.j.j.g.j.g.j./.j.j.j.j.j.j.j.l.j.j.j.j.j./.j.g.j.j.j.j.j.j.j.j.j.j.j.j.j.j.",
"j.j.j.g.j.j.k.g.j.j.j.j.j.j.j.j.j.j.j.j.j.j.j.j.j.j.j.j.j.j.j.j.j.j.j.j.j.j.j.j.j.j.j.j.j.j.j.j.j.j.j.j.j.j.j.j.j.j.j.j.j.j.j.j.",
"j.j.j.j.j.j.j.j.j.j.j.j.j.j.j.j.j.j.j.j.j.j.j.j.j.j.j.j.j.j.j.j.j.j.j.j.j.j.j.f.j.j.j.j.j.j.j.j.j.j.j.j.j.j.j.j.j.j.j.j.j.j.j.j.",
"j.j.j.j.j.j.j.j.j.j.j.j.j.j.j.j.j.j.j.j.j.j.j.j.j.j.j.j.j.j.j.j.j.j.j.j.j.j.j.j.j.j.j.j.j.j.j.j.j.j.j.j.j.j.j.j.j.j.j.g.j.j.j.j.",
"j.j.j.j.j.j.j.j.j.j.j.j.j.j.j.j.j.j.j.j.j.j.j.j.j.j.j.j.j.j.j.j.j.j.j.j.j.j.j.j.j.j.j.j.j.j.j.j.j.j.j.j.j.j.j.j.j.j.j.j.j.j.j.j.",
"j.j.j.j.j.j.j.j.j.j.j.j.j.j.j.j.j.j.j.j.j.j.j.j.j.j.j.j.j.j.j.j.j.j.j.j.j.j.j.j.j.j.j.j.j.j.j.j.j.j.j.j.j.j.j.j.j.j.j.j.j.j.j.j.",
"j.j.j.j.j.j.j.j.j.j.j.j.j.j.j.j.j.j.j.j.j.j.j.j.j.j.j.j.j.j.j.j.j.j.f.j.j.j.j.j.j.j.j.j.j.j.j.g.j.j.j.j.j.j.j.j.j.j.j.j.j.j.j.j.",
"j.j.j.j.j.j.j.j.j.j.j.j.j.j.j.j.j.j.j.j.j.j.j.j.j.j.j.j.j.j.j.j.j.j.j.j.j.j.j.j.j.j.j.j.j.j.j.k.j.j.j.j.j.j.j.j.j.j.j.j.j.j.j.j."
};
