/* XPM */
static char *bb7435f707754900ed0a3069b6ea465bHFcGTOBAO4suYUo2[] = {
/* columns rows colors chars-per-pixel */
"64 64 2 1 ",
"  c black",
". c #F3E8E8",
/* pixels */
"                                 ...............................",
"                                 ...............................",
"                                 ...............................",
"                                 ...............................",
"                                 ...............................",
"                                 ...............................",
"                                 ...............................",
"                                 ...............................",
"                                 ...............................",
"                                 ...............................",
"                                 ...............................",
"                                 ...............................",
"                                 ...............................",
"                                 ...............................",
"                                 ...............................",
"                                 ...............................",
"                                 ...............................",
"                                 ...............................",
"                                 ...............................",
"                                 ...............................",
"                                 ...............................",
"                                 ...............................",
"                                 ...............................",
"                                 ...............................",
"                                 ...............................",
"                                 ...............................",
"                                 ...............................",
"                                 ...............................",
"                                 ...............................",
"                                 ...............................",
"                                 ...............................",
"                                 ...............................",
"                                 ...............................",
"                                 ...............................",
"                                 ...............................",
"                                 ...............................",
"                                 ...............................",
"                                 ...............................",
"                                 ...............................",
"                                 ...............................",
"                                 ...............................",
"                                 ...............................",
"                                 ...............................",
"                                 ...............................",
"                                 ...............................",
"                                 ...............................",
"                                 ...............................",
"                                 ...............................",
"                                 ...............................",
"                                 ...............................",
"                                 ...............................",
"                                 ...............................",
"                                 ...............................",
"                                 ...............................",
"                                 ...............................",
"                                 ...............................",
"                                 ...............................",
"                                 ...............................",
"                                 ...............................",
"                                 ...............................",
"                                 ...............................",
"                                 ...............................",
"                                 ...............................",
"                                 ..............................."
};
