/* XPM */
static char *_9df381e44b141849a8fd6f4e62a58d1dCiUVL9aorNqv8Vc[] = {
/* columns rows colors chars-per-pixel */
"64 64 3 1 ",
"  c #E32A2A",
". c #E3B52A",
"X c #A024CB",
/* pixels */
"................................................................",
"................................................................",
"................................................................",
"................................................................",
"................................................................",
"XXXXXXXXXXXXXXXXXXXXXXXXXXXXXXXXXXXXXXXXXXXXXXXXXXXXXXXXXXXXXXXX",
"................................................................",
"XXXXXXXXXXXXXXXXXXXXXXXXXXXXXXXXXXXXXXXXXXXXXXXXXXXXXXXXXXXXXXXX",
"................................................................",
"................................................................",
"................................................................",
"................................................................",
"................................................................",
"................................................................",
"................................................................",
"................................................................",
"................................................................",
"........        ................................................",
"......  ........  ..............................................",
"....  ............  ............................................",
"... ................ ...........................................",
".. .................. ..........................................",
".. ..... ...... ..... ..........................................",
". ...... ...... ...... .........................................",
". .................... .........................................",
". .................... .........................................",
". ..  ............  .. .........................................",
". ...  ..........  ... .........................................",
". ....            .... .........................................",
".. ........... . .... ..........................................",
".. ........... ...... ..........................................",
"... ................ ...........................................",
"....  ............  ............................................",
"......  ........  ..............................................",
"........        ................................................",
"................................................................",
"................................................................",
"................................................................",
"................................................................",
"................................................................",
"................................................................",
"................................................................",
"................................................................",
"................................................................",
"................................................................",
"................................................................",
"................................................................",
"................................................................",
"................................................................",
"................................................................",
"................................................................",
"................................................................",
"................................................................",
"................................................................",
"................................................................",
"................................................................",
"................................................................",
"................................................................",
"................................................................",
"................................................................",
"................................................................",
"................................................................",
"................................................................",
"................................................................"
};
