/* XPM */
static char *b87e65299dba441c86f0e6a8160015f5mew7UcDqs8lXxZ4i[] = {
/* columns rows colors chars-per-pixel */
"64 72 109 2 ",
"   c #2E395B",
".  c #313B5E",
"X  c #323E60",
"o  c #2E4058",
"O  c #34445E",
"+  c #374565",
"@  c #394466",
"#  c #344862",
"$  c #394965",
"%  c #3B4669",
"&  c #3D496B",
"*  c #424F71",
"=  c #4D5F77",
"-  c #4C5D7A",
";  c #52617E",
":  c #566583",
">  c #596686",
",  c #556881",
"<  c #5A6A86",
"1  c #5A6688",
"2  c #5B698A",
"3  c #5C7089",
"4  c #606D8D",
"5  c #61738E",
"6  c #637491",
"7  c #6B7C99",
"8  c #8DA2B7",
"9  c #93A4BE",
"0  c #96A7C4",
"q  c #9AAEC5",
"w  c #9DAEC9",
"e  c #9EB3C6",
"r  c #9FB4CB",
"t  c #9EBDCF",
"y  c #9EBDD1",
"u  c #9FBBD0",
"i  c #A0AFCC",
"p  c #A1B3C7",
"a  c #A1B6C7",
"s  c #A0B2C8",
"d  c #A1B3C9",
"f  c #A0B1CB",
"g  c #A0B2CA",
"h  c #A3B5C9",
"j  c #A1B6C9",
"k  c #A3B5CB",
"l  c #A0B1CD",
"z  c #A2B2CC",
"x  c #A3B3CD",
"c  c #A0B1CF",
"v  c #A1B2CE",
"b  c #A0B4CD",
"n  c #A3B5CD",
"m  c #A0B4CF",
"M  c #A2B6CE",
"N  c #A4B5CF",
"B  c #A3B8CD",
"V  c #A2BBCF",
"C  c #A4BBCD",
"Z  c #A4B9CE",
"A  c #A4BACF",
"S  c #A5BACF",
"D  c #A6BBCE",
"F  c #A1BCCD",
"G  c #A2BCCD",
"H  c #A1BCCF",
"J  c #A0BDCF",
"K  c #A1B2D0",
"L  c #A5B6D2",
"P  c #A6B7D3",
"I  c #A5B6D4",
"U  c #A6B7D5",
"Y  c #A8B7D4",
"T  c #A1B9D1",
"R  c #A3B9D0",
"E  c #A3B9D1",
"W  c #A0BBD0",
"Q  c #A0BAD1",
"!  c #A2BBD1",
"~  c #A3B8D3",
"^  c #A5B9D1",
"/  c #A4BAD1",
"(  c #A6BBD0",
")  c #A5B9D2",
"_  c #A7B8D2",
"`  c #A4BAD2",
"'  c #A0BCD1",
"]  c #A1BCD1",
"[  c #A0BCD2",
"{  c #A5BED2",
"}  c #A7B8D4",
"|  c #A7B8D6",
" . c #A5BDD5",
".. c #A7BDD4",
"X. c #A5BED4",
"o. c #A4BFD4",
"O. c #A4BED5",
"+. c #A8B9D3",
"@. c #A8BCD5",
"#. c #A8BCD7",
"$. c #ABBCD8",
"%. c #ABBCDA",
"&. c #ADBEDA",
"*. c #ADC1DA",
"=. c #ADC1DC",
"-. c #B0C1DD",
";. c #B0C1DF",
":. c #B2C3DF",
">. c #B2C3E1",
/* pixels */
"< < ; 3 r O.y [ [ [ ' ' ^ ^ S S S H H S H H H S H H S H H H H H H H H H H H H H H H H S H H H H S S ^ [ H H ' ' ' y y r 3 , < < ",
"< < < 3 r y y y [ [ ' ' [ S S S H H H H H H H ' H H H H F F S H S H H H S H S H H H H H H H H H S S ^ [ H t ' ' [ y *.r 3 , < < ",
"; 3 ; 3 r *.t ' y t t H H S S H H t H t H H H t H t H H t t t *.H t H H H H H H H J H H H H H H C C S H t t t t [ t } r 3 , < < ",
"3 3 ; 3 r o.H t t t H H H H C F H H H H H H H H H H H H t t t H H H H t t H t H J J J H H H H H F S S H t t t t [ H O.r 3 , < , ",
"; 5 ; 7 G *.t F H H H H C C C F H H H H H t H H t H H H J J H H H H H H H H t H H H H t H H H H F C C F H H H *.t t y r 3 , 3 , ",
"5 ; ; ; a *.F t H H H H H C C C H H H H H H H H H H H ' H H ' ' H H H ' H H H H H ' H H H H H H S C C H H H H ' t t *.r 3 ; ; 3 ",
"; 5 ; 5 a t F t ' ' ' [ [ S S H ^ [ [ ^ [ [ H ^ ' ' ( ' ' ' ' ( ' ' ' ' ^ ' H ' [ ^ ^ [ [ H [ S S S H [ H ' ' ' H t *.r 5 ; 3 3 ",
"5 ; ; 5 t *.t F ^ ( ^ ^ ^ ^ L S ^ ^ ^ ^ ^ ^ Y Y ^ ^ ^ } ^ ^ ^ ^ ^ ^ } ^ ^ ^ ^ ^ ^ ^ ^ ^ ^ ^ ^ N S ^ L ^ ^ ^ ^ ^ L [ ( C 5 ; < < ",
"@ @ @ @ $ O $ $ # # # # # O $ O + + + + # # @ @ O @ O @ @ # + + % $ + O % @ @ + + + O $ + + + + $ O $ O $ O O @ + + + + # @ + + ",
"@ @ @ @ @ @ $ @ + # # # + + $ $ + % + % + + X * @ @ @ @ @ + @ @ + + @ @ % X @ @ + + @ @ % % @ @ @ $ $ O O @ O @ # + @ @ @ @ @ @ ",
"@ @ @ @ @ * @ @ % @ % % @ @ @ $ % % % % % & % X * @ * X % % % % @ * * @ & & % % @ * * @ & % % % * O * . * @ @ @ @ @ @ % X * @ % ",
"@ @ X * @ . @ @ @ @ + + + @ + + % + + % X % X * X @ @ @ @ @ @ @ X @ X @ X + % + X @ X @ X % + + * . @ O @ O @ @ @ @ @ @ % X % @ ",
"@ @ @ @ @ @ @ @ 4 4 1 4 4 4 < 4 2 2 2 2 2 2 2 2 4 4 4 4 2 2 2 2 4 4 2 2 4 2 2 2 4 4 4 2 4 2 2 2 4 4 4 4 4 4 4 4 @ @ @ @ % @ % @ ",
"@ @ @ @ @ @ @ @ ; > > > : : : : 1 1 2 1 1 1 2 1 1 1 : : 1 1 2 1 1 > 1 1 1 1 1 1 > > 1 1 1 1 2 1 ; ; ; ; ; 4 ; 4 @ @ @ @ @ % @ @ ",
"@ @ @ @ @ @ . * 4 4 4 < 2 < < < 2 2 2 2 2 2 2 2 2 2 1 1 2 2 2 2 1 2 2 2 2 2 2 2 4 2 2 1 1 2 2 2 4 4 4 4 4 ; 4 4 @ @ * . X * @ @ ",
"@ @ @ @ @ @ @ . 4 ; < < < < < < 1 1 2 2 2 2 1 2 2 1 2 2 1 1 2 2 1 1 1 2 2 2 2 2 : 1 1 1 1 2 2 2 ; ; 4 ; ; 4 ; ; * @ @ @ @ X @ @ ",
"@ @ X @ 4 : 4 1 2 : 2 ; 2 ; 2 , 2 2 1 1 2 1 1 2 1 2 1 2 1 2 2 2 2 1 1 2 2 1 2 2 2 1 2 1 1 2 2 2 ; 5 ; 4 , 4 : 2 1 2 > 2 # @ @ + ",
"X @ * X 4 : 1 1 < ; 5 : 5 < 5 5 < 2 < 4 4 1 1 4 2 2 2 2 < 2 2 < 4 2 2 < 2 < 2 2 4 2 < 4 2 2 < 2 5 6 < 5 : 4 : : 1 2 < 2 + @ @ + ",
"* X * * 4 1 1 1 2 < 2 ; < = : ; : : : : < ; : : : < : , : < : : : : < : : : , : : : : : : : 1 : : : - < : 2 , 2 1 < 1 2 + % + + ",
"X * X X 1 1 2 < 2 < 2 ; 7 5 6 5 3 3 3 3 3 3 3 4 3 3 3 3 2 3 3 3 5 < 3 3 < 5 3 3 5 < 3 3 3 3 3 3 5 6 6 7 , 2 1 2 < 2 1 2 + % % + ",
"@ @ % + 4 1 1 1 < < < 4 0 w w e r e M r j e r r r r M e r r r r j e r e M r r e j r t r r M r r w w w 0 4 1 , 1 1 < : 4 + % + + ",
"@ @ % @ 2 1 2 2 < 2 : 5 L >.>.*.*.H *.( ( *.t *.( ( ( *.*.H *.( S *.t *.( ^ *.H ( ( ( S ' O.( o.=.;.>.| 6 1 2 1 2 < > 1 + % + + ",
"+ % % + 2 1 < 2 2 2 < 2 l } l g t H [ N L H H H ^ H [ H r t [ L R H t H ^ [ [ ^ ^ [ [ S ~ ~ u u r r | K 2 > 2 2 < 2 1 4 @ $ + + ",
"% + % @ 2 1 2 < < 2 : 2 L $.^ &.^ M ^ ^ ^ ^ ^ N ^ ^ L ^ ^ ^ ~ ~ L ^ ^ L ^ ^ L ^ ^ ^ ^ ^ I I U y &.| %.U 2 1 4 > < 2 1 < @ $ + + ",
"+ + % + 2 1 2 2 2 2 , 2 # % # + + # + # # + # # # # @ # # + # @ + + + # # + # # + + + + # # + + + + % # 2 < < 2 2 2 > 1 @ @ + @ ",
"% % % % 2 1 2 2 2 2 , 3 # # # $ + + @ @ % @ % + % + + @ % + + + @ + + + % + % @ + + + + + % + + + $ $ # 2 : 2 2 2 < > 4 @ + @ + ",
"% + % + 2 1 2 1 2 2 : 3 # % # # % % % % % % & % % % % % % % % $ % % % % % % % % % % % % % % % % + $ % # 2 < 2 < < 2 1 < @ $ + @ ",
"+ + % + 2 1 2 1 1 2 : 2 # % + + + @ @ @ + + @ @ X % % + % + % @ @ @ % @ % + % @ % % + % % % % + + + # + 2 1 2 < 1 2 : 4 + $ @ + ",
"+ % % + 2 1 2 1 1 3 , 2 # $ # + 2 2 2 2 2 4 2 2 4 2 2 2 2 4 2 2 2 2 2 2 2 2 2 2 2 2 2 2 2 2 2 2 + $ $ # 2 < < 2 1 < : 4 @ @ @ @ ",
"+ + % % 2 1 2 2 1 2 , 2 # $ + + : 2 1 < 1 1 1 , 1 1 1 < 1 1 1 < 2 : 2 < 1 > 1 1 1 : 2 1 2 1 1 , $ # % + 2 1 2 < < < > 1 O @ + $ ",
"% % % + 2 1 2 2 1 2 , 2 # $ + # 2 < 2 < 1 2 2 3 2 2 2 < 1 < 2 3 2 2 2 < 2 2 2 2 3 3 2 2 2 2 2 2 # % % # 2 < 2 2 2 2 > 4 @ @ @ + ",
"+ + % + 2 1 2 2 < 3 > 2 # @ @ # < 2 < < 2 , < < 1 1 , < < < < , , < < < , < < < , 2 , 3 , 2 2 1 % # % # < 1 2 < < 2 : 4 + $ + @ ",
"+ % & X 2 1 2 2 1 2 1 2 @ @ % % 4 5 ; 5 5 ; < < j g e e t q y 0 e ^ q M , 3 ; 3 1 < < 1 2 < 1 1 @ @ % @ 2 1 2 2 2 2 1 2 % % % X ",
"X % % % 2 1 2 2 2 2 1 2 @ % % X ; ; 5 ; ; 5 ; < g a e e q r q c S r q j < 3 < , < < 2 < 2 1 4 1 @ @ % @ 2 1 2 2 2 2 2 2 + % % % ",
"& % % + 2 2 2 2 2 2 1 2 @ % % % 4 ; ; 5 ; 5 < ; k k r C r e c c e e M C 3 ; 5 3 1 < < 1 1 1 1 2 @ % % + 2 2 2 2 2 2 1 2 X % % X ",
"& X % + 2 2 2 1 2 2 1 2 + % % X 4 4 5 5 ; ; < < g g r e e r c c e e q 8 5 < , ; < < 2 < 4 1 2 1 @ % % + 2 1 2 2 2 2 1 2 % % % & ",
"X X & % 2 1 2 2 2 2 1 2 % % % % ; 4 ; 5 1 < < < $ # $ $ % % % % $ * O ; 9 +.N +.; 4 < < > 4 1 1 @ % % + 2 1 2 2 2 2 1 2 % % % X ",
"& & & X 2 2 2 2 2 2 1 2 + % % + 4 ; 4 ; < < < 1 + O O O X X X X O $ O O a D q g 4 ; < < > > 4 > @ @ % + 2 1 2 2 2 2 1 2 % % % % ",
"X % & % 2 2 2 2 2 2 1 2 X & % % 5 ; ; 5 < < 2 < # % % % % % % % o O $ $ w w i Y > 4 > 4 4 > ; 4 @ % % @ 4 1 1 2 2 2 1 2 % % % X ",
"& % & X 2 1 2 2 2 2 2 2 + + % % ; ; 5 ; < < < 2 % + + # % X % % $ O O + z z Y i > > > > > > 4 4 X % % % 2 1 2 1 2 2 1 4 X % % & ",
"& X & X 4 1 2 1 2 4 1 4 X % X % 5 ; 5 ; 4 ; 4 4 % % X % % % % X $ $ $ $ $ $ @ @ ; 7 ; ; 4 ; 4 ; & X % % 2 1 2 2 2 2 1 2 % & % X ",
"X & & & 4 1 2 1 1 2 1 1 % % % + ; 5 ; 5 ; 6 4 ; % % % % X % % % $ O $ O O O O $ ; ; ; 7 4 ; > 4 % % % % 2 1 2 2 2 2 2 2 X & & & ",
"& X * & 2 1 4 1 1 4 1 1 % % % + 5 ; 5 ; 4 ; 4 4 X % % % % % % X @ $ @ @ @ @ @ @ 4 4 4 ; 4 4 4 ; X & % X 2 2 2 2 2 2 1 2 X & X & ",
"X * X X 4 1 2 1 1 1 1 4 X % % % ; 5 ; 5 4 4 4 ; % % X % % % % % @ @ @ @ @ @ @ @ ; ; 4 5 ; 4 > 4 % % % % 2 1 2 2 2 2 1 2 & & & X ",
"X & * X 2 1 2 2 4 > > 1 @ @ @ @ 4 ; ; 1 ; ; 4 ; % % % % % X % X @ @ @ @ @ @ @ @ 4 ; 4 4 ; 4 ; 4 X X & % 2 1 2 2 2 2 1 2 X % X & ",
"& X % & 2 1 2 2 1 1 > 4 @ @ @ @ 1 4 4 1 4 4 4 4 X % % X % % % % @ @ @ @ @ @ @ @ 4 4 ; 4 ; 4 4 1 & % & X 2 1 2 2 2 2 1 2 & & & X ",
"X & & X 2 1 2 2 1 4 > 1 @ * @ @ 1 4 ; 4 ; 4 ; 4 % % % % % % % % @ @ @ @ @ @ @ @ ; ; 4 4 4 4 ; 1 X % & % 2 2 2 2 2 2 1 2 X & X & ",
"X & & X 2 2 2 2 4 1 1 4 @ @ @ @ 4 ; 4 1 4 4 ; 4 % % X X % % % % @ @ @ @ @ @ @ @ 4 4 4 ; ; 4 4 1 & % & X 2 1 2 2 2 2 1 4 & & & X ",
"* * X * 4 1 2 2 2 2 1 2 % % % % 2 2 1 2 2 1 1 1 & % % % X % % X % % % % % % % % 4 1 1 2 1 2 2 2 & X * X 2 2 2 2 2 2 1 2 % % % % ",
"X X * X 2 1 2 2 2 2 2 2 % % % X 2 2 2 1 1 1 1 4 % % % % % % % % X % X % X % % % 1 1 4 1 2 2 2 2 X & & & 2 1 2 2 2 2 2 2 % % % % ",
"X X X X 2 1 2 2 2 2 2 2 % % % % 2 1 1 2 1 1 1 1 % % % % % % & & % % % % % % % % 1 1 2 2 1 2 2 1 % & % X 2 1 2 1 2 2 1 2 % % X % ",
"* * X * 2 1 2 2 2 2 1 2 % % X % 2 1 2 1 4 1 4 4 % X % % % % % & % % % X % % % % 4 1 2 1 2 2 2 2 X X & % 2 1 2 2 2 2 1 2 X % % % ",
"X * X X 4 1 1 1 2 2 2 2 X % % % 1 2 2 2 1 1 1 1 1 1 2 4 2 2 2 2 1 1 1 2 2 2 2 4 1 1 4 1 1 1 1 1 & % & X 4 1 2 2 1 2 1 2 % % % % ",
"X X : X 2 1 4 1 2 2 1 2 % % X % 1 2 2 2 1 1 1 1 1 1 1 1 1 1 1 1 1 1 1 1 1 1 1 1 1 1 4 1 2 2 2 2 & X & & 2 1 2 2 1 2 1 2 % % % X ",
"* X * X 2 1 2 2 2 2 1 2 % % % % 2 2 1 2 1 1 1 1 1 1 2 2 2 2 2 2 2 2 2 2 2 2 2 2 2 4 1 1 1 2 1 1 & X * X 4 1 2 2 1 2 1 1 % % % % ",
"X * X & 2 1 2 2 2 2 2 2 X & X % 1 2 2 2 1 1 1 1 1 1 1 2 1 2 2 2 2 2 2 2 1 2 2 2 2 1 1 1 1 1 1 1 X & & X 2 1 2 2 2 2 1 1 % % % X ",
"% % % % 2 1 2 2 2 1 2 1 % X % X % X % % X % % % X % % % % % % % % % % X % % X % X % % % % % % % % % X % 1 2 1 2 2 2 1 2 % % % % ",
"X % % % 2 2 2 2 1 1 1 1 & % & % % % % % % % % % % % % % % % % % % % % % % % % % % % % X X % X % % & % & 1 2 1 2 2 2 2 2 % % % % ",
"% % % % 2 1 2 2 2 1 2 1 & X X X % % & & % % % % % % % % % % % % % % % % % % % % % % % & % % % % X X X % 1 1 1 2 2 2 1 2 % % % % ",
"% % % % 2 1 2 2 2 1 2 1 * & & & % % % & X % % % % % X % % X % & % % X % X % % % % % % % % % % % % & % * 1 1 2 2 2 2 1 2 % % % X ",
"% % % % 2 1 2 2 1 1 2 2 1 1 1 1 2 4 2 2 2 2 4 2 1 1 1 1 2 2 2 2 2 2 2 2 1 1 1 1 2 2 2 2 2 2 2 2 1 1 1 1 2 2 2 2 2 2 1 2 X % % % ",
"% X % X 2 1 2 2 1 2 2 2 1 1 2 1 1 1 1 1 1 1 1 1 1 1 1 1 1 1 2 1 1 1 1 1 1 1 1 1 1 1 1 1 1 1 1 1 2 2 1 1 2 2 2 1 1 2 1 2 % % % X ",
"% X % % 2 1 2 2 2 2 1 1 1 1 1 1 2 2 2 2 2 2 2 2 2 2 1 1 2 2 2 2 2 2 2 2 2 2 4 1 2 2 2 2 2 2 2 2 1 1 1 1 1 1 2 2 2 2 1 1 X % % % ",
"% % % % 2 2 2 2 2 4 1 1 4 2 1 1 1 2 2 2 2 2 2 1 2 2 2 1 2 2 2 2 2 2 2 2 2 1 2 2 2 2 2 2 2 2 2 1 1 2 2 2 2 2 2 2 2 2 1 1 % % % % ",
"% % % % % X % % 4 4 1 4 1 4 4 1 4 1 1 4 1 4 1 4 1 1 4 1 1 4 1 4 4 1 4 1 4 1 4 1 4 1 1 4 2 4 1 4 1 4 4 4 1 1 1 4 % . % % % % % % ",
"% % % % % % % % 1 1 1 1 1 1 1 1 1 1 1 1 1 1 1 1 1 1 1 1 1 1 1 1 1 1 1 1 1 1 1 1 1 1 1 1 1 1 1 1 1 1 1 1 1 1 1 1 % % % % % % % % ",
"% % % % % % % % 1 1 1 1 1 1 4 1 1 1 1 1 1 1 1 1 4 1 1 1 4 1 1 1 1 1 1 1 1 1 4 1 1 1 1 1 1 2 1 1 1 1 4 1 4 1 1 4 % % % % % % % % ",
"X X X % X % X . 1 1 1 1 4 1 1 4 1 4 1 4 1 1 1 1 1 4 1 4 1 1 1 4 1 1 1 1 4 1 1 1 4 4 1 4 1 1 1 1 2 2 4 1 1 1 4 1 % . % . . % . % ",
". . . . . . . .                 . . .                   . . . .                 . .                     . . . . . . . . . . . . ",
".       . . . .     . .   .   . . . . .             .   . . . .                 . .             .       . . . .     . . .   .   ",
"                  . .   . . . . . . . .   . . .     .       . .   . .     . . . . . . .   .   . . . . . . . . .                 ",
"      . .   .                   . . . .                                                                   . . . .   .   . . .   "
};
